<svg xmlns="http://www.w3.org/2000/svg" viewBox="0 0 364.64 153.82"><defs><style>.cls-1{fill:#754c29;}.cls-2{fill:#332429;}.cls-3{fill:#c9c9c9;}.cls-4{fill:#c49a6c;}.cls-5{fill:#b27685;}.cls-6{fill:#e2a1b0;}.cls-7{fill:#8b5e3c;}.cls-8{fill:#fff;}.cls-9{fill:#3f2222;}.cls-10{fill:#d44c4c;}.cls-11{fill:#fffbe9;}.cls-12{fill:#dba2a2;}.cls-13{fill:#ffdbb8;}.cls-14{fill:#f9c9d3;}</style></defs><g id="Layer_2" data-name="Layer 2"><g id="Layer_1-2" data-name="Layer 1"><path class="cls-1" d="M359.27,112.3a2.52,2.52,0,0,1-2.75-.82c-6.59-8.26-9.35-16.2-8.19-23.62.95-6.06,4.28-9.93,7-13,2.24-2.61,4-4.66,4.27-7.36.48-4.89-4.12-13.35-28.72-25.86a2.52,2.52,0,1,1,2.29-4.49C355.22,48.34,365.51,58.43,364.58,68c-.42,4.29-3,7.27-5.46,10.15S354,84,353.32,88.64c-.94,6,1.47,12.59,7.14,19.69a2.52,2.52,0,0,1-.4,3.54A2.35,2.35,0,0,1,359.27,112.3Z"/><path class="cls-1" d="M355.68,129.69c.81-1.54.92-8.77-1.87-11.49-2.56-2.81-4-6.7-.63-10.94s16.61,2.3,7.13,17.93a7.5,7.5,0,0,0-1.19-5.27C360,124,355.68,129.69,355.68,129.69Z"/><path class="cls-1" d="M287.05,148.49l-8.31-9.15A24,24,0,0,1,272.45,120c1-8.1,5.56-14.91,11.92-17.8l17.51-8.14-1-1.18,6.59-10.33,19.49,5.79c6.31,2.08,10.47,5.53,10,12.15,0,0,0,.1,0,.15-.43,5.85-3.63,11-8.18,13.07L305.71,124l2.79,3.9Z"/><path class="cls-2" d="M297.27,136.9c-4.09,3.5-8.16,6.74-12.14,9.58l4.22,4.92a35.23,35.23,0,0,0,22.77-19.64L308,126.94C304.7,130.25,301.14,133.59,297.27,136.9Z"/><path class="cls-1" d="M193.12,102.9a21,21,0,0,0,.14-6.57A20.67,20.67,0,0,0,188,85.18L177,73.11l-23.3,21.34L155.07,96l-11.61,5.91a20.85,20.85,0,0,0-3.56,2.3,20.75,20.75,0,0,0,7.77,36.28l39.18,10.15,7.93-30.58-11.54-3A20.55,20.55,0,0,0,193.12,102.9Z"/><path class="cls-2" d="M190.73,134.89c-1.54,5.46-3.24,10.61-5,15.44l6.24,1.74a38.38,38.38,0,0,0,8.49-30.47l-6.12-1.71C193.35,124.71,192.18,129.72,190.73,134.89Z"/><path class="cls-3" d="M192.76,126.32l-35.39-9,2.87-2.43a8.56,8.56,0,0,1,7.63-1.75l26.52,6.72Z"/><path class="cls-4" d="M343.22,49.12c-1.71-8.6-5.56-19.57-14.47-28.65-2.09-2.13-8.57-8.35-21-12.9.35,6-11.49,10.06-9.3,21C294.3,33.66,285.34,43,272.18,44.94,251,48,226.69,30.62,216.92.79a161.55,161.55,0,0,0-17,2,196.06,196.06,0,0,0-22.73,5.13c-8.16,2.48-30.34,8.79-39.68,22.15-11.75,16.82-7.39,45.43,9.88,71.8a124.31,124.31,0,0,0,12.17,5.94A91.32,91.32,0,0,0,170.76,112H290.85a53.63,53.63,0,0,0,53.6-53.6h0A72.88,72.88,0,0,0,343.22,49.12Z"/><path class="cls-5" d="M296.16,118.89c1.45,0,3.12.14,5,.32a13,13,0,0,0,2.24-7.24H269a12.65,12.65,0,0,0,.52,3.55,32.6,32.6,0,0,0,3.77,1.61C281.26,120,287,118.6,296.16,118.89Z"/><path class="cls-6" d="M301.15,119.21c-1.87-.18-3.54-.27-5-.32-9.17-.29-14.9,1.07-22.86-1.76a32.6,32.6,0,0,1-3.77-1.61,13.35,13.35,0,0,0,1.82,3.83,9.6,9.6,0,0,0-1.13,2.36c-.86,2.58-.75,5.12.25,5.67s2.52-1.1,3.39-3.69c.13-.41.24-.82.33-1.22a16.81,16.81,0,0,0,2.54,1.75,12.16,12.16,0,0,0-.63,2.8c-.34,3.12.43,5.83,1.72,6.06s2.6-2.13,2.93-5.24a12.64,12.64,0,0,0,.07-1.92,20.09,20.09,0,0,0,5.38.73c.32,0,.63,0,.94,0,0,.2.05.4.08.6.57,3.58,1.88,6.22,2.93,5.9s1.46-3.48.89-7v0a18.56,18.56,0,0,0,4.87-2c1.52,3.54,3.28,5.81,4.12,5.19s.46-4-.82-7.71A15.5,15.5,0,0,0,301.15,119.21Z"/><path class="cls-7" d="M201.78,96.63a437.63,437.63,0,0,0,57.7,3.79,437.72,437.72,0,0,0,59-4c-6.89,4.29-13.94,11.71-25.05,15.58H196.77a40,40,0,0,0,2.76-7.61C200.27,101.42,201.68,98.78,201.78,96.63Z"/><path class="cls-8" d="M234.19,34.32c5.46,8.22,22.08,12.69,38,10.62,14.22-1.85,25.17-8.58,26.25-16.41-2.19-10.9,9.65-15,9.3-21-.81-.3-1.64-.58-2.5-.86-22.59-7.35-59-7.46-88.31-5.92-1,.46-2.13.91-3.38,1.34C191.67,9.8,180.5,34.92,234.19,34.32Z"/><path class="cls-8" d="M216.74,89.36c7.39-1.65,9.95,3.55,14.34,1.56s13.94-11.6,12.63-22S236,64.85,230.89,57.57s-20.63-9.65-19.08,9.37c-4.87,2.45-7.21,8.64-5.61,14.15C207.64,86,212,89.48,216.74,89.36Z"/><path class="cls-4" d="M339,88.29l-12.61-13.2L318.49,96.4s-21.09,9.79-23.28,10.7c-7.09,2.75-11.39,7.22-12.13,15.35a24.81,24.81,0,0,0,6.3,19.31l8.31,9.15,21.44-20.64-2.78-3.9,23.07-10.21a13.1,13.1,0,0,0,5.09-4.35l.06,0a11.52,11.52,0,0,0,2-3.83c.05-.12.1-.24.14-.36h0a20.55,20.55,0,0,0,.72-4.14s0-.09,0-.14C347.8,96.7,339,88.29,339,88.29Z"/><path class="cls-8" d="M322,51.28c-2.54,4-1,3.72-3.48,9.7-2,4.89-5.39,4.57-8.16,9.47-3,5.35-2.1,16.86,1.29,19.93,4.17,3.79,15.6,5.86,22.13-.21C344.63,80.1,346.05,59.79,343.92,52a6.91,6.91,0,0,0-3.22-4.56,10.52,10.52,0,0,0-2.39-.92C332.37,45,325,46.62,322,51.28Z"/><path class="cls-8" d="M154.67,90.19c-1.64-2.28-5.25-5.3-10.11-8-1.87,6.15-4.38,10-7,9.86a3.15,3.15,0,0,1-2-.85,26.82,26.82,0,0,0,8.5,9.44,35.62,35.62,0,0,0,8.89,4.1C154.2,98.83,157.9,94.69,154.67,90.19Z"/><path class="cls-4" d="M192.21,116c5.22-3.06,8.34-6.92,9.43-12.93a20.88,20.88,0,0,0,.16-6.4s0-.07,0-.11a20.67,20.67,0,0,0-5.26-11.15L185.53,73.33l-23.3,21.34,1.42,1.55-11.6,5.91a20.55,20.55,0,0,0-3.57,2.3h0c-5.5,4.37-8,9.92-7.26,17.14a20.61,20.61,0,0,0,15.42,17.84l39.19,10.15L203.75,119Z"/><path class="cls-2" d="M199.7,133.81c-1.53,5.46-3.24,10.61-5,15.44l6.25,1.74a38.48,38.48,0,0,0,8.49-30.47l-6.13-1.71C202.32,123.63,201.15,128.64,199.7,133.81Z"/><path class="cls-7" d="M201.73,125.24l-35.39-9,2.87-2.43a8.56,8.56,0,0,1,7.63-1.75l26.52,6.72Z"/><path class="cls-9" d="M144.56,82.16a85.36,85.36,0,0,0,3.17-21.08c.65-17.27-2.86-31.43-7.83-31.62s-9.53,13.67-10.17,30.95a96.76,96.76,0,0,0,.67,16.13c.19,1.35.4,2.65.64,3.87,1.05,5.28,2.64,9.14,4.56,10.76a3.15,3.15,0,0,0,2,.85C140.18,92.12,142.69,88.31,144.56,82.16Z"/><path class="cls-10" d="M142.45,78.57A75.76,75.76,0,0,0,144.91,61c.51-14.38-2.22-26.16-6.1-26.32s-7.42,11.38-7.92,25.76a85.11,85.11,0,0,0,.52,13.43c.15,1.13.31,2.21.5,3.22.82,4.4,2.06,7.62,3.55,9a2.44,2.44,0,0,0,1.53.7C139,86.87,141,83.69,142.45,78.57Z"/><path class="cls-11" d="M137.55,56.13l-6.11-.33s0-.1,0-.14a5.83,5.83,0,1,0-10.59,3,5.83,5.83,0,1,0,10.2,4.18v-.14l6.12.33a13.58,13.58,0,0,0,.65-3.34A12.82,12.82,0,0,0,137.55,56.13Z"/><path class="cls-12" d="M139.59,78.17a.72.72,0,0,0,.7-.62A100,100,0,0,0,142.46,61a98.81,98.81,0,0,0-.52-15.49.69.69,0,0,0-.76-.68.83.83,0,0,0-.59.92,96.29,96.29,0,0,1,.51,15.19A97.31,97.31,0,0,1,139,77.18a.81.81,0,0,0,.48,1Z"/><path class="cls-2" d="M307.91,139.32c-4.1,3.5-8.16,6.74-12.14,9.58l4.22,4.92a35.92,35.92,0,0,0,13.93-7.57,35.56,35.56,0,0,0,8.83-12.07l-4.14-4.82C315.33,132.67,311.78,136,307.91,139.32Z"/><path class="cls-7" d="M311.75,123.25s3.28,1.28,4.6,3.12c13.54-5.58,19.44-7.93,23.64-10.44a14,14,0,0,0,4.81-4.52,105.92,105.92,0,0,1-16.53,7.48A105.37,105.37,0,0,1,311.75,123.25Z"/><g id="Head"><path class="cls-7" d="M12.61,56.72A37,37,0,0,0,.43,90.23,20.48,20.48,0,0,0,8.17,84a20.5,20.5,0,0,0,4-9.89Q12.38,65.42,12.61,56.72Z"/><path class="cls-13" d="M55.69,32.41a37.47,37.47,0,0,1,.47-9.48,36.94,36.94,0,0,1,4-11.2,52.67,52.67,0,0,1,6.39,13,52.94,52.94,0,0,1,2.63,17.41Z"/><path class="cls-13" d="M19.82,53A36.9,36.9,0,0,0,12,47.52,37.08,37.08,0,0,0,.75,43.8,52.71,52.71,0,0,0,19.3,69.56Z"/><path class="cls-4" d="M96.05,58.66A46.93,46.93,0,0,0,59.48,32.42,45.84,45.84,0,0,0,11,62.65,46.64,46.64,0,0,0,13.34,99l.31.62v0c10.91,22.22,38.24,31.16,61.05,20s32.46-38.28,21.56-60.5h0Z"/><ellipse class="cls-14" cx="56.12" cy="107.61" rx="25.81" ry="19.18" transform="translate(-41.66 35.73) rotate(-26.14)"/><circle class="cls-5" cx="43.66" cy="114.34" r="3.67"/><circle class="cls-5" cx="63.31" cy="104.7" r="3.67"/><path class="cls-7" d="M61.51,32.71a37,37,0,0,1,33.92,11A20.36,20.36,0,0,1,75.52,43Z"/><path class="cls-9" d="M28.6,88.32l0-6.4a2.07,2.07,0,0,0-1.59-2,1.34,1.34,0,0,0-1.57,1.44l0,5.16L20.94,84a1.34,1.34,0,0,0-2,.67,2.06,2.06,0,0,0,1,2.35l5.57,3.16,0,6.41a2,2,0,0,0,1.58,2A1.33,1.33,0,0,0,28,98.4a1.42,1.42,0,0,0,.66-1.28l0-5.16L33.1,94.5a1.43,1.43,0,0,0,1.45,0,1.32,1.32,0,0,0,.57-.71,2.07,2.07,0,0,0-.95-2.36Z"/><path class="cls-9" d="M63.78,69.21l0-6.41a2.07,2.07,0,0,0-1.57-2,1.35,1.35,0,0,0-1.59,1.42l0,5.16-4.46-2.59a1.34,1.34,0,0,0-2,.64,2.07,2.07,0,0,0,.93,2.37L60.61,71l0,6.4a2,2,0,0,0,1.56,2,1.33,1.33,0,0,0,.91-.14A1.41,1.41,0,0,0,63.72,78l0-5.16,4.46,2.59a1.45,1.45,0,0,0,1.45.06,1.34,1.34,0,0,0,.58-.71,2,2,0,0,0-.93-2.36Z"/></g></g></g></svg>