<svg xmlns="http://www.w3.org/2000/svg" viewBox="0 0 287.95 169.33"><defs><style>.cls-1{fill:#8b5e3c;}.cls-2{fill:#754c29;}.cls-3{fill:#332429;}.cls-4{fill:#c9c9c9;}.cls-5{fill:#c49a6c;}.cls-6{fill:#b27685;}.cls-7{fill:#e2a1b0;}.cls-8{fill:#fff;}.cls-9{fill:#ffdbb8;}.cls-10{fill:#f9c9d3;}.cls-11{fill:#d44c4c;}.cls-12{fill:#3f2222;}</style></defs><g id="Layer_2" data-name="Layer 2"><g id="Layer_1-2" data-name="Layer 1"><path class="cls-1" d="M282.58,127.81a2.52,2.52,0,0,1-2.75-.82c-6.59-8.26-9.35-16.2-8.19-23.62.95-6.06,4.28-9.93,7-13.05,2.24-2.6,4-4.65,4.27-7.35.48-4.89-4.12-13.35-28.72-25.86a2.52,2.52,0,1,1,2.29-4.49c22.09,11.23,32.38,21.32,31.45,30.84-.42,4.29-3,7.27-5.46,10.15s-5.08,5.9-5.8,10.54c-.94,6,1.47,12.59,7.14,19.69a2.51,2.51,0,0,1-.4,3.54A2.35,2.35,0,0,1,282.58,127.81Z"/><path class="cls-1" d="M279,145.2c.81-1.54.92-8.77-1.87-11.49-2.56-2.81-4-6.7-.63-10.94s16.61,2.3,7.13,17.93a7.5,7.5,0,0,0-1.19-5.27C283.36,139.5,279,145.2,279,145.2Z"/><path class="cls-2" d="M210.36,164l-8.31-9.15a24,24,0,0,1-6.29-19.31c1-8.1,5.56-14.91,11.92-17.8l17.51-8.15-1-1.17,6.59-10.33,19.49,5.79c6.31,2.08,10.47,5.53,10,12.15,0,0,0,.1,0,.15-.43,5.85-3.63,11-8.18,13.07L229,139.46l2.79,3.9Z"/><path class="cls-3" d="M220.58,152.41c-4.09,3.5-8.16,6.74-12.14,9.58l4.22,4.92a35.23,35.23,0,0,0,22.77-19.64l-4.15-4.82C228,145.76,224.45,149.1,220.58,152.41Z"/><path class="cls-2" d="M116.43,118.41a21,21,0,0,0,.14-6.57,20.67,20.67,0,0,0-5.26-11.15l-11-12.07L77,110l1.42,1.55-11.6,5.91A20.75,20.75,0,0,0,71,156l39.18,10.15,7.93-30.58-11.54-3A20.57,20.57,0,0,0,116.43,118.41Z"/><path class="cls-3" d="M114,150.4c-1.54,5.46-3.24,10.61-5,15.44l6.24,1.74a38.38,38.38,0,0,0,8.49-30.47l-6.12-1.71C116.66,140.22,115.49,145.23,114,150.4Z"/><path class="cls-4" d="M116.07,141.83l-35.39-9,2.87-2.43a8.56,8.56,0,0,1,7.63-1.75l26.52,6.72Z"/><path class="cls-5" d="M265.17,63.58C263.46,55,259.61,44,250.7,34.93c-2.09-2.13-8.57-8.35-21-12.9.35,6-11.49,10.06-9.3,21-4.13,5.13-13.1,14.51-26.25,16.41C173,62.45,148.64,45.08,138.87,15.25c-16.16.85-64.08,8.63-77.43,28.8a60.33,60.33,0,0,0-9.77,35.32c.17.63.34,1.31.49,2s.27,1.43.38,2.19C63.84,89,72,97.72,74.06,102.53c2.19,5.09-2.32,8.34-4.76,13.82a124.31,124.31,0,0,0,12.17,5.94,87.54,87.54,0,0,0,11.24,4.14H212.8a53.63,53.63,0,0,0,53.6-53.6h0A74.76,74.76,0,0,0,265.17,63.58Z"/><path class="cls-6" d="M219.47,134.4c1.45,0,3.12.14,5,.32a13,13,0,0,0,2.24-7.24H192.32a12.65,12.65,0,0,0,.52,3.55,32.6,32.6,0,0,0,3.77,1.61C204.57,135.47,210.3,134.1,219.47,134.4Z"/><path class="cls-7" d="M224.46,134.72c-1.87-.18-3.54-.27-5-.32-9.17-.3-14.9,1.07-22.86-1.76a32.6,32.6,0,0,1-3.77-1.61,13.48,13.48,0,0,0,1.82,3.83,9.6,9.6,0,0,0-1.13,2.36c-.86,2.58-.75,5.12.25,5.67s2.52-1.1,3.39-3.69c.13-.41.24-.82.33-1.22a16.81,16.81,0,0,0,2.54,1.75,12.16,12.16,0,0,0-.63,2.8c-.34,3.12.43,5.83,1.72,6.06s2.6-2.13,2.93-5.25a12.47,12.47,0,0,0,.07-1.91,20.09,20.09,0,0,0,5.38.73c.32,0,.63,0,.94,0,0,.2.05.4.08.6.57,3.58,1.88,6.22,2.93,5.9s1.46-3.48.89-7.06h0a18.77,18.77,0,0,0,4.88-2c1.51,3.54,3.27,5.81,4.11,5.19s.46-3.95-.82-7.71A15.5,15.5,0,0,0,224.46,134.72Z"/><path class="cls-1" d="M125.09,112.14a439.35,439.35,0,0,0,57.7,3.79,437.72,437.72,0,0,0,59-4c-6.89,4.29-13.94,11.71-25.05,15.58H120.08a40,40,0,0,0,2.76-7.61C123.58,116.93,125,114.29,125.09,112.14Z"/><path class="cls-8" d="M157.5,49.83c5.46,8.22,22.08,12.69,38,10.62,14.22-1.85,25.17-8.58,26.26-16.41-2.19-10.9,9.64-15,9.29-21-.81-.3-1.64-.58-2.5-.86-22.59-7.35-59-7.46-88.31-5.92-1,.46-2.13.91-3.38,1.34C115,25.31,103.81,50.43,157.5,49.83Z"/><path class="cls-1" d="M100.16,54.77,99.61,54l-3-5.37C87.73,26.71,66.1,13.35,43.63,19.45A46.79,46.79,0,0,0,9.69,69.59q.86,3.39,1.7,6.79v0C16.85,98.16,37.66,104.7,60,107.82a25.71,25.71,0,0,0,2.9,3.66c5.09,5.3,12.84,8.67,20,11.86l1.44.62L83,112.59c-1-4.48,2.32-9.66,4.56-11.59C101.88,91.6,104.65,72.72,100.16,54.77Z"/><path class="cls-8" d="M77.78,105.45c-3.24-4.26-12.93-10.86-24.9-13.62,2.23,5.79,4.11,13.24,9,19.2l2.52-.7A93.61,93.61,0,0,0,77.78,105.45Z"/><path class="cls-8" d="M140.05,104.87c7.39-1.65,9.95,3.55,14.34,1.56s13.94-11.6,12.63-22-7.68-4.07-12.82-11.35-20.63-9.65-19.08,9.37c-4.87,2.45-7.21,8.63-5.61,14.15C131,101.53,135.28,105,140.05,104.87Z"/><g id="Head"><path class="cls-1" d="M18.92,34.05A37,37,0,0,0,0,64.28a20.53,20.53,0,0,0,8.87-4.47,20.46,20.46,0,0,0,6-8.84Q16.88,42.51,18.92,34.05Z"/><path class="cls-9" d="M66.14,19.3a36.88,36.88,0,0,1,2.44-9.18A37.37,37.37,0,0,1,74.79,0a52.61,52.61,0,0,1,3.53,14.06,52.9,52.9,0,0,1-1.07,17.59Z"/><path class="cls-9" d="M26.76,31.88a36.92,36.92,0,0,0-6.48-6.94,36.84,36.84,0,0,0-10.25-6A52.7,52.7,0,0,0,13.55,33a53.2,53.2,0,0,0,9.22,15Z"/><path class="cls-5" d="M98.52,47.06A46.8,46.8,0,0,0,43.2,19.28,46.79,46.79,0,0,0,9.26,69.42L11,76.2v0c6,24,30.86,38.48,55.51,32.3s39.76-30.64,33.75-54.65h0Z"/><ellipse class="cls-10" cx="50.83" cy="92.92" rx="25.81" ry="19.18" transform="translate(-21.05 15.13) rotate(-14.06)"/><circle class="cls-6" cx="37.23" cy="96.89" r="3.67"/><circle class="cls-6" cx="58.46" cy="91.58" r="3.67"/><path class="cls-1" d="M71.76,20.8a37,37,0,0,1,30.88,17.84,20.34,20.34,0,0,1-19.33-4.81Z"/></g><path class="cls-8" d="M64.16,113.53a25,25,0,0,0,3.25,2.59,35.62,35.62,0,0,0,8.89,4.1c.89-4.35,3.14-7.74,3-11a55.77,55.77,0,0,1-14.19,4.21Z"/><path class="cls-5" d="M262.42,103.67,245.93,95l-4.1,16.91s-21.26,9.69-23.49,10.42c-7,2.48-11.21,7.48-12,15.61a24.81,24.81,0,0,0,6.3,19.31l8.31,9.15,21.44-20.64-2.78-3.9,23.07-10.21a13.13,13.13,0,0,0,5.21-4.5h0c2.26-2.79,2.68-6.74,2.79-8.32a.66.66,0,0,0,0-.14C271.2,112.07,268.09,108.26,262.42,103.67Z"/><path class="cls-5" d="M115.52,131.5c5.22-3.06,8.34-6.92,9.43-12.93a20.62,20.62,0,0,0,.16-6.36.79.79,0,0,0,0-.09A20.7,20.7,0,0,0,119.89,101l-11-12.06-23.3,21.33L87,111.79,75.35,117.7A21.34,21.34,0,0,0,71.8,120h0c-5.48,4.36-8,9.86-7.26,17.07A20.61,20.61,0,0,0,80,154.92l39.19,10.15,7.92-30.58Z"/><path class="cls-3" d="M123,149.32c-1.53,5.46-3.24,10.61-5,15.44l6.25,1.74A38.48,38.48,0,0,0,132.71,136l-6.13-1.71C125.63,139.14,124.46,144.15,123,149.32Z"/><path class="cls-1" d="M125,140.75l-35.39-9,2.87-2.43a8.57,8.57,0,0,1,7.63-1.75l26.52,6.72Z"/><path class="cls-3" d="M231.22,154.83c-4.1,3.5-8.16,6.74-12.14,9.58l4.22,4.92a35.92,35.92,0,0,0,13.93-7.57,35.56,35.56,0,0,0,8.83-12.07l-4.14-4.82C238.64,148.18,235.09,151.52,231.22,154.83Z"/><path class="cls-1" d="M235.06,138.76s3.28,1.28,4.6,3.12c13.54-5.58,19.44-7.93,23.64-10.44a14,14,0,0,0,4.81-4.52,105.92,105.92,0,0,1-16.53,7.48A105.37,105.37,0,0,1,235.06,138.76Z"/><path class="cls-8" d="M245.33,66.79c-2.54,4-1.05,3.72-3.48,9.7-2,4.89-5.39,4.57-8.16,9.47-3,5.35-2.1,16.86,1.29,19.93,4.17,3.79,15.6,5.86,22.14-.21,10.82-10.07,12.24-30.38,10.11-38.21A6.91,6.91,0,0,0,264,62.91a10.62,10.62,0,0,0-2.38-.92C255.68,60.51,248.26,62.13,245.33,66.79Z"/><path class="cls-11" d="M84,101.87a42.17,42.17,0,0,1-6.26,3.58,93.61,93.61,0,0,1-13.41,4.88l-2.52.7a25.72,25.72,0,0,0,2.31,2.5l.9-.13a55.77,55.77,0,0,0,14.19-4.21,35.71,35.71,0,0,0,7.09-4.31A46.08,46.08,0,0,0,99.45,86.36C94.71,92.1,89.91,97.44,84,101.87Z"/><path class="cls-12" d="M26.45,65.49l1.49-6.23A2.06,2.06,0,0,0,26.87,57,1.35,1.35,0,0,0,25,58l-1.2,5L20,59.47a1.34,1.34,0,0,0-2.12.17,2.06,2.06,0,0,0,.37,2.51L23,66.54l-1.49,6.23a2,2,0,0,0,1.08,2.3,1.32,1.32,0,0,0,.91.07,1.44,1.44,0,0,0,.95-1.09l1.2-5,3.76,3.54a1.43,1.43,0,0,0,1.39.38,1.28,1.28,0,0,0,.73-.56,2.05,2.05,0,0,0-.37-2.51Z"/><path class="cls-12" d="M65.15,55.24,66.7,49a2.05,2.05,0,0,0-1-2.31,1.35,1.35,0,0,0-1.88,1l-1.25,5-3.72-3.58a1.35,1.35,0,0,0-2.13.15A2.06,2.06,0,0,0,57,51.81l4.62,4.43-1.56,6.22a2.07,2.07,0,0,0,1,2.31,1.35,1.35,0,0,0,.92.08,1.44,1.44,0,0,0,1-1.08l1.25-5L68,62.34a1.44,1.44,0,0,0,1.39.4,1.31,1.31,0,0,0,.73-.55,2,2,0,0,0-.34-2.52Z"/></g></g></svg>