<svg xmlns="http://www.w3.org/2000/svg" viewBox="0 0 287.95 169.33"><defs><style>.cls-1{fill:#8b5e3c;}.cls-2{fill:#754c29;}.cls-3{fill:#332429;}.cls-4{fill:#c9c9c9;}.cls-5{fill:#c49a6c;}.cls-6{fill:#b27685;}.cls-7{fill:#e2a1b0;}.cls-8{fill:#fff;}.cls-9{fill:#ffdbb8;}.cls-10{fill:#f9c9d3;}.cls-11{fill:#3f2222;}</style></defs><g id="Layer_2" data-name="Layer 2"><g id="Layer_1-2" data-name="Layer 1"><path class="cls-1" d="M282.58,127.81a2.52,2.52,0,0,1-2.75-.82c-6.59-8.26-9.35-16.2-8.19-23.62.95-6.06,4.28-9.93,7-13.05,2.24-2.6,4-4.65,4.27-7.35.48-4.89-4.12-13.35-28.72-25.86a2.52,2.52,0,1,1,2.29-4.49c22.09,11.23,32.38,21.32,31.45,30.84-.42,4.29-3,7.27-5.46,10.15s-5.08,5.9-5.8,10.54c-.94,6,1.47,12.59,7.14,19.69a2.51,2.51,0,0,1-.4,3.54A2.35,2.35,0,0,1,282.58,127.81Z"/><path class="cls-1" d="M279,145.2c.81-1.54.92-8.77-1.87-11.49-2.56-2.81-4-6.7-.63-10.94s16.61,2.3,7.13,17.93a7.5,7.5,0,0,0-1.19-5.27C283.36,139.5,279,145.2,279,145.2Z"/><path class="cls-2" d="M210.36,164l-8.31-9.15a24,24,0,0,1-6.29-19.31c1-8.1,5.56-14.91,11.92-17.8l17.51-8.15-1-1.17,6.59-10.33,19.49,5.79c6.31,2.08,10.47,5.53,10,12.15,0,0,0,.1,0,.15-.43,5.85-3.63,11-8.18,13.07L229,139.46l2.79,3.9Z"/><path class="cls-3" d="M220.58,152.41c-4.09,3.5-8.16,6.74-12.14,9.58l4.22,4.92a35.23,35.23,0,0,0,22.77-19.64l-4.15-4.82C228,145.76,224.45,149.1,220.58,152.41Z"/><path class="cls-2" d="M116.43,118.41a21,21,0,0,0,.14-6.57,20.67,20.67,0,0,0-5.26-11.15l-11-12.07L77,110l1.42,1.55-11.6,5.91A20.75,20.75,0,0,0,71,156l39.18,10.15,7.93-30.58-11.54-3A20.57,20.57,0,0,0,116.43,118.41Z"/><path class="cls-3" d="M114,150.4c-1.54,5.46-3.24,10.61-5,15.44l6.24,1.74a38.38,38.38,0,0,0,8.49-30.47l-6.12-1.71C116.66,140.22,115.49,145.23,114,150.4Z"/><path class="cls-4" d="M116.07,141.83l-35.39-9,2.87-2.43a8.56,8.56,0,0,1,7.63-1.75l26.52,6.72Z"/><path class="cls-5" d="M266.53,64.63C264.82,56,261,45.05,252.06,36c-2.09-2.12-8.57-8.34-21-12.89.35,6-11.48,10.06-9.29,21-4.14,5.13-13.1,14.51-26.26,16.41-21.15,3-45.49-14.32-55.26-44.15-16.16.85-64.08,8.63-77.43,28.8A60.33,60.33,0,0,0,53,80.42c.17.63.34,1.31.49,2s.27,1.44.38,2.2C65.2,90,73.35,98.77,75.42,103.58c2.19,5.09-2.31,8.34-4.76,13.82a126.62,126.62,0,0,0,12.17,5.94,91.32,91.32,0,0,0,11.24,4.14H214.16a53.63,53.63,0,0,0,53.6-53.6h0A72.88,72.88,0,0,0,266.53,64.63Z"/><path class="cls-6" d="M219.47,134.4c1.45,0,3.12.14,5,.32a13,13,0,0,0,2.24-7.24H192.32a12.65,12.65,0,0,0,.52,3.55,32.6,32.6,0,0,0,3.77,1.61C204.57,135.47,210.3,134.1,219.47,134.4Z"/><path class="cls-7" d="M224.46,134.72c-1.87-.18-3.54-.27-5-.32-9.17-.3-14.9,1.07-22.86-1.76a32.6,32.6,0,0,1-3.77-1.61,13.48,13.48,0,0,0,1.82,3.83,9.6,9.6,0,0,0-1.13,2.36c-.86,2.58-.75,5.12.25,5.67s2.52-1.1,3.39-3.69c.13-.41.24-.82.33-1.22a16.81,16.81,0,0,0,2.54,1.75,12.16,12.16,0,0,0-.63,2.8c-.34,3.12.43,5.83,1.72,6.06s2.6-2.13,2.93-5.25a12.47,12.47,0,0,0,.07-1.91,20.09,20.09,0,0,0,5.38.73c.32,0,.63,0,.94,0,0,.2.05.4.08.6.57,3.58,1.88,6.22,2.93,5.9s1.46-3.48.89-7.06h0a18.77,18.77,0,0,0,4.88-2c1.51,3.54,3.27,5.81,4.11,5.19s.46-3.95-.82-7.71A15.5,15.5,0,0,0,224.46,134.72Z"/><path class="cls-1" d="M125.09,112.14a439.35,439.35,0,0,0,57.7,3.79,437.72,437.72,0,0,0,59-4c-6.89,4.29-13.94,11.71-25.05,15.58H120.08a40,40,0,0,0,2.76-7.61C123.58,116.93,125,114.29,125.09,112.14Z"/><path class="cls-5" d="M262.41,103.66,245.92,95l-4,16.87s-21.54,9.85-23.59,10.8c-6.09,2.6-11.2,7.15-11.94,15.28a24.81,24.81,0,0,0,6.3,19.31l8.31,9.15,21.44-20.64-2.78-3.9,23.07-10.21c3.29-1.53,6.58-5.48,7.23-8.47a19.83,19.83,0,0,0,.79-4.37.71.71,0,0,0,0-.14C271.19,112.06,268.08,108.25,262.41,103.66Z"/><path class="cls-8" d="M157.5,49.83c5.46,8.22,22.08,12.69,38,10.62,14.22-1.85,25.17-8.58,26.26-16.41-2.19-10.9,9.64-15,9.29-21-.81-.3-1.64-.58-2.5-.86-22.59-7.35-59-7.46-88.31-5.92-1,.46-2.13.91-3.38,1.34C115,25.31,103.81,50.43,157.5,49.83Z"/><path class="cls-1" d="M100.16,54.77,99.61,54l-3-5.37C87.73,26.71,66.1,13.35,43.63,19.45A46.79,46.79,0,0,0,9.69,69.59q.86,3.39,1.7,6.79v0C16.85,98.16,37.66,104.7,60,107.82a25.71,25.71,0,0,0,2.9,3.66c5.09,5.3,12.84,8.67,20,11.86l1.44.62L83,112.59c-1-4.48,2.32-9.66,4.56-11.59C101.88,91.6,104.65,72.72,100.16,54.77Z"/><path class="cls-8" d="M78,105.7c-3.06-4.26-12.91-11.06-25.1-13.87,2.93,7.61,5.24,18.09,14.53,24.29a35.62,35.62,0,0,0,8.89,4.1C77.51,114.34,81.21,110.2,78,105.7Z"/><path class="cls-8" d="M140.05,104.87c7.39-1.65,9.95,3.55,14.34,1.56s13.94-11.6,12.63-22-7.68-4.07-12.82-11.35-20.63-9.65-19.08,9.37c-4.87,2.45-7.21,8.63-5.61,14.15C131,101.53,135.28,105,140.05,104.87Z"/><g id="Head"><path class="cls-1" d="M18.92,34.05A37,37,0,0,0,0,64.28a20.53,20.53,0,0,0,8.87-4.47,20.46,20.46,0,0,0,6-8.84Q16.88,42.51,18.92,34.05Z"/><path class="cls-9" d="M66.14,19.3a36.88,36.88,0,0,1,2.44-9.18A37.37,37.37,0,0,1,74.79,0a52.61,52.61,0,0,1,3.53,14.06,52.9,52.9,0,0,1-1.07,17.59Z"/><path class="cls-9" d="M26.76,31.88a36.92,36.92,0,0,0-6.48-6.94,36.84,36.84,0,0,0-10.25-6A52.7,52.7,0,0,0,13.55,33a53.2,53.2,0,0,0,9.22,15Z"/><path class="cls-5" d="M98.52,47.06A46.8,46.8,0,0,0,43.2,19.28,46.79,46.79,0,0,0,9.26,69.42L11,76.2v0c6,24,30.86,38.48,55.51,32.3s39.76-30.64,33.75-54.65h0Z"/><ellipse class="cls-10" cx="50.83" cy="92.92" rx="25.81" ry="19.18" transform="translate(-21.05 15.13) rotate(-14.06)"/><circle class="cls-6" cx="37.23" cy="96.89" r="3.67"/><circle class="cls-6" cx="58.46" cy="91.58" r="3.67"/><path class="cls-1" d="M71.76,20.8a37,37,0,0,1,30.88,17.84,20.34,20.34,0,0,1-19.33-4.81Z"/><path class="cls-11" d="M21,73.88a8.16,8.16,0,0,0,5.69,1.42,7.06,7.06,0,0,0,5-3.1c1.91-2.82,2.33-7.56-.31-10.3a6.33,6.33,0,0,0-5.61-1.77,5.75,5.75,0,0,0-4.26,2.95c-1.19,2.31-.83,6.16,1.41,7.65A4.18,4.18,0,0,0,28,70.28a5.43,5.43,0,0,0,1.64-3.87,1.12,1.12,0,0,0-1.05-1.16,1,1,0,0,0-.73.28,1.19,1.19,0,0,0-.38.86,3.1,3.1,0,0,1-.88,2.15,2.12,2.12,0,0,1-2.56.24c-1.2-.79-1.38-3.24-.67-4.61a3.64,3.64,0,0,1,2.69-1.78,4.2,4.2,0,0,1,3.76,1.16c1.77,1.83,1.46,5.26.07,7.31A4.87,4.87,0,0,1,26.71,73a6.12,6.12,0,0,1-4.55-1,7.55,7.55,0,0,1-2.86-6.76,8,8,0,0,1,7.93-7,1.1,1.1,0,0,0,.72-.31,1.21,1.21,0,0,0,.35-.88A1.13,1.13,0,0,0,27.19,56a11.18,11.18,0,0,0-2.32.32A10.15,10.15,0,0,0,17.15,65,9.89,9.89,0,0,0,21,73.88Z"/><path class="cls-11" d="M72.9,47a8,8,0,0,0-5.5-1.37,6.82,6.82,0,0,0-4.86,3c-1.84,2.72-2.25,7.29.3,9.93a6.09,6.09,0,0,0,5.41,1.71,5.6,5.6,0,0,0,4.12-2.84c1.14-2.24.79-5.95-1.37-7.39a4,4,0,0,0-4.94.44,5.31,5.31,0,0,0-1.59,3.73,1.09,1.09,0,0,0,1,1.12,1,1,0,0,0,.7-.27,1.11,1.11,0,0,0,.37-.83,3,3,0,0,1,.85-2.07A2,2,0,0,1,69.88,52c1.16.77,1.33,3.13.65,4.45a3.51,3.51,0,0,1-2.6,1.72A4.09,4.09,0,0,1,64.3,57c-1.7-1.76-1.41-5.07-.07-7.06a4.74,4.74,0,0,1,3.11-2,5.84,5.84,0,0,1,4.39,1,7.23,7.23,0,0,1,2.76,6.52,7.73,7.73,0,0,1-7.65,6.71,1,1,0,0,0-.69.3,1.19,1.19,0,0,0-.34.85,1.08,1.08,0,0,0,1.07,1.07A10.34,10.34,0,0,0,69.12,64a9.75,9.75,0,0,0,7.44-8.39A9.55,9.55,0,0,0,72.9,47Z"/></g><path class="cls-5" d="M115.52,131.5c5.22-3.06,8.34-6.92,9.43-12.93a20.66,20.66,0,0,0,.18-6.17c0-.07.05-.13.08-.21A20.67,20.67,0,0,0,120,101L108.9,89,85.6,110.31,87,111.86l-11.6,5.91a20.55,20.55,0,0,0-3.57,2.3l.09.06-.1,0c-5.49,4.37-8.09,9.78-7.31,17A20.61,20.61,0,0,0,80,154.92l39.19,10.15,7.92-30.58Z"/><path class="cls-3" d="M123,149.32c-1.53,5.46-3.24,10.61-5,15.44l6.25,1.74A38.48,38.48,0,0,0,132.71,136l-6.13-1.71C125.63,139.14,124.46,144.15,123,149.32Z"/><path class="cls-1" d="M125,140.75l-35.39-9,2.87-2.43a8.57,8.57,0,0,1,7.63-1.75l26.52,6.72Z"/><path class="cls-3" d="M231.22,154.83c-4.1,3.5-8.16,6.74-12.14,9.58l4.22,4.92a35.92,35.92,0,0,0,13.93-7.57,35.56,35.56,0,0,0,8.83-12.07l-4.14-4.82C238.64,148.18,235.09,151.52,231.22,154.83Z"/><path class="cls-1" d="M235.06,138.76s3.28,1.28,4.6,3.12c13.54-5.58,19.44-7.93,23.64-10.44a14.5,14.5,0,0,0,4.9-4.57,107,107,0,0,1-16.62,7.53A105.37,105.37,0,0,1,235.06,138.76Z"/><path class="cls-8" d="M245.33,66.79c-2.54,4-1.05,3.72-3.48,9.7-2,4.89-5.39,4.57-8.16,9.47-3,5.35-2.1,16.86,1.29,19.93,4.17,3.79,15.6,5.86,22.14-.21,10.82-10.07,12.24-30.38,10.11-38.21A6.91,6.91,0,0,0,264,62.91a10.62,10.62,0,0,0-2.38-.92C255.68,60.51,248.26,62.13,245.33,66.79Z"/></g></g></svg>