<svg width="343" height="309" viewBox="0 0 343 309" fill="none" xmlns="http://www.w3.org/2000/svg">
<path d="M207.464 257.811L207.058 256.975C205.382 253.495 204.257 249.776 203.724 245.95C202.373 239.513 202.463 232.856 203.989 226.458L204.648 211.493C203.268 212.265 202.091 213.354 201.213 214.67L181.393 244.423C180.576 245.652 180.041 247.046 179.827 248.507C179.612 249.967 179.724 251.456 180.153 252.868L187.645 277.685C188.09 279.154 188.861 280.505 189.901 281.635C190.94 282.765 192.222 283.646 193.65 284.212C195.077 284.777 196.614 285.013 198.146 284.902C199.677 284.791 201.164 284.336 202.495 283.57L207.5 257.867L207.464 257.811Z" fill="#C66240"/>
<path d="M260.803 103.078C259.8 114.469 271.252 134.68 271.252 134.68C274.516 134.572 281.324 139.358 281.324 139.358L334.238 142.453L338.277 128.615C338.333 128.42 338.433 128.241 338.569 128.092C338.705 127.942 338.874 127.825 339.062 127.751C339.25 127.677 339.453 127.647 339.654 127.664C339.856 127.68 340.051 127.743 340.224 127.847L340.692 125.044C340.721 124.826 340.716 124.605 340.678 124.389L340.473 123.287C340.419 122.99 340.433 122.684 340.514 122.393C340.595 122.101 340.741 121.832 340.942 121.606C341.142 121.379 341.391 121.201 341.67 121.084C341.949 120.968 342.251 120.916 342.553 120.933L342.678 120.936C343.043 120.96 343.407 120.883 343.731 120.714C344.055 120.545 344.326 120.29 344.516 119.978C365.599 84.9708 355.115 68.1749 351.667 64.1323C351.404 63.819 351.243 63.4324 351.206 63.0247C351.169 62.617 351.259 62.2079 351.462 61.8526L353.351 58.5902C353.6 58.1683 353.685 57.6697 353.591 57.189C353.497 56.7083 353.229 56.279 352.839 55.9825L347.535 51.9515C347.32 51.7882 347.073 51.6704 346.811 51.6051C346.549 51.5397 346.276 51.5282 346.009 51.5713C345.742 51.6144 345.487 51.7112 345.258 51.8557C345.03 52.0003 344.833 52.1897 344.68 52.4125L344.252 53.0314C343.944 53.4658 343.475 53.76 342.95 53.8492C342.425 53.9383 341.886 53.8152 341.451 53.507C341.017 53.1987 340.723 52.7304 340.634 52.2052C340.545 51.6801 340.668 51.141 340.976 50.7065L341.156 50.395C341.317 50.1759 341.431 49.9265 341.491 49.662C341.552 49.3974 341.558 49.1232 341.51 48.8562C341.461 48.5891 341.359 48.3347 341.209 48.1085C341.059 47.8823 340.864 47.689 340.637 47.5404L336.245 44.7079C335.83 44.441 335.332 44.3367 334.845 44.4152C334.358 44.4936 333.917 44.7493 333.607 45.133L332.564 46.4355C332.386 46.6526 332.165 46.8299 331.915 46.9559C331.664 47.082 331.39 47.154 331.11 47.1672C330.83 47.1804 330.55 47.1346 330.289 47.0327C330.028 46.9308 329.791 46.7752 329.593 46.5758C315.548 32.3169 306.341 31.6532 303.733 31.8067C303.228 31.8422 302.729 31.6851 302.335 31.3669L286.307 17.9586C286.062 17.7636 285.869 17.5112 285.745 17.2238C285.622 16.9364 285.571 16.6228 285.597 16.311C285.9 13.4934 282.381 10.5308 281.945 10.1859L281.841 10.1258L278.026 6.51771C277.782 6.28277 277.485 6.11074 277.16 6.01654C262.521 2.10255 251.222 27.5576 251.222 27.5576L261.088 61.2834C259.949 65.6044 258.597 74.8633 258.37 76.5923C258.341 76.7937 258.283 76.9895 258.195 77.1731L254.57 84.7691C257.706 89.3705 261.404 96.3541 260.803 103.078ZM276.493 60.0245C277.094 59.3922 277.819 58.891 278.623 58.5526C279.427 58.2142 280.292 58.0458 281.164 58.0581C282.036 58.0704 282.897 58.2631 283.691 58.624C284.485 58.9849 285.195 59.5063 285.778 60.1553L300.586 77.3062C304.252 81.5324 303.75 87.4472 299.428 90.0406C295.353 92.4877 289.754 90.782 286.944 86.6353L275.323 69.5276C274.396 68.051 274.008 66.2994 274.224 64.5693C274.441 62.8393 275.248 61.2373 276.511 60.0345L276.493 60.0245Z" fill="#2F3237"/>
<path d="M299.448 90.006C303.77 87.4126 304.272 81.4977 300.606 77.2716L285.795 60.1653C285.212 59.5163 284.502 58.9949 283.708 58.634C282.914 58.2731 282.054 58.0804 281.181 58.0681C280.309 58.0558 279.444 58.2242 278.64 58.5626C277.836 58.901 277.111 59.4022 276.51 60.0345C275.248 61.2373 274.44 62.8393 274.224 64.5693C274.008 66.2994 274.396 68.051 275.323 69.5276L286.964 86.6006C289.791 90.7574 295.39 92.4631 299.448 90.006Z" fill="#7D7D7D"/>
<path d="M340.352 298.407C340.116 299.911 344.554 307.693 352.07 319.557C339.297 297.715 329.552 276.39 333.027 266.638C327.485 271.24 340.352 298.407 340.352 298.407Z" fill="#E5CBBE"/>
<path d="M238.563 76.3533C236.507 76.6351 234.538 77.3647 232.795 78.4905C234.593 77.4962 236.533 76.7841 238.548 76.3793L238.563 76.3533Z" fill="#E5CBBE"/>
<path d="M206.671 170.347L206.571 172.415L209.304 152.712L206.671 170.347Z" fill="#E5CBBE"/>
<path d="M200.76 289.66C201.084 288.761 201.444 287.86 201.836 286.943C201.382 287.808 201.021 288.719 200.76 289.66Z" fill="#E5CBBE"/>
<path d="M395.727 384.329C395.727 384.329 393.641 381.584 390.24 376.922C436.236 444.399 497.418 530.749 497.418 530.749C462.413 514.89 322.689 293.308 317.441 271.86C312.194 250.412 333.046 266.626 333.046 266.626C340.605 245.453 360.883 185.897 365.493 172.331C365.787 171.463 365.886 170.542 365.782 169.632C365.677 168.722 365.372 167.847 364.888 167.069L340.717 128.213C340.606 128.032 340.45 127.882 340.264 127.778C340.091 127.674 339.896 127.611 339.694 127.595C339.493 127.578 339.29 127.608 339.102 127.682C338.914 127.756 338.745 127.873 338.609 128.022C338.473 128.172 338.373 128.351 338.317 128.545L334.278 142.384L281.344 139.323C281.344 139.323 274.516 134.572 271.272 134.646C271.272 134.646 259.854 114.455 260.823 103.044C261.424 96.3195 257.726 89.3359 254.59 84.7345C253.346 82.9008 251.98 81.1525 250.502 79.5012C250.134 79.2599 249.753 79.0391 249.36 78.8397C249.722 79.2814 250.002 79.7841 250.188 80.3243C251.511 84.3036 247.338 89.2359 240.924 91.3916C234.509 93.5474 228.21 92.0137 226.885 88.0567C226.668 87.3225 226.603 86.5519 226.693 85.7918C226.784 85.0317 227.028 84.298 227.411 83.6353C226.031 85.5235 224.838 87.5422 223.851 89.6627C223.851 89.6627 214.822 110.781 221.361 120.161L218.546 125.719C218.546 125.719 207.414 145.62 209.299 152.72C209.299 152.72 258.55 268.053 219.985 341.784C246.358 361.056 243.403 399.259 249.928 411.439L446.719 719.553L591.652 663.987L395.727 384.329Z" fill="#E5CBBE"/>
<path d="M207.049 256.97L207.455 257.806C205.744 254.014 204.488 250.033 203.716 245.945C204.248 249.771 205.373 253.49 207.049 256.97Z" fill="#E5CBBE"/>
<path d="M240.939 91.3657C247.379 89.225 251.527 84.2776 250.203 80.2983C250.01 79.7662 249.725 79.2724 249.36 78.8397C247.447 76.4372 243.223 75.47 238.547 76.3793C236.533 76.7841 234.593 77.4962 232.795 78.4905C230.538 79.6626 228.664 81.457 227.396 83.6613C227.013 84.3239 226.769 85.0576 226.678 85.8178C226.588 86.5779 226.653 87.3485 226.87 88.0826C228.21 92.0137 234.494 93.515 240.939 91.3657Z" fill="#EACCCA"/>
<path opacity="0.07" d="M200.76 289.66C195.34 304.744 200.141 317.764 206.307 327.032C197.423 312.341 198.702 296.545 200.76 289.66Z" fill="white"/>
<path opacity="0.07" d="M202.491 283.578L201.836 286.943C202.472 285.711 202.963 284.409 203.297 283.063C203.038 283.25 202.769 283.422 202.491 283.578Z" fill="white"/>
<path opacity="0.07" d="M206.571 172.415L206.196 175.179L204.648 211.493L204.683 211.432L206.571 172.415Z" fill="white"/>
<path d="M207.496 257.876L202.49 283.578C202.769 283.422 203.038 283.25 203.297 283.063C205.708 274.51 207.496 257.876 207.496 257.876Z" fill="#C66240"/>
<path opacity="0.07" d="M207.496 257.876L202.49 283.578C202.769 283.422 203.038 283.25 203.297 283.063C205.708 274.51 207.496 257.876 207.496 257.876Z" fill="white"/>
<path d="M203.41 239.031L204.009 226.423C202.484 232.822 202.393 239.478 203.745 245.915C203.424 243.636 203.312 241.331 203.41 239.031Z" fill="#C66240"/>
<path opacity="0.07" d="M203.41 239.031L204.009 226.423C202.484 232.822 202.393 239.478 203.745 245.915C203.424 243.636 203.312 241.331 203.41 239.031Z" fill="white"/>
<path d="M204.717 211.453L204.682 211.513L204.044 226.443L204.717 211.453Z" fill="#C66240"/>
<path opacity="0.07" d="M204.717 211.453L204.682 211.513L204.044 226.443L204.717 211.453Z" fill="white"/>
<path d="M209.304 152.712L206.571 172.415L204.752 211.473L204.044 226.443L203.445 239.051C203.337 241.362 203.443 243.678 203.759 245.97C204.532 250.058 205.787 254.039 207.498 257.831L207.55 257.861C207.55 257.861 205.763 274.495 203.36 283.054C203.026 284.399 202.536 285.702 201.899 286.934C201.502 287.859 201.122 288.795 200.823 289.65C198.76 296.544 197.486 312.332 206.37 327.022C209.97 332.381 214.35 337.173 219.365 341.239L220.054 341.765C258.555 268.044 209.304 152.712 209.304 152.712Z" fill="#E5CBBE"/>
<path opacity="0.07" d="M209.304 152.712L206.571 172.415L204.752 211.473L204.044 226.443L203.445 239.051C203.337 241.362 203.443 243.678 203.759 245.97C204.532 250.058 205.787 254.039 207.498 257.831L207.55 257.861C207.55 257.861 205.763 274.495 203.36 283.054C203.026 284.399 202.536 285.702 201.899 286.934C201.502 287.859 201.122 288.795 200.823 289.65C198.76 296.544 197.486 312.332 206.37 327.022C209.97 332.381 214.35 337.173 219.365 341.239L220.054 341.765C258.555 268.044 209.304 152.712 209.304 152.712Z" fill="white"/>
<path d="M317.44 271.883C322.688 293.331 462.411 514.912 497.417 530.771C497.417 530.771 436.235 444.421 390.239 376.944C381.814 365.431 365.291 342.203 352.078 319.562C344.562 307.698 340.12 299.925 340.361 298.412C340.361 298.412 327.493 271.245 333.044 266.648C333.036 266.643 312.175 250.425 317.44 271.883Z" fill="#E5CBBE"/>
<path opacity="0.08" d="M317.44 271.883C322.688 293.331 462.411 514.912 497.417 530.771C497.417 530.771 436.235 444.421 390.239 376.944C381.814 365.431 365.291 342.203 352.078 319.562C344.562 307.698 340.12 299.925 340.361 298.412C340.361 298.412 327.493 271.245 333.044 266.648C333.036 266.643 312.175 250.425 317.44 271.883Z" fill="black"/>
</svg>
