<?xml version="1.0" encoding="utf-8"?>
<!-- Generator: Adobe Illustrator 26.0.2, SVG Export Plug-In . SVG Version: 6.00 Build 0)  -->
<svg version="1.1" id="Layer_1" xmlns="http://www.w3.org/2000/svg" xmlns:xlink="http://www.w3.org/1999/xlink" x="0px" y="0px"
	 viewBox="0 0 222.1 300" style="enable-background:new 0 0 222.1 300;" xml:space="preserve">
<style type="text/css">
	.st0{fill:#F6F6F6;}
	.st1{fill:#3F2222;}
	.st2{fill:#C10000;}
	.st3{fill:#FCA054;}
	.st4{fill:#FDB376;}
	.st5{fill:#BF0000;}
</style>
<path class="st0" d="M115.8,300h-9.6C47.6,300,0,252.4,0,193.8l0-28C0,107,47.6,59.5,106.2,59.5h9.6c58.7,0,106.2,47.6,106.2,106.2
	v28C222.1,252.4,174.5,300,115.8,300z"/>
<g>
	<ellipse class="st1" cx="55.6" cy="158.2" rx="17.9" ry="25.5"/>
	<ellipse class="st1" cx="166.6" cy="158.2" rx="17.9" ry="25.5"/>
</g>
<g>
	<path class="st2" d="M125.6,206.3c-7.1,0-13.4,6.6-16.7,16.4c-3-4.4-7.3-7.2-13.4-7.1c-10.8,0.1-19.5,14.5-19.5,32.4
		s8.7,32.4,19.5,32.4c9.2,0,15.3-5,17.8-15.4c3.4,4.7,7.7,7.6,12.4,7.6c10.7,0,19.5-14.9,19.5-33.2S136.3,206.3,125.6,206.3z"/>
	<g>
		<path class="st3" d="M111.8,228.4L74.7,224c0.2,4.9,2.5,9,5.9,10.5c7.6,3.4,18.2,10.7,30.7,10.7c12.4,0,22.7-7.3,30.3-10.7
			c3.3-1.5,5.7-5.7,5.9-10.6L111.8,228.4z"/>
		<path class="st4" d="M147.5,223.9c0-0.2,0-0.5,0-0.7v-0.1c0-11.1-3.5-21.7-9.8-28.4c-6-6.4-14.6-12.6-25.8-12.9
			c-11.8-0.3-21,6.1-27.3,12.8c-6.4,6.7-10,17.4-10,28.6c0,0.3,0,0.5,0,0.8l37.1,4.4L147.5,223.9z"/>
	</g>
</g>
<g>
	<path class="st5" d="M163.5,41c-2.2-0.7-3.6-2.8-3.3-5.1c1.1-9.1-0.5-18.5-6.4-24.3c-8.1-7.9-23.4-8.1-35.9-2.2
		c-2.1,1-4.5,0.3-5.9-1.5c-3.3-4.3-7.3-7.3-11.8-7.8C85.4-1.6,73.5,24.2,69.6,37.2c-0.7,2.2-1.4,4.8-2.1,7.5
		c-0.1,0.1-2.2,19.6-0.9,24.3c0.2,0,7,10.9,8.9,11.3c0.5,0.1,1,0.4,1.5,0.7c1.8,1.2,3.8,2.2,6,3c3.3,1.2,6.5,1.7,9.6,1.7
		c2.1,0,3.8,1.5,4.4,3.5c1.4,4.6,3.8,8.6,7.5,11.2c4.6,3.4,10.4,4,16.2,2.8c1.6-0.3,3.2,0.2,4.3,1.4c3.2,3.3,10.3,9.4,20,8.5
		c10.6-1,20.6-10,21.3-19.4c0-0.4,0-0.8,0-1.1c0-2.2,1.3-4,3.4-4.7c8.1-2.7,15.3-9.2,16.2-17.5C187.2,58.8,176.1,44.7,163.5,41z"/>
</g>
</svg>
