<svg xmlns="http://www.w3.org/2000/svg" viewBox="0 0 80.07 108.17"><defs><style>.cls-1{fill:#c6824a;}.cls-2{fill:#3f2222;}.cls-3{fill:#c10000;}.cls-4{fill:#fca054;}.cls-5{fill:#fdb376;}.cls-6{fill:#bf0000;}</style></defs><g id="Layer_2" data-name="Layer 2"><g id="Layer_3" data-name="Layer 3"><rect class="cls-1" y="21.44" width="80.07" height="86.72" rx="38.31"/><ellipse class="cls-2" cx="20.05" cy="57.03" rx="6.45" ry="9.18"/><ellipse class="cls-2" cx="60.06" cy="57.03" rx="6.45" ry="9.18"/><path class="cls-3" d="M45.28,74.38c-2.57,0-4.82,2.38-6,5.9a5.5,5.5,0,0,0-4.83-2.56c-3.89,0-7,5.24-7,11.7s3.15,11.7,7,11.7c3.33,0,5.51-1.81,6.41-5.54a5.63,5.63,0,0,0,4.46,2.73c3.88,0,7-5.35,7-12S49.16,74.38,45.28,74.38Z"/><path class="cls-4" d="M40.32,82.36,26.94,80.77a4.25,4.25,0,0,0,2.12,3.78c2.75,1.23,6.57,3.85,11.07,3.84s8.18-2.61,10.93-3.84a4.27,4.27,0,0,0,2.12-3.81Z"/><path class="cls-5" d="M53.18,80.74c0-.09,0-.17,0-.26v0c0-4-1.27-7.82-3.53-10.22a13.37,13.37,0,0,0-9.3-4.65c-4.25-.11-7.57,2.21-9.84,4.61a15.2,15.2,0,0,0-3.6,10.3c0,.1,0,.19,0,.29l13.38,1.59Z"/><path class="cls-6" d="M59,14.78a1.72,1.72,0,0,1-1.19-1.85c.39-3.29-.19-6.68-2.3-8.76-2.91-2.86-8.43-2.93-12.95-.78a1.73,1.73,0,0,1-2.14-.54A6.48,6.48,0,0,0,36.13,0C30.79-.58,26.5,8.73,25.08,13.4c-.23.78-.51,1.71-.75,2.7,0,0-.8,7.08-.33,8.77.05,0,2.53,3.93,3.21,4.09a1.7,1.7,0,0,1,.53.24,10.6,10.6,0,0,0,2.18,1.1,10.08,10.08,0,0,0,3.45.62A1.68,1.68,0,0,1,35,32.18a7.57,7.57,0,0,0,2.7,4,7.26,7.26,0,0,0,5.84,1,1.69,1.69,0,0,1,1.56.51,9.12,9.12,0,0,0,7.2,3.07c3.82-.35,7.42-3.6,7.68-7,0-.14,0-.28,0-.41a1.78,1.78,0,0,1,1.21-1.7c2.91-1,5.51-3.3,5.85-6.3C67.5,21.2,63.49,16.11,59,14.78Z"/></g></g></svg>