<svg width="36" height="36" viewBox="0 0 36 36" fill="none" xmlns="http://www.w3.org/2000/svg">
<path fill-rule="evenodd" clip-rule="evenodd" d="M24 18C24 21.3137 21.3137 24 18 24C14.6863 24 12 21.3137 12 18C12 14.6863 14.6863 12 18 12C21.3137 12 24 14.6863 24 18ZM21.75 18C21.75 20.0711 20.0711 21.75 18 21.75C15.9289 21.75 14.25 20.0711 14.25 18C14.25 15.9289 15.9289 14.25 18 14.25C20.0711 14.25 21.75 15.9289 21.75 18Z" fill="#24292E"/>
<path fill-rule="evenodd" clip-rule="evenodd" d="M18 1.5C17.5983 1.5 17.1997 1.51438 16.8048 1.54268C15.6594 1.62474 14.7865 2.46708 14.5363 3.49767L14.0082 5.67256C13.9797 5.78993 13.8739 5.93082 13.6717 6.00381C13.2988 6.13836 12.934 6.28978 12.5783 6.45712C12.384 6.54854 12.2096 6.52382 12.1064 6.46094L10.195 5.29635C9.28974 4.74482 8.07754 4.76612 7.20961 5.51699C6.60545 6.03965 6.03965 6.60545 5.51699 7.20961C4.76612 8.07754 4.74482 9.28974 5.29635 10.195L6.46094 12.1064C6.52382 12.2096 6.54854 12.384 6.45712 12.5783C6.28978 12.934 6.13836 13.2988 6.00381 13.6717C5.93082 13.8739 5.78993 13.9797 5.67256 14.0082L3.49767 14.5363C2.46709 14.7865 1.62475 15.6594 1.54268 16.8048C1.51438 17.1997 1.5 17.5983 1.5 18C1.5 18.4017 1.51438 18.8003 1.54268 19.1952C1.62474 20.3406 2.46709 21.2135 3.49767 21.4637L5.67256 21.9918C5.78993 22.0203 5.93082 22.1261 6.00381 22.3283C6.13836 22.7012 6.28978 23.066 6.45712 23.4217C6.54854 23.616 6.52382 23.7904 6.46094 23.8936L5.29635 25.805C4.74482 26.7103 4.76612 27.9225 5.51698 28.7904C6.03965 29.3946 6.60545 29.9604 7.20961 30.483C8.07755 31.2339 9.28974 31.2552 10.195 30.7037L12.1064 29.5391C12.2096 29.4762 12.384 29.4515 12.5783 29.5429C12.934 29.7102 13.2988 29.8616 13.6717 29.9962C13.8739 30.0692 13.9797 30.2101 14.0082 30.3274L14.5363 32.5023C14.7865 33.5329 15.6594 34.3753 16.8048 34.4573C17.1997 34.4856 17.5983 34.5 18 34.5C18.4017 34.5 18.8003 34.4856 19.1952 34.4573C20.3406 34.3753 21.2135 33.5329 21.4637 32.5023L21.9918 30.3274C22.0203 30.2101 22.1261 30.0692 22.3283 29.9962C22.7012 29.8616 23.066 29.7102 23.4217 29.5429C23.616 29.4515 23.7904 29.4762 23.8936 29.5391L25.805 30.7037C26.7103 31.2552 27.9225 31.2339 28.7904 30.483C29.3946 29.9604 29.9604 29.3946 30.483 28.7904C31.2339 27.9225 31.2552 26.7103 30.7037 25.805L29.5391 23.8936C29.4762 23.7904 29.4515 23.616 29.5429 23.4217C29.7102 23.066 29.8616 22.7012 29.9962 22.3283C30.0692 22.1261 30.2101 22.0203 30.3274 21.9918L32.5023 21.4637C33.5329 21.2135 34.3753 20.3406 34.4573 19.1952C34.4856 18.8003 34.5 18.4017 34.5 18C34.5 17.5983 34.4856 17.1997 34.4573 16.8048C34.3753 15.6594 33.5329 14.7865 32.5023 14.5363L30.3274 14.0082C30.2101 13.9797 30.0692 13.8739 29.9962 13.6717C29.8616 13.2988 29.7102 12.934 29.5429 12.5783C29.4515 12.384 29.4762 12.2096 29.5391 12.1064L30.7037 10.195C31.2552 9.28973 31.2339 8.07754 30.483 7.20961C29.9604 6.60545 29.3946 6.03965 28.7904 5.51698C27.9225 4.76612 26.7103 4.74482 25.805 5.29635L23.8936 6.46094C23.7904 6.52382 23.616 6.54854 23.4217 6.45712C23.066 6.28978 22.7012 6.13836 22.3283 6.00381C22.1261 5.93082 22.0203 5.78993 21.9918 5.67256L21.4637 3.49767C21.2135 2.46708 20.3406 1.62474 19.1952 1.54268C18.8003 1.51438 18.4017 1.5 18 1.5ZM16.9656 3.78692C17.307 3.76246 17.652 3.75 18 3.75C18.348 3.75 18.693 3.76246 19.0344 3.78692C19.1177 3.79289 19.2368 3.86213 19.2773 4.02855L19.8053 6.20343C20.0336 7.14378 20.743 7.82374 21.5646 8.12022C21.8712 8.23086 22.1712 8.3554 22.4639 8.49308C23.2548 8.86515 24.2377 8.88601 25.0643 8.38239L26.9757 7.21781C27.1219 7.12874 27.2551 7.16393 27.3183 7.21859C27.8405 7.67038 28.3296 8.15947 28.7814 8.6817C28.8361 8.74488 28.8713 8.8781 28.7822 9.02429L27.6176 10.9357C27.114 11.7623 27.1348 12.7452 27.5069 13.5361C27.6446 13.8288 27.7691 14.1288 27.8798 14.4354C28.1763 15.257 28.8562 15.9664 29.7966 16.1947L31.9715 16.7227C32.1379 16.7632 32.2071 16.8823 32.2131 16.9656C32.2375 17.307 32.25 17.652 32.25 18C32.25 18.348 32.2375 18.693 32.2131 19.0344C32.2071 19.1177 32.1379 19.2368 31.9715 19.2773L29.7966 19.8053C28.8562 20.0336 28.1763 20.743 27.8798 21.5646C27.7691 21.8712 27.6446 22.1712 27.5069 22.4639C27.1349 23.2548 27.114 24.2377 27.6176 25.0643L28.7822 26.9757C28.8713 27.1219 28.8361 27.2551 28.7814 27.3183C28.3296 27.8405 27.8405 28.3296 27.3183 28.7814C27.2551 28.8361 27.1219 28.8713 26.9757 28.7822L25.0643 27.6176C24.2377 27.114 23.2548 27.1348 22.4639 27.5069C22.1712 27.6446 21.8712 27.7691 21.5646 27.8798C20.743 28.1763 20.0336 28.8562 19.8053 29.7966L19.2773 31.9715C19.2368 32.1379 19.1177 32.2071 19.0344 32.2131C18.693 32.2375 18.348 32.25 18 32.25C17.652 32.25 17.307 32.2375 16.9656 32.2131C16.8823 32.2071 16.7632 32.1379 16.7227 31.9715L16.1947 29.7966C15.9664 28.8562 15.257 28.1763 14.4354 27.8798C14.1288 27.7691 13.8288 27.6446 13.5361 27.5069C12.7452 27.1349 11.7623 27.114 10.9357 27.6176L9.02429 28.7822C8.8781 28.8713 8.74488 28.8361 8.6817 28.7814C8.15947 28.3296 7.67038 27.8405 7.21859 27.3183C7.16393 27.2551 7.12874 27.1219 7.2178 26.9757L8.38239 25.0643C8.88601 24.2377 8.86515 23.2548 8.49308 22.4639C8.3554 22.1712 8.23086 21.8712 8.12022 21.5646C7.82374 20.743 7.14378 20.0336 6.20343 19.8053L4.02855 19.2773C3.86213 19.2368 3.79289 19.1177 3.78692 19.0344C3.76246 18.693 3.75 18.348 3.75 18C3.75 17.652 3.76246 17.307 3.78692 16.9656C3.79289 16.8823 3.86213 16.7632 4.02855 16.7227L6.20343 16.1947C7.14378 15.9664 7.82374 15.257 8.12022 14.4354C8.23086 14.1288 8.3554 13.8288 8.49308 13.5361C8.86515 12.7452 8.88601 11.7623 8.38239 10.9357L7.21781 9.02429C7.12874 8.8781 7.16393 8.74488 7.21859 8.6817C7.67038 8.15947 8.15947 7.67038 8.6817 7.21859C8.74488 7.16393 8.8781 7.12874 9.02429 7.21781L10.9357 8.38239C11.7623 8.88601 12.7452 8.86515 13.5361 8.49308C13.8288 8.3554 14.1288 8.23086 14.4354 8.12022C15.257 7.82374 15.9664 7.14378 16.1947 6.20343L16.7227 4.02855C16.7632 3.86213 16.8823 3.79289 16.9656 3.78692Z" fill="#24292E"/>
</svg>
