<?xml version="1.0" encoding="utf-8"?>
<!-- Generator: Adobe Illustrator 26.0.2, SVG Export Plug-In . SVG Version: 6.00 Build 0)  -->
<svg version="1.1" id="Layer_1" xmlns="http://www.w3.org/2000/svg" xmlns:xlink="http://www.w3.org/1999/xlink" x="0px" y="0px"
	 viewBox="0 0 500 278.5" style="enable-background:new 0 0 500 278.5;" xml:space="preserve">
<style type="text/css">
	.st0{fill:#BA6E8A;}
	.st1{fill:#3F2222;}
	.st2{fill:#B96E8A;}
	.st3{fill:#F4C1DA;}
	.st4{fill:#FAE7F1;}
</style>
<g id="Pig_1_00000152253661835635599680000000843185395194512274_">
	<g>
		<path class="st0" d="M182,249.1c0-19.7,0-39.5,0-59.2h-58v59.3c7.8,1.3,16.9,2.2,26.9,2.3C162.7,251.7,173.2,250.6,182,249.1z"/>
		<path class="st1" d="M150.9,251.5c-10.1-0.1-19.1-1-26.9-2.3v13.3c7.1,2.1,17.3,4.2,29.7,4.1c11.7-0.1,21.4-2.1,28.3-4.1
			c0-4.4,0-8.9,0-13.3C173.2,250.6,162.7,251.7,150.9,251.5z"/>
	</g>
	<g>
		<path class="st2" d="M411,245.8c0-19.7,0-39.5,0-59.2h-58v59.3c7.8,1.3,16.9,2.2,26.9,2.3C391.7,248.3,402.2,247.3,411,245.8z"/>
		<path class="st1" d="M380,248.2c-10.1-0.1-19.1-1-26.9-2.3v13.3c7.1,2.1,17.3,4.2,29.7,4.1c11.7-0.1,21.4-2.1,28.3-4.1
			c0-4.4,0-8.9,0-13.3C402.2,247.3,391.7,248.3,380,248.2z"/>
	</g>
	<g>
		<path class="st2" d="M470.7,89c-4.4,0-8.3-2.5-10.5-5.4c-3.3-4.3-3.8-10.8-1.2-14.8c1.9-2.9,5.6-4.5,10.8-4.8
			c-11-3.6-30.9,6.2-37.5,12.9c-0.9,0.9-2.4,0.9-3.3,0c-0.9-0.9-0.9-2.4,0-3.3c7.3-7.3,35.1-22.4,47.8-10.8c0.5,0.5,1.1,1.1,1.6,1.7
			c5.8,0.9,12.6,2.8,20.2,5.7c1.2,0.5,1.8,1.8,1.3,3c-0.5,1.2-1.8,1.8-3,1.3c-5.9-2.3-11-3.8-15.4-4.7c1.2,3,1.7,6.4,0.7,9.9
			c-0.3,1.2-2.3,7.1-8.2,8.9C472.8,88.9,471.7,89,470.7,89z M471.5,68.6c-4.6,0-7.6,1.1-8.7,2.8c-1.3,2.1-1.2,6.4,1,9.5
			c1.8,2.4,5.4,4.3,8.7,3.3c3.7-1.1,5-5.3,5.1-5.7c1-3.5-0.4-7.1-1.9-9.5C474.2,68.7,472.8,68.6,471.5,68.6z"/>
	</g>
	<path class="st0" d="M69.8,20.4C66,15.6,62,12.3,59.2,10.2C54.2,6.4,49.2,2.8,42.3,3c-1.6,0-2.8,0.3-3.8,0.5
		c-4.6,0.9-9.9,3.3-16.5,9.6C17.9,17,10.6,23.9,6.4,35.4c-2.7,7.5-3.3,14.5-2.9,20.3c0.3,4.5,5.8,6.3,8.9,3c0,0,0.1-0.1,0.1-0.1
		c2.3-2.4,4.5-4.4,6.6-5.9"/>
	<g>
		<path class="st1" d="M372.9,259.1c0,4.3-0.1,8.7-0.1,13c6,2,14.9,4.2,26,4.2c12,0,21.7-2.5,27.9-4.7c0.1-4,0.2-8,0.4-12.1
			c-7.9,1.1-16.7,1.9-26.3,1.8C390.4,261.3,381.1,260.4,372.9,259.1z"/>
		<path class="st3" d="M433.7,192.8c6.2-6.5,15.8-18,22.2-34.9c8-21.2,7.1-39.8,5.9-49.2c-0.7-27.8-12.4-53.7-31.8-72.7
			c-14.5-14.2-34.3-21.7-54.6-21.7h-274v0.1c-1,0-2.1-0.1-3.1-0.1C44,14.3,0,57.7,0,111.2S44,208,98.2,208c1,0,2.1,0,3.1-0.1v0.1h56
			v50.8c8.5,1.4,18.2,2.4,28.9,2.5c11.1,0,21.2-0.9,29.9-2.3V208h157.2c-0.2,17-0.3,34-0.5,51c8.2,1.3,17.5,2.2,27.8,2.3
			c9.7,0,18.5-0.7,26.3-1.8c0.5-12.1,1.5-24.8,2.9-37.9C431,211.6,432.2,202,433.7,192.8z"/>
	</g>
	<ellipse class="st1" cx="120" cy="96.7" rx="10.1" ry="15.8"/>
	<ellipse class="st1" cx="49.1" cy="96.7" rx="10.1" ry="15.8"/>
	<g id="Nose">
		<path class="st2" d="M119,153.2c4-12.6-13.2-34.3-33.3-34.6c-20.7-0.3-38.6,22.3-34.6,34.8c4.1,13,31.1,13.6,33,13.6
			C93.9,167.2,115.3,164.8,119,153.2z"/>
		<ellipse class="st1" cx="70" cy="142.8" rx="6.3" ry="6.8"/>
		<ellipse class="st1" cx="101.3" cy="142.8" rx="6.3" ry="6.8"/>
	</g>
	<path class="st2" d="M197,4.2c-7.4-1.7-16.1-3.1-25.9-3.8c-8.7-0.6-16.6-0.5-23.5,0c-0.9,0.1-1.7,0.4-2.4,0.9
		c-3.2,2.4-7.2,5.9-10.8,10.9c-0.7,1-1.4,2-2,2.9l0.3,0.2l10.1,15.9l1.3-1.9c0.7-1,1.4-1.7,2.1-2.4l3.8,3.2c3.1,3,6.2,6.4,9.3,10.3
		c5.9,7.4,10.3,14.8,13.4,21.4c1.5,3,5.6,3.6,7.7,1c4.5-5.3,9-11.8,12.5-19.8c2.6-5.7,7.1-15.7,7.4-29.2l0.1-5.1
		C200.6,6.6,199.1,4.7,197,4.2z"/>
	<g>
		<path class="st4" d="M387.3,39.4H250.5c-2.9,0-5.3-2.8-5.3-6.2c0-3.4,2.4-6.2,5.3-6.2h136.9c2.9,0,5.3,2.8,5.3,6.2
			C392.6,36.6,390.3,39.4,387.3,39.4z"/>
	</g>
	<path class="st1" d="M157.3,258.9V273c6.2,2.4,16.3,5.5,29,5.5c13.2,0.1,23.5-3.1,29.8-5.5c0-4.7,0-9.4,0-14
		c-8.7,1.4-18.7,2.4-29.9,2.3C175.5,261.3,165.8,260.3,157.3,258.9z"/>
</g>
</svg>
