<svg xmlns="http://www.w3.org/2000/svg" viewBox="0 0 150.07 99.64"><defs><style>.cls-1{fill:#ba6e8a;}.cls-2{fill:#3f2222;}.cls-3{fill:#fcc0e6;}.cls-4{fill:#fee8f6;}.cls-5,.cls-8{fill:#2d1919;}.cls-6{fill:#423030;}.cls-7{fill:#872929;}.cls-8{opacity:0.5;}.cls-9{fill:#574747;}.cls-10{fill:#141414;}.cls-11{opacity:0.33;}.cls-12,.cls-13{fill:#a3a3a3;}.cls-12{opacity:0.68;}</style></defs><g id="Layer_2" data-name="Layer 2"><g id="Layer_11" data-name="Layer 11"><path class="cls-1" d="M54.62,90.82V73H37.22v17.8a53.45,53.45,0,0,0,17.4,0Z"/><path class="cls-2" d="M45.31,91.54a54.09,54.09,0,0,1-8.09-.7v4a31.12,31.12,0,0,0,17.4,0v-4A54,54,0,0,1,45.31,91.54Z"/><path class="cls-1" d="M123.36,89.82V72H106v17.8a53.39,53.39,0,0,0,17.39,0Z"/><path class="cls-2" d="M114.05,90.54a53.82,53.82,0,0,1-8.08-.7v4a31.09,31.09,0,0,0,17.39,0v-4A54,54,0,0,1,114.05,90.54Z"/><path class="cls-1" d="M141.27,42.76a4.13,4.13,0,0,1-3.52-6.06A3.91,3.91,0,0,1,141,35.26c-3.3-1.07-9.27,1.87-11.26,3.87a.69.69,0,0,1-1-1c2.19-2.19,10.53-6.72,14.35-3.25a4.77,4.77,0,0,1,.48.51,30.56,30.56,0,0,1,6.06,1.71A.69.69,0,0,1,150,38a.68.68,0,0,1-.89.4A31.89,31.89,0,0,0,144.5,37a4.58,4.58,0,0,1,.21,3,4,4,0,0,1-2.48,2.67A3.6,3.6,0,0,1,141.27,42.76Zm.23-6.13c-1.39,0-2.26.32-2.6.83a2.76,2.76,0,0,0,.32,2.84,2.55,2.55,0,0,0,2.61,1,2.61,2.61,0,0,0,1.55-1.72,3.63,3.63,0,0,0-.58-2.86A12.71,12.71,0,0,0,141.5,36.63Z"/><path class="cls-1" d="M20.94,22.18a16.32,16.32,0,0,0-3.16-3.08c-1.52-1.13-3-2.22-5.07-2.17a6.2,6.2,0,0,0-1.15.14A10,10,0,0,0,6.6,20a17.14,17.14,0,0,0-4.68,6.71,14.91,14.91,0,0,0-.86,6.08,1.54,1.54,0,0,0,2.68.9l0,0a15.79,15.79,0,0,1,2-1.76"/><path class="cls-2" d="M111.92,93.79l0,3.91A24.78,24.78,0,0,0,119.68,99,25.11,25.11,0,0,0,128,97.56c0-1.19.07-2.4.13-3.63a53.67,53.67,0,0,1-16.25-.14Z"/><path class="cls-3" d="M130.16,73.9a30.72,30.72,0,0,0,6.66-10.49,31.05,31.05,0,0,0,1.77-14.77,31.79,31.79,0,0,0-19.21-28.31h-89v0l-.94,0a29.08,29.08,0,1,0,0,58.15l.94,0v0H47.23V93.74a55.14,55.14,0,0,0,8.68.74,54.39,54.39,0,0,0,9-.71V78.48h47.19l-.15,15.31a53.67,53.67,0,0,0,16.25.14q.24-5.46.86-11.39Q129.51,78.05,130.16,73.9Z"/><ellipse class="cls-2" cx="36.03" cy="45.05" rx="3.04" ry="4.76"/><ellipse class="cls-2" cx="14.72" cy="45.05" rx="3.04" ry="4.76"/><g id="Nose"><path class="cls-1" d="M35.7,62c1.2-3.78-4-10.29-10-10.38-6.23-.1-11.59,6.68-10.38,10.46s9.33,4.08,9.9,4.09C28.18,66.23,34.6,65.51,35.7,62Z"/><ellipse class="cls-2" cx="21" cy="58.91" rx="1.9" ry="2.04"/><ellipse class="cls-2" cx="30.42" cy="58.91" rx="1.9" ry="2.04"/></g><path class="cls-1" d="M59.14,17.31a52.63,52.63,0,0,0-7.78-1.15,51.8,51.8,0,0,0-7.06,0,1.43,1.43,0,0,0-.72.26,15.07,15.07,0,0,0-3.23,3.26c-.21.3-.41.59-.59.89l.08.07,3,4.76.39-.58a4.51,4.51,0,0,1,.63-.72l1.12,1a33.5,33.5,0,0,1,2.8,3.1,34.16,34.16,0,0,1,4,6.42,1.39,1.39,0,0,0,2.32.3A25.48,25.48,0,0,0,57.92,29a21.82,21.82,0,0,0,2.23-8.76l0-1.54A1.35,1.35,0,0,0,59.14,17.31Z"/><path class="cls-4" d="M116.26,27.85H75.18a1.87,1.87,0,0,1,0-3.69h41.08a1.87,1.87,0,0,1,0,3.69Z"/><path class="cls-2" d="M47.23,93.74V98a24.28,24.28,0,0,0,17.65,0V93.77a54.39,54.39,0,0,1-9,.71A55.14,55.14,0,0,1,47.23,93.74Z"/><ellipse class="cls-5" cx="29.37" cy="24.97" rx="22.56" ry="5.12"/><path class="cls-6" d="M44.88,25.59a123,123,0,0,1-15.61,1,122.1,122.1,0,0,1-15-1c0-10-.38-14.44-.38-24.4,4-1,9.24-.51,15.69-.45,5.94.05,11.16-.54,15,.45Q44.69,13.39,44.88,25.59Z"/><path class="cls-7" d="M29.51,20.93c-5.46,0-10.58-.24-15.32-.63,0,1.6,0,3.33,0,5.26a117.94,117.94,0,0,0,15,1,119.09,119.09,0,0,0,15.61-1l-.08-5.27C40.08,20.69,35,20.93,29.51,20.93Z"/><path class="cls-8" d="M44.51,1.2C41.66.47,38,.61,33.9.7a122.59,122.59,0,0,1,.75,13.05A118.39,118.39,0,0,1,34,26.49c3.93-.15,7.58-.47,10.89-.89Q44.7,13.4,44.51,1.2Z"/><ellipse class="cls-9" cx="29.2" cy="1.19" rx="15.35" ry="1.19"/><path class="cls-5" d="M42.71,69.86,39,73.25a1.69,1.69,0,0,0-.51,1.63,1.65,1.65,0,0,0,1.15,1.25l4.78,1.51a1.7,1.7,0,0,0,2.18-2l-1.08-4.9A1.71,1.71,0,0,0,42.71,69.86Z"/><path d="M38,75a12.38,12.38,0,0,1,6.24-1.38A12.3,12.3,0,0,1,38,75Z"/><path class="cls-5" d="M29.82,72.72l4.79,1.51a1.69,1.69,0,0,1,1.15,1.25,1.71,1.71,0,0,1-.51,1.63l-3.7,3.39a1.71,1.71,0,0,1-2.82-.89l-1.09-4.9A1.7,1.7,0,0,1,29.82,72.72Z"/><path d="M36.23,75.38A12.37,12.37,0,0,1,30,76.76a12.27,12.27,0,0,1,6.23-1.38Z"/><rect class="cls-5" x="34.82" y="73.13" width="4.62" height="4.09" rx="1.42" transform="translate(-15.4 9.82) rotate(-12.5)"/><path class="cls-10" d="M36,39.78A5.18,5.18,0,1,0,41.21,45,5.18,5.18,0,0,0,36,39.78Zm0,9.53A4.35,4.35,0,1,1,40.38,45,4.35,4.35,0,0,1,36,49.31Z"/><g class="cls-11"><path class="cls-12" d="M36,49.31a4.38,4.38,0,0,0,2.27-.64l-6.62-3.5A4.36,4.36,0,0,0,36,49.31Z"/><path class="cls-13" d="M40.29,45.85l-7.4-3.91a4.37,4.37,0,0,0-1.21,3v.21l6.62,3.5A4.36,4.36,0,0,0,40.29,45.85Z"/><path class="cls-12" d="M40.38,45a4.36,4.36,0,0,0-7.49-3l7.4,3.91A4.41,4.41,0,0,0,40.38,45Z"/></g><polygon class="cls-10" points="40.37 62.13 39.35 62.16 39.35 48.46 40.37 47.74 40.37 62.13"/></g></g></svg>