<svg xmlns="http://www.w3.org/2000/svg" viewBox="0 0 150.07 83.6"><defs><style>.cls-1{fill:#202020;}.cls-2{fill:#3f2222;}.cls-3{fill:#141414;}.cls-4{fill:#2b2b2b;}.cls-5{fill:#434343;}.cls-6{fill:#5f5f5f;}</style></defs><g id="Layer_2" data-name="Layer 2"><g id="Layer_3" data-name="Layer 3"><path class="cls-1" d="M54.62,74.78V57H37.22V74.8a53.45,53.45,0,0,0,17.4,0Z"/><path class="cls-2" d="M45.31,75.5a54.09,54.09,0,0,1-8.09-.7v4a31.12,31.12,0,0,0,17.4,0v-4A54,54,0,0,1,45.31,75.5Z"/><path class="cls-1" d="M123.36,73.78V56H106V73.8a53.39,53.39,0,0,0,17.39,0Z"/><path class="cls-2" d="M114.05,74.5a55.17,55.17,0,0,1-8.08-.7v4a31.09,31.09,0,0,0,17.39,0v-4A55.05,55.05,0,0,1,114.05,74.5Z"/><path class="cls-3" d="M141.27,26.72a4.13,4.13,0,0,1-3.52-6.06A3.91,3.91,0,0,1,141,19.22c-3.3-1.07-9.27,1.87-11.26,3.87a.69.69,0,0,1-1-1c2.19-2.19,10.53-6.72,14.35-3.25a4,4,0,0,1,.48.51,30.56,30.56,0,0,1,6.06,1.71A.69.69,0,0,1,150,22a.68.68,0,0,1-.89.4A30.69,30.69,0,0,0,144.5,21a4.58,4.58,0,0,1,.21,3,4,4,0,0,1-2.48,2.66A3.25,3.25,0,0,1,141.27,26.72Zm.23-6.13c-1.39,0-2.26.32-2.6.83a2.76,2.76,0,0,0,.32,2.84,2.55,2.55,0,0,0,2.61,1,2.61,2.61,0,0,0,1.55-1.72,3.63,3.63,0,0,0-.58-2.86A10.38,10.38,0,0,0,141.5,20.59Z"/><path class="cls-1" d="M20.94,6.14a16.32,16.32,0,0,0-3.16-3.08c-1.52-1.13-3-2.22-5.07-2.17A6.2,6.2,0,0,0,11.56,1a10,10,0,0,0-5,2.89,17.14,17.14,0,0,0-4.68,6.71,14.91,14.91,0,0,0-.86,6.08,1.54,1.54,0,0,0,2.68.9l0,0a15,15,0,0,1,2-1.76"/><path class="cls-2" d="M111.92,77.75l0,3.91a24.78,24.78,0,0,0,7.79,1.28A25.11,25.11,0,0,0,128,81.52c0-1.19.07-2.4.13-3.63a55.58,55.58,0,0,1-7.91.55A54.24,54.24,0,0,1,111.92,77.75Z"/><path class="cls-4" d="M130.16,57.86a30.84,30.84,0,0,0,8.43-25.26,31.59,31.59,0,0,0-8.48-20.73,24.1,24.1,0,0,0-17.67-7.58h-82v0l-.94,0A29.27,29.27,0,0,0,0,33.36,29.27,29.27,0,0,0,29.47,62.44l.94,0v0H47.23V77.7a55.14,55.14,0,0,0,8.68.74,54.39,54.39,0,0,0,9-.71V62.44h47.19l-.15,15.31a54.24,54.24,0,0,0,8.34.69,55.58,55.58,0,0,0,7.91-.55q.24-5.46.86-11.39Q129.51,62,130.16,57.86Z"/><ellipse cx="36.03" cy="29.01" rx="3.04" ry="4.76"/><ellipse cx="14.72" cy="29.01" rx="3.04" ry="4.76"/><g id="Nose"><path class="cls-5" d="M35.7,46c1.2-3.78-4-10.29-10-10.38-6.23-.1-11.59,6.68-10.38,10.46s9.33,4.08,9.9,4.09C28.18,50.18,34.6,49.47,35.7,46Z"/><ellipse class="cls-2" cx="21" cy="42.87" rx="1.9" ry="2.04"/><ellipse class="cls-2" cx="30.42" cy="42.87" rx="1.9" ry="2.04"/></g><path class="cls-1" d="M59.14,1.27A50.9,50.9,0,0,0,44.3.12a1.43,1.43,0,0,0-.72.26,15.07,15.07,0,0,0-3.23,3.26c-.21.3-.41.59-.59.88l.08.08,3,4.76.39-.58a4.51,4.51,0,0,1,.63-.72L45,9a33.5,33.5,0,0,1,2.8,3.1,34.16,34.16,0,0,1,4,6.42,1.39,1.39,0,0,0,2.32.3,25.48,25.48,0,0,0,3.75-5.93,21.87,21.87,0,0,0,2.23-8.76l0-1.54A1.35,1.35,0,0,0,59.14,1.27Z"/><path class="cls-6" d="M113,11.43H69.3A1.6,1.6,0,0,1,67.6,10,1.6,1.6,0,0,1,69.3,8.5H113A1.59,1.59,0,0,1,114.66,10,1.59,1.59,0,0,1,113,11.43Z"/><path class="cls-2" d="M47.23,77.7v4.24a24.28,24.28,0,0,0,17.65,0V77.73a54.39,54.39,0,0,1-9,.71A55.14,55.14,0,0,1,47.23,77.7Z"/></g></g></svg>