<svg xmlns="http://www.w3.org/2000/svg" viewBox="0 0 214.35 199.82"><defs><style>.cls-1{fill:#8b5e3c;}.cls-2{fill:#917054;}.cls-3{fill:#332429;}.cls-4{fill:#c49a6c;}.cls-5{fill:#c88ba1;}.cls-6{fill:#a27e63;}.cls-7{fill:#fff;}.cls-8{fill:#ffdbb8;}.cls-9{fill:#f9c9d3;}.cls-10{fill:#b27685;}.cls-11{fill:#443237;}.cls-12{fill:#976e4f;}</style></defs><g id="Layer_2" data-name="Layer 2"><g id="Layer_1-2" data-name="Layer 1"><path class="cls-1" d="M12.23,128.18c-1.21-1.33-3.41-8.43-1.58-11.79,1.58-3.37,1.82-7.56-2.59-10.93s-14.87,6.24-1.47,19.38a8,8,0,0,1-.42-5.47C6.49,123.59,12.23,128.18,12.23,128.18Z"/><path class="cls-1" d="M11.72,57.14c-.35,1.46-.71,2.92-1,4.38a272.32,272.32,0,0,0-6.83,51.69c0,1.21,1,3.28,2.38,3.37h.1A2.44,2.44,0,0,0,9,114.4a279.65,279.65,0,0,1,6.74-52c.34-1.51.71-3,1.08-4.53Z"/><path class="cls-2" d="M66.07,148.4V75.11h37.59v73.17c-6.1.42-12.54.67-19.29.68C78,149,71.89,148.76,66.07,148.4Z"/><path class="cls-3" d="M84.37,149c6.75,0,13.19-.26,19.29-.68v6.27a55.29,55.29,0,0,1-37.59,0V148.4C71.89,148.76,78,149,84.37,149Z"/><path class="cls-4" d="M13.65,159.5V89h37.6v70.35c-6.1.41-12.54.65-19.29.66C25.58,160.05,19.47,159.85,13.65,159.5Z"/><path class="cls-3" d="M32,160c6.75,0,13.19-.25,19.29-.66v6a57.29,57.29,0,0,1-37.6,0V159.5C19.47,159.85,25.58,160.05,32,160Z"/><path class="cls-2" d="M13.65,95.09v28.67c.88,1.12,1.72,2.09,2.48,2.92,7.4,8,15,10.62,35.12,18.73v-43.7Z"/><path class="cls-5" d="M83.82,119.73H47.72a13.68,13.68,0,0,0,2.36,7.6,16,16,0,0,0,2,2.48c-1.35,3.94-1.75,7.44-.87,8.09s2.73-1.73,4.32-5.45a19.43,19.43,0,0,0,5.12,2.07v0c-.59,3.75-.17,7.07.93,7.4s2.49-2.43,3.08-6.19l.09-.63c.32,0,.65,0,1,0a20.89,20.89,0,0,0,5.65-.77,15.3,15.3,0,0,0,.07,2c.36,3.28,1.74,5.74,3.08,5.51s2.16-3.08,1.8-6.36a12.24,12.24,0,0,0-.66-2.94,17.31,17.31,0,0,0,2.67-1.84,12.35,12.35,0,0,0,.35,1.29c.91,2.71,2.5,4.44,3.55,3.86s1.17-3.23.27-5.94a10.62,10.62,0,0,0-1.18-2.48,14.38,14.38,0,0,0,1.9-4A13.2,13.2,0,0,0,83.82,119.73Z"/><path class="cls-4" d="M100.55,190.74V120.27h37.6v70.35c-6.11.41-12.54.65-19.29.66C112.47,191.29,106.37,191.09,100.55,190.74Z"/><path class="cls-3" d="M118.86,191.28c6.75,0,13.18-.25,19.29-.66v6a57.29,57.29,0,0,1-37.6,0v-5.91C106.37,191.09,112.47,191.29,118.86,191.28Z"/><path class="cls-6" d="M138.15,152V133.3h-37.6v13.48a74.66,74.66,0,0,0,37.6,5.17Z"/><path class="cls-4" d="M152.33,182.67V109.38h37.59v73.17c-6.1.43-12.54.68-19.28.69C164.25,183.25,158.15,183,152.33,182.67Z"/><path class="cls-3" d="M170.64,183.24c6.74,0,13.18-.26,19.28-.69v6.27a55.29,55.29,0,0,1-37.59,0v-6.15C158.15,183,164.25,183.25,170.64,183.24Z"/><rect class="cls-4" x="7.7" y="26.34" width="189.54" height="112.91" rx="56.46" transform="translate(24.86 -23.66) rotate(14.97)"/><path class="cls-6" d="M55.24,41.72c5.94-2.7,13.34-1.17,30.69-6.33a163.76,163.76,0,0,0,23.85-9.19l-29.87-8a56.45,56.45,0,0,0-69.12,40h0A56.19,56.19,0,0,0,8.86,72.74c0,2.61.42,27.84,20.14,43.84a51.29,51.29,0,0,0,12.78,7.58C36,64.43,45,46.37,55.24,41.72Z"/><path class="cls-7" d="M81.29,46.71c15.76,3.54,19.76,7.19,28.85,4.88,9.92-2.51,22.12-11.16,21-20.09L80.26,17.89A56.4,56.4,0,0,0,28.94,29.57,20.74,20.74,0,0,0,34,38.34C42.68,47,52.86,40.33,81.29,46.71Z"/><path class="cls-1" d="M187.38,20.43a38.78,38.78,0,0,1,27,26,21.33,21.33,0,0,1-18.49-9.77Z"/><path class="cls-8" d="M135.53,17.45A38.6,38.6,0,0,0,121.8,0a55.14,55.14,0,0,0,0,15.22,55.65,55.65,0,0,0,5.56,17.63Z"/><path class="cls-8" d="M178.84,20.22A38.73,38.73,0,0,1,192.58,2.77,55.3,55.3,0,0,1,187,35.62Z"/><path class="cls-6" d="M108.71,60v7.37h0c0,26,21.63,47,48.3,47a48.64,48.64,0,0,0,38.87-19.13,56.46,56.46,0,0,0-41.81-57.11l-29.59-7.91A49.16,49.16,0,0,0,108.71,60Z"/><path class="cls-4" d="M109.64,54a48.7,48.7,0,0,1,96.59,0v7.36c0,26-21.62,47.05-48.3,47.05s-48.29-21.06-48.29-47h0Z"/><ellipse class="cls-9" cx="166.05" cy="88.51" rx="25.38" ry="18.87"/><circle class="cls-10" cx="177.53" cy="89.09" r="3.85"/><circle class="cls-10" cx="154.56" cy="89.09" r="3.85"/><ellipse class="cls-11" cx="186.82" cy="53.49" rx="5.41" ry="10.07"/><ellipse class="cls-11" cx="137.75" cy="53.49" rx="5.41" ry="10.07"/><path class="cls-12" d="M130.19,20.41a38.8,38.8,0,0,0-26.89,26,21.35,21.35,0,0,0,18.45-9.83Q126,28.52,130.19,20.41Z"/><path class="cls-7" d="M179.1,116c-6.25-1.55-9,2.89-26.62,10.07-16.64,6.78-22.48,6.2-25,11.68-.71,1.54-1.76,4.9.28,10.71a56.45,56.45,0,0,0,59.69-26.55C183.81,117.41,180.45,116.34,179.1,116Z"/><path class="cls-7" d="M32.86,106.52c-.71-5.32-5.7-5.21-14.28-16.14-3.85-4.9-5-7.66-9.23-12.7A56.63,56.63,0,0,0,29,116.58C32.63,112.19,33.18,108.87,32.86,106.52Z"/><path class="cls-7" d="M77.66,115.57c7.76-1.73,10.44,3.72,15,1.63S107.35,105,106,94.11,97.9,89.83,92.51,82.19,70.85,72.07,72.48,92c-5.11,2.58-7.57,9.07-5.88,14.86C68.11,112.05,72.65,115.69,77.66,115.57Z"/></g></g></svg>