<svg width="350" height="320" viewBox="0 0 350 320" fill="none" xmlns="http://www.w3.org/2000/svg">
<path d="M25.5243 205.301C23.5821 203.171 20.0508 191.799 22.9882 186.417C25.5243 181.02 25.9095 174.309 18.8309 168.911C11.7523 163.514 -5.03729 178.906 16.4714 199.951C15.2188 197.202 14.9801 194.099 15.7972 191.19C16.3109 197.949 25.5243 205.301 25.5243 205.301Z" fill="#8B5E3C"/>
<path d="M24.7053 91.519C24.1435 93.8574 23.5657 96.1958 23.1002 98.5342C16.8006 125.717 13.1295 153.441 12.1372 181.324C12.1372 183.262 13.7423 186.578 15.9574 186.722H16.1179C17.1395 186.807 18.1539 186.489 18.9431 185.836C19.7324 185.183 20.2337 184.248 20.3394 183.23C21.3235 155.191 24.9456 127.306 31.1579 99.9437C31.7037 97.5252 32.2976 95.1387 32.8915 92.6882L24.7053 91.519Z" fill="#8B5E3C"/>
<path d="M111.944 237.687V120.301H172.281V237.494C162.489 238.167 152.152 238.568 141.318 238.584C131.093 238.648 121.286 238.263 111.944 237.687Z" fill="#917054"/>
<path d="M141.318 238.648C152.152 238.648 162.489 238.231 172.281 237.558V247.601C152.786 254.632 131.439 254.632 111.944 247.601V237.687C121.286 238.263 131.093 238.648 141.318 238.648Z" fill="#332429"/>
<path d="M27.8032 255.465V142.548H88.1559V255.225C78.3647 255.881 68.0277 256.266 57.1931 256.282C46.9524 256.346 37.1451 256.026 27.8032 255.465Z" fill="#C49A6C"/>
<path d="M57.257 256.266C68.0916 256.266 78.4286 255.865 88.2199 255.209V264.819C68.6752 271.594 47.4119 271.594 27.8672 264.819V255.465C37.1448 256.026 46.9521 256.346 57.257 256.266Z" fill="#332429"/>
<path d="M27.8032 152.302V198.222C29.2157 200.016 30.564 201.569 31.7839 202.899C43.6619 215.712 55.8608 219.908 88.1559 232.898V162.905L27.8032 152.302Z" fill="#917054"/>
<path d="M140.435 191.767H82.4902C82.5162 196.109 83.8347 200.346 86.2783 203.94C87.2133 205.367 88.2887 206.698 89.4886 207.912C87.3217 214.222 86.6796 219.828 88.0921 220.869C89.5046 221.91 92.4741 218.098 95.0263 212.14C97.5935 213.63 100.361 214.746 103.245 215.456C102.297 221.462 102.972 226.779 104.737 227.308C106.503 227.836 108.734 223.416 109.681 217.394L109.826 216.385C110.339 216.385 110.869 216.385 111.431 216.385C114.496 216.389 117.547 215.974 120.5 215.151C120.467 216.22 120.505 217.29 120.612 218.355C121.19 223.608 123.405 227.548 125.556 227.18C127.707 226.811 129.023 222.247 128.445 216.993C128.288 215.386 127.932 213.804 127.386 212.284C128.903 211.438 130.338 210.451 131.671 209.337C131.821 210.036 132.009 210.725 132.233 211.403C133.694 215.744 136.246 218.515 137.931 217.586C139.617 216.657 139.809 212.412 138.365 208.072C137.908 206.672 137.272 205.336 136.471 204.1C137.813 202.134 138.841 199.973 139.52 197.693C140.106 195.771 140.414 193.776 140.435 191.767V191.767Z" fill="#C88BA1"/>
<path d="M167.289 305.501V192.632H227.642V305.309C217.834 305.965 207.514 306.35 196.679 306.366C186.422 306.382 176.631 306.062 167.289 305.501Z" fill="#C49A6C"/>
<path d="M196.679 306.366C207.514 306.366 217.834 305.965 227.642 305.309V314.919C208.097 321.694 186.834 321.694 167.289 314.919V305.453C176.631 306.062 186.422 306.382 196.679 306.366Z" fill="#332429"/>
<path d="M227.642 243.453V213.502H167.289V235.092C186.356 242.994 207.145 245.846 227.642 243.372V243.453Z" fill="#A27E63"/>
<path d="M250.402 292.576V175.19H310.739V292.383C300.948 293.072 290.611 293.472 279.792 293.489C269.535 293.505 259.744 293.104 250.402 292.576Z" fill="#C49A6C"/>
<path d="M279.792 293.489C290.611 293.489 300.948 293.072 310.739 292.383V302.426C291.244 309.457 269.897 309.457 250.402 302.426V292.576C259.744 293.104 269.535 293.505 279.792 293.489Z" fill="#332429"/>
<path d="M253.176 61.1056L134.365 29.4056C86.0128 16.5047 36.3355 45.1556 23.4078 93.3994C10.4801 141.643 39.1974 191.211 87.5498 204.112L206.361 235.812C254.713 248.713 304.39 220.062 317.318 171.818C330.246 123.574 301.528 74.0066 253.176 61.1056Z" fill="#C49A6C"/>
<path d="M94.56 66.8213C104.094 62.4968 115.972 64.9474 143.821 56.6828C156.947 52.7791 169.747 47.8577 182.104 41.9635L134.158 29.1502C122.658 26.0836 110.664 25.3083 98.8632 26.8687C87.0621 28.429 75.6849 32.2945 65.3816 38.2442C55.0782 44.1939 46.0508 52.1112 38.8152 61.5436C31.5796 70.9761 26.2776 81.7388 23.2122 93.2167V93.2167C21.1642 100.811 20.1227 108.64 20.1143 116.505C20.1143 120.685 20.7884 161.095 52.4415 186.722C58.6525 191.741 65.5628 195.83 72.955 198.862C63.6774 103.195 78.1235 74.2691 94.56 66.8213Z" fill="#A27E63"/>
<path d="M136.374 74.8136C161.671 80.4835 168.091 86.3296 182.682 82.6297C198.605 78.6096 218.187 64.7552 216.39 50.4523L134.721 28.6537C120.501 24.8538 105.566 24.5715 91.2122 27.8313C76.8581 31.0911 63.5172 37.7947 52.3457 47.3611C53.8485 52.641 56.6389 57.467 60.4676 61.4077C74.4001 75.2781 90.7403 64.595 136.374 74.8136Z" fill="white"/>
<path d="M306.662 32.722C316.824 35.4426 326.129 40.6893 333.708 47.9717C341.287 55.2542 346.892 64.3348 350 74.3652C344.123 74.519 338.305 73.1601 333.107 70.4194C327.909 67.6787 323.505 63.6484 320.321 58.7169L306.662 32.722Z" fill="#8B5E3C"/>
<path d="M223.436 27.949C218.992 16.6799 211.329 6.96145 201.398 0C200.268 8.0867 200.268 16.2906 201.398 24.3773C202.774 34.2204 205.791 43.7645 210.322 52.6146L223.436 27.949Z" fill="#FFDBB8"/>
<path d="M292.954 32.3856C297.413 21.1206 305.08 11.4047 315.008 4.4366C317.515 22.4765 314.387 40.849 306.051 57.0512L292.954 32.3856Z" fill="#FFDBB8"/>
<path d="M180.386 96.0997V107.904C180.386 149.547 215.105 183.182 257.914 183.182C269.979 183.233 281.892 180.492 292.717 175.176C303.542 169.86 312.985 162.113 320.305 152.542C321.245 131.946 315.103 111.647 302.897 95.0108C290.692 78.3746 273.155 66.3999 253.195 61.0714L205.699 48.4022C191.893 60.8291 182.929 77.7213 180.386 96.0997V96.0997Z" fill="#A27E63"/>
<path d="M181.879 86.4897C184.323 67.6989 193.539 50.4382 207.804 37.9316C222.069 25.4249 240.41 18.5274 259.399 18.5274C278.388 18.5274 296.728 25.4249 310.994 37.9316C325.259 50.4382 334.475 67.6989 336.918 86.4897V98.278C336.918 139.921 302.216 173.636 259.391 173.636C216.566 173.636 181.879 139.905 181.879 98.358V86.4897Z" fill="#C49A6C"/>
<path d="M272.424 171.986C294.923 171.986 313.162 158.455 313.162 141.763C313.162 125.071 294.923 111.54 272.424 111.54C249.925 111.54 231.686 125.071 231.686 141.763C231.686 158.455 249.925 171.986 272.424 171.986Z" fill="#F9C9D3"/>
<path d="M290.852 148.858C294.265 148.858 297.031 146.098 297.031 142.692C297.031 139.286 294.265 136.526 290.852 136.526C287.439 136.526 284.672 139.286 284.672 142.692C284.672 146.098 287.439 148.858 290.852 148.858Z" fill="#B27685"/>
<path d="M253.981 148.858C257.394 148.858 260.161 146.098 260.161 142.692C260.161 139.286 257.394 136.526 253.981 136.526C250.569 136.526 247.802 139.286 247.802 142.692C247.802 146.098 250.569 148.858 253.981 148.858Z" fill="#B27685"/>
<path d="M305.763 101.802C310.559 101.802 314.447 94.5805 314.447 85.6729C314.447 76.7652 310.559 69.5442 305.763 69.5442C300.967 69.5442 297.08 76.7652 297.08 85.6729C297.08 94.5805 300.967 101.802 305.763 101.802Z" fill="#443237"/>
<path d="M226.999 101.802C231.795 101.802 235.683 94.5805 235.683 85.6729C235.683 76.7652 231.795 69.5442 226.999 69.5442C222.203 69.5442 218.315 76.7652 218.315 85.6729C218.315 94.5805 222.203 101.802 226.999 101.802Z" fill="#443237"/>
<path d="M214.865 32.6899C204.737 35.4394 195.469 40.6986 187.923 47.979C180.377 55.2595 174.798 64.3249 171.703 74.3331C177.578 74.4626 183.388 73.0824 188.574 70.3252C193.76 67.5681 198.148 63.5265 201.318 58.5888C205.866 49.9825 210.381 41.3496 214.865 32.6899Z" fill="#976E4F"/>
<path d="M293.372 185.793C283.34 183.31 278.925 190.422 250.643 201.922C223.934 212.781 214.56 211.852 210.515 220.629C209.375 223.095 207.69 228.477 210.964 237.783C229.382 241.48 248.496 239.374 265.66 231.755C282.825 224.137 297.193 211.383 306.774 195.259C300.932 188.051 295.539 186.337 293.372 185.793Z" fill="white"/>
<path d="M58.6379 170.609C57.4982 162.088 49.4887 162.264 35.7167 144.758C29.5369 136.91 27.691 132.489 20.9014 124.417C21.7743 136.366 25.0111 148.024 30.4247 158.718C35.8383 169.412 43.3215 178.93 52.4421 186.722C58.2687 179.69 59.1515 174.373 58.6379 170.609Z" fill="white"/>
<path d="M130.547 185.104C143.003 182.333 147.305 191.062 154.624 187.715C161.943 184.367 178.203 168.174 176.036 150.732C173.869 133.29 163.035 143.877 154.383 131.641C145.732 119.404 119.616 115.432 122.233 147.353C114.03 151.485 110.082 161.88 112.794 171.154C115.218 179.466 122.505 185.296 130.547 185.104Z" fill="white"/>
<circle cx="271.5" cy="61.5" r="11" stroke="#FF0000" stroke-width="5"/>
<circle cx="272" cy="62" r="3" fill="#FF0000"/>
</svg>
