<svg width="337" height="381" viewBox="0 0 337 381" fill="none" xmlns="http://www.w3.org/2000/svg">
<path d="M206.526 283.836L174.314 295.914C170.32 297.383 165.934 297.383 161.94 295.914L129.713 283.821C101.522 273.227 82.3672 242.722 82.3672 208.27V187.972C93.1094 187.972 135.04 217.944 156.02 233.449C159.592 235.887 163.816 237.192 168.142 237.192C172.467 237.192 176.691 235.887 180.264 233.449C201.333 217.944 243.426 187.958 253.886 187.958V208.27C253.886 242.737 234.761 273.242 206.526 283.836Z" fill="#D44C4C"/>
<path d="M210.298 130.986C210.05 128.24 209.678 127.885 207.055 127.726C206.471 127.726 205.868 127.726 205.283 127.726C202.164 127.814 201.899 128.169 201.172 131.27C199.701 137.437 198.337 143.674 196.512 149.717C192.507 162.972 196.512 174.703 207.906 182.092C215.299 186.672 223.714 189.345 232.395 189.871C233.715 190.073 235.062 189.999 236.351 189.655C237.641 189.311 238.845 188.704 239.889 187.872C240.932 187.039 241.793 186 242.415 184.82C243.038 183.639 243.409 182.342 243.506 181.011C244.221 175.957 244.351 170.838 243.896 165.754C243.028 156.327 240.068 147.573 233.122 140.644C232.848 140.309 232.599 139.953 232.378 139.581C233.003 139.422 233.636 139.298 234.274 139.209C237.623 138.837 238.102 138.411 238.314 135.044C238.362 133.935 238.284 132.823 238.084 131.731C238.072 131.399 237.995 131.072 237.857 130.77C237.719 130.468 237.522 130.196 237.278 129.97C237.035 129.745 236.748 129.569 236.436 129.455C236.125 129.34 235.793 129.289 235.461 129.303H228.001C228.408 127.531 228.674 125.989 229.188 124.483C229.326 124.219 229.4 123.926 229.405 123.629C229.41 123.331 229.346 123.036 229.217 122.768C229.088 122.499 228.898 122.265 228.662 122.082C228.426 121.9 228.151 121.776 227.859 121.719C227.587 121.557 227.282 121.461 226.967 121.439C226.652 121.416 226.335 121.466 226.043 121.587C225.751 121.707 225.491 121.894 225.283 122.132C225.075 122.37 224.926 122.653 224.847 122.959C224.66 123.412 224.441 123.85 224.191 124.27C223.978 122.303 224.191 120.23 221.444 120.017C217.9 119.752 218.662 122.569 218.219 124.997L217.386 122.888C217.311 122.5 217.142 122.136 216.893 121.829C216.644 121.521 216.323 121.28 215.959 121.126C215.595 120.972 215.198 120.91 214.804 120.945C214.411 120.98 214.031 121.112 213.7 121.329C213.333 121.411 212.991 121.58 212.702 121.821C212.413 122.062 212.187 122.369 212.041 122.716C211.895 123.063 211.835 123.44 211.864 123.815C211.894 124.191 212.013 124.553 212.212 124.873C213.594 128.257 213.594 128.257 210.298 130.986Z" fill="white"/>
<path d="M210.298 130.986C213.594 128.257 213.594 128.257 212.211 124.89C212.013 124.571 211.894 124.208 211.864 123.833C211.834 123.458 211.895 123.081 212.04 122.734C212.186 122.387 212.413 122.08 212.702 121.838C212.99 121.597 213.333 121.428 213.7 121.346C214.031 121.13 214.41 120.998 214.804 120.963C215.198 120.927 215.594 120.989 215.959 121.143C216.323 121.298 216.644 121.539 216.892 121.846C217.141 122.154 217.311 122.517 217.386 122.906L218.219 125.015C218.662 122.587 217.953 119.698 221.444 120.035C224.226 120.248 223.978 122.321 224.19 124.288C224.441 123.867 224.66 123.429 224.846 122.977C224.925 122.671 225.075 122.388 225.283 122.149C225.49 121.911 225.751 121.725 226.043 121.604C226.335 121.484 226.651 121.433 226.966 121.456C227.281 121.479 227.587 121.575 227.859 121.736C228.151 121.793 228.426 121.918 228.662 122.1C228.897 122.282 229.087 122.517 229.216 122.785C229.345 123.054 229.41 123.348 229.405 123.646C229.4 123.944 229.326 124.237 229.188 124.501C228.674 126.007 228.408 127.619 228 129.321H235.461C235.793 129.306 236.124 129.358 236.436 129.473C236.748 129.587 237.034 129.762 237.278 129.988C237.522 130.214 237.718 130.485 237.857 130.788C237.995 131.09 238.072 131.416 238.083 131.748C238.284 132.841 238.361 133.952 238.314 135.062C238.101 138.429 237.623 138.854 234.273 139.226C233.635 139.316 233.002 139.44 232.377 139.598C232.598 139.971 232.847 140.326 233.122 140.662C240.068 147.59 243.027 156.344 243.896 165.771C244.351 170.855 244.22 175.975 243.506 181.029C243.409 182.36 243.037 183.657 242.415 184.837C241.792 186.018 240.932 187.057 239.888 187.889C238.845 188.721 237.64 189.329 236.351 189.673C235.061 190.017 233.714 190.09 232.395 189.889C223.718 189.33 215.316 186.627 207.941 182.021C196.493 174.632 192.542 162.901 196.547 149.646C198.319 143.586 199.736 137.366 201.207 131.199C201.934 128.151 202.199 127.797 205.318 127.655C205.903 127.655 206.506 127.655 207.09 127.655C209.713 127.885 210.05 128.24 210.298 130.986ZM209.872 149.894C212.655 150.904 215.188 151.666 217.634 152.782C219.213 153.495 220.893 153.961 222.613 154.165C224.608 154.648 226.537 155.374 228.355 156.326C228.603 156.433 228.532 157.266 228.621 157.762C228.163 157.714 227.712 157.619 227.274 157.478C225.768 156.805 224.297 156.061 222.826 155.352L222.507 155.901C222.844 156.273 223.216 156.61 223.517 157C225.608 159.693 227.628 162.422 229.755 165.063C230.392 165.918 231.2 166.63 232.129 167.154C234.39 167.957 236.28 169.557 237.445 171.655C237.64 172.115 237.357 172.771 237.304 173.338C236.878 173.037 236.293 172.842 236.063 172.434C235.192 170.812 233.724 169.591 231.97 169.032C232.643 171.743 233.334 174.26 233.83 176.811C233.954 177.467 233.494 178.229 233.316 178.955C232.919 178.401 232.581 177.808 232.306 177.183C231.757 175.305 231.456 173.32 230.782 171.495C229.932 169.156 228.78 166.906 227.77 164.637L227.043 164.832C227.043 166.87 227.043 168.926 227.043 170.964C226.988 171.608 226.887 172.247 226.742 172.877C226.299 172.346 225.466 171.814 225.466 171.265C225.377 168.866 225.502 166.464 225.838 164.088C226.033 162.936 226.104 162.086 225.236 161.288C223.256 159.209 221.136 157.267 218.892 155.476C216.715 154.167 214.433 153.041 212.07 152.109C212.979 154.242 214.07 156.294 215.33 158.24C215.878 159.162 216.579 159.983 217.404 160.668C218.44 161.422 219.311 162.38 219.963 163.483C220.615 164.586 221.035 165.811 221.196 167.083C221.196 167.544 220.753 168.111 220.505 168.624C220.177 168.214 219.886 167.775 219.636 167.313C218.945 165.771 218.29 164.194 217.616 162.617L217.014 162.865C217.014 163.273 217.155 163.698 217.191 164.123C217.368 166.994 217.581 169.865 217.652 172.736C217.652 173.108 217.031 173.498 216.677 173.887C216.42 173.498 216.234 173.066 216.128 172.612C216.128 171.637 216.128 170.645 216.128 169.652C216.068 165.726 215.149 161.861 213.434 158.329C211.986 160.242 211.141 162.543 211.006 164.939C211.006 165.506 210.475 166.037 210.209 166.604C209.864 166.061 209.618 165.461 209.482 164.832C209.503 161.868 210.57 159.006 212.495 156.752C209.128 151.241 208.171 151.347 203.139 153.084C201.309 153.782 199.64 154.843 198.23 156.202C197.352 157.123 196.842 158.333 196.795 159.605C196.635 168.855 201.189 175.553 208.614 180.55C215.484 184.845 223.277 187.444 231.35 188.135C237.481 188.897 241.202 186.15 242.159 179.983C243.161 173.352 242.927 166.593 241.468 160.048C241.208 158.789 240.647 157.612 239.832 156.618C239.017 155.624 237.973 154.843 236.79 154.342C235.018 153.509 233.139 152.871 231.367 152.02C229.823 151.332 228.565 150.129 227.808 148.617C227.052 147.104 226.844 145.376 227.221 143.727C227.573 142.15 228.404 140.719 229.599 139.631C230.795 138.543 232.297 137.851 233.901 137.649C236.577 137.348 236.701 137.224 236.737 134.584C236.737 133.999 236.737 133.396 236.648 132.811C236.648 131.571 236.028 130.756 234.699 130.915C231.972 130.973 229.263 131.372 226.636 132.103C218.183 135.275 213.558 142.203 209.872 149.894ZM197.202 153.739C200.002 152.676 202.767 151.4 205.655 150.62C208.543 149.841 208.667 149.805 208.614 147.076C208.614 146.297 208.402 145.517 208.384 144.737C208.384 141.601 208.242 138.482 208.26 135.346C208.26 133.804 208.49 132.244 208.526 130.685C208.53 130.471 208.488 130.259 208.403 130.063C208.317 129.867 208.19 129.693 208.029 129.551C207.538 129.282 206.992 129.13 206.432 129.105C205.873 129.08 205.315 129.184 204.802 129.408C204.289 129.632 203.834 129.971 203.472 130.398C203.11 130.825 202.85 131.329 202.713 131.872C201.242 137.968 199.665 144.046 198.124 150.142C197.805 151.471 197.45 152.782 197.202 153.739ZM226.955 122.906C226.384 124.027 225.733 125.105 225.006 126.131C224.781 126.377 224.507 126.574 224.202 126.708C223.897 126.842 223.567 126.911 223.234 126.911C222.879 126.911 222.472 125.971 222.33 125.404C222.188 124.837 222.33 123.951 222.223 123.26C221.989 122.697 221.672 122.172 221.284 121.701C220.821 122.167 220.438 122.705 220.15 123.296C219.92 124.093 220.15 125.068 219.884 125.812C219.619 126.556 219.211 127.265 218.715 127.371C218.219 127.478 217.439 126.857 217.067 126.344C216.647 125.611 216.314 124.832 216.075 124.022C215.401 122.25 215.118 122.25 213.576 123.597C214.834 127.371 216.216 127.797 211.981 131.996C209.164 134.778 208.614 141.122 210.475 144.915C214.48 138.411 219.335 132.847 226.423 130.012C226.583 128.7 226.778 127.549 226.848 126.379C226.919 125.209 228.107 124.306 226.955 122.906ZM230.853 140.786C230.082 141.373 229.476 142.15 229.092 143.04C228.709 143.931 228.562 144.905 228.665 145.869C228.769 146.833 229.119 147.754 229.682 148.542C230.246 149.331 231.003 149.962 231.881 150.372C234.256 151.56 236.719 152.499 239.341 153.615C237.715 148.654 234.783 144.223 230.853 140.786Z" fill="#3F2222"/>
<path d="M209.872 149.894C213.558 142.204 218.183 135.275 226.583 132.032C229.21 131.302 231.919 130.903 234.645 130.845C235.974 130.685 236.541 131.5 236.595 132.741C236.595 133.326 236.683 133.928 236.683 134.513C236.683 137.153 236.524 137.277 233.848 137.579C232.244 137.78 230.742 138.473 229.546 139.561C228.35 140.648 227.52 142.079 227.167 143.657C226.791 145.305 226.999 147.033 227.755 148.546C228.511 150.058 229.769 151.262 231.314 151.95C233.086 152.8 234.858 153.438 236.736 154.271C237.92 154.772 238.964 155.554 239.779 156.548C240.593 157.541 241.155 158.718 241.415 159.977C242.874 166.523 243.108 173.282 242.106 179.913C241.149 186.079 237.427 188.773 231.296 188.064C223.219 187.358 215.426 184.74 208.561 180.426C201.136 175.465 196.582 168.731 196.741 159.481C196.788 158.21 197.299 156.999 198.177 156.079C199.586 154.719 201.256 153.658 203.085 152.96C208.118 151.188 209.075 151.188 212.442 156.628C210.517 158.882 209.45 161.744 209.429 164.708C209.565 165.337 209.811 165.937 210.156 166.481C210.422 165.913 210.918 165.382 210.953 164.815C211.087 162.419 211.933 160.118 213.381 158.205C215.095 161.737 216.015 165.602 216.074 169.528C216.074 170.521 215.968 171.513 216.074 172.488C216.181 172.942 216.367 173.374 216.624 173.764C216.978 173.374 217.616 172.984 217.598 172.612C217.598 169.741 217.315 166.87 217.138 164C217.138 163.574 217.014 163.149 216.96 162.741L217.563 162.493C218.236 164.071 218.892 165.648 219.583 167.189C219.833 167.651 220.124 168.09 220.451 168.501C220.699 167.987 221.213 167.42 221.142 166.959C220.981 165.688 220.562 164.463 219.91 163.359C219.258 162.256 218.387 161.298 217.35 160.544C216.526 159.859 215.825 159.038 215.277 158.116C214.017 156.17 212.926 154.118 212.016 151.985C214.379 152.918 216.661 154.044 218.839 155.352C221.083 157.143 223.202 159.085 225.183 161.164C226.051 161.962 225.98 162.812 225.785 163.964C225.448 166.341 225.324 168.742 225.413 171.141C225.413 171.69 226.246 172.222 226.689 172.754C226.834 172.123 226.934 171.484 226.99 170.84C226.99 168.802 226.99 166.746 226.99 164.708L227.717 164.514C228.727 166.782 229.879 169.032 230.729 171.371C231.402 173.143 231.704 175.181 232.253 177.06C232.527 177.684 232.866 178.278 233.263 178.832C233.44 178.105 233.901 177.343 233.777 176.687C233.281 174.136 232.59 171.619 231.916 168.908C233.671 169.467 235.139 170.688 236.01 172.311C236.24 172.718 236.825 172.913 237.25 173.214C237.25 172.647 237.587 171.992 237.392 171.531C236.227 169.433 234.337 167.833 232.076 167.03C231.147 166.506 230.338 165.794 229.701 164.939C227.575 162.298 225.555 159.623 223.464 156.876C223.163 156.486 222.79 156.149 222.454 155.777L222.773 155.228C224.243 155.937 225.714 156.681 227.221 157.354C227.659 157.495 228.11 157.59 228.567 157.638C228.567 157.142 228.567 156.309 228.301 156.203C226.483 155.25 224.555 154.524 222.56 154.041C220.839 153.837 219.16 153.371 217.581 152.659C215.259 151.631 212.654 150.904 209.872 149.894Z" fill="#CF3B3B"/>
<path d="M197.203 153.74C197.451 152.783 197.806 151.471 198.125 150.195C199.666 144.1 201.243 138.022 202.714 131.926C202.851 131.383 203.111 130.878 203.473 130.451C203.835 130.024 204.29 129.685 204.803 129.461C205.316 129.237 205.874 129.134 206.433 129.158C206.993 129.183 207.539 129.336 208.03 129.604C208.19 129.746 208.318 129.921 208.404 130.117C208.489 130.312 208.531 130.525 208.526 130.738C208.526 132.298 208.278 133.857 208.261 135.399C208.261 138.535 208.261 141.654 208.385 144.791C208.385 145.57 208.597 146.35 208.615 147.13C208.615 149.841 208.296 149.947 205.656 150.674C203.015 151.4 200.003 152.676 197.203 153.74Z" fill="#4D6CDF"/>
<path d="M226.956 122.906C228.108 124.306 226.956 125.316 226.867 126.45C226.779 127.584 226.601 128.771 226.442 130.083C219.354 132.918 214.463 138.482 210.493 144.986C208.721 141.193 209.182 134.85 212 132.067C216.235 127.868 214.853 127.442 213.595 123.668C215.136 122.25 215.367 122.303 216.093 124.093C216.333 124.903 216.666 125.682 217.085 126.415C217.458 126.928 218.255 127.531 218.734 127.442C219.212 127.354 219.726 126.485 219.903 125.883C220.08 125.281 219.903 124.111 220.169 123.367C220.457 122.776 220.84 122.238 221.303 121.772C221.691 122.243 222.007 122.768 222.242 123.331C222.402 124.022 222.242 124.784 222.348 125.475C222.455 126.167 222.898 126.946 223.252 126.982C223.586 126.982 223.915 126.913 224.221 126.779C224.526 126.645 224.799 126.448 225.024 126.202C225.748 125.152 226.394 124.051 226.956 122.906Z" fill="#C71919"/>
<path d="M230.854 140.786C234.784 144.223 237.715 148.654 239.342 153.615C236.719 152.499 234.256 151.56 231.882 150.373C231.003 149.962 230.246 149.332 229.683 148.543C229.119 147.754 228.769 146.833 228.666 145.869C228.563 144.905 228.71 143.931 229.093 143.04C229.476 142.15 230.083 141.373 230.854 140.786Z" fill="#4D6CDF"/>
<path d="M157.456 303.033C157.205 301.239 156.837 299.462 156.357 297.714C156.161 296.853 155.769 296.048 155.211 295.364C154.653 294.679 153.945 294.132 153.141 293.765C152.707 293.616 152.625 293.426 152.761 292.978C153.004 292.097 153.021 291.169 152.81 290.279C152.599 289.389 152.167 288.567 151.553 287.89C151.255 287.523 150.902 287.157 151.472 286.777C152.042 286.397 152.096 284.959 153.304 285.352C154.154 285.594 155.046 285.653 155.921 285.524C156.796 285.396 157.634 285.083 158.379 284.606C159.617 283.706 160.991 283.009 162.45 282.543C165.503 284.022 165.991 287.971 163.006 289.572C159.437 291.458 159.166 294.281 159.614 297.619C159.788 298.872 160.037 300.114 160.36 301.337C161.262 305.295 161.587 309.363 161.323 313.414C161.323 313.767 161.215 314.12 161.174 314.459C160.998 315.748 160.346 316.237 159.084 315.816C158.859 315.815 158.637 315.765 158.434 315.67C158.23 315.575 158.049 315.437 157.903 315.266C157.757 315.095 157.65 314.894 157.59 314.677C157.529 314.461 157.516 314.234 157.551 314.011C157.619 310.945 157.551 307.891 157.619 304.825C157.711 303.922 157.711 303.013 157.619 302.111C157.537 301.907 157.307 302.111 157.51 302.111C157.714 302.111 157.578 302.111 157.592 302.219C157.646 302.409 157.727 302.748 157.456 303.033Z" fill="#E4BBB6"/>
<path d="M159.017 315.762C160.021 315.898 160.523 315.599 160.659 314.405C160.883 311.786 160.883 309.153 160.659 306.535C160.387 302.206 158.555 298.094 158.949 293.657C158.936 293.053 159.082 292.457 159.372 291.928C159.663 291.4 160.088 290.957 160.604 290.644C161.174 290.319 161.69 289.898 162.246 289.545C165.055 287.673 165.232 285.244 162.721 282.964C162.583 282.82 162.456 282.665 162.341 282.503C164.309 282.503 165.652 283.859 166.249 286.451C166.08 287.041 166.08 287.666 166.249 288.256C165.869 289.477 164.757 289.83 163.78 290.319C160.021 292.191 159.397 293.263 160.699 297.28C162.038 301.541 162.679 305.99 162.599 310.456C162.583 311.569 162.493 312.68 162.328 313.781C162.097 315.762 161.011 316.4 159.017 315.762Z" fill="#CDA8A3"/>
<path d="M153.562 297.402C153.392 296.268 152.924 295.2 152.205 294.308C151.703 294.607 151.621 295.38 150.848 295.231C150.83 295.01 150.863 294.788 150.942 294.581C151.022 294.375 151.148 294.188 151.309 294.037C153.087 292.476 152.218 289.559 150.848 288.052C150.495 287.659 150.169 287.93 149.938 288.147C148.922 288.887 147.852 289.549 146.736 290.129C146.383 290.061 145.976 290.386 145.623 289.912C145.813 289.789 145.963 289.667 146.125 289.572L146.763 289.219C151.241 287.713 153.914 283.208 153.439 277.957C153.51 277.041 153.409 276.121 153.141 275.243C152.069 269.991 148.337 265.988 143.778 265.133C140.286 264.554 136.7 265.09 133.53 266.666C130.36 268.243 127.769 270.778 126.124 273.913C123.808 278.868 123.051 284.409 123.952 289.803C124.862 296.14 127.318 301.731 132.447 305.775C136.518 309.045 141.213 310.619 146.519 308.991C149.938 307.959 153.209 306.697 153.982 302.599C154.337 300.862 154.191 299.06 153.562 297.402Z" fill="#DA6666"/>
<path d="M145.935 309.018C147.992 307.393 149.763 305.434 151.172 303.223C152.304 301.494 152.929 299.482 152.977 297.416C153.622 299.07 153.768 300.877 153.398 302.613C152.624 306.724 149.368 307.986 145.935 309.018Z" fill="#D04040"/>
<path d="M146.232 289.233C147.318 287.768 148.811 286.682 149.842 285.162C151.117 282.891 152.132 280.483 152.868 277.984C153.397 283.222 150.724 287.727 146.232 289.233Z" fill="#D04040"/>
<path d="M150.779 294.037C150.209 292.775 150.684 291.323 150.25 290.061C150.033 289.355 149.87 289.247 149.273 289.545C148.337 290.044 147.274 290.252 146.22 290.142C147.334 289.56 148.404 288.898 149.422 288.161C149.653 287.944 149.965 287.659 150.331 288.066C151.702 289.572 152.57 292.49 150.779 294.037Z" fill="#D04040"/>
<path d="M157.456 303.033C157.565 302.721 157.361 302.328 157.755 301.961C157.755 302.966 158.04 303.888 157.551 304.77L157.456 303.033Z" fill="#EBC0BB"/>
<path d="M166.289 288.297C166.101 288.034 165.999 287.718 165.999 287.394C165.999 287.071 166.101 286.755 166.289 286.492C166.527 287.07 166.527 287.719 166.289 288.297Z" fill="#D4AEA9"/>
<path d="M146.681 309.547C145.268 309.994 143.794 310.223 142.312 310.225C138.547 310.117 134.936 308.707 132.094 306.236C127.263 302.423 124.413 297.076 123.382 289.952C122.452 284.447 123.229 278.788 125.607 273.736C129.231 266.273 137.82 263.478 143.94 264.631C148.69 265.513 152.638 269.761 153.751 275.188L153.846 275.609C154.063 276.395 154.136 277.213 154.063 278.024C154.253 279.725 154.066 281.446 153.518 283.066C152.969 284.686 152.071 286.166 150.888 287.401C151.056 287.469 151.204 287.576 151.322 287.713C152.379 288.883 152.951 290.411 152.923 291.988C152.9 292.584 152.732 293.166 152.435 293.684L152.693 293.996C153.427 294.962 153.895 296.104 154.05 297.307C154.703 299.039 154.853 300.921 154.484 302.735L146.681 309.547ZM141.063 265.486C138.079 265.458 135.145 266.258 132.588 267.799C130.032 269.339 127.954 271.559 126.584 274.211C124.302 279.056 123.563 284.484 124.468 289.762C125.445 296.629 128.145 301.744 132.745 305.367C137.345 308.991 141.633 309.913 146.315 308.489C149.775 307.444 152.679 306.277 153.385 302.531C153.733 300.9 153.596 299.201 152.991 297.646V297.524C152.874 296.715 152.602 295.937 152.191 295.231C152.047 295.451 151.842 295.625 151.601 295.731C151.36 295.837 151.093 295.871 150.834 295.828L150.426 295.747V295.339C150.399 295.043 150.436 294.744 150.534 294.463C150.633 294.182 150.79 293.926 150.996 293.711C151.261 293.486 151.477 293.208 151.628 292.895C151.78 292.582 151.865 292.24 151.878 291.893C151.887 290.639 151.433 289.426 150.603 288.487L150.481 288.595C149.879 289.134 149.208 289.59 148.486 289.952C148.041 290.161 147.615 290.406 147.21 290.685L147.02 290.821H146.776H146.627C146.38 290.893 146.116 290.886 145.872 290.801C145.629 290.716 145.418 290.557 145.27 290.346L144.931 289.871L145.582 289.423L145.935 289.192L146.41 288.935L146.586 288.826C150.901 287.374 153.371 283.086 152.978 278.106V277.97C153.041 277.277 152.976 276.578 152.788 275.908L152.693 275.473C151.675 270.493 148.092 266.612 143.777 265.798C142.903 265.604 142.013 265.49 141.118 265.459L141.063 265.486Z" fill="#3F2222"/>
<path d="M172.748 282.204C173.824 282.478 174.831 282.973 175.706 283.656C177.66 284.796 179.56 285.786 181.975 285.013C182.979 284.687 183.102 286.071 183.753 286.546C184.404 287.021 183.753 287.252 183.563 287.523C182.957 288.208 182.529 289.033 182.319 289.923C182.108 290.813 182.12 291.741 182.355 292.626C182.45 292.965 182.491 293.209 182.124 293.358C179.316 294.485 178.759 297.036 178.216 299.573C177.986 300.604 177.836 301.649 177.66 302.694C177.558 302.55 177.49 302.386 177.459 302.212C177.429 302.038 177.437 301.86 177.484 301.69C177.432 302.51 177.464 303.333 177.579 304.146C177.579 307.227 177.579 310.293 177.579 313.36C177.579 314.717 177.117 315.355 175.828 315.491C175.295 315.667 174.719 315.667 174.186 315.491C173.236 313.577 173.535 311.555 173.548 309.533C173.548 305.096 174.905 300.835 175.462 296.479C175.758 295.243 175.639 293.944 175.121 292.784C174.603 291.623 173.716 290.666 172.598 290.061C169.152 287.957 169.301 284.429 172.748 282.204Z" fill="#E4BBB6"/>
<path d="M172.748 282.204C172.274 283.317 171.052 283.846 170.767 285.176C170.319 287.252 170.523 288.107 172.301 289.315C172.626 289.545 172.966 289.776 173.305 289.979C176.019 291.581 176.372 293.277 175.924 296.588C175.232 301.717 173.915 306.779 173.956 312.017C174.168 313.158 174.273 314.316 174.268 315.477C173.142 315.301 172.911 314.446 172.748 313.496C172.15 308.609 172.519 303.653 173.834 298.908C174.146 297.782 174.513 296.683 174.77 295.557C174.948 295.089 175.032 294.591 175.016 294.091C175.001 293.591 174.886 293.099 174.679 292.643C174.472 292.188 174.177 291.778 173.811 291.437C173.444 291.096 173.014 290.831 172.545 290.658C171.744 290.224 170.916 289.857 170.129 289.396C169.815 289.287 169.53 289.108 169.295 288.873C169.06 288.638 168.881 288.353 168.772 288.039C168.942 287.449 168.942 286.824 168.772 286.234C169.397 283.561 170.794 282.15 172.748 282.204Z" fill="#CDA8A3"/>
<path d="M211.002 279.734C210.453 275.513 208.418 271.626 205.262 268.77C203.346 267.055 201.058 265.81 198.577 265.134C196.097 264.458 193.493 264.37 190.973 264.875C185.477 265.92 181.474 271.864 181.61 278.554C181.432 280.47 181.827 282.395 182.745 284.086C183.663 285.777 185.063 287.158 186.766 288.053C187.472 288.975 188.856 288.799 189.48 289.776C187.911 289.665 186.429 289.013 185.287 287.93C184.799 287.578 184.419 287.293 183.93 287.93C182.573 289.722 182.166 292.151 183.699 293.752C183.699 294.159 184.473 294.322 184.147 294.878C183.374 295.068 183.387 293.996 182.682 294.023C181.891 295.324 181.4 296.784 181.243 298.298C181.151 298.443 181.117 298.617 181.148 298.786C180.266 303.644 182.505 306.657 187.051 308.068C187.982 308.62 189.037 308.928 190.118 308.963C191.702 309.411 193.379 309.411 194.962 308.963C195.261 308.963 195.573 308.963 195.858 308.855C201.937 307.254 205.981 303.251 208.654 297.782C211.365 292.178 212.189 285.846 211.002 279.734Z" fill="#DA6666"/>
<path d="M181.867 298.447C182.627 302.409 185.056 305.368 187.675 308.217C182.953 306.752 180.714 303.603 181.867 298.447Z" fill="#D04040"/>
<path d="M190.104 289.898C188.747 290.997 187.39 290.224 186.142 289.722C184.894 289.219 184.622 289.559 184.595 290.739C184.432 291.786 184.337 292.842 184.31 293.901C182.79 292.3 183.224 289.83 184.554 288.08C185.043 287.415 185.423 287.7 185.911 288.08C187.057 289.152 188.538 289.795 190.104 289.898Z" fill="#D04040"/>
<path d="M182.179 278.649C183.211 280.752 183.659 283.113 185.07 285.04L187.336 288.175C185.633 287.273 184.234 285.887 183.317 284.192C182.399 282.497 182.004 280.568 182.179 278.649Z" fill="#D04040"/>
<path d="M190.742 309.113C192.331 308.705 193.997 308.705 195.587 309.113C194.003 309.561 192.326 309.561 190.742 309.113Z" fill="#D04040"/>
<path d="M177.58 304.16C177.091 303.278 177.404 302.341 177.363 301.31C177.784 301.812 177.553 302.287 177.661 302.667L177.58 304.16Z" fill="#EBC0BB"/>
<path d="M168.827 286.193C169.018 286.456 169.121 286.772 169.121 287.096C169.121 287.42 169.018 287.736 168.827 287.998C168.597 287.419 168.597 286.773 168.827 286.193Z" fill="#D4AEA9"/>
<path d="M174.255 315.477H175.897C175.661 315.656 175.372 315.753 175.076 315.753C174.779 315.753 174.491 315.656 174.255 315.477Z" fill="#CDA8A3"/>
<path d="M128.146 278.282C128.66 275.332 130.145 272.638 132.366 270.629C132.632 270.383 132.98 270.246 133.343 270.246C133.705 270.246 134.054 270.383 134.32 270.629C134.957 271.253 134.401 271.986 133.94 272.325C132.293 273.918 131.115 275.931 130.534 278.147C130.43 278.43 130.298 278.703 130.14 278.961C129.855 279.504 129.584 280.168 128.783 280.033C127.983 279.897 128.268 279.056 128.146 278.282Z" fill="#E69999"/>
<path d="M201.721 270.33C202.616 270.181 203.078 270.833 203.566 271.43C205.077 273.336 206.164 275.543 206.755 277.902C206.958 278.744 207.135 279.639 206.185 279.992C205.235 280.345 205.059 279.381 204.747 278.771C204.506 278.272 204.293 277.76 204.109 277.237C203.568 275.325 202.511 273.597 201.056 272.244C200.838 272.101 200.674 271.891 200.588 271.646C200.502 271.401 200.499 271.134 200.581 270.887C200.771 270.358 201.232 270.317 201.721 270.33Z" fill="#E69999"/>
<path d="M182.953 294.865C182.346 295.952 181.972 297.153 181.854 298.393V298.555L181.759 298.691V298.949C180.945 303.346 182.75 306.182 187.269 307.579L187.404 307.647C188.255 308.142 189.216 308.418 190.2 308.448H190.322C191.806 308.879 193.383 308.879 194.868 308.448H195.248C195.417 308.439 195.585 308.417 195.75 308.38C201.286 306.928 205.357 303.413 208.18 297.606C210.828 292.097 211.618 285.879 210.432 279.884C209.916 275.794 207.952 272.025 204.896 269.258C203.045 267.596 200.83 266.389 198.428 265.737C196.027 265.084 193.506 265.003 191.068 265.5C185.885 266.477 182.058 272.108 182.18 278.594C181.996 280.415 182.36 282.25 183.226 283.862C184.091 285.475 185.419 286.792 187.038 287.645L187.214 287.781C187.51 288.097 187.892 288.319 188.314 288.419C188.984 288.598 189.575 288.994 189.996 289.545L190.593 290.4H189.548C187.961 290.331 186.448 289.706 185.274 288.636L185.016 288.46C184.886 288.348 184.739 288.257 184.582 288.188C184.526 288.236 184.476 288.291 184.433 288.351C183.32 289.857 182.804 292.015 184.148 293.44L184.283 293.562V293.752C184.283 293.752 184.283 293.752 184.378 293.752C184.591 293.914 184.737 294.148 184.79 294.41C184.842 294.673 184.797 294.945 184.663 295.177L184.541 295.394H184.297C184.046 295.454 183.782 295.435 183.542 295.34C183.302 295.246 183.096 295.08 182.953 294.865ZM192.452 309.913C191.653 309.92 190.857 309.805 190.091 309.574C188.965 309.528 187.867 309.212 186.889 308.651C181.936 307.091 179.778 303.685 180.647 298.827C180.621 298.604 180.658 298.378 180.755 298.176C180.937 296.625 181.446 295.131 182.248 293.792L182.411 293.508H182.818C182.35 292.569 182.17 291.513 182.3 290.472C182.43 289.432 182.865 288.453 183.551 287.659C183.739 287.369 184.022 287.153 184.351 287.048C183.196 285.974 182.3 284.651 181.731 283.179C181.162 281.708 180.935 280.126 181.067 278.554C180.945 271.538 185.138 265.405 190.892 264.333C193.5 263.809 196.194 263.905 198.758 264.612C201.322 265.319 203.685 266.617 205.656 268.404C208.923 271.339 211.027 275.351 211.586 279.707C212.808 285.938 211.984 292.397 209.238 298.121C206.293 304.16 201.87 307.986 196.075 309.493C195.844 309.549 195.608 309.586 195.37 309.601H195.112C194.232 309.814 193.33 309.919 192.425 309.913H192.452Z" fill="#3F2222"/>
<path d="M92.5199 186.368C94.1509 185.098 96.0285 184.165 98.0395 183.624C100.411 182.982 102.742 182.145 105.173 181.679H105.532C106.796 181.615 108.06 181.786 109.258 182.184C112.962 183.415 116.043 185.984 117.867 189.364C119.239 191.774 120.138 194.414 120.517 197.147C120.8 198.76 120.933 200.394 120.916 202.031C120.882 205.15 120.111 208.219 118.664 211C117.951 212.611 116.953 214.087 115.715 215.359C115.435 215.66 115.077 215.882 114.678 216.001C113.477 216.29 112.304 216.681 111.171 217.168C110.809 217.326 110.427 217.437 110.035 217.499C109.067 217.636 108.159 218.041 107.418 218.665C106.676 219.288 106.133 220.106 105.851 221.021C105.071 222.825 103.751 224.358 102.065 225.418C100.759 226.181 99.2626 226.578 97.7407 226.566C97.0632 226.566 96.3856 226.566 95.748 226.566C95.3804 226.596 95.0106 226.545 94.6658 226.417C94.321 226.289 94.0099 226.087 93.7553 225.827C92.0545 224.252 90.7985 222.275 90.1087 220.087C89.4312 218.258 88.5943 216.468 87.7773 214.717C87.2791 213.686 86.4421 212.771 85.8842 211.837C84.8265 209.935 84.2075 207.83 84.0708 205.669C83.9023 201.05 84.916 196.462 87.02 192.322C88.2371 190.032 90.0088 188.069 92.181 186.601C92.3404 186.582 92.48 186.504 92.5199 186.368Z" fill="#D44C4C"/>
<path d="M92.5193 186.368C92.2246 186.839 91.8306 187.243 91.3635 187.554C88.7547 189.602 86.8723 192.4 85.9832 195.551C85.2759 197.516 84.762 199.542 84.4488 201.602C83.9677 204.631 84.3326 207.73 85.505 210.572C86.1272 211.826 86.8606 213.024 87.6969 214.152C88.3115 215.116 88.8065 216.148 89.1715 217.227C89.9685 219.075 90.6461 220.982 91.5428 222.791C92.2889 224.177 93.3611 225.371 94.6713 226.274C94.7686 226.347 94.8874 226.388 95.0101 226.391C97.3106 226.67 99.6454 226.334 101.765 225.418C102.937 224.729 103.949 223.807 104.734 222.713C105.153 222.054 105.507 221.357 105.79 220.632C106.392 219.463 107.291 218.465 108.401 217.732C108.616 217.58 108.873 217.492 109.138 217.48C110.434 217.294 111.688 216.893 112.845 216.293L113.044 216.195C113.997 216.099 114.904 215.749 115.667 215.183C116.43 214.616 117.018 213.856 117.368 212.985C118.374 211.417 119.171 209.73 119.739 207.965C120.601 205.094 120.872 202.085 120.536 199.112C120.339 197.132 119.939 195.176 119.341 193.275C118.703 191.014 117.573 188.914 116.029 187.118C114.485 185.321 112.563 183.871 110.394 182.865C109.032 182.235 107.555 181.877 106.05 181.815C105.953 181.833 105.854 181.833 105.758 181.813C105.662 181.793 105.571 181.754 105.492 181.698C108.538 181.151 111.683 181.581 114.459 182.924C114.459 182.924 114.598 182.924 114.678 182.924C115.294 183.06 115.856 183.372 116.292 183.819C117.293 184.528 118.128 185.437 118.743 186.484C118.743 186.484 118.743 186.329 118.743 186.484C118.487 186.111 118.361 185.668 118.384 185.22C118.334 184.272 118.455 183.324 118.743 182.418C118.743 182.262 118.882 182.106 119.082 182.087C119.136 182.101 119.187 182.127 119.23 182.163C119.273 182.199 119.307 182.244 119.33 182.294C119.353 182.344 119.364 182.399 119.362 182.454C119.361 182.509 119.346 182.563 119.321 182.612C119.061 184.234 119.102 185.888 119.44 187.496C119.665 190.176 120.51 192.77 121.911 195.084C122.27 195.649 122.549 196.271 122.928 196.797C123.525 197.822 124.369 198.69 125.386 199.327C126.403 199.964 127.563 200.351 128.766 200.454C129.463 200.418 130.144 200.232 130.759 199.91C134.823 198.27 138.414 195.685 141.22 192.38C143.191 189.899 144.745 187.127 145.824 184.169C146.676 181.75 147.342 179.272 147.816 176.756C148.115 175.413 148.414 174.071 148.593 172.709C148.696 172.11 148.668 171.497 148.51 170.91C148.352 170.323 148.068 169.775 147.677 169.304C147.512 169.051 147.293 168.837 147.035 168.676C146.777 168.515 146.486 168.41 146.182 168.37C146.003 168.37 145.764 168.37 145.784 168.058C147.232 167.912 148.69 168.242 149.924 168.996C151.159 169.751 152.1 170.886 152.599 172.222C153.802 175.056 154.241 178.145 153.874 181.192C153.827 182 153.701 182.801 153.495 183.585C152.368 186.714 150.849 189.694 148.972 192.458C148.38 193.44 148.09 194.568 148.135 195.707C146.012 198.983 143.314 201.868 140.164 204.229C138.34 205.629 136.203 206.589 133.927 207.031C132.611 207.279 131.258 207.279 129.942 207.031C129.643 207.245 129.344 207.031 129.045 207.031C127.717 206.635 126.489 205.972 125.438 205.085C125.438 206.35 125.438 207.498 125.438 208.646C125.438 208.977 125.438 209.327 125.219 209.58C124.896 213.085 123.624 216.443 121.533 219.308C118.939 222.949 115.104 225.57 110.712 226.702C110.553 226.735 110.409 226.817 110.301 226.936C110.194 227.056 110.128 227.205 110.115 227.364C109.172 231.094 106.768 234.315 103.419 236.333C102.943 236.657 102.419 236.906 101.865 237.073C100.376 237.487 98.8292 237.671 97.2817 237.618C96.413 237.578 95.5513 237.448 94.7112 237.229C93.4929 236.675 92.4157 235.865 91.5576 234.855C90.6995 233.846 90.0819 232.663 89.7494 231.391C88.7332 228.142 87.5973 224.912 86.3419 221.663C85.1101 218.874 84.0326 216.023 83.1138 213.121C82.0409 209.735 81.7383 206.161 82.227 202.649C82.7157 199.137 83.9841 195.772 85.9433 192.788C87.6814 190.247 89.9161 188.065 92.5193 186.368Z" fill="#CA2626"/>
<path d="M145.944 168C146.502 168.04 147.037 168.231 147.491 168.55C147.945 168.87 148.299 169.306 148.515 169.81C148.996 170.803 149.136 171.923 148.913 173.001C148.383 176.43 147.577 179.813 146.502 183.118C145.225 187.348 142.898 191.205 139.727 194.345C137.41 196.614 134.671 198.431 131.656 199.696C131.298 199.832 130.959 200.026 130.6 200.182C129.673 200.575 128.646 200.688 127.652 200.508C126.659 200.327 125.742 199.862 125.021 199.17C124.25 198.722 123.574 198.134 123.028 197.439C121.377 195.078 120.188 192.439 119.521 189.656C119.133 187.824 118.913 185.961 118.863 184.091C118.86 183.572 118.927 183.055 119.063 182.554C119.063 182.359 119.202 182.184 119.063 182.029C118.923 181.873 119.063 181.717 119.222 181.62C120.501 179.034 122.737 177.017 125.479 175.977C130.839 173.74 136.22 171.561 141.421 169.128C142.816 168.408 144.366 168.021 145.944 168Z" fill="#D44C4C"/>
<path d="M125.497 209.58C125.587 207.88 125.54 206.175 125.357 204.482C126.686 205.774 128.367 206.665 130.2 207.051C130.111 207.373 129.94 207.668 129.701 207.907C129.064 208.354 129.084 208.86 129.283 209.541C129.963 211.853 130.521 214.197 130.957 216.565C131.107 216.934 131.107 217.344 130.957 217.713C130.826 217.532 130.656 217.382 130.459 217.272C130.263 217.162 130.044 217.095 129.818 217.076C129.592 217.058 129.364 217.088 129.151 217.164C128.939 217.241 128.745 217.361 128.586 217.518C128.127 217.888 128.446 218.355 128.307 218.744C127.749 218.608 127.669 218.161 127.589 217.713C127.071 215.086 126.493 212.499 125.736 209.93C125.656 209.813 125.676 209.638 125.497 209.58Z" fill="#D07E72"/>
<path d="M148.294 195.649C148.114 195.151 148.114 194.609 148.294 194.111C148.899 192.418 149.752 190.82 150.824 189.364C151.772 187.664 152.598 185.902 153.295 184.091C153.345 183.863 153.48 183.662 153.674 183.527C153.423 185.429 152.886 187.284 152.08 189.033C151.079 191.372 149.809 193.591 148.294 195.649Z" fill="#CA2626"/>
<path d="M119.241 181.678L119.082 182.087C118.492 183.552 118.415 185.166 118.863 186.679C117.727 185.202 116.322 183.942 114.718 182.963C115.282 182.369 116.001 181.936 116.798 181.71C117.594 181.483 118.439 181.473 119.241 181.678Z" fill="#D07F73"/>
<path d="M128.268 218.822C128.165 218.719 128.089 218.593 128.045 218.455C128.001 218.316 127.991 218.17 128.017 218.028C128.042 217.885 128.101 217.751 128.19 217.635C128.279 217.52 128.395 217.426 128.528 217.363C128.829 217.125 129.195 216.978 129.581 216.94C129.967 216.902 130.355 216.974 130.7 217.149C130.919 217.324 130.879 217.557 130.919 217.791C130.667 218.235 130.265 218.581 129.782 218.769C129.299 218.957 128.764 218.975 128.268 218.822Z" fill="#942A2A"/>
<path d="M94.7314 237.248C97.1141 237.468 99.5149 237.416 101.885 237.092C100.788 237.661 99.5692 237.971 98.3271 237.998C97.0851 238.025 95.8538 237.768 94.7314 237.248Z" fill="#CA2626"/>
<path d="M128.367 214.755C127.484 213.175 126.916 211.445 126.693 209.658C126.693 209.385 126.813 209.21 127.032 209.074C127.251 208.938 127.69 208.86 127.789 209.366C127.889 209.872 127.789 210.689 127.949 211.312C128.168 212.46 128.228 213.608 128.367 214.755Z" fill="#E1AAA1"/>
<path d="M88.3546 205.046C87.9617 205.026 87.5927 204.856 87.3279 204.571C87.063 204.287 86.9235 203.913 86.9398 203.529C87.174 199.215 88.8864 195.103 91.8019 191.854C94.2013 189.242 97.2999 187.335 100.749 186.348C100.936 186.288 101.134 186.267 101.329 186.284C101.525 186.301 101.716 186.356 101.889 186.447C102.062 186.538 102.215 186.663 102.337 186.813C102.46 186.963 102.55 187.136 102.602 187.321C102.714 187.69 102.672 188.087 102.485 188.426C102.299 188.765 101.983 189.018 101.606 189.13C98.6934 189.972 96.0783 191.589 94.0536 193.8C91.5765 196.554 90.1232 200.043 89.9288 203.704C89.8981 204.084 89.7163 204.438 89.4221 204.688C89.1279 204.939 88.7446 205.068 88.3546 205.046Z" fill="#F3DEDD"/>
<path d="M130.201 179.266C129.856 179.268 129.52 179.154 129.251 178.942C128.982 178.731 128.796 178.434 128.726 178.104C128.655 177.774 128.704 177.43 128.864 177.131C129.024 176.832 129.285 176.596 129.603 176.464L139.806 172.183C140.158 172.076 140.539 172.101 140.874 172.251C141.209 172.402 141.476 172.669 141.622 173C141.768 173.331 141.783 173.703 141.665 174.044C141.547 174.386 141.303 174.672 140.981 174.849L130.799 179.13C130.613 179.22 130.409 179.267 130.201 179.266Z" fill="#F3DEDD"/>
<path d="M211.185 219.283C211.232 219.694 211.385 220.086 211.629 220.421C212.525 222.228 212.814 224.276 212.452 226.261C212.091 228.246 211.1 230.061 209.625 231.437C209.227 231.807 208.933 232.276 208.775 232.796C208.616 233.316 208.598 233.869 208.722 234.398C209.263 238.227 208.866 241.875 205.254 244.277C204.081 245.022 202.74 245.465 201.354 245.566C199.967 245.666 198.577 245.422 197.308 244.855C196.666 244.596 195.978 244.471 195.285 244.486C194.593 244.502 193.911 244.658 193.281 244.945V244.818H192.342H189.958C189.489 244.692 188.947 244.909 188.55 244.475C188.46 244.494 188.368 244.494 188.279 244.475C187.015 244.367 186.13 243.302 184.884 243.157C184.822 243.187 184.754 243.203 184.685 243.203C184.616 243.203 184.548 243.187 184.486 243.157C184.107 243.789 183.276 243.861 182.825 244.403L180.802 245.071L179.448 245.162V245.071C178.45 245.092 177.453 244.977 176.486 244.728C176.494 244.632 176.494 244.535 176.486 244.439C175.811 244.345 175.201 243.988 174.789 243.446H174.464L172.098 244.692V244.782C171.845 245.089 171.592 245.396 171.105 245.234C171.055 245.175 171.001 245.121 170.942 245.071C170.436 245.234 170.057 246.028 169.371 245.396C169.317 245.479 169.256 245.557 169.19 245.631C168.814 245.747 168.407 245.714 168.053 245.541V245.432C167.904 245.516 167.736 245.56 167.565 245.56C167.394 245.56 167.226 245.516 167.077 245.432L166.138 245.324L163.393 244.656L163.05 244.295C162.22 243.681 161.281 244.096 160.414 244.295C160.422 244.373 160.422 244.451 160.414 244.53H159.782L159.402 244.855C159.262 244.96 159.091 245.017 158.915 245.017C158.739 245.017 158.568 244.96 158.427 244.855H155.682H154.671V244.999C154.196 245.165 153.68 245.178 153.198 245.036C152.715 244.893 152.289 244.602 151.98 244.204L151.691 243.934C151.633 243.992 151.566 244.041 151.493 244.078C151.277 244.124 151.053 244.115 150.842 244.052C150.63 243.989 150.438 243.874 150.283 243.717C150.272 243.765 150.272 243.814 150.283 243.861C150.038 244.352 149.638 244.748 149.145 244.987C148.651 245.225 148.092 245.293 147.556 245.18L147.429 245.378C147.242 245.442 147.039 245.442 146.851 245.378C146.775 245.539 146.665 245.682 146.529 245.796C146.393 245.91 146.233 245.993 146.061 246.039C145.889 246.086 145.71 246.094 145.534 246.064C145.359 246.034 145.192 245.967 145.046 245.866V245.974C144.906 246.055 144.747 246.098 144.585 246.098C144.423 246.098 144.265 246.055 144.125 245.974L144.034 245.884C143.763 246.859 144.63 247.907 144.034 248.864L144.143 248.972C144.211 249.083 144.248 249.212 144.248 249.342C144.248 249.473 144.211 249.601 144.143 249.712C144.634 249.885 145.169 249.885 145.66 249.712C146.092 249.594 146.532 249.509 146.978 249.46C148.152 249.107 149.399 249.075 150.59 249.369H151.059H151.547C152.052 249.386 152.539 249.563 152.937 249.875C153.261 250.141 153.666 250.286 154.084 250.286C154.502 250.286 154.908 250.141 155.231 249.875L155.7 249.785H156.116C156.549 249.648 156.962 249.453 157.344 249.207C157.46 249.069 157.625 248.983 157.804 248.966C157.983 248.949 158.161 249.003 158.301 249.117H158.662C158.536 248.99 158.337 248.791 158.536 248.791C158.987 248.214 159.673 248.448 160.342 248.448C160.744 248.556 161.155 248.628 161.569 248.665C162.403 248.783 163.218 249.014 163.989 249.351C165.38 249.929 166.572 248.864 167.908 248.864C168.067 248.891 168.22 248.946 168.36 249.026L168.522 249.171L169.624 249.044C169.868 248.814 170.191 248.687 170.527 248.687C170.862 248.687 171.185 248.814 171.43 249.044L172.26 249.153L172.423 249.008C172.629 248.886 172.873 248.841 173.109 248.882C174.247 248.972 175.258 249.821 176.486 249.442C176.721 249.424 176.956 249.424 177.19 249.442C177.501 249.387 177.819 249.387 178.13 249.442C178.717 249.274 179.324 249.183 179.935 249.171C180.016 249.115 180.089 249.048 180.152 248.972C180.206 248.828 180.308 248.707 180.441 248.629C180.749 248.494 181.08 248.42 181.416 248.412C182.58 248.392 183.739 248.562 184.847 248.918C185.1 249.019 185.311 249.204 185.444 249.442V249.55C185.859 249.225 186.166 249.442 186.437 249.821C186.509 249.713 186.653 249.713 186.653 249.821C186.926 250.168 187.304 250.417 187.731 250.531C188.157 250.645 188.61 250.618 189.019 250.453V250.308C189.082 250.207 189.175 250.127 189.284 250.078C189.394 250.03 189.515 250.016 189.633 250.038L190.482 249.857L190.59 249.676C191.15 249.279 191.818 249.857 192.396 249.46C198.645 249.442 203.972 257.261 199.511 264.25C198.897 265.099 198.283 265.911 197.705 266.742C197.534 266.849 197.388 266.992 197.276 267.16C197.164 267.328 197.088 267.518 197.055 267.717L196.712 268.115C196.159 270.53 196.037 273.024 196.351 275.483C196.625 276.918 197.177 278.286 197.976 279.51C198.753 280.611 198.482 281.388 197.2 281.821C195.232 282.471 193.425 283.103 191.62 283.808C190.355 284.277 189.651 283.88 189.073 282.688C186.718 278.431 185.476 273.648 185.462 268.783C185.516 267.609 185.082 267.392 184.017 267.392C181.817 267.579 179.607 267.187 177.606 266.254C177.31 266.121 176.981 266.077 176.66 266.128C176.339 266.179 176.04 266.324 175.8 266.543C174.533 267.512 172.993 268.058 171.398 268.104C169.804 268.149 168.235 267.692 166.915 266.796C166.702 266.62 166.433 266.524 166.156 266.524C165.88 266.524 165.612 266.62 165.398 266.796C163.862 267.807 162.091 268.405 160.256 268.532C158.421 268.658 156.584 268.309 154.924 267.519C154.497 267.331 154.036 267.233 153.569 267.233C153.103 267.233 152.642 267.331 152.215 267.519C150.73 268.061 149.15 268.298 147.571 268.218C145.992 268.137 144.445 267.74 143.023 267.049C142.689 266.855 142.302 266.774 141.919 266.816C141.535 266.858 141.176 267.022 140.892 267.284C139.751 268.315 138.306 268.949 136.775 269.09L136.088 269.433L135.709 269.306L135.077 269.451C132.271 269.14 129.659 267.863 127.691 265.839C126.427 264.661 125.56 263.12 125.207 261.429C124.855 259.738 125.035 257.979 125.723 256.394C125.923 256.044 125.985 255.632 125.898 255.238C125.812 254.845 125.582 254.497 125.253 254.263C122.49 251.645 122.291 248.683 124.531 244.981C124.788 244.637 124.942 244.226 124.974 243.797C125.006 243.369 124.915 242.94 124.711 242.561C124.028 240.976 123.835 239.222 124.157 237.526C124.479 235.83 125.301 234.269 126.517 233.044C127.611 231.741 129.051 230.773 130.671 230.252C132.29 229.731 134.024 229.679 135.673 230.1C136.178 230.3 136.737 230.321 137.255 230.16C137.774 229.999 138.223 229.666 138.526 229.216C138.981 228.568 139.566 228.024 140.244 227.616C140.922 227.209 141.678 226.948 142.463 226.85L143.131 226.489L144.45 226.579L144.847 226.489C145.678 226.576 146.486 226.815 147.231 227.193C147.743 227.25 148.22 227.479 148.585 227.843C149.271 227.897 149.777 228.909 150.608 228.276V228.186L151.637 227.843L152.323 227.229C152.432 226.904 152.63 226.723 152.991 226.814C153.116 226.847 153.248 226.843 153.37 226.801C153.493 226.759 153.6 226.682 153.678 226.579C153.895 226.371 154.161 226.221 154.451 226.143C154.741 226.064 155.047 226.058 155.339 226.127H155.718C156.445 225.787 157.265 225.698 158.048 225.875L159.132 226.055C159.498 225.994 159.874 226.027 160.224 226.15C160.575 226.273 160.888 226.483 161.136 226.76L162.093 227.229C162.472 227.103 162.834 226.922 163.213 227.103C163.235 227.034 163.275 226.972 163.329 226.925C163.383 226.877 163.449 226.845 163.52 226.832L164.495 226.453C164.859 226.072 165.359 225.851 165.886 225.839H166.825C167.504 225.595 168.226 225.499 168.945 225.555C169.664 225.611 170.363 225.818 170.996 226.164L171.917 226.254L173.308 226.922L173.705 226.615C173.807 226.475 173.936 226.358 174.085 226.271C174.235 226.184 174.4 226.129 174.572 226.109C175.375 225.801 176.211 225.588 177.064 225.477C177.323 225.495 177.579 225.55 177.822 225.64C178.029 225.712 178.229 225.803 178.419 225.911H181.073L181.796 226.164L183.15 226.434H183.475C183.66 226.352 183.867 226.333 184.064 226.382C184.26 226.431 184.435 226.545 184.559 226.705C185.675 226.116 186.909 225.783 188.17 225.73C188.161 225.664 188.161 225.597 188.17 225.532C188.345 225.356 188.572 225.243 188.817 225.211C189.062 225.178 189.311 225.227 189.525 225.351C190.453 225.357 191.378 225.454 192.288 225.64L192.595 225.495H192.721C192.684 225.381 192.682 225.259 192.714 225.143C192.746 225.028 192.812 224.924 192.902 224.845C192.667 224.592 192.703 224.087 192.198 224.087C190.858 223.913 189.565 223.484 188.387 222.823C187.575 222.425 187.069 222.696 186.148 223.148C185.232 223.597 184.352 224.367 183.188 223.896C183.191 223.946 183.183 223.997 183.165 224.044C183.136 224.123 183.079 224.19 183.006 224.231C182.822 224.337 182.613 224.393 182.401 224.393C182.188 224.393 181.98 224.337 181.796 224.231V224.051C181.344 224.087 180.875 224.213 180.477 223.834C180.378 223.915 180.26 223.97 180.134 223.995C180.008 224.02 179.878 224.014 179.755 223.978C179.636 223.919 179.545 223.815 179.502 223.69C179.416 223.77 179.309 223.822 179.193 223.842C179.078 223.861 178.959 223.846 178.852 223.798C177.862 223.318 176.789 223.036 175.692 222.967V223.22C175.403 223.527 175.096 223.635 174.789 223.437C174.805 223.467 174.813 223.501 174.813 223.536C174.813 223.571 174.805 223.605 174.789 223.635L173.777 223.96H173.434L172.911 224.069C172.857 224.208 172.772 224.332 172.663 224.432C172.553 224.533 172.421 224.606 172.278 224.647C171.856 224.787 171.409 224.835 170.967 224.788C170.525 224.741 170.098 224.601 169.714 224.376C166.608 223.635 163.592 222.841 160.269 223.888C157.772 224.391 155.177 223.892 153.046 222.498C152.751 222.303 152.406 222.2 152.053 222.2C151.699 222.2 151.354 222.303 151.059 222.498C149.069 223.457 146.839 223.806 144.651 223.501C142.462 223.196 140.413 222.25 138.761 220.782C137.39 219.345 136.52 217.503 136.279 215.532C136.038 213.56 136.44 211.563 137.425 209.838C137.732 209.206 138.075 208.61 138.4 208.032H138.671C138.68 207.924 138.68 207.816 138.671 207.707C142.391 205.558 142.373 201.947 141.903 198.335C141.741 196.998 141.362 195.68 141.091 194.362C140.892 193.531 140.964 192.791 141.994 192.556C144.07 192.05 146.165 191.617 148.224 191.075C148.599 190.958 149.004 190.979 149.366 191.134C149.727 191.29 150.02 191.57 150.192 191.924C151.983 194.756 152.766 198.109 152.414 201.441C152.392 203.249 152.106 205.043 151.565 206.768C151.438 207.129 151.131 207.707 151.565 207.978C151.998 208.249 152.432 208.014 152.811 207.725C153.826 206.92 154.944 206.252 156.134 205.739C157.371 205.177 158.725 204.92 160.083 204.989C161.44 205.058 162.761 205.452 163.935 206.136C164.197 206.33 164.513 206.434 164.838 206.434C165.163 206.434 165.48 206.33 165.741 206.136C166.962 205.311 168.372 204.806 169.84 204.671C171.308 204.535 172.787 204.772 174.139 205.36C175.048 205.752 176.07 205.797 177.01 205.486C179.879 204.545 182.985 204.621 185.805 205.703C186.055 205.814 186.326 205.872 186.599 205.872C186.873 205.872 187.144 205.814 187.394 205.703C188.863 205.042 190.45 204.684 192.06 204.65C193.67 204.615 195.271 204.906 196.767 205.504C197.706 205.901 198.41 205.305 199.223 205.305C199.457 205.197 199.674 205.071 199.891 204.944H200.595L201.263 204.619C202.78 204.463 204.311 204.646 205.748 205.155C207.185 205.664 208.491 206.487 209.57 207.563C210.628 208.586 211.403 209.866 211.821 211.277C212.238 212.688 212.284 214.183 211.954 215.617C211.837 216.453 211.637 217.276 211.358 218.073C211.197 218.455 211.137 218.871 211.185 219.283Z" fill="#CA2626"/>
<path d="M207.835 219.608C206.573 218.854 205.173 218.356 203.718 218.145C202.995 218.037 202.273 217.784 202.363 216.935C202.454 216.087 203.32 216.014 204.061 216.105C205.517 216.31 206.928 216.762 208.233 217.441C208.738 217.694 209.117 218.001 209.479 217.098C209.996 215.917 210.199 214.622 210.065 213.339C209.931 212.056 209.466 210.83 208.716 209.781C207.966 208.732 206.956 207.897 205.785 207.356C204.614 206.815 203.323 206.587 202.038 206.696C199.781 206.877 199.727 206.949 200.684 208.827C200.991 209.405 201.045 209.911 200.521 210.344C199.998 210.777 199.384 210.47 198.95 209.947L197.56 208.267H197.253L196.928 208.014C196.928 207.906 196.928 207.816 196.928 207.725C195.713 207.105 194.378 206.757 193.016 206.704C191.653 206.651 190.295 206.895 189.036 207.418C189.686 208.141 190.318 208.773 190.842 209.477C190.926 209.575 190.988 209.69 191.023 209.814C191.058 209.938 191.065 210.068 191.044 210.196C191.024 210.323 190.975 210.444 190.903 210.551C190.831 210.658 190.736 210.747 190.625 210.813C190.46 210.972 190.24 211.061 190.011 211.061C189.782 211.061 189.562 210.972 189.397 210.813C189.06 210.513 188.741 210.193 188.44 209.856C187.247 208.644 185.768 207.754 184.138 207.267C182.509 206.781 180.783 206.715 179.122 207.075C178.706 207.075 178.128 207.075 178.02 207.671C177.623 209.477 176.72 208.935 175.654 208.321C174.663 207.62 173.53 207.143 172.336 206.925C171.141 206.707 169.913 206.752 168.738 207.057C167.491 207.509 166.348 208.21 165.38 209.116C164.411 210.023 163.637 211.116 163.103 212.33C162.742 212.999 162.309 213.522 161.514 213.125C160.719 212.728 160.918 211.987 161.261 211.319C161.875 210.254 162.561 209.224 163.211 208.177C160.557 206.371 157.451 206.606 154.417 209.152C153.901 209.717 153.2 210.078 152.44 210.167C151.68 210.257 150.914 210.07 150.281 209.64C148.818 208.683 149.234 207.256 149.613 205.829C150.67 202.362 150.67 198.659 149.613 195.192C148.891 192.971 148.855 192.989 146.669 193.513C143.419 194.326 143.545 194.308 143.961 197.648C144.52 201.928 144.665 206.19 140.349 209.008C140.302 209.054 140.268 209.111 140.249 209.174C140.23 209.237 140.227 209.304 140.241 209.369L140.078 209.585C140.041 209.578 140.003 209.578 139.966 209.586C139.929 209.593 139.894 209.609 139.864 209.631C139.833 209.653 139.807 209.681 139.788 209.714C139.769 209.746 139.757 209.783 139.753 209.82C139.446 210.47 139.085 211.12 138.832 211.807C138.443 212.628 138.233 213.523 138.215 214.432C138.197 215.341 138.372 216.244 138.729 217.08C139.086 217.916 139.616 218.667 140.284 219.284C140.952 219.9 141.744 220.368 142.606 220.656C144.124 221.504 145.884 221.816 147.601 221.541C149.318 221.266 150.893 220.419 152.069 219.139C152.43 218.777 152.792 218.38 153.369 218.633C153.493 218.67 153.608 218.731 153.707 218.814C153.806 218.896 153.888 218.998 153.947 219.112C154.006 219.227 154.041 219.352 154.051 219.481C154.06 219.61 154.043 219.739 154.001 219.861C153.712 220.836 154.543 220.872 155.031 221.089C156.904 221.99 159.027 222.236 161.057 221.788C163.087 221.339 164.908 220.222 166.227 218.615C166.607 218.182 166.932 217.73 167.311 217.315C167.384 217.193 167.482 217.089 167.598 217.008C167.714 216.926 167.846 216.87 167.985 216.843C168.124 216.816 168.267 216.819 168.405 216.851C168.543 216.883 168.673 216.943 168.786 217.028C168.899 217.113 168.993 217.221 169.061 217.345C169.13 217.469 169.172 217.606 169.185 217.747C169.197 217.888 169.18 218.03 169.134 218.164C169.088 218.298 169.015 218.421 168.918 218.525C168.373 219.264 167.769 219.959 167.112 220.601C166.498 221.233 166.679 221.504 167.401 221.757C169.027 222.246 170.737 222.388 172.421 222.173C172.468 222.093 172.505 222.008 172.53 221.92H173.433C173.535 221.841 173.621 221.743 173.686 221.631L174.805 221.252C175.275 220.836 175.456 220.421 174.805 220.042V219.897C174.805 219.662 174.643 219.518 174.408 219.554C174.547 219.411 174.652 219.238 174.715 219.048C175.365 217.983 175.853 218.85 176.268 219.247C177.253 220.397 178.488 221.305 179.88 221.902C180.205 221.986 180.538 222.035 180.873 222.046H182.679C182.936 222.025 183.191 221.977 183.438 221.902C184.341 221.685 185.186 221.271 185.912 220.692C186.237 219.987 185.749 219.536 185.388 219.066C184.763 218.351 184.246 217.548 183.853 216.683C183.69 216.285 183.474 215.78 184.052 215.545C184.629 215.31 184.738 215.762 184.955 216.087C185.171 216.412 185.532 217.513 186.417 217.694C186.417 218.001 186.417 218.218 186.778 218.236C186.767 218.403 186.79 218.571 186.846 218.73C186.901 218.888 186.989 219.034 187.103 219.157C188.279 220.371 189.758 221.249 191.386 221.7C193.015 222.151 194.735 222.158 196.368 221.721C196.819 221.613 197.469 221.36 197.614 222.064C197.758 222.768 197.126 222.75 196.693 222.841C196.161 222.913 195.669 223.16 195.293 223.542C194.917 223.925 194.679 224.421 194.616 224.954C194.558 225.366 194.62 225.786 194.797 226.164C194.832 226.234 194.883 226.295 194.945 226.342C195.008 226.389 195.081 226.42 195.158 226.434H195.302C195.275 226.529 195.275 226.629 195.302 226.723L195.808 226.94C195.798 227 195.798 227.061 195.808 227.121C195.871 227.428 196.022 227.71 196.241 227.933C198.047 229.739 198.264 230.137 197.036 231.274C197.059 230.973 196.976 230.672 196.801 230.425C196.458 230.082 196.259 229.45 195.609 229.757L195.23 229.378C194.478 228.485 193.424 227.9 192.268 227.735C191.925 227.644 191.51 227.735 191.239 227.355C191.031 227.187 190.791 227.063 190.533 226.992C190.275 226.92 190.005 226.903 189.74 226.94C189.388 226.941 189.038 227.009 188.711 227.139C188.629 227.17 188.559 227.224 188.507 227.295C188.456 227.365 188.427 227.449 188.422 227.536V227.644C187.519 227.193 186.76 227.193 186.453 228.385C187.266 229.053 188.259 229.613 188.458 230.733L188.313 230.859C186.869 231.87 186.381 230.353 185.514 229.811C185.298 229.659 185.038 229.583 184.774 229.595C184.774 229.216 184.467 229.053 184.196 228.836C184.006 228.703 183.777 228.64 183.546 228.656L183.438 228.475C183.304 228.328 183.138 228.213 182.954 228.138C182.769 228.063 182.571 228.03 182.372 228.042C182.173 227.554 181.596 227.644 181.162 227.5C181.005 227.492 180.85 227.544 180.729 227.644H180.602L180.349 227.464C180.18 227.391 179.995 227.363 179.812 227.382C179.628 227.401 179.453 227.467 179.302 227.572C179.302 227.572 179.302 227.572 179.302 227.681H178.381C178.381 227.681 178.381 227.681 178.381 227.572C178.254 227.514 178.115 227.484 177.975 227.484C177.834 227.484 177.696 227.514 177.568 227.572L177.424 227.753C176.647 227.753 175.726 227.662 175.744 228.872C175.347 229.017 175.149 229.378 174.878 229.649L174.245 229.396L173.686 229.252V229.017L172.656 228.692L172.313 228.313L171.302 228.06C170.64 227.683 169.903 227.459 169.144 227.403C168.385 227.346 167.623 227.46 166.914 227.735L165.613 228.042L164.837 228.638L163.573 229.432V229.703L162.561 230.462L161.243 232.412C160.918 232.629 160.629 232.827 160.774 233.188C160.555 233.325 160.31 233.414 160.055 233.448C159.799 233.482 159.54 233.462 159.293 233.387C159.268 233.029 159.156 232.682 158.968 232.376H159.094L159.202 231.816H159.491C160.232 231.021 161.153 230.353 161.297 229.125C160.752 228.556 160.023 228.198 159.239 228.114C159.15 228.089 159.056 228.089 158.968 228.114L158.227 227.807H157.252L156.53 228.132C156.294 228.09 156.052 228.101 155.821 228.163C155.59 228.226 155.376 228.338 155.193 228.493C154.804 228.514 154.428 228.646 154.11 228.872H153.785C153.622 228.92 153.473 229.007 153.351 229.125C153.279 229.243 153.224 229.371 153.189 229.505L152.521 229.83C152.521 229.938 152.521 230.028 152.521 230.119C152.476 230.587 152.476 231.059 152.521 231.527C152.45 231.632 152.352 231.716 152.238 231.77C152.123 231.824 151.996 231.846 151.87 231.834C151.741 231.739 151.593 231.672 151.437 231.635H151.184C151.186 231.49 151.154 231.346 151.091 231.214C151.029 231.083 150.937 230.968 150.823 230.877C150.69 230.759 150.53 230.674 150.357 230.63C150.184 230.586 150.003 230.584 149.83 230.624C149.882 230.497 149.882 230.354 149.83 230.227C149.722 230.104 149.589 230.008 149.438 229.946C149.288 229.883 149.125 229.856 148.963 229.866L148.493 229.45C148.312 229.103 148.012 228.831 147.647 228.685C147.283 228.54 146.878 228.529 146.507 228.656H146.2H146.092L146.2 228.529C146.019 228.006 145.568 228.006 145.135 227.951C144.951 227.941 144.767 227.973 144.598 228.045C144.429 228.117 144.279 228.227 144.159 228.367L143.455 228.692L142.426 228.927L142.083 229.288C139.771 230.732 139.753 230.877 141.757 232.593L143.094 233.802C143.092 233.909 143.13 234.013 143.202 234.091C143.202 234.435 143.202 234.778 143.202 235.103L142.877 235.464L141.559 235.301C141.141 234.602 140.507 234.056 139.753 233.748C138.582 232.685 137.114 232.004 135.545 231.798C133.636 231.483 131.679 231.91 130.074 232.991C128.47 234.072 127.339 235.726 126.913 237.613C126.1 241.225 127.852 243.753 132.204 245.035C132.62 245.162 133.071 245.234 133.505 245.324C133.816 245.349 134.117 245.449 134.381 245.616C134.645 245.783 134.865 246.011 135.021 246.281V246.642L134.281 247.527C132.253 247.409 130.285 246.788 128.556 245.721C127.653 245.162 127.238 245.288 126.75 246.173C124.945 249.315 125.595 251.843 129.098 253.92C130.687 254.877 132.457 255.527 134.082 256.394C134.564 256.613 134.984 256.948 135.304 257.369C135.625 257.79 135.836 258.284 135.918 258.807C136 259.33 135.952 259.865 135.776 260.364C135.601 260.863 135.304 261.311 134.913 261.668C134.516 262.047 134.1 262.318 133.559 261.956C133.017 261.595 132.8 261.144 133.161 260.656C134.462 258.85 133.324 258.2 131.843 257.622C131.103 257.358 130.39 257.026 129.712 256.629C128.683 255.979 128.358 256.43 128.105 257.369C127.719 258.528 127.662 259.77 127.939 260.959C128.216 262.148 128.818 263.237 129.676 264.105C130.648 265.25 131.904 266.117 133.318 266.621C134.732 267.126 136.254 267.248 137.73 266.977L140.06 265.857C141.359 264.691 142.517 263.375 143.509 261.938H144.159C144.846 262.444 145.153 263.094 144.557 263.744C143.69 264.828 144.376 265.099 145.279 265.424C147.265 266.215 149.462 266.307 151.507 265.683C153.552 265.059 155.323 263.758 156.53 261.993C157.017 261.379 157.505 260.512 158.336 261.252C159.166 261.993 158.606 262.661 158.083 263.293C157.559 263.925 156.927 264.719 156.277 265.514C157.433 266.043 158.686 266.327 159.957 266.349C161.228 266.37 162.489 266.129 163.663 265.64C164.62 265.225 165.469 264.828 164.367 263.654C163.898 263.148 164.096 262.588 164.62 262.191C164.831 262.044 165.092 261.985 165.346 262.029C165.6 262.073 165.826 262.216 165.975 262.426C166.57 263.04 167.076 263.726 167.78 264.232C168.646 265.099 169.773 265.657 170.987 265.82C172.201 265.983 173.435 265.743 174.498 265.135C175.311 264.719 175.835 264.412 174.896 263.51C174.099 262.695 173.517 261.696 173.198 260.602C172.945 259.862 172.747 259.103 173.722 258.796C174.697 258.489 174.877 259.157 175.112 259.862C175.571 261.142 176.357 262.28 177.394 263.161C178.43 264.042 179.68 264.636 181.018 264.882C182.9 265.273 184.833 265.358 186.742 265.135C188.025 265.045 188.44 265.478 188.295 266.796C187.96 270.685 188.58 274.597 190.101 278.191C191.474 281.803 191.456 281.677 195.013 280.503C196.223 280.088 196.332 279.708 195.844 278.517C195.028 276.564 194.623 274.465 194.654 272.349C194.685 270.233 195.151 268.146 196.025 266.218L196.368 265.55L196.675 265.189C197.897 264.03 198.799 262.574 199.293 260.963C199.752 259.623 199.807 258.177 199.45 256.806C199.094 255.435 198.342 254.199 197.289 253.252C196.429 252.391 195.331 251.809 194.136 251.58C192.941 251.352 191.706 251.487 190.589 251.97C190.119 251.97 190.065 252.205 190.029 252.53C189.993 252.855 190.679 254.336 189.036 253.794C188.831 253.651 188.596 253.559 188.35 253.523C188.398 253.35 188.397 253.166 188.345 252.994C188.294 252.821 188.196 252.667 188.061 252.548C187.499 252.082 186.894 251.671 186.255 251.32C185.912 251.193 185.55 251.013 185.189 251.32C185.167 251.157 185.083 251.008 184.955 250.904C183.331 250.212 181.508 250.154 179.844 250.742C178.417 251.121 178.309 251.518 179.14 252.728C179.465 253.216 180.277 253.794 179.754 254.281C179.23 254.769 178.634 253.902 178.128 253.541C176.939 252.418 175.501 251.591 173.933 251.126C172.364 250.662 170.708 250.574 169.099 250.868C168.785 250.856 168.473 250.92 168.19 251.056C167.907 251.191 167.661 251.393 167.473 251.645C166.859 252.801 166.173 252.475 165.252 252.006C162.254 250.453 159.184 249.911 156.223 252.006C154.775 253.009 153.606 254.363 152.828 255.943C152.232 257.081 151.582 257.099 150.859 256.051C151.347 256.051 151.365 255.798 151.202 255.455H151.401C152.141 255.076 152.448 254.299 152.936 253.649C153.622 252.764 153.424 252.078 152.448 251.627C151.247 250.99 149.866 250.779 148.53 251.031C146.432 251.491 144.505 252.53 142.967 254.029C142.624 254.336 142.317 255.022 141.757 254.588C141.198 254.155 141.757 253.758 141.902 253.36C142.496 252.148 142.898 250.85 143.094 249.514C143.136 249.268 143.116 249.016 143.037 248.78C142.959 248.544 142.823 248.331 142.642 248.159H142.408C142.482 248.076 142.54 247.979 142.577 247.874C142.614 247.769 142.63 247.657 142.624 247.545C142.462 246.895 142.426 246.209 141.667 245.92L140.602 244.873C140.567 244.681 140.512 244.493 140.439 244.313C140.222 244.006 140.024 243.699 139.645 243.879C139.283 243.283 138.994 243.5 138.706 243.879C137.387 242.814 137.423 242.724 139.049 241.983C139.735 241.676 140.584 241.532 140.764 240.593C140.86 240.61 140.958 240.593 141.041 240.543C141.124 240.493 141.186 240.414 141.216 240.322C141.316 240.349 141.422 240.349 141.523 240.322C141.751 240.081 142.036 239.902 142.351 239.801C142.667 239.7 143.003 239.68 143.329 239.744C143.314 239.769 143.307 239.797 143.307 239.825C143.307 239.854 143.314 239.882 143.329 239.906C143.382 240.315 143.311 240.731 143.124 241.098C142.937 241.466 142.643 241.768 142.281 241.965C141.703 242.344 141.559 242.742 141.992 243.302C142.034 243.52 142.133 243.724 142.279 243.892C142.425 244.06 142.612 244.186 142.823 244.259C143.41 244.447 144.042 244.447 144.629 244.259C144.791 244.132 144.954 244.042 145.116 243.934H146.037L147.211 243.464H147.645H148.114C149.231 243.08 150.215 242.384 150.95 241.46C151.114 241.28 151.215 241.052 151.238 240.809C151.381 240.737 151.504 240.633 151.598 240.504C151.692 240.375 151.755 240.226 151.78 240.069C151.845 240.087 151.914 240.087 151.979 240.069C152.81 239.166 153.297 239.87 153.785 240.358C153.46 240.358 153.315 240.538 153.243 240.809C153.223 241.016 153.281 241.222 153.406 241.387C153.287 241.452 153.196 241.556 153.146 241.682C153.097 241.807 153.093 241.946 153.135 242.074C153.116 242.181 153.116 242.291 153.135 242.399C154.055 243.12 155.18 243.531 156.349 243.572C157.216 243.572 158.155 243.789 158.877 243.067L158.968 243.247C159.21 243.353 159.48 243.371 159.734 243.298C159.988 243.226 160.208 243.067 160.358 242.85C161.947 242.85 162.923 241.767 163.97 240.936C164.223 240.611 164.566 240.34 164.53 239.888H164.692C164.982 239.755 165.236 239.557 165.436 239.31C165.637 239.062 165.778 238.772 165.848 238.462C166.028 238.53 166.221 238.55 166.411 238.522C166.601 238.494 166.78 238.417 166.932 238.299C166.958 238.341 166.992 238.377 167.032 238.405C167.073 238.433 167.118 238.452 167.166 238.462C167.266 238.765 167.289 239.088 167.236 239.403C167.182 239.717 167.053 240.014 166.859 240.268L166.48 240.394C166.128 240.595 165.826 240.873 165.595 241.207C165.27 241.785 164.295 242.2 165.144 243.013C165.35 243.162 165.592 243.255 165.845 243.283C166.098 243.312 166.354 243.275 166.588 243.175C166.666 243.372 166.814 243.533 167.004 243.627C167.327 243.749 167.67 243.81 168.015 243.807C168.675 243.859 169.338 243.81 169.984 243.663C170.507 243.41 170.995 243.031 171.627 243.211C171.933 243.195 172.233 243.121 172.512 242.995C173.018 242.724 173.577 242.525 173.794 241.929C173.794 241.64 173.794 241.351 173.469 241.351C173.372 240.796 173.22 240.252 173.018 239.726H173.126C173.441 239.569 173.728 239.362 173.975 239.112C173.975 239.437 174.209 239.473 174.498 239.383C174.336 240.033 174.733 240.448 175.166 240.864C175.419 241.058 175.733 241.154 176.051 241.134C176.354 241.578 176.801 241.903 177.316 242.055L178.092 242.651C179.155 243.012 180.29 243.105 181.397 242.922C181.838 242.962 182.283 242.899 182.696 242.74C183.109 242.58 183.481 242.327 183.781 242.001C183.781 242.001 183.781 241.911 183.781 241.875C184.033 241.785 184.196 241.64 184.142 241.333C184.131 241.231 184.131 241.128 184.142 241.026C183.638 240.723 183.26 240.248 183.076 239.69H182.896C182.945 239.422 182.934 239.146 182.862 238.884C182.79 238.621 182.66 238.378 182.48 238.173C182.244 237.893 182.114 237.537 182.114 237.171C182.114 236.804 182.244 236.448 182.48 236.168C183.474 237.143 183.799 238.624 184.991 239.455L185.352 239.563C185.352 240.177 185.821 240.538 186.255 240.918C186.874 241.434 187.539 241.893 188.241 242.29C188.737 242.56 189.312 242.65 189.867 242.543L189.993 242.651C190.105 242.765 190.252 242.835 190.41 242.852C190.568 242.868 190.727 242.829 190.86 242.742L191.167 242.633C192.173 242.778 193.195 242.778 194.201 242.633C194.363 241.875 194.634 241.243 195.591 241.315H195.844C195.872 241.408 195.909 241.499 195.952 241.586C197.33 242.22 198.763 242.728 200.232 243.103C201.15 243.358 202.115 243.39 203.047 243.196C203.98 243.003 204.852 242.589 205.592 241.991C206.333 241.392 206.919 240.625 207.303 239.753C207.687 238.882 207.857 237.931 207.799 236.981C207.792 235.006 207.431 233.049 206.734 231.202C206.553 230.66 206.3 230.118 206.734 229.649C206.825 229.539 206.94 229.451 207.069 229.39C207.199 229.329 207.34 229.298 207.483 229.298C207.626 229.298 207.767 229.329 207.897 229.39C208.026 229.451 208.141 229.539 208.233 229.649C208.612 230.1 208.81 229.974 209.154 229.649C209.815 228.942 210.312 228.097 210.608 227.175C210.904 226.253 210.992 225.277 210.866 224.317C210.74 223.357 210.403 222.437 209.879 221.623C209.355 220.809 208.657 220.121 207.835 219.608ZM143.022 239.22C143.022 239.22 143.058 239.202 143.022 239.22V239.22Z" fill="#DE7878"/>
<path d="M185.08 142.014C184.553 142.019 184.029 142.095 183.523 142.242C182.501 142.615 181.592 143.245 180.883 144.07C180.174 144.895 179.689 145.888 179.475 146.955C178.873 149.122 178.682 151.382 178.914 153.619V153.764L178.748 156.712C178.779 158.469 178.454 160.213 177.793 161.84L177.481 162.297C177.212 162.546 177.17 162.671 177.17 162.692L177.398 163.107V163.626C177.063 166.096 176.363 168.503 175.322 170.767C175.094 171.307 174.866 171.847 174.616 172.387C173.811 173.945 173.251 175.619 172.956 177.349V177.618C171.302 183.827 170.775 190.282 171.399 196.677C171.751 201.784 172.125 207.057 174.616 211.687V211.977C175.131 213.74 176.205 215.287 177.677 216.385C179.15 217.482 180.939 218.071 182.775 218.06C187.382 218.437 191.905 219.516 196.187 221.257C198.361 222.228 200.764 222.566 203.121 222.233H203.412C207.896 222.399 211.301 221.34 213.439 219.057C215.577 216.773 216.387 213.472 215.972 209.071V208.76C215.972 208.51 215.972 208.261 215.972 208.033C213.13 190.972 207.888 174.4 200.401 158.809C197.934 153.122 194.282 148.026 189.689 143.862C188.433 142.698 186.791 142.04 185.08 142.014Z" fill="#3F2222"/>
<path d="M128.424 222.212H128.57C130.92 222.545 133.317 222.207 135.483 221.237C139.767 219.502 144.289 218.424 148.894 218.04C153.275 217.583 155.953 215.59 157.033 211.936L157.157 211.645C159.277 206.926 160.366 201.809 160.354 196.635C160.997 190.246 160.462 183.794 158.777 177.598V177.266C158.572 175.694 158.079 174.174 157.323 172.781L156.991 172.013C155.729 169.429 154.827 166.684 154.313 163.854C153.627 162.291 153.28 160.6 153.296 158.892V158.436C153.368 158.008 153.318 157.569 153.15 157.169C153.031 156.719 152.941 156.261 152.881 155.799C152.808 154.873 152.808 153.943 152.881 153.017C152.972 151.907 152.866 150.79 152.569 149.716V149.467V149.197C152.751 147.818 152.481 146.418 151.8 145.205C151.118 143.992 150.063 143.033 148.791 142.471C146.341 141.391 144.12 141.993 141.587 144.401C138.95 146.82 136.69 149.619 134.881 152.706C127.215 166.548 121.619 181.44 118.272 196.905L117.982 198.13C116.652 202.865 115.913 207.746 115.781 212.663C115.686 213.905 115.909 215.152 116.428 216.285C116.947 217.418 117.747 218.401 118.75 219.14C121.601 221.166 125.031 222.215 128.528 222.129L128.424 222.212Z" fill="#3F2222"/>
<path d="M166.229 158.975L155.848 163.48C155.131 162.942 154.631 162.163 154.441 161.286C154.25 160.41 154.381 159.493 154.81 158.706C156.842 157.24 159.081 156.086 161.454 155.28C162.368 155.028 163.161 154.455 163.687 153.665C164.214 152.876 164.438 151.924 164.319 150.983C164.319 145.751 164.319 140.602 164.319 135.267C164.319 130.886 164.672 130.616 169.073 131.509C169.073 138.09 169.073 144.692 169.073 151.273C168.965 151.862 169.076 152.471 169.386 152.983C169.696 153.496 170.183 153.877 170.755 154.055C172.82 155.142 174.999 155.999 177.253 156.609C178.311 158.228 177.585 159.723 176.9 161.197C175.093 161.737 173.786 160.449 172.249 159.951C170.256 159.287 168.471 157.771 166.229 158.975Z" fill="#CDA8A3"/>
<path d="M154.832 158.955C154.396 157.92 154.273 156.779 154.479 155.675C154.978 155.799 154.479 157.252 155.829 156.443C157.222 155.522 158.748 154.822 160.355 154.367C162.431 153.806 162.721 152.498 162.68 150.63C162.68 145.066 162.68 139.502 162.68 134.021C162.68 131.945 163.469 131.239 165.171 131.177C166.479 131.177 167.891 130.575 169.116 131.592C164.112 131.488 165.088 131.198 164.964 135.412C164.964 141.059 164.964 146.692 164.964 152.311C165.066 152.943 164.94 153.59 164.609 154.138C164.278 154.685 163.764 155.097 163.157 155.301C160.334 156.38 157.594 157.709 154.832 158.955Z" fill="#E4BBB6"/>
<path d="M176.382 161.176C176.196 161.944 176.03 162.712 175.843 163.48L166.23 158.975C166.352 158.679 166.54 158.414 166.781 158.203C167.022 157.991 167.308 157.838 167.618 157.756C167.927 157.673 168.252 157.664 168.566 157.728C168.88 157.792 169.175 157.927 169.428 158.124C171.69 159.245 174.099 160.283 176.382 161.176Z" fill="#B58D88"/>
<path d="M217.509 208.905L217.384 207.763C214.506 190.589 209.222 173.907 201.689 158.207C199.128 152.327 195.341 147.061 190.582 142.761C189.632 141.778 188.428 141.078 187.104 140.738C185.779 140.399 184.387 140.433 183.081 140.838C181.775 141.242 180.607 142.001 179.706 143.03C178.806 144.058 178.208 145.316 177.98 146.664C177.317 149.011 177.105 151.463 177.357 153.889C177.357 154.823 177.254 155.758 177.191 156.692C177.235 158.253 176.959 159.808 176.382 161.259C176.026 161.511 175.774 161.885 175.675 162.309C175.576 162.734 175.635 163.18 175.842 163.564C175.488 165.883 174.788 168.136 173.766 170.249C172.609 172.458 171.77 174.821 171.275 177.266C169.583 183.652 169.042 190.288 169.676 196.864C170.029 202.22 170.423 207.618 173.039 212.497C173.64 214.556 174.886 216.367 176.594 217.664C178.302 218.961 180.382 219.675 182.527 219.701C186.976 220.062 191.344 221.099 195.481 222.773C197.922 223.864 200.622 224.238 203.267 223.853C213.294 224.143 218.464 218.725 217.509 208.905Z" fill="#D44C4C"/>
<path d="M160.313 177.162C160.017 175.145 159.363 173.198 158.382 171.411C157.154 168.902 156.287 166.232 155.808 163.481C155.166 162.058 154.833 160.515 154.832 158.955C155.206 157.813 154.583 156.775 154.479 155.675C154.168 153.598 154.749 151.336 154.002 149.239C154.182 147.555 153.822 145.857 152.975 144.391C152.128 142.925 150.838 141.765 149.289 141.08C145.863 139.564 143.061 140.831 140.403 143.28C137.661 145.824 135.304 148.755 133.407 151.979C125.651 165.961 119.973 180.997 116.549 196.615C115.042 201.88 114.191 207.313 114.017 212.787C113.926 214.279 114.211 215.77 114.845 217.123C115.48 218.475 116.444 219.647 117.65 220.531C120.775 222.745 124.533 223.888 128.362 223.79C131 224.178 133.694 223.803 136.127 222.711C140.275 221.048 144.648 220.012 149.102 219.638C153.607 219.161 157.157 217.147 158.569 212.434C161.185 207.535 161.6 202.158 161.953 196.781C162.592 190.203 162.036 183.563 160.313 177.183V177.162Z" fill="#D44C4C"/>
<path d="M128.425 223.77C135.678 218.43 143.954 214.642 152.736 212.642C154.643 212.026 156.683 211.947 158.632 212.413C157.241 217.126 153.67 219.14 149.165 219.617C144.717 219.989 140.351 221.025 136.21 222.69C133.77 223.781 131.07 224.155 128.425 223.77Z" fill="#CA2626"/>
<path d="M173.081 212.413C175.157 211.272 177.379 212.413 179.434 212.663C183.262 213.525 186.97 214.849 190.479 216.607C194.956 218.603 199.243 221.001 203.288 223.77C200.65 224.157 197.956 223.782 195.523 222.69C191.384 221.02 187.017 219.984 182.569 219.617C180.424 219.592 178.344 218.878 176.636 217.581C174.928 216.284 173.682 214.472 173.081 212.413Z" fill="#CA2626"/>
<path d="M154.791 158.955C154.81 160.516 155.149 162.056 155.788 163.481C156.257 166.235 157.124 168.906 158.362 171.411C159.334 173.202 159.987 175.148 160.293 177.162C153.836 175.273 151.075 172.096 151.22 166.366C151.349 163.87 151.655 161.387 152.134 158.934C152.674 155.695 153.359 152.457 153.981 149.239C154.708 151.315 154.127 153.536 154.459 155.674C154.542 156.775 155.165 157.813 154.791 158.955Z" fill="#CA2626"/>
<path d="M176.362 161.176C176.94 159.725 177.216 158.17 177.172 156.609C177.172 155.675 177.172 154.74 177.338 153.806C178.023 153.038 177.442 152.041 177.919 150.983C178.771 155.467 179.809 159.702 180.369 163.979C181.303 171.079 178.418 175.107 171.317 177.183C171.813 174.738 172.652 172.375 173.809 170.165C174.821 168.05 175.521 165.798 175.885 163.481C175.671 163.104 175.602 162.662 175.69 162.238C175.778 161.815 176.017 161.437 176.362 161.176Z" fill="#CA2626"/>
<g clip-path="url(#clip0_451_2490)">
<path d="M199.722 115.376H136.685V8.13204C145.427 3.0605 155.309 0.278685 165.413 0.0445971C177.387 -0.585181 189.291 2.22088 199.722 8.13204V115.376Z" fill="#EFADA3"/>
<path d="M85.1336 152.563L77.2094 133.272C75.9677 130.209 74.1002 127.439 71.7263 125.139C69.3525 122.839 66.5246 121.061 63.4237 119.917V119.768L4.25935 92.7754C1.29149 91.4251 -1.06799 94.3781 0.430784 97.5092C9.646 116.8 17.9412 130.957 38.6124 141.552L54.3123 179.867C55.5813 183.004 58.0306 185.516 61.1332 186.865C64.2359 188.214 67.7439 188.291 70.9027 187.079V187.079C74.1048 185.749 77.0133 183.801 79.4618 181.345C81.9104 178.89 83.851 175.977 85.1727 172.771C86.4943 169.565 87.1711 166.131 87.1644 162.663C87.1577 159.196 86.4677 155.764 85.1336 152.563V152.563Z" fill="#EFADA3"/>
<path d="M246.021 152.563L253.931 133.272C255.174 130.207 257.044 127.436 259.42 125.137C261.797 122.837 264.628 121.059 267.731 119.916V119.768L326.925 92.7902C329.893 91.4398 332.238 94.3928 330.739 97.5239C321.524 116.815 313.229 130.972 292.557 141.567L276.857 179.882C275.588 183.018 273.139 185.531 270.037 186.88C266.934 188.228 263.426 188.305 260.267 187.094V187.094C257.062 185.765 254.15 183.817 251.699 181.362C249.247 178.906 247.305 175.991 245.981 172.784C244.658 169.576 243.981 166.139 243.987 162.669C243.994 159.2 244.685 155.765 246.021 152.563Z" fill="#EFADA3"/>
<path d="M266.559 161.467V147.369C266.559 124.665 257.539 102.89 241.485 86.8352C225.43 70.7806 203.655 61.7612 180.951 61.7612H155.501C132.797 61.7612 111.022 70.7806 94.9672 86.8352C78.9126 102.89 69.8932 124.665 69.8932 147.369V161.467C54.7715 181.357 47.3763 206.056 49.079 230.983C50.7818 255.911 61.4669 279.375 79.1529 297.024L117.305 335.087C130.849 348.599 149.205 356.179 168.337 356.16C187.468 356.14 205.809 348.523 219.325 334.983L257.418 296.831C275.026 279.173 285.652 255.741 287.332 230.86C289.012 205.98 281.633 181.331 266.559 161.467V161.467ZM253.975 208.299C253.975 242.742 234.847 273.266 206.623 283.861L174.406 295.94C170.407 297.409 166.015 297.409 162.016 295.94L129.799 283.861C101.605 273.266 82.4473 242.742 82.4473 208.299V187.97C93.1761 187.97 135.112 217.93 156.095 233.452C159.668 235.889 163.893 237.193 168.219 237.193C172.544 237.193 176.769 235.889 180.342 233.452C201.414 217.945 243.513 187.955 253.975 187.955V208.299Z" fill="#F2BDB5"/>
<path d="M253.115 343.322L249.182 354.125L248.96 354.022C247.661 353.537 246.278 353.321 244.893 353.386C243.509 353.451 242.152 353.795 240.904 354.398C239.656 355.001 238.543 355.851 237.632 356.895C236.722 357.94 236.032 359.158 235.604 360.477C234.576 363.129 234.609 366.076 235.698 368.705C236.787 371.333 238.848 373.441 241.451 374.589C243.611 375.444 246.007 375.496 248.203 374.737C249.141 376.49 250.578 377.925 252.333 378.86C254.088 379.795 256.081 380.187 258.059 379.986C260.037 379.786 261.911 379.002 263.443 377.735C264.975 376.467 266.096 374.773 266.663 372.868C267.67 370.226 267.627 367.298 266.543 364.687C265.458 362.076 263.414 359.98 260.831 358.829L260.594 358.755L264.541 347.952C262.932 346.731 261.165 345.732 259.288 344.984C257.323 344.128 255.243 343.568 253.115 343.322V343.322Z" fill="#FFFBE9"/>
<path d="M333.365 257.922C341.364 235.96 331.243 211.52 310.765 203.343C291.088 195.493 269.022 205.495 260.222 225.75L259.94 225.632C258.68 228.695 257.639 231.844 256.824 235.055C252.61 251.63 255.785 265.09 256.824 272.153C258.145 281.057 254.91 308.405 248.44 330.323C246.125 338.188 249.924 346.498 257.106 349.288C264.288 352.078 272.465 348.294 275.551 340.666C284.143 319.446 300.051 297.439 306.625 291.696C311.744 287.245 321.998 280.092 329.552 265.787C331.084 263.3 332.362 260.665 333.365 257.922V257.922Z" fill="#EFADA3"/>
<path d="M86.2758 343.322L90.2081 354.125L90.4308 354.022C91.7293 353.535 93.1129 353.317 94.498 353.381C95.8831 353.445 97.241 353.789 98.4894 354.392C99.7378 354.995 100.851 355.846 101.761 356.892C102.672 357.937 103.361 359.157 103.786 360.477C104.819 363.129 104.787 366.078 103.697 368.707C102.608 371.337 100.545 373.444 97.9394 374.589C95.7841 375.444 93.3933 375.497 91.2024 374.737C90.0773 376.817 88.2613 378.439 86.068 379.323C84.7695 379.809 83.3858 380.027 82.0007 379.963C80.6155 379.9 79.2578 379.556 78.0093 378.952C76.7609 378.349 75.6478 377.498 74.7374 376.453C73.827 375.407 73.1382 374.187 72.7126 372.868C71.684 370.215 71.7177 367.268 72.8067 364.639C73.8957 362.011 75.9561 359.903 78.5593 358.755L78.7818 358.681L74.8495 347.878C76.4531 346.656 78.2153 345.658 80.0877 344.91C82.0615 344.081 84.1465 343.546 86.2758 343.322V343.322Z" fill="#FFFBE9"/>
<path d="M6.01039 257.922C-1.988 235.96 8.1324 211.52 28.6255 203.343C48.2876 195.493 70.3536 205.495 79.1682 225.75L79.4501 225.632C80.7105 228.695 81.7519 231.844 82.5665 235.055C86.7808 251.63 83.6052 265.09 82.5665 272.153C81.2309 281.057 84.4807 308.405 90.9506 330.323C93.2655 338.188 89.4667 346.498 82.2697 349.288C75.0726 352.078 66.9258 348.294 63.8393 340.666C55.2324 319.446 39.3395 297.439 32.7509 291.696C27.6461 287.245 17.3922 280.092 9.83896 265.787C8.3071 263.298 7.02468 260.663 6.01039 257.922V257.922Z" fill="#EFADA3"/>
</g>
<defs>
<clipPath id="clip0_451_2490">
<rect width="336.11" height="380.02" fill="white"/>
</clipPath>
</defs>
</svg>
