<?xml version="1.0" encoding="utf-8"?>
<!-- Generator: Adobe Illustrator 26.0.2, SVG Export Plug-In . SVG Version: 6.00 Build 0)  -->
<svg version="1.1" id="Layer_1" xmlns="http://www.w3.org/2000/svg" xmlns:xlink="http://www.w3.org/1999/xlink" x="0px" y="0px"
	 viewBox="0 0 442.2 500" style="enable-background:new 0 0 442.2 500;" xml:space="preserve">
<style type="text/css">
	.st0{fill:#EFADA3;}
	.st1{fill:#DCA5A0;}
	.st2{fill:#F2BDB5;}
	.st3{fill:#DEACA7;}
	.st4{fill:url(#SVGID_1_);}
	.st5{fill:#FFFBE9;}
	.st6{fill:none;stroke:#FFFFFF;stroke-width:8;stroke-linecap:round;stroke-miterlimit:10;}
</style>
<g>
	<path class="st0" d="M262.8,151.8h-82.9V10.7c3.7-2.2,17.1-9.8,37.8-10.6c25.3-1,42.2,8.9,45.2,10.6
		C262.8,57.7,262.8,104.8,262.8,151.8z"/>
	<path class="st1" d="M262.8,10.7c-2-1.2-11.1-6.5-25.2-9.2v150.3h25.2C262.8,104.8,262.8,57.7,262.8,10.7z"/>
	<path class="st0" d="M112,200.7l-10.4-25.4c-3.5-8.4-10.2-14.6-18.2-17.5l0.1-0.2L5.6,122.1c-3.9-1.8-7,2.1-5,6.2
		c12.1,25.3,23,44,50.2,58l20.6,50.4c3.5,8.6,13.4,12.9,21.8,9.5l0,0C111,239.1,119.4,218.6,112,200.7z"/>
	<path class="st0" d="M323.7,200.7l10.4-25.4c3.5-8.4,10.2-14.6,18.2-17.5l-0.1-0.2l77.9-35.5c3.9-1.8,7,2.1,5,6.2
		c-12.1,25.3-23,44-50.2,58l-20.6,50.4c-3.5,8.6-13.4,12.9-21.8,9.5l0,0C324.7,239.1,316.3,218.6,323.7,200.7z"/>
	<path class="st1" d="M435.7,124.6c-0.6-2.3-2.9-3.8-5.5-2.6l-77.9,35.5l0.1,0.2c-7.9,2.9-14.7,9-18.2,17.5l-10.4,25.4
		c-6.1,14.9,22.8,38.2,34.8,47.5l7-62L435.7,124.6z"/>
	<path class="st1" d="M112,200.7l-10.4-25.4c-3.5-8.4-10.2-14.6-18.2-17.5l0.1-0.2l-20.9-9.4l21,40c0,0,5.6,59.7,9.7,58l0,0
		C111,239.1,119.4,218.6,112,200.7z"/>
	<path class="st2" d="M350.7,212.4v-18.6c0-62.2-50.4-112.6-112.6-112.6h-33.5C142.4,81.3,92,131.7,92,193.9v18.5
		c-40.6,53.3-36.6,129.7,12.2,178.4l50.2,50.1c37.1,37,97.2,37,134.2-0.1l50.1-50.2C387.2,341.9,391.2,265.6,350.7,212.4z"/>
	<path class="st3" d="M351.3,213.1c2,27.3,1.9,71.8-14.7,123c-19.7,60.9-53.2,101.6-73.1,122.5c9-4.5,17.5-10.5,25-18l50.1-50.2
		C387,342,391.2,266.3,351.3,213.1z"/>
	<linearGradient id="SVGID_1_" gradientUnits="userSpaceOnUse" x1="221.3147" y1="247.3218" x2="221.3147" y2="390.8175">
		<stop  offset="0" style="stop-color:#C10000"/>
		<stop  offset="0.2809" style="stop-color:#C92222"/>
		<stop  offset="0.5623" style="stop-color:#D03E3E"/>
		<stop  offset="0.8113" style="stop-color:#D44E4E"/>
		<stop  offset="1" style="stop-color:#D55454"/>
	</linearGradient>
	<path class="st4" d="M271.9,373.5l-42.4,15.9c-5.1,1.9-11.2,1.9-16.3,0l-42.4-15.9c-37.1-13.9-62.3-54.1-62.3-99.4v-26.7
		c14.1,0,69.3,39.4,96.9,59.8c8.9,6.6,23,6.6,31.9,0c27.7-20.4,83.1-59.9,96.9-59.9v26.7C334.2,319.4,309,359.5,271.9,373.5z"/>
	<g>
		<path class="st5" d="M333,451.7l-5.2,14.2c-0.1,0-0.2-0.1-0.3-0.1c-7-2.8-14.8,1-17.5,8.5c-2.7,7.5,0.7,15.8,7.7,18.6
			c3,1.2,6.1,1.2,8.9,0.2c1.5,2.7,3.8,4.9,6.7,6c7,2.8,14.8-1,17.5-8.5c2.7-7.5-0.7-15.8-7.7-18.6c-0.1,0-0.2-0.1-0.3-0.1l5.2-14.2
			c-1.6-1.3-3.9-2.8-6.9-4C338,452.4,335.1,451.9,333,451.7z"/>
		<path class="st0" d="M438.6,339.4c10.5-28.9-2.8-61-29.7-71.8c-25.9-10.3-54.9,2.8-66.5,29.5l-0.4-0.1c-1.2,2.8-2.8,7.1-4.1,12.4
			c-5.5,21.8-1.4,39.5,0,48.9c1.7,11.8-2.5,47.7-11,76.5c-3.1,10.3,1.9,21.3,11.4,25c9.5,3.7,20.2-1.3,24.3-11.4
			c11.3-27.9,32.2-56.9,40.9-64.4c6.7-5.8,20.2-15.3,30.2-34.1C435.6,346.6,437.3,343.1,438.6,339.4z"/>
	</g>
	<g>
		<path class="st3" d="M408.9,267.6c-1.5-0.6-3-1.1-4.5-1.5c5.8,7.3,16.7,23.2,20.2,46.1c4.9,32.2-8.1,56.9-12.5,64.5
			c6.7-5.9,14.9-14.3,21.5-26.8c2-3.2,3.7-6.7,5-10.4C449.1,310.5,435.8,278.4,408.9,267.6z"/>
	</g>
	<g>
		<path class="st5" d="M113.5,451.7l5.2,14.2c0.1,0,0.2-0.1,0.3-0.1c7-2.8,14.8,1,17.5,8.5c2.7,7.5-0.7,15.8-7.7,18.6
			c-3,1.2-6.1,1.2-8.9,0.2c-1.5,2.7-3.8,4.9-6.7,6c-7,2.8-14.8-1-17.5-8.5c-2.7-7.5,0.7-15.8,7.7-18.6c0.1,0,0.2-0.1,0.3-0.1
			l-5.2-14.2c1.6-1.3,3.9-2.8,6.9-4C108.6,452.4,111.4,451.9,113.5,451.7z"/>
		<path class="st0" d="M7.9,339.4c-10.5-28.9,2.8-61,29.7-71.8c25.9-10.3,54.9,2.8,66.5,29.5l0.4-0.1c1.2,2.8,2.8,7.1,4.1,12.4
			c5.5,21.8,1.4,39.5,0,48.9c-1.7,11.8,2.5,47.7,11,76.5c3.1,10.3-1.9,21.3-11.4,25c-9.5,3.7-20.2-1.3-24.3-11.4
			c-11.3-27.9-32.2-56.9-40.9-64.4c-6.7-5.8-20.2-15.3-30.2-34.1C11,346.6,9.3,343.1,7.9,339.4z"/>
	</g>
</g>
<path class="st6" d="M34.6,288.1c-2.7,2.7-10.2,10.9-12,24c-2.3,17.3,7.2,29.7,9,32"/>
<path class="st6" d="M133.6,132.1c-9.8,13.2-14.1,26.2-16,34"/>
<path class="st6" d="M159.6,108.1c-3.6,2.3-8.3,5.6-13.3,10.1"/>
</svg>
