<svg xmlns="http://www.w3.org/2000/svg" viewBox="0 0 84.12 200"><defs><style>.cls-1{fill:#d1814a;}.cls-2{fill:#b5703c;}.cls-3{fill:#c6824a;}.cls-4{fill:#bf0000;}.cls-5{fill:#fdb376;}.cls-6{fill:#fca054;}.cls-7{fill:#3f2222;}.cls-8{fill:#c48d63;}.cls-9{fill:#c10000;}</style></defs><g id="Layer_2" data-name="Layer 2"><g id="Layer_3" data-name="Layer 3"><path class="cls-1" d="M46.07,144.6l-7.13-3.73L24.26,171.43c-1.27,0-2.42,0-3.4.09-6.1.33-8.51,1.29-9.83,1.91-.52.25-4.19,2-3.92,2.94.22.75,3,1.1,14-.52l-5.74,5.87c-2.19,2.75-3.1,4.36-2.75,4.82q.86,1.11,11.68-6.81c-2.57,9-2.38,11-1.77,11.3,1,.42,4-3.5,5.56-7.5a19.33,19.33,0,0,0,1-3.77Z"/><path class="cls-2" d="M62.26,131.61A16,16,0,0,0,33,118.69l-.11,0a25.05,25.05,0,0,0-1.29,3.51c-1.76,6.19-.54,11.3-.15,14,.49,3.38-.93,13.63-3.62,21.81a5.82,5.82,0,0,0,10.84,4.2c3.54-7.9,10-16,12.68-18.1,2.07-1.62,6.21-4.2,9.31-9.5A16.88,16.88,0,0,0,62.26,131.61Z"/><path class="cls-2" d="M42.16,118.13l.05.09L3.65,136.51a2.28,2.28,0,0,1-1.47.19C.94,136.43.7,134.26.59,133.51-3.32,105.7,13.37,88.8,13.37,88.8A48.85,48.85,0,0,1,29.68,78c11.84-4.85,25.5,2.37,27.51,15,.05.31.09.62.13.93C58.5,104.09,52.33,114.16,42.16,118.13Z"/><path class="cls-3" d="M77.4,154.72c-.23-5.33-1.48-8.23-2.53-13.85-.49-2.63-.74-4.79-.87-6.13,0-2.79,0-5.57,0-8.36l-.1,0a34.87,34.87,0,0,0,.24-4.24l-.11-17.64A34.93,34.93,0,0,0,38.9,69.82l-6,0A30.52,30.52,0,0,0,2.56,100.56l.16,27.51a29.49,29.49,0,0,0,29.67,29.3l7,0a35,35,0,0,0,12-2.21c.25,0,.5,0,.76,0h2c.6,0,1.19,0,1.78-.09a14.29,14.29,0,0,0,1.55,1.47c.94.74,4.41,3.49,6.8,2.25,1.42,1.05,4.28,2.9,6.31,1.72.11-.07.2-.15.3-.22,1.49.89,3.44,1.67,4.94.8C77,160.47,77.57,158.83,77.4,154.72Z"/><path class="cls-3" d="M63.47,17.43a22.93,22.93,0,0,0-1.58-2.5A20.33,20.33,0,0,0,56.41,9.7a18.8,18.8,0,0,0-3.93-1.91,18.22,18.22,0,0,0-2.22-.63c-11.42-2.42-23,6.35-25.77,19.59l-12,56.56c-2.82,13.24,4.17,25.94,15.59,28.37s23-6.35,25.78-19.59l12-56.56A26.54,26.54,0,0,0,63.47,17.43Z"/><path class="cls-4" d="M31.11,32.75a4.27,4.27,0,0,0-1.57-1.7,7.26,7.26,0,0,0-.76-3.32,7.69,7.69,0,0,0-10.37-3.25,7.69,7.69,0,0,0-3.65,10.24c.07.14.15.28.23.41-1.67,2.11-2.27,4.46-1.34,6.32,1.54,3.1,6.7,3.66,11.52,1.26S32.66,35.85,31.11,32.75Z"/><path class="cls-4" d="M74.3,34.78a4.29,4.29,0,0,0-1-3.12,2.85,2.85,0,0,1,.13-.48c.68-.24,1.32-.5,1.86-.73,3.22-1.35,9.52-5.14,8.73-9.06a5.51,5.51,0,0,0-3.22-3.52c1.69-3.68,1.43-8.41-1-10.58C77.94,5.63,75,5.61,72.37,6.44,71.64,2.71,67.25-.6,64,.09c-2.43.52-4,3.22-4.23,5.8a3.7,3.7,0,0,0-1.25,0c-2.4.41-4.46,3.3-4.44,6.15a7.18,7.18,0,0,0,3.22,5.57,6,6,0,0,0,1,5,5.87,5.87,0,0,0,4,1.89A7.46,7.46,0,0,0,63,28a8.6,8.6,0,0,0,1.06,1.72,8.06,8.06,0,0,1,.42,1.87,7.82,7.82,0,0,1-.18,2.54l0,.07c-.16.29-.33.59-.51.88l-.16.26c-.62,1,2.14,3.12,1.38,4,1.09.57,2.58.1,3.3.24C71.79,40.24,73.79,38.15,74.3,34.78Z"/><path class="cls-5" d="M31.77,38.23c4.11-1.58,6-13.4.72-20.13-3.36-4.26-9.7-6.59-12.74-4.29A114.89,114.89,0,0,0,24.6,25.5,115.56,115.56,0,0,0,31.77,38.23Z"/><path class="cls-6" d="M24.6,25.5a114.89,114.89,0,0,1-4.85-11.69,3.78,3.78,0,0,0-.55.51c-2.58,2.9-.36,9.34.21,11,2.29,6.61,8.27,13.87,12,13.05a2.4,2.4,0,0,0,.38-.12A115.56,115.56,0,0,1,24.6,25.5Z"/><path class="cls-7" d="M41.89,17.27,45.72,19a1.21,1.21,0,0,0,1.53-.5,1,1,0,0,0-.5-1.41l-3.09-1.36,2.51-2.25a1,1,0,0,0,0-1.5,1.21,1.21,0,0,0-1.61,0l-3.12,2.79L37.66,13a1.21,1.21,0,0,0-1.54.5A1,1,0,0,0,36.63,15l3.08,1.36L37.2,18.56a1,1,0,0,0-.35.93,1,1,0,0,0,.3.56,1.21,1.21,0,0,0,1.62,0Z"/><path class="cls-7" d="M47.66,34.07l4.13,2.27a1.27,1.27,0,0,0,1.71-.5,1.25,1.25,0,0,0-.5-1.7l-3.32-1.83,2.86-2.5a1.26,1.26,0,0,0-1.66-1.89L47.34,31l-4.13-2.27a1.25,1.25,0,0,0-1.71.49,1.3,1.3,0,0,0-.15.74A1.28,1.28,0,0,0,42,31l3.32,1.83-2.86,2.49a1.26,1.26,0,0,0-.11,1.78,1.26,1.26,0,0,0,1.77.12Z"/><path class="cls-6" d="M45.77,154.56l-7-4L22.64,180.45c-1.29,0-2.45-.07-3.43,0-6.17.07-8.64.93-10,1.5-.54.23-4.31,1.83-4.08,2.77.19.75,3,1.22,14.15.07l-6,5.62c-2.32,2.66-3.32,4.23-3,4.7q.83,1.14,12.06-6.31c-3,8.86-2.87,10.93-2.26,11.21,1,.47,4.2-3.33,5.93-7.25A19.83,19.83,0,0,0,27.2,189Z"/><path class="cls-2" d="M67.44,137.86a16,16,0,0,0-28.12-15.14l-.11-.06a23.89,23.89,0,0,0-1.56,3.4c-2.24,6-1.42,11.23-1.24,13.94.23,3.41-2,13.52-5.29,21.47a5.81,5.81,0,0,0,10.47,5c4.15-7.6,11.23-15.19,14-17.06,2.19-1.45,6.52-3.71,10-8.76A15.81,15.81,0,0,0,67.44,137.86Z"/><path class="cls-8" d="M12.58,136.7c-5.45-4.46-3.31-15.54-1.92-22.74a47.78,47.78,0,0,1,12-23.76A48.81,48.81,0,0,1,39,79.37c10.41-4.27,24.54,4.94,27.5,15,4.09,13.89-13.86,27-21.3,32.47C43.33,128.16,21.41,143.92,12.58,136.7Z"/><path class="cls-9" d="M17.27,60.89s5.93.25,9.12.5a104.91,104.91,0,0,1,15.09,2.28c-4.66.51-9.7.93-15.09,1.2-3.54.17-10.07.32-10.07.32Z"/></g></g></svg>