<svg width="256" height="32" viewBox="0 0 256 32" fill="none" xmlns="http://www.w3.org/2000/svg">
<line y1="15" x2="256" y2="15" stroke="#333333" stroke-width="2"/>
<circle cx="16" cy="16" r="15" fill="#333333" stroke="#333333" stroke-width="2"/>
<circle cx="72" cy="16" r="15" fill="#333333" stroke="#333333" stroke-width="2"/>
<circle cx="128" cy="16" r="15" fill="#333333" stroke="#333333" stroke-width="2"/>
<circle cx="184" cy="16" r="15" fill="#333333" stroke="#333333" stroke-width="2"/>
<circle cx="240" cy="16" r="15" fill="#F5F5F5" stroke="#333333" stroke-width="2"/>
<path d="M11.8 12.02C12.5733 11.7133 13.3467 11.32 14.12 10.84C14.9067 10.36 15.6 9.79333 16.2 9.14H17.9V23H15.48V12.38C15.12 12.66 14.6667 12.9333 14.12 13.2C13.5733 13.4667 13.0467 13.6867 12.54 13.86L11.8 12.02Z" fill="#F5F5F5"/>
<path d="M75.62 12.74C75.62 13.22 75.52 13.6933 75.32 14.16C75.12 14.6133 74.86 15.06 74.54 15.5C74.2333 15.9267 73.88 16.3467 73.48 16.76C73.08 17.16 72.68 17.5533 72.28 17.94C72.0667 18.14 71.8267 18.38 71.56 18.66C71.2933 18.94 71.04 19.22 70.8 19.5C70.56 19.78 70.3533 20.0533 70.18 20.32C70.0067 20.5733 69.9133 20.7867 69.9 20.96H76.06V23H67.24C67.2267 22.8933 67.22 22.7667 67.22 22.62C67.22 22.46 67.22 22.34 67.22 22.26C67.22 21.62 67.32 21.0333 67.52 20.5C67.7333 19.9533 68.0067 19.4467 68.34 18.98C68.6733 18.5133 69.0467 18.0733 69.46 17.66C69.8733 17.2467 70.2867 16.84 70.7 16.44C71.02 16.1333 71.3267 15.8333 71.62 15.54C71.9133 15.2467 72.1667 14.96 72.38 14.68C72.6067 14.3867 72.7867 14.0933 72.92 13.8C73.0533 13.4933 73.12 13.18 73.12 12.86C73.12 12.1667 72.92 11.6733 72.52 11.38C72.12 11.0867 71.6333 10.94 71.06 10.94C70.6867 10.94 70.34 10.9933 70.02 11.1C69.7 11.2067 69.4133 11.3333 69.16 11.48C68.92 11.6267 68.7067 11.78 68.52 11.94C68.3333 12.0867 68.1933 12.2067 68.1 12.3L66.9 10.6C67.46 10.0667 68.1133 9.64 68.86 9.32C69.62 8.98667 70.4333 8.82 71.3 8.82C72.78 8.82 73.8667 9.17333 74.56 9.88C75.2667 10.5733 75.62 11.5267 75.62 12.74Z" fill="#F5F5F5"/>
<path d="M126.72 23.3C126.36 23.3 125.987 23.2733 125.6 23.22C125.227 23.18 124.867 23.12 124.52 23.04C124.187 22.9733 123.88 22.9 123.6 22.82C123.32 22.7267 123.107 22.64 122.96 22.56L123.44 20.5C123.72 20.6333 124.127 20.7867 124.66 20.96C125.193 21.12 125.853 21.2 126.64 21.2C127.693 21.2 128.453 21 128.92 20.6C129.387 20.1867 129.62 19.64 129.62 18.96C129.62 18.52 129.527 18.1533 129.34 17.86C129.167 17.5667 128.92 17.3333 128.6 17.16C128.293 16.9733 127.933 16.8467 127.52 16.78C127.12 16.7 126.693 16.66 126.24 16.66H125.42V14.7H126.42C126.727 14.7 127.033 14.6733 127.34 14.62C127.66 14.5533 127.947 14.4467 128.2 14.3C128.453 14.14 128.66 13.9333 128.82 13.68C128.98 13.4267 129.06 13.1 129.06 12.7C129.06 12.38 129 12.1067 128.88 11.88C128.76 11.6533 128.6 11.4667 128.4 11.32C128.213 11.1733 127.993 11.0667 127.74 11C127.487 10.9333 127.22 10.9 126.94 10.9C126.34 10.9 125.807 10.9933 125.34 11.18C124.873 11.3533 124.46 11.5533 124.1 11.78L123.22 9.98C123.407 9.86 123.633 9.73333 123.9 9.6C124.167 9.46667 124.46 9.34 124.78 9.22C125.113 9.1 125.467 9.00667 125.84 8.94C126.213 8.86 126.607 8.82 127.02 8.82C127.793 8.82 128.46 8.91333 129.02 9.1C129.58 9.28667 130.04 9.55333 130.4 9.9C130.773 10.2333 131.047 10.6333 131.22 11.1C131.407 11.5533 131.5 12.0533 131.5 12.6C131.5 13.24 131.32 13.8133 130.96 14.32C130.613 14.8267 130.16 15.2133 129.6 15.48C130.32 15.7333 130.913 16.1533 131.38 16.74C131.86 17.3267 132.1 18.08 132.1 19C132.1 19.6133 131.993 20.1867 131.78 20.72C131.567 21.24 131.24 21.6933 130.8 22.08C130.36 22.4533 129.8 22.7533 129.12 22.98C128.453 23.1933 127.653 23.3 126.72 23.3Z" fill="#F5F5F5"/>
<path d="M184.74 12.12C184.42 12.5067 184.087 12.92 183.74 13.36C183.407 13.8 183.08 14.26 182.76 14.74C182.44 15.22 182.133 15.7133 181.84 16.22C181.547 16.7133 181.28 17.2067 181.04 17.7H184.74V12.12ZM187.1 9.14V17.7H188.66V19.68H187.1V23H184.74V19.68H178.66V17.96C178.927 17.3733 179.28 16.7 179.72 15.94C180.173 15.18 180.673 14.4 181.22 13.6C181.767 12.8 182.347 12.0133 182.96 11.24C183.573 10.4667 184.187 9.76667 184.8 9.14H187.1Z" fill="#F5F5F5"/>
<path d="M241.66 19.04C241.66 18.6 241.573 18.2067 241.4 17.86C241.227 17.5133 240.92 17.22 240.48 16.98C240.053 16.74 239.473 16.56 238.74 16.44C238.02 16.32 237.107 16.26 236 16.26C236.147 14.98 236.26 13.7667 236.34 12.62C236.42 11.46 236.487 10.3 236.54 9.14H243.62V11.18H238.6C238.587 11.4067 238.567 11.6667 238.54 11.96C238.527 12.24 238.507 12.5267 238.48 12.82C238.467 13.1133 238.447 13.3933 238.42 13.66C238.393 13.9267 238.367 14.1533 238.34 14.34C240.313 14.4467 241.767 14.9 242.7 15.7C243.647 16.4867 244.12 17.5667 244.12 18.94C244.12 19.5667 244.013 20.1467 243.8 20.68C243.587 21.2133 243.26 21.6733 242.82 22.06C242.38 22.4467 241.827 22.7533 241.16 22.98C240.493 23.1933 239.713 23.3 238.82 23.3C238.46 23.3 238.093 23.2733 237.72 23.22C237.347 23.1667 236.987 23.1 236.64 23.02C236.307 22.9533 236.007 22.88 235.74 22.8C235.473 22.72 235.273 22.6467 235.14 22.58L235.6 20.54C235.88 20.6733 236.28 20.82 236.8 20.98C237.333 21.1267 237.98 21.2 238.74 21.2C239.26 21.2 239.707 21.1467 240.08 21.04C240.453 20.92 240.753 20.76 240.98 20.56C241.22 20.36 241.393 20.1333 241.5 19.88C241.607 19.6133 241.66 19.3333 241.66 19.04Z" fill="#333333"/>
</svg>
