<?xml version="1.0" encoding="utf-8"?>
<!-- Generator: Adobe Illustrator 26.0.2, SVG Export Plug-In . SVG Version: 6.00 Build 0)  -->
<svg version="1.1" id="Layer_1" xmlns="http://www.w3.org/2000/svg" xmlns:xlink="http://www.w3.org/1999/xlink" x="0px" y="0px"
	 viewBox="0 0 326.5 500" style="enable-background:new 0 0 326.5 500;" xml:space="preserve">
<style type="text/css">
	.st0{fill:#D1731E;}
	.st1{fill:#FCA054;}
	.st2{fill:#F6F6F6;}
	.st3{fill:#DFDFDF;}
	.st4{fill:#3F2222;}
	.st5{fill:#BF0000;}
	.st6{fill:#FDB376;}
</style>
<g>
	<path class="st0" d="M172.5,342.2h-29.7v112.4c-5.8,0.3-11,0.7-15.1,1.1c-17.8,1.9-24.8,4.7-28.5,6.5c-1.5,0.7-11.9,5.7-10.9,7.9
		c0.8,1.9,9.9,2.2,46.2-4.8c-7.9,2.8-15.9,5.6-23.8,8.5c-8.7,4-12.9,6.5-12.3,7.6c0.9,2,16-0.4,45.2-7.1c-24.6,10-28.6,13.8-28,15.4
		c1.1,2.6,15.3,1.9,26.8-1.7c16.9-5.3,26.1-16.4,30-22h0.2V342.2z"/>
	<path class="st1" d="M196.5,350.9h-29.7v112.4c-5.8,0.3-11,0.7-15.1,1.1c-17.8,1.9-24.8,4.7-28.5,6.5c-1.5,0.7-11.9,5.7-10.9,7.9
		c0.8,1.9,9.9,2.2,46.2-4.8c-7.9,2.8-15.9,5.6-23.8,8.5c-8.7,4-12.9,6.5-12.3,7.6c0.9,2,16-0.4,45.2-7.1c-24.6,10-28.6,13.8-28,15.4
		c1.1,2.6,15.3,1.9,26.8-1.7c16.9-5.3,26.1-16.4,30-22C196.4,433.5,196.4,392.2,196.5,350.9z"/>
	<path class="st2" d="M322.8,270.8c-0.3-0.4-0.6-0.8-0.8-1.1c3.4-5.8,6.4-13.3,3-19.1c-2.4-4.1-8.7-6.5-24.6-5.8
		c-20.6,0.9-31.8,5.8-53.4,9.9c-10.2,1.9-18.5,2.9-23.7,3.4c-48.2,0-96.4-0.1-144.7-0.1c-42.2,0-76.4,34.2-76.4,76.4v7.6
		c0,42.2,34.2,76.4,76.4,76.4h147.3c42.2,0,76.4-34.2,76.4-76.4v-7.6c0-2.3-0.1-4.6-0.3-6.9c2-1.9,4-3.9,5.6-6
		c2.9-3.6,13.4-17,8.6-26.3C320.3,289.7,327.4,278.6,322.8,270.8z"/>
	<path class="st2" d="M142.1,81.1c-2.5-2.6-5.3-5-8.1-7.2c-7.5-5.9-16.1-10.5-25.3-13.5c-5.3-1.7-10.9-2.9-16.7-3.6
		c-3-0.3-6-0.5-9-0.5c-45.9,0-83,37.2-83,83v195.8c0,45.9,37.2,83,83,83c45.9,0,83-37.2,83-83V139.4
		C166.1,116.7,156.9,96.1,142.1,81.1z"/>
	<path class="st3" d="M120.1,314.5L120.1,314.5c0-23.7,14.2-43,31.8-43l74.5,0c4,0.1,32.9-2.5,42,17.7c7.5,17.9-14.7,38.9-20.6,44.5
		c-32.6,30.9-95.4,39.5-118.3,11.2C125.2,339.8,120.1,330.5,120.1,314.5z"/>
	<ellipse class="st4" cx="28.2" cy="146.9" rx="16.3" ry="23.2"/>
	<ellipse class="st4" cx="103.3" cy="148.2" rx="16.3" ry="23.2"/>
	<path class="st5" d="M76.5,195.9c-2.7,0-5.2,0.8-7.5,2.2c-3.4-1.7-7.2-2.7-11.2-2.7c-14.1,0-25.5,11.9-25.5,26.5
		c0,14.7,11.4,26.5,25.5,26.5c0.5,0,1.1,0,1.6-0.1c3.9,8.2,10.1,13.6,17.1,13.6c11.7,0,21.2-14.8,21.2-33
		C97.7,210.7,88.2,195.9,76.5,195.9z"/>
	<path class="st5" d="M185.2,70.5"/>
	<path class="st5" d="M134.7,37.1c-3.6-0.9-7.3,0.2-10.8,2.3c-0.5-0.2-1.1-0.3-1.6-0.6c-0.6-2.4-1.3-4.6-1.9-6.5
		C116.8,21,106-1.4,92.5,0.1C87.4,0.6,83,4.5,79.6,9.9c-11.9-6.8-27.9-7.4-36,0.2c-6.2,5.8-7.2,15.9-5.2,24.8
		c-12.8,1.3-25.3,15.1-24,26.3c1,8.4,9.6,14.5,18.3,16c-0.3,1.1-0.5,2.5-0.4,4.2c0.7,8.2,9.8,16.1,19.4,16.9
		c11.5,1,19.1-8.3,19.8-9.2c6.1,1.7,12.2,1.4,17.1-1.9c4.3-2.9,6.6-7.7,7.6-13c3.6,0.5,7.8,0.2,11.9-1.2c2.3-0.8,4.3-1.8,6.1-3
		c1.9-0.5,4.1-0.8,6.4-0.8c3.3,0,6.2,0.6,8.5,1.4c0.1,0,0.1,0.1,0.2,0.1c1,0.6,1.9,1.3,2.8,2c0.3,0.2,0.6,0.4,0.8,0.6
		c3.2,2.4,6.2,5,9,7.9c2.2-3.5,3.8-6.9,4.5-9.3C150,60.3,145.9,39.8,134.7,37.1z"/>
	<g>
		<path class="st6" d="M99.2,200.9c1.1-14.8-25.3-38.5-48-32.6c-14.4,3.7-27.7,19.4-25.8,32.1c10.1,1.6,21.6,2.7,34.3,2.9
			C74.4,203.6,87.7,202.5,99.2,200.9z"/>
		<path class="st1" d="M59.6,203.4c-12.7-0.2-24.2-1.4-34.3-2.9c0.1,0.8,0.3,1.6,0.6,2.4c3.9,12.2,22.3,15.2,26.9,16
			c18.8,3.1,43.7-4.1,46.2-16.6c0.1-0.4,0.1-0.9,0.2-1.3C87.7,202.5,74.4,203.6,59.6,203.4z"/>
	</g>
</g>
</svg>
