<svg xmlns="http://www.w3.org/2000/svg" viewBox="0 0 171.78 300"><defs><style>.cls-1{fill:#fffbe9;}.cls-2{fill:none;stroke:#8b5e3c;stroke-linecap:round;stroke-miterlimit:10;stroke-width:7.98px;}.cls-3{fill:#c49a6c;}.cls-4{fill:#8b5e3c;}.cls-5{fill:#fff;}.cls-6{fill:#a8866d;}.cls-7{fill:#574747;}.cls-8{fill:#423030;}.cls-9{fill:#751c1c;}.cls-10{fill:#6f1a1a;}.cls-11{fill:#681818;}.cls-12{fill:#621616;}.cls-13{fill:#5b1414;}</style></defs><g id="Layer_2" data-name="Layer 2"><g id="Layer_1-2" data-name="Layer 1"><path class="cls-1" d="M90.78,43.61V35H91a8.21,8.21,0,1,0-5.08-14.65A8.21,8.21,0,1,0,80.81,35H81v8.63a18.43,18.43,0,0,0,9.78,0Z"/><path class="cls-2" d="M82,209.53c.52,19.13,19.43,21.71,15.46,38.44S82,257.92,82,270.46V287.7"/><path class="cls-3" d="M84.65,42.67a155.07,155.07,0,0,0-46.12,7.39,65.78,65.78,0,0,0-8.81,33.13V170.4c0,34,25.15,61.6,56.17,61.6h0c31,0,56.17-27.58,56.17-61.6V83.19a65.72,65.72,0,0,0-8.76-33A154.89,154.89,0,0,0,84.65,42.67Z"/><path class="cls-4" d="M77,300c1.22-1.46,2.68-9,0-12.31-2.43-3.38-3.4-7.7,1.3-11.49s18.78,5.43,4.93,20a7.19,7.19,0,0,0-.4-5.69C83.12,294.86,77,300,77,300Z"/><path class="cls-5" d="M55.47,63.32c16.11-6,13.29-8.86,22.56-9.67,5-.43,7-6,7.69-11-1.08,0-2.17,0-3.28,0a154.61,154.61,0,0,0-46.11,7.39,63.29,63.29,0,0,0-3.16,6.2C38.88,61.6,47,66.52,55.47,63.32Z"/><path class="cls-6" d="M17.48,14.9A71,71,0,0,1,2.92,22.55L32.11,67.13a21.69,21.69,0,0,0,17.32-2c8.76-5.3,9.91-14.86,10-15.93Q44.68,26.66,29.9,4.1A71.23,71.23,0,0,1,17.48,14.9Z"/><path class="cls-7" d="M17.48,14.9c5.31-3.63,9.73-7,12.75-10.29-.82-1.25-2-3-2.8-4.27L.1,18.24l2.82,4.31A71,71,0,0,0,17.48,14.9Z"/><path class="cls-8" d="M13.09,6.78h0a.93.93,0,0,1-1.35.88h0a.93.93,0,0,0-.94.06C4,12.37-.74,17,.1,18.24s7.73-1.54,15.28-6.49,12.95-10,12-11.41-6.92,1.2-13.91,5.6A.92.92,0,0,0,13.09,6.78Z"/><path class="cls-5" d="M135.08,201.47c-3.2-1.16-6-1.74-7.22-.82-3.47,2.66,0,18.12-16.75,16.39-9.44-1-12.46,5.75-12.77,13.47C114,226.88,127.21,216.12,135.08,201.47Z"/><path class="cls-6" d="M18.13,242.69a71.13,71.13,0,0,0-14.56-7.64l29.18-44.58a21.71,21.71,0,0,1,17.33,2c8.76,5.29,9.9,14.86,10,15.93Q45.32,230.93,30.55,253.5A71.19,71.19,0,0,0,18.13,242.69Z"/><path class="cls-7" d="M18.13,242.69c5.3,3.63,9.72,7,12.75,10.29l-2.8,4.28L.74,239.36l2.83-4.31A71.13,71.13,0,0,1,18.13,242.69Z"/><path class="cls-8" d="M16.41,246.64h0a.93.93,0,0,1-1.36-.86h0a.94.94,0,0,0-.45-.83c-7-4.29-13.18-6.68-14-5.39S5.21,246,12.84,250.79s14.51,7.62,15.38,6.24-4-5.8-10.87-10.34A.93.93,0,0,0,16.41,246.64Z"/><path class="cls-6" d="M153.24,242.69a70.62,70.62,0,0,1,14.56-7.64l-29.19-44.58a21.69,21.69,0,0,0-17.32,2c-8.76,5.29-9.91,14.86-10,15.93l29.55,45.13A70.83,70.83,0,0,1,153.24,242.69Z"/><path class="cls-7" d="M153.24,242.69c-5.31,3.63-9.73,7-12.76,10.29l2.8,4.28,27.34-17.9-2.82-4.31A70.62,70.62,0,0,0,153.24,242.69Z"/><path class="cls-8" d="M155,246.64h0a.93.93,0,0,0,1.36-.86h0a.94.94,0,0,1,.45-.83c7.06-4.29,13.18-6.68,14-5.39s-4.6,6.41-12.23,11.23S144,258.41,143.15,257s4-5.8,10.86-10.34A.93.93,0,0,1,155,246.64Z"/><path class="cls-6" d="M154.3,14.9a71.22,71.22,0,0,0,14.56,7.65L139.68,67.13a21.71,21.71,0,0,1-17.33-2c-8.76-5.3-9.9-14.86-10-15.93L141.88,4.1A71.23,71.23,0,0,0,154.3,14.9Z"/><path class="cls-7" d="M154.3,14.9c-5.31-3.63-9.72-7-12.75-10.29l2.8-4.27,27.34,17.9-2.83,4.31A71.22,71.22,0,0,1,154.3,14.9Z"/><path class="cls-8" d="M158.7,6.78h0a.93.93,0,0,0,1.34.88h0a.93.93,0,0,1,.94.06c6.83,4.65,11.54,9.24,10.71,10.52S164,16.7,156.4,11.75,143.46,1.7,144.35.34s6.92,1.2,13.91,5.6A1,1,0,0,1,158.7,6.78Z"/><path class="cls-9" d="M85.89,62.24C113.66,79.79,129.45,104.49,132,130S124,182,98.9,203a101.67,101.67,0,0,1-13,9.38,101.67,101.67,0,0,1-13-9.38C47.8,182,37.17,155.59,39.76,130S58.13,79.78,85.89,62.24Z"/><path class="cls-10" d="M85.89,76.75c20,11.64,33,28.49,37,47.28a65.08,65.08,0,0,1,1.12,7.19,64.39,64.39,0,0,1-1.28,20.5c-3.32,15-12.67,28.54-27,39.23a82.65,82.65,0,0,1-10.72,6.91,78.71,78.71,0,0,1-10.66-7.41c-11.37-9.26-19-20.23-23.12-31.93a63.67,63.67,0,0,1-3.33-27.31A65.83,65.83,0,0,1,48.94,124C52.92,105.23,65.89,88.38,85.89,76.75Z"/><path class="cls-11" d="M85.89,91.25c15.44,7.76,26.16,20.35,29.18,35.57a52.85,52.85,0,0,1,.82,5.58,55.79,55.79,0,0,1-.94,16.44c-2.59,12.59-10.88,23-22.55,30.09A62.46,62.46,0,0,1,84,183.37a55.36,55.36,0,0,1-8.29-5.45A50.58,50.58,0,0,1,58.2,153.37a52.54,52.54,0,0,1-1.49-26.55C59.74,111.6,70.45,99,85.89,91.25Z"/><path class="cls-12" d="M85.89,105.75c10.88,3.88,19.38,12.21,21.41,23.86.23,1.32.41,2.64.53,4a47.67,47.67,0,0,1-.61,12.39c-1.84,10.23-9.12,17.35-18.08,21a42.12,42.12,0,0,1-6.14,2,33.54,33.54,0,0,1-5.93-3.48,30.7,30.7,0,0,1-11.83-17.18A43.23,43.23,0,0,1,64,133.57c.11-1.32.29-2.64.52-4C66.51,118,75,109.63,85.89,105.75Z"/><path class="cls-13" d="M99.49,143.07c-1,7.89-7.32,11.83-13.6,11.83S73.33,151,72.29,143.07a42.77,42.77,0,0,1-.27-8.32c0-.78.13-1.57.23-2.35a13.74,13.74,0,0,1,27.29,0c.09.78.17,1.57.22,2.35A42,42,0,0,1,99.49,143.07Z"/></g></g></svg>