<svg width="313" height="547" viewBox="0 0 313 547" fill="none" xmlns="http://www.w3.org/2000/svg">
<path d="M156.443 112.458C257.571 176.355 271.456 292.376 180.157 368.735C172.711 375.041 164.782 380.754 156.443 385.821C148.104 380.754 140.175 375.041 132.729 368.735C41.4301 292.364 55.3384 176.32 156.443 112.458Z" fill="#751C1C"/>
<path d="M192.381 155.609C192.164 153.207 191.838 152.897 189.544 152.758C189.033 152.758 188.506 152.758 187.994 152.758C185.267 152.835 185.034 153.145 184.399 155.857C183.112 161.251 181.919 166.707 180.322 171.992C176.819 183.586 180.322 193.847 190.288 200.31C196.755 204.316 204.115 206.654 211.709 207.114C212.863 207.291 214.041 207.226 215.169 206.925C216.297 206.624 217.35 206.093 218.263 205.365C219.176 204.637 219.928 203.728 220.472 202.696C221.017 201.663 221.342 200.529 221.427 199.364C222.052 194.944 222.166 190.466 221.768 186.019C221.008 177.774 218.42 170.117 212.344 164.057C212.104 163.763 211.887 163.453 211.693 163.127C212.24 162.988 212.793 162.879 213.352 162.801C216.281 162.476 216.7 162.104 216.886 159.159C216.927 158.188 216.859 157.216 216.684 156.26C216.674 155.97 216.607 155.684 216.486 155.42C216.365 155.156 216.193 154.918 215.98 154.721C215.766 154.523 215.516 154.37 215.243 154.27C214.97 154.17 214.68 154.125 214.39 154.137H207.865C208.221 152.587 208.454 151.239 208.903 149.921C209.024 149.69 209.089 149.434 209.093 149.174C209.098 148.913 209.041 148.656 208.928 148.421C208.815 148.186 208.649 147.981 208.443 147.821C208.237 147.662 207.996 147.553 207.741 147.503C207.503 147.362 207.236 147.278 206.96 147.258C206.685 147.238 206.408 147.283 206.153 147.388C205.897 147.493 205.669 147.656 205.488 147.865C205.306 148.073 205.175 148.321 205.106 148.588C204.943 148.984 204.751 149.367 204.532 149.735C204.346 148.015 204.532 146.201 202.13 146.015C199.03 145.783 199.697 148.247 199.309 150.371L198.581 148.526C198.515 148.187 198.367 147.868 198.149 147.599C197.931 147.331 197.651 147.12 197.332 146.985C197.014 146.85 196.667 146.796 196.322 146.827C195.978 146.858 195.646 146.973 195.357 147.162C195.035 147.234 194.736 147.382 194.483 147.593C194.231 147.804 194.033 148.072 193.905 148.376C193.778 148.679 193.725 149.009 193.751 149.337C193.777 149.665 193.881 149.983 194.055 150.262C195.264 153.223 195.264 153.223 192.381 155.609Z" fill="white"/>
<path d="M192.381 155.609C195.264 153.223 195.264 153.223 194.055 150.278C193.881 149.998 193.777 149.681 193.751 149.353C193.725 149.025 193.778 148.695 193.905 148.391C194.033 148.088 194.231 147.819 194.483 147.608C194.736 147.397 195.035 147.249 195.357 147.178C195.646 146.988 195.978 146.873 196.322 146.842C196.667 146.811 197.014 146.865 197.332 147C197.651 147.135 197.931 147.346 198.149 147.615C198.367 147.884 198.515 148.202 198.581 148.542L199.309 150.386C199.697 148.263 199.077 145.736 202.13 146.031C204.563 146.217 204.346 148.03 204.532 149.751C204.751 149.383 204.943 148.999 205.106 148.604C205.175 148.336 205.306 148.088 205.488 147.88C205.669 147.672 205.897 147.509 206.153 147.403C206.408 147.298 206.685 147.254 206.96 147.274C207.236 147.294 207.503 147.378 207.741 147.519C207.997 147.569 208.237 147.678 208.443 147.837C208.649 147.996 208.815 148.201 208.928 148.436C209.041 148.671 209.098 148.929 209.093 149.189C209.089 149.45 209.024 149.706 208.903 149.937C208.454 151.254 208.221 152.665 207.865 154.152H214.39C214.681 154.14 214.97 154.185 215.243 154.285C215.516 154.386 215.766 154.539 215.98 154.736C216.193 154.934 216.365 155.171 216.486 155.436C216.607 155.7 216.674 155.985 216.684 156.276C216.86 157.231 216.927 158.204 216.886 159.174C216.7 162.119 216.281 162.491 213.352 162.817C212.793 162.895 212.24 163.004 211.693 163.142C211.887 163.468 212.104 163.779 212.344 164.072C218.42 170.132 221.008 177.789 221.768 186.035C222.166 190.482 222.052 194.959 221.427 199.38C221.342 200.544 221.017 201.679 220.472 202.711C219.928 203.744 219.176 204.653 218.263 205.381C217.35 206.108 216.297 206.64 215.169 206.941C214.041 207.242 212.863 207.306 211.709 207.13C204.119 206.641 196.77 204.276 190.319 200.248C180.307 193.785 176.85 183.524 180.353 171.93C181.903 166.63 183.143 161.189 184.43 155.795C185.065 153.13 185.298 152.82 188.026 152.696C188.537 152.696 189.064 152.696 189.575 152.696C191.869 152.897 192.164 153.207 192.381 155.609ZM192.009 172.147C194.442 173.031 196.659 173.697 198.798 174.674C200.179 175.297 201.648 175.705 203.153 175.883C204.898 176.305 206.585 176.94 208.175 177.774C208.392 177.867 208.33 178.595 208.407 179.029C208.007 178.987 207.612 178.904 207.229 178.781C205.912 178.192 204.625 177.541 203.339 176.921L203.06 177.402C203.354 177.727 203.68 178.022 203.943 178.363C205.772 180.719 207.539 183.106 209.399 185.415C209.956 186.163 210.664 186.786 211.476 187.244C213.454 187.946 215.107 189.346 216.126 191.181C216.297 191.584 216.049 192.157 216.002 192.653C215.63 192.39 215.119 192.219 214.917 191.863C214.156 190.443 212.871 189.376 211.337 188.887C211.926 191.258 212.53 193.459 212.964 195.691C213.073 196.265 212.67 196.931 212.515 197.567C212.167 197.082 211.871 196.563 211.631 196.017C211.151 194.374 210.887 192.638 210.298 191.041C209.554 188.995 208.547 187.027 207.663 185.043L207.028 185.213C207.028 186.996 207.028 188.794 207.028 190.576C206.979 191.14 206.891 191.699 206.764 192.25C206.377 191.785 205.648 191.32 205.648 190.84C205.57 188.742 205.679 186.641 205.974 184.562C206.144 183.555 206.206 182.811 205.447 182.114C203.715 180.295 201.861 178.596 199.898 177.03C197.994 175.885 195.998 174.9 193.931 174.085C194.726 175.951 195.68 177.745 196.783 179.448C197.262 180.253 197.875 180.972 198.596 181.571C199.503 182.231 200.264 183.068 200.835 184.033C201.405 184.998 201.772 186.07 201.913 187.182C201.913 187.585 201.526 188.081 201.309 188.53C201.022 188.171 200.768 187.787 200.549 187.383C199.945 186.035 199.371 184.655 198.782 183.276L198.255 183.493C198.255 183.849 198.379 184.221 198.41 184.593C198.565 187.104 198.751 189.615 198.813 192.126C198.813 192.452 198.271 192.793 197.961 193.134C197.736 192.793 197.574 192.415 197.48 192.018C197.48 191.165 197.48 190.297 197.48 189.429C197.428 185.995 196.624 182.615 195.124 179.525C193.857 181.198 193.118 183.211 193.001 185.306C193.001 185.802 192.536 186.267 192.303 186.763C192.002 186.288 191.786 185.764 191.668 185.213C191.686 182.621 192.619 180.118 194.303 178.146C191.358 173.325 190.521 173.418 186.119 174.937C184.519 175.548 183.059 176.476 181.826 177.665C181.058 178.471 180.611 179.529 180.57 180.641C180.431 188.732 184.414 194.591 190.908 198.962C196.917 202.718 203.734 204.992 210.794 205.595C216.157 206.262 219.412 203.859 220.249 198.466C221.126 192.666 220.921 186.754 219.644 181.029C219.417 179.928 218.926 178.898 218.214 178.029C217.501 177.16 216.588 176.476 215.553 176.038C214.003 175.309 212.36 174.751 210.81 174.007C209.459 173.405 208.358 172.353 207.697 171.03C207.035 169.707 206.854 168.196 207.183 166.754C207.491 165.374 208.218 164.122 209.263 163.171C210.309 162.219 211.623 161.614 213.026 161.437C215.367 161.174 215.475 161.065 215.506 158.756C215.506 158.244 215.506 157.717 215.429 157.206C215.429 156.121 214.886 155.408 213.724 155.547C211.339 155.598 208.97 155.947 206.671 156.586C199.278 159.36 195.233 165.421 192.009 172.147V172.147ZM180.927 175.511C183.376 174.581 185.794 173.465 188.32 172.783C190.846 172.101 190.955 172.07 190.908 169.683C190.908 169.001 190.722 168.319 190.707 167.637C190.707 164.894 190.583 162.166 190.598 159.422C190.598 158.074 190.8 156.71 190.831 155.346C190.835 155.159 190.798 154.973 190.723 154.802C190.648 154.631 190.537 154.478 190.397 154.354C189.967 154.119 189.489 153.986 189 153.964C188.511 153.942 188.023 154.033 187.574 154.229C187.125 154.425 186.727 154.721 186.41 155.095C186.094 155.468 185.867 155.91 185.747 156.384C184.461 161.716 183.081 167.033 181.733 172.364C181.454 173.527 181.144 174.674 180.927 175.511V175.511ZM206.95 148.542C206.451 149.522 205.882 150.465 205.245 151.363C205.049 151.578 204.809 151.75 204.543 151.867C204.276 151.985 203.987 152.045 203.695 152.045C203.386 152.045 203.029 151.223 202.905 150.727C202.781 150.231 202.905 149.456 202.812 148.852C202.607 148.359 202.33 147.899 201.991 147.488C201.586 147.895 201.251 148.366 200.999 148.883C200.797 149.58 200.999 150.433 200.766 151.084C200.534 151.735 200.177 152.355 199.743 152.448C199.309 152.541 198.627 151.998 198.302 151.549C197.935 150.908 197.643 150.226 197.434 149.518C196.845 147.968 196.597 147.968 195.248 149.146C196.349 152.448 197.558 152.82 193.853 156.493C191.389 158.926 190.908 164.475 192.536 167.792C196.039 162.104 200.286 157.237 206.485 154.757C206.625 153.61 206.795 152.603 206.857 151.58C206.919 150.557 207.958 149.766 206.95 148.542V148.542ZM210.36 164.181C209.686 164.695 209.155 165.374 208.82 166.153C208.485 166.931 208.356 167.784 208.447 168.627C208.537 169.47 208.843 170.275 209.336 170.965C209.829 171.655 210.491 172.207 211.259 172.566C213.336 173.604 215.491 174.426 217.784 175.402C216.362 171.063 213.797 167.187 210.36 164.181V164.181Z" fill="#3F2222"/>
<path d="M192.008 172.147C195.232 165.421 199.277 159.36 206.624 156.524C208.922 155.885 211.292 155.536 213.677 155.485C214.839 155.346 215.335 156.059 215.381 157.144C215.381 157.655 215.459 158.182 215.459 158.694C215.459 161.003 215.319 161.112 212.979 161.375C211.576 161.552 210.262 162.157 209.216 163.109C208.17 164.06 207.444 165.312 207.136 166.692C206.807 168.134 206.988 169.645 207.65 170.968C208.311 172.291 209.412 173.343 210.763 173.945C212.313 174.689 213.862 175.247 215.505 175.976C216.541 176.414 217.454 177.098 218.166 177.967C218.879 178.836 219.37 179.866 219.597 180.967C220.874 186.692 221.079 192.604 220.202 198.404C219.365 203.797 216.11 206.153 210.747 205.533C203.682 204.915 196.866 202.626 190.861 198.853C184.367 194.513 180.384 188.623 180.523 180.533C180.564 179.421 181.011 178.362 181.779 177.557C183.011 176.368 184.472 175.44 186.072 174.829C190.474 173.279 191.311 173.279 194.256 178.037C192.572 180.009 191.639 182.512 191.621 185.105C191.739 185.655 191.954 186.18 192.256 186.655C192.489 186.159 192.923 185.694 192.954 185.198C193.071 183.103 193.81 181.09 195.077 179.417C196.577 182.506 197.381 185.887 197.433 189.321C197.433 190.189 197.34 191.057 197.433 191.909C197.526 192.307 197.689 192.684 197.914 193.025C198.224 192.684 198.782 192.343 198.766 192.018C198.766 189.507 198.518 186.996 198.363 184.485C198.363 184.113 198.255 183.741 198.208 183.385L198.735 183.168C199.324 184.547 199.897 185.926 200.502 187.275C200.721 187.679 200.975 188.063 201.261 188.422C201.478 187.972 201.928 187.476 201.866 187.073C201.725 185.961 201.358 184.89 200.788 183.925C200.217 182.96 199.455 182.122 198.549 181.463C197.828 180.863 197.215 180.145 196.736 179.339C195.633 177.636 194.679 175.842 193.884 173.976C195.951 174.792 197.946 175.777 199.851 176.921C201.814 178.488 203.668 180.186 205.4 182.005C206.159 182.703 206.097 183.447 205.927 184.454C205.632 186.533 205.523 188.633 205.601 190.731C205.601 191.212 206.33 191.677 206.717 192.142C206.844 191.591 206.932 191.031 206.981 190.468C206.981 188.685 206.981 186.887 206.981 185.105L207.616 184.934C208.5 186.918 209.507 188.887 210.251 190.933C210.84 192.483 211.104 194.265 211.584 195.908C211.824 196.454 212.12 196.973 212.467 197.458C212.622 196.823 213.026 196.156 212.917 195.583C212.483 193.351 211.879 191.15 211.29 188.778C212.824 189.268 214.108 190.335 214.87 191.754C215.071 192.111 215.583 192.281 215.955 192.545C215.955 192.049 216.249 191.475 216.079 191.072C215.06 189.238 213.407 187.838 211.429 187.135C210.617 186.677 209.909 186.054 209.352 185.306C207.492 182.997 205.725 180.657 203.896 178.254C203.633 177.913 203.307 177.619 203.013 177.293L203.292 176.813C204.578 177.433 205.865 178.084 207.182 178.673C207.565 178.795 207.96 178.878 208.36 178.921C208.36 178.487 208.36 177.758 208.128 177.665C206.537 176.832 204.851 176.197 203.106 175.774C201.601 175.596 200.132 175.189 198.75 174.565C196.72 173.666 194.442 173.031 192.008 172.147Z" fill="#CF3B3B"/>
<path d="M180.927 175.511C181.144 174.674 181.454 173.527 181.733 172.411C183.081 167.079 184.461 161.763 185.747 156.431C185.867 155.956 186.094 155.515 186.411 155.141C186.727 154.768 187.125 154.471 187.574 154.275C188.023 154.079 188.511 153.989 189 154.01C189.489 154.032 189.967 154.166 190.397 154.401C190.537 154.524 190.648 154.677 190.723 154.849C190.798 155.02 190.835 155.206 190.831 155.392C190.831 156.756 190.614 158.12 190.598 159.469C190.598 162.212 190.598 164.94 190.707 167.684C190.707 168.366 190.893 169.048 190.908 169.729C190.908 172.101 190.629 172.194 188.32 172.829C186.011 173.465 183.376 174.581 180.927 175.511Z" fill="#4D6CDF"/>
<path d="M206.951 148.542C207.958 149.766 206.951 150.65 206.873 151.642C206.796 152.634 206.641 153.672 206.501 154.819C200.301 157.299 196.024 162.166 192.552 167.854C191.002 164.537 191.405 158.988 193.869 156.555C197.573 152.882 196.365 152.51 195.264 149.208C196.613 147.968 196.814 148.015 197.449 149.58C197.659 150.288 197.95 150.97 198.317 151.611C198.643 152.06 199.34 152.587 199.759 152.51C200.177 152.432 200.627 151.673 200.782 151.146C200.937 150.619 200.782 149.596 201.014 148.945C201.266 148.428 201.601 147.957 202.006 147.55C202.346 147.961 202.623 148.421 202.828 148.914C202.967 149.518 202.828 150.185 202.921 150.789C203.014 151.394 203.401 152.076 203.711 152.107C204.003 152.107 204.291 152.047 204.558 151.929C204.825 151.812 205.065 151.64 205.261 151.425C205.895 150.507 206.459 149.543 206.951 148.542V148.542Z" fill="#C71919"/>
<path d="M210.361 164.181C213.798 167.187 216.362 171.063 217.785 175.402C215.491 174.426 213.337 173.604 211.26 172.566C210.492 172.207 209.829 171.655 209.336 170.965C208.844 170.275 208.537 169.47 208.447 168.627C208.357 167.784 208.485 166.931 208.821 166.153C209.156 165.374 209.686 164.695 210.361 164.181Z" fill="#4D6CDF"/>
<path d="M145.756 344.039C145.466 341.968 145.043 339.917 144.488 337.901C144.262 336.907 143.809 335.979 143.166 335.189C142.522 334.398 141.705 333.767 140.777 333.345C140.276 333.172 140.182 332.953 140.339 332.436C140.62 331.42 140.64 330.348 140.396 329.322C140.152 328.295 139.653 327.347 138.945 326.565C138.601 326.142 138.194 325.72 138.851 325.281C139.509 324.843 139.572 323.183 140.965 323.637C141.947 323.917 142.976 323.984 143.986 323.836C144.995 323.687 145.962 323.326 146.821 322.776C148.25 321.737 149.836 320.934 151.518 320.396C155.041 322.103 155.605 326.659 152.16 328.507C148.042 330.683 147.729 333.94 148.246 337.791C148.447 339.237 148.734 340.67 149.107 342.081C150.148 346.648 150.522 351.342 150.219 356.017C150.219 356.424 150.093 356.831 150.046 357.222C149.843 358.71 149.091 359.273 147.635 358.788C147.376 358.787 147.12 358.729 146.884 358.62C146.649 358.51 146.44 358.351 146.272 358.153C146.104 357.955 145.981 357.724 145.911 357.474C145.841 357.224 145.825 356.962 145.866 356.705C145.944 353.167 145.866 349.644 145.944 346.105C146.05 345.064 146.05 344.015 145.944 342.974C145.85 342.739 145.584 342.974 145.819 342.974C146.054 342.974 145.897 342.974 145.913 343.099C145.976 343.318 146.07 343.71 145.756 344.039Z" fill="#E4BBB6"/>
<path d="M147.558 358.725C148.717 358.882 149.296 358.537 149.453 357.16C149.711 354.138 149.711 351.1 149.453 348.078C149.139 343.084 147.026 338.339 147.48 333.219C147.464 332.523 147.633 331.835 147.968 331.225C148.304 330.615 148.794 330.104 149.39 329.743C150.048 329.368 150.642 328.882 151.284 328.475C154.525 326.314 154.729 323.512 151.832 320.881C151.673 320.715 151.527 320.537 151.394 320.349C153.664 320.349 155.214 321.915 155.903 324.905C155.708 325.586 155.708 326.307 155.903 326.988C155.465 328.397 154.181 328.804 153.054 329.368C148.717 331.528 147.996 332.765 149.5 337.4C151.044 342.317 151.784 347.45 151.691 352.603C151.673 353.887 151.569 355.169 151.378 356.439C151.112 358.725 149.86 359.461 147.558 358.725Z" fill="#CDA8A3"/>
<path d="M141.264 337.541C141.068 336.233 140.528 335.001 139.698 333.971C139.118 334.315 139.025 335.208 138.132 335.036C138.112 334.781 138.149 334.525 138.241 334.286C138.334 334.048 138.478 333.833 138.664 333.658C140.715 331.857 139.713 328.491 138.132 326.753C137.725 326.299 137.349 326.612 137.083 326.862C135.91 327.716 134.675 328.48 133.388 329.149V329.149C132.981 329.07 132.511 329.446 132.104 328.898C132.323 328.757 132.495 328.616 132.683 328.507L133.419 328.099C138.586 326.361 141.671 321.163 141.123 315.104C141.205 314.048 141.088 312.985 140.778 311.972C139.541 305.913 135.235 301.294 129.975 300.308C125.945 299.639 121.807 300.258 118.15 302.077C114.493 303.895 111.502 306.821 109.604 310.438C106.933 316.155 106.059 322.548 107.099 328.773C108.148 336.085 110.982 342.536 116.901 347.201C121.598 350.975 127.015 352.791 133.137 350.912C137.083 349.722 140.856 348.266 141.749 343.538C142.158 341.533 141.99 339.453 141.264 337.541Z" fill="#DA6666"/>
<path d="M132.463 350.944C134.837 349.069 136.88 346.809 138.507 344.258C139.812 342.262 140.533 339.941 140.589 337.556C141.333 339.465 141.502 341.55 141.074 343.553C140.182 348.297 136.424 349.754 132.463 350.944Z" fill="#D04040"/>
<path d="M132.808 328.115C134.06 326.424 135.783 325.172 136.973 323.418C138.444 320.797 139.615 318.018 140.464 315.135C141.075 321.179 137.99 326.377 132.808 328.115Z" fill="#D04040"/>
<path d="M138.053 333.658C137.395 332.202 137.943 330.526 137.442 329.07C137.192 328.256 137.004 328.131 136.315 328.475C135.235 329.051 134.009 329.291 132.792 329.164C134.077 328.492 135.312 327.728 136.487 326.878C136.753 326.628 137.113 326.299 137.536 326.769C139.118 328.506 140.12 331.873 138.053 333.658Z" fill="#D04040"/>
<path d="M145.757 344.039C145.882 343.679 145.647 343.224 146.101 342.802C146.101 343.96 146.43 345.025 145.866 346.043L145.757 344.039Z" fill="#EBC0BB"/>
<path d="M155.949 327.035C155.731 326.731 155.614 326.367 155.614 325.993C155.614 325.62 155.731 325.256 155.949 324.952C156.223 325.619 156.223 326.368 155.949 327.035V327.035Z" fill="#D4AEA9"/>
<path d="M133.324 351.554C131.694 352.07 129.993 352.334 128.283 352.337C123.939 352.212 119.772 350.586 116.493 347.734C110.919 343.334 107.631 337.165 106.441 328.945C105.368 322.592 106.264 316.063 109.009 310.234C113.189 301.623 123.1 298.397 130.162 299.728C135.642 300.746 140.198 305.647 141.482 311.91L141.592 312.395C141.842 313.301 141.927 314.246 141.842 315.182C142.061 317.144 141.846 319.129 141.213 320.999C140.58 322.868 139.544 324.576 138.178 326.001C138.372 326.079 138.544 326.203 138.679 326.361C139.898 327.712 140.559 329.475 140.527 331.294C140.5 331.982 140.307 332.653 139.963 333.251L140.261 333.611C141.108 334.725 141.648 336.043 141.826 337.431C142.58 339.43 142.754 341.601 142.327 343.694L133.324 351.554ZM126.842 300.715C123.399 300.682 120.013 301.605 117.064 303.383C114.114 305.161 111.716 307.722 110.136 310.782C107.503 316.372 106.65 322.636 107.693 328.726C108.821 336.648 111.936 342.551 117.244 346.732C122.552 350.912 127.5 351.977 132.902 350.333C136.894 349.127 140.245 347.781 141.059 343.459C141.461 341.576 141.303 339.617 140.605 337.823V337.682C140.47 336.749 140.156 335.85 139.681 335.036C139.515 335.29 139.279 335.491 139.001 335.613C138.723 335.735 138.415 335.774 138.116 335.725L137.646 335.631V335.161C137.614 334.819 137.657 334.474 137.77 334.15C137.884 333.826 138.066 333.53 138.304 333.282C138.609 333.022 138.858 332.701 139.033 332.34C139.208 331.979 139.306 331.585 139.321 331.184C139.332 329.737 138.807 328.338 137.85 327.254L137.709 327.379C137.014 328 136.24 328.527 135.407 328.945C134.894 329.186 134.402 329.469 133.935 329.79L133.716 329.947H133.434H133.262C132.976 330.031 132.672 330.023 132.391 329.924C132.11 329.826 131.867 329.642 131.696 329.399L131.305 328.851L132.056 328.334L132.463 328.068L133.011 327.771L133.215 327.645C138.194 325.97 141.044 321.022 140.59 315.276V315.119C140.662 314.319 140.588 313.513 140.37 312.74L140.261 312.238C139.086 306.492 134.953 302.014 129.974 301.075C128.965 300.851 127.938 300.72 126.905 300.683L126.842 300.715Z" fill="#3F2222"/>
<path d="M163.401 320.005C164.643 320.321 165.805 320.892 166.815 321.68C169.069 322.995 171.261 324.138 174.048 323.246C175.207 322.87 175.348 324.467 176.099 325.015C176.851 325.563 176.099 325.829 175.88 326.142C175.181 326.933 174.688 327.884 174.444 328.911C174.201 329.938 174.216 331.009 174.487 332.029C174.596 332.421 174.643 332.703 174.221 332.875C170.979 334.174 170.338 337.118 169.711 340.046C169.445 341.236 169.273 342.442 169.069 343.647C168.952 343.481 168.873 343.291 168.838 343.091C168.802 342.89 168.812 342.685 168.866 342.489C168.806 343.434 168.843 344.384 168.975 345.323C168.975 348.877 168.975 352.415 168.975 355.954C168.975 357.52 168.443 358.256 166.955 358.412C166.34 358.615 165.676 358.615 165.061 358.412V358.412C163.965 356.204 164.309 353.871 164.325 351.539C164.325 346.419 165.891 341.502 166.533 336.476C166.875 335.05 166.737 333.551 166.139 332.212C165.542 330.873 164.519 329.768 163.229 329.07C159.252 326.643 159.424 322.572 163.401 320.005Z" fill="#E4BBB6"/>
<path d="M163.402 320.005C162.854 321.288 161.445 321.899 161.116 323.434C160.599 325.829 160.834 326.816 162.885 328.209C163.261 328.475 163.653 328.741 164.044 328.976C167.176 330.824 167.583 332.781 167.066 336.601C166.267 342.52 164.749 348.36 164.796 354.404C165.04 355.72 165.161 357.057 165.156 358.396C163.856 358.193 163.59 357.207 163.402 356.111C162.712 350.472 163.138 344.753 164.655 339.279C165.015 337.979 165.438 336.711 165.735 335.411C165.941 334.872 166.037 334.297 166.019 333.72C166.001 333.143 165.869 332.575 165.63 332.05C165.391 331.524 165.051 331.051 164.628 330.658C164.205 330.265 163.709 329.959 163.167 329.759C162.243 329.258 161.288 328.835 160.38 328.303C160.018 328.177 159.689 327.971 159.417 327.7C159.146 327.429 158.94 327.1 158.814 326.737C159.011 326.057 159.011 325.335 158.814 324.655C159.535 321.57 161.147 319.942 163.402 320.005Z" fill="#CDA8A3"/>
<path d="M207.541 317.155C206.908 312.284 204.559 307.799 200.918 304.504C198.708 302.525 196.067 301.089 193.205 300.309C190.343 299.529 187.339 299.426 184.43 300.01C178.089 301.216 173.47 308.074 173.627 315.793C173.422 318.003 173.878 320.225 174.937 322.176C175.996 324.128 177.611 325.721 179.577 326.753C180.391 327.818 181.988 327.614 182.708 328.741C180.897 328.614 179.187 327.861 177.87 326.612C177.306 326.205 176.868 325.876 176.304 326.612C174.738 328.679 174.269 331.481 176.038 333.329C176.038 333.799 176.93 333.987 176.555 334.629C175.662 334.848 175.678 333.611 174.864 333.642C173.951 335.143 173.384 336.827 173.204 338.574C173.097 338.741 173.058 338.943 173.094 339.138C172.077 344.743 174.66 348.219 179.905 349.848C180.979 350.484 182.196 350.84 183.444 350.881C185.271 351.398 187.206 351.398 189.034 350.881V350.881C189.378 350.881 189.738 350.881 190.067 350.756C197.081 348.908 201.747 344.289 204.832 337.979C207.96 331.513 208.911 324.207 207.541 317.155V317.155Z" fill="#DA6666"/>
<path d="M173.924 338.746C174.801 343.318 177.603 346.732 180.625 350.02C175.176 348.329 172.593 344.696 173.924 338.746Z" fill="#D04040"/>
<path d="M183.428 328.882C181.862 330.151 180.296 329.258 178.856 328.679C177.415 328.099 177.102 328.491 177.071 329.853C176.883 331.061 176.773 332.279 176.742 333.501C174.989 331.654 175.49 328.804 177.024 326.784C177.588 326.017 178.026 326.346 178.59 326.784C179.911 328.022 181.621 328.763 183.428 328.882V328.882Z" fill="#D04040"/>
<path d="M174.283 315.902C175.473 318.329 175.99 321.054 177.618 323.277L180.233 326.894C178.268 325.853 176.654 324.254 175.596 322.298C174.537 320.342 174.08 318.117 174.283 315.902Z" fill="#D04040"/>
<path d="M184.165 351.053C185.999 350.583 187.921 350.583 189.755 351.053C187.927 351.57 185.992 351.57 184.165 351.053V351.053Z" fill="#D04040"/>
<path d="M168.976 345.338C168.413 344.32 168.773 343.24 168.726 342.05C169.211 342.629 168.945 343.177 169.07 343.616L168.976 345.338Z" fill="#EBC0BB"/>
<path d="M158.878 324.608C159.098 324.91 159.217 325.275 159.217 325.649C159.217 326.023 159.098 326.388 158.878 326.69C158.612 326.022 158.612 325.276 158.878 324.608V324.608Z" fill="#D4AEA9"/>
<path d="M165.141 358.396H167.035C166.763 358.603 166.43 358.715 166.088 358.715C165.746 358.715 165.413 358.603 165.141 358.396Z" fill="#CDA8A3"/>
<path d="M111.938 315.48C112.531 312.076 114.245 308.967 116.807 306.649C117.114 306.365 117.516 306.207 117.934 306.207C118.352 306.207 118.755 306.365 119.062 306.649C119.797 307.369 119.155 308.215 118.623 308.606C116.724 310.443 115.364 312.767 114.693 315.323C114.574 315.651 114.422 315.965 114.239 316.262C113.91 316.889 113.597 317.656 112.673 317.499C111.75 317.343 112.078 316.372 111.938 315.48Z" fill="#E69999"/>
<path d="M196.831 306.304C197.864 306.132 198.397 306.884 198.96 307.573C200.704 309.772 201.958 312.318 202.64 315.041C202.875 316.012 203.078 317.045 201.982 317.452C200.886 317.86 200.682 316.748 200.322 316.043C200.045 315.467 199.799 314.877 199.587 314.274C198.962 312.067 197.743 310.074 196.064 308.512C195.813 308.348 195.623 308.105 195.524 307.822C195.425 307.539 195.422 307.231 195.516 306.946C195.735 306.336 196.267 306.289 196.831 306.304Z" fill="#E69999"/>
<path d="M175.177 334.613C174.476 335.867 174.044 337.254 173.909 338.684V338.872L173.799 339.028V339.326C172.86 344.399 174.942 347.671 180.156 349.284L180.313 349.362C181.294 349.934 182.403 350.251 183.538 350.286H183.679C185.392 350.784 187.211 350.784 188.924 350.286H189.363C189.558 350.276 189.751 350.25 189.942 350.208C196.33 348.532 201.027 344.477 204.284 337.776C207.34 331.42 208.251 324.245 206.883 317.327V317.327C206.287 312.608 204.021 308.259 200.495 305.067C198.359 303.149 195.804 301.757 193.033 301.004C190.262 300.251 187.354 300.157 184.54 300.73C178.559 301.858 174.144 308.355 174.285 315.84C174.072 317.941 174.493 320.057 175.491 321.918C176.49 323.779 178.022 325.299 179.89 326.283L180.094 326.44C180.435 326.805 180.876 327.061 181.362 327.176C182.135 327.382 182.818 327.839 183.303 328.475L183.992 329.462H182.787C180.955 329.382 179.209 328.661 177.855 327.426L177.557 327.223C177.406 327.094 177.238 326.988 177.056 326.909C176.991 326.965 176.934 327.028 176.884 327.097C175.6 328.835 175.005 331.325 176.555 332.969L176.712 333.11V333.329C176.712 333.329 176.711 333.329 176.821 333.329C177.067 333.516 177.235 333.786 177.296 334.089C177.356 334.392 177.305 334.706 177.15 334.973L177.009 335.224H176.727C176.437 335.293 176.133 335.271 175.856 335.162C175.579 335.053 175.342 334.861 175.177 334.613ZM186.137 351.977C185.215 351.984 184.296 351.852 183.413 351.585C182.114 351.533 180.846 351.167 179.718 350.521C174.003 348.72 171.513 344.79 172.515 339.185C172.486 338.928 172.529 338.667 172.641 338.433C172.85 336.645 173.438 334.921 174.363 333.376L174.551 333.047H175.021C174.481 331.964 174.273 330.746 174.423 329.545C174.574 328.344 175.076 327.215 175.866 326.299C176.083 325.964 176.41 325.715 176.79 325.594C175.457 324.355 174.423 322.828 173.766 321.13C173.11 319.432 172.848 317.607 173.001 315.793C172.86 307.698 177.698 300.621 184.337 299.384C187.346 298.78 190.454 298.89 193.413 299.706C196.372 300.522 199.098 302.02 201.372 304.081C205.141 307.468 207.57 312.097 208.214 317.124V317.124C209.625 324.313 208.674 331.765 205.505 338.371C202.108 345.338 197.004 349.754 190.318 351.492C190.051 351.557 189.778 351.599 189.504 351.617H189.206C188.191 351.862 187.15 351.983 186.106 351.977H186.137Z" fill="#3F2222"/>
<path d="M212.179 273.299C212.24 273.827 212.436 274.33 212.749 274.76C213.899 277.079 214.269 279.708 213.806 282.255C213.342 284.802 212.069 287.132 210.176 288.898C209.666 289.373 209.289 289.975 209.086 290.642C208.882 291.31 208.859 292.019 209.017 292.699C209.713 297.612 209.203 302.294 204.567 305.377C203.061 306.333 201.341 306.901 199.561 307.031C197.782 307.16 195.998 306.847 194.369 306.118C193.545 305.787 192.661 305.626 191.773 305.646C190.885 305.666 190.009 305.866 189.201 306.234V306.072H187.995H184.936C184.333 305.91 183.638 306.188 183.128 305.632C183.013 305.655 182.895 305.655 182.78 305.632C181.158 305.493 180.022 304.125 178.423 303.94C178.344 303.979 178.257 303.999 178.168 303.999C178.08 303.999 177.993 303.979 177.913 303.94C177.427 304.751 176.36 304.844 175.781 305.539L173.185 306.397L171.447 306.512V306.397C170.166 306.423 168.887 306.275 167.646 305.956C167.655 305.833 167.655 305.709 167.646 305.585C166.78 305.464 165.997 305.006 165.467 304.311H165.05L162.014 305.91V306.026C161.689 306.42 161.365 306.814 160.739 306.605C160.675 306.53 160.605 306.46 160.53 306.397C159.881 306.605 159.395 307.625 158.514 306.814C158.444 306.92 158.367 307.02 158.282 307.115C157.798 307.263 157.276 307.222 156.822 306.999V306.86C156.631 306.968 156.415 307.024 156.196 307.024C155.977 307.024 155.761 306.968 155.57 306.86L154.365 306.721L150.842 305.864L150.402 305.4C149.336 304.612 148.13 305.145 147.018 305.4C147.028 305.5 147.028 305.601 147.018 305.701H146.207L145.72 306.118C145.539 306.254 145.32 306.327 145.094 306.327C144.868 306.327 144.649 306.254 144.468 306.118H140.945H139.647V306.304C139.038 306.517 138.376 306.534 137.756 306.351C137.137 306.168 136.59 305.795 136.194 305.284L135.823 304.936C135.748 305.011 135.662 305.074 135.568 305.122C135.291 305.181 135.004 305.169 134.733 305.088C134.461 305.007 134.215 304.859 134.015 304.658C134.002 304.719 134.002 304.783 134.015 304.844C133.702 305.474 133.188 305.982 132.555 306.288C131.921 306.594 131.204 306.681 130.516 306.536L130.353 306.791C130.113 306.872 129.852 306.872 129.612 306.791C129.514 306.997 129.373 307.18 129.198 307.326C129.023 307.473 128.818 307.58 128.597 307.639C128.377 307.699 128.146 307.71 127.921 307.671C127.696 307.633 127.482 307.546 127.294 307.416V307.555C127.114 307.659 126.91 307.714 126.703 307.714C126.495 307.714 126.292 307.659 126.112 307.555L125.996 307.44C125.648 308.691 126.761 310.035 125.996 311.264L126.135 311.403C126.223 311.546 126.27 311.71 126.27 311.878C126.27 312.046 126.223 312.21 126.135 312.353C126.765 312.574 127.452 312.574 128.082 312.353C128.636 312.2 129.202 312.092 129.774 312.029C131.281 311.576 132.882 311.536 134.409 311.913H135.012H135.638C136.286 311.934 136.911 312.162 137.422 312.562C137.837 312.903 138.357 313.089 138.894 313.089C139.431 313.089 139.951 312.903 140.366 312.562L140.968 312.446H141.502C142.058 312.27 142.588 312.021 143.078 311.704C143.226 311.528 143.438 311.417 143.668 311.395C143.898 311.374 144.127 311.443 144.306 311.588H144.77C144.607 311.426 144.352 311.171 144.607 311.171C145.187 310.429 146.068 310.731 146.925 310.731C147.441 310.869 147.969 310.962 148.501 311.009C149.571 311.16 150.617 311.456 151.607 311.89C153.392 312.631 154.921 311.264 156.636 311.264C156.84 311.298 157.037 311.369 157.216 311.472L157.425 311.658L158.838 311.496C159.152 311.201 159.567 311.036 159.997 311.036C160.428 311.036 160.842 311.201 161.156 311.496L162.222 311.635L162.431 311.449C162.696 311.292 163.008 311.235 163.311 311.287C164.772 311.403 166.07 312.492 167.646 312.005C167.946 311.983 168.249 311.983 168.55 312.005C168.948 311.936 169.356 311.936 169.755 312.005C170.509 311.79 171.288 311.673 172.073 311.658C172.176 311.586 172.27 311.5 172.351 311.403C172.42 311.218 172.551 311.062 172.722 310.963C173.116 310.789 173.542 310.694 173.973 310.684C175.467 310.658 176.954 310.877 178.377 311.333C178.701 311.464 178.971 311.701 179.142 312.005V312.145C179.675 311.727 180.069 312.006 180.416 312.492C180.509 312.353 180.694 312.353 180.694 312.492C181.045 312.938 181.53 313.258 182.077 313.404C182.625 313.55 183.205 313.515 183.731 313.303V313.118C183.812 312.988 183.931 312.885 184.071 312.823C184.212 312.761 184.368 312.742 184.519 312.77L185.608 312.539L185.747 312.307C186.466 311.797 187.323 312.539 188.065 312.029C196.084 312.006 202.922 322.041 197.197 331.011C196.409 332.1 195.621 333.143 194.879 334.209C194.659 334.347 194.471 334.53 194.328 334.746C194.184 334.961 194.087 335.205 194.045 335.461L193.604 335.971C192.895 339.071 192.738 342.272 193.141 345.427C193.492 347.27 194.201 349.026 195.227 350.596C196.223 352.01 195.876 353.006 194.23 353.563C191.704 354.397 189.386 355.208 187.068 356.112C185.446 356.715 184.542 356.205 183.8 354.675C180.777 349.211 179.183 343.073 179.165 336.828C179.234 335.322 178.678 335.044 177.311 335.044C174.488 335.284 171.651 334.78 169.083 333.584C168.702 333.412 168.28 333.355 167.868 333.421C167.456 333.487 167.072 333.673 166.765 333.954C165.138 335.198 163.162 335.898 161.116 335.957C159.069 336.015 157.056 335.428 155.362 334.279C155.088 334.053 154.743 333.929 154.388 333.929C154.033 333.929 153.689 334.053 153.415 334.279C151.443 335.577 149.17 336.344 146.815 336.506C144.46 336.669 142.103 336.221 139.972 335.206C139.424 334.965 138.832 334.84 138.234 334.84C137.635 334.84 137.043 334.965 136.495 335.206C134.589 335.902 132.562 336.207 130.535 336.103C128.509 336 126.524 335.49 124.698 334.603C124.27 334.355 123.773 334.25 123.281 334.304C122.789 334.359 122.327 334.569 121.963 334.905C120.498 336.228 118.644 337.041 116.679 337.222L115.798 337.663L115.311 337.501L114.5 337.686C110.898 337.287 107.547 335.648 105.02 333.051C103.399 331.539 102.285 329.561 101.833 327.391C101.38 325.22 101.611 322.963 102.494 320.929C102.751 320.479 102.831 319.951 102.72 319.445C102.609 318.94 102.313 318.494 101.892 318.194C98.3454 314.833 98.0904 311.032 100.964 306.281C101.295 305.839 101.492 305.312 101.533 304.762C101.574 304.211 101.457 303.661 101.196 303.175C100.32 301.14 100.072 298.89 100.485 296.713C100.898 294.536 101.953 292.533 103.514 290.96C104.918 289.288 106.766 288.045 108.845 287.377C110.924 286.708 113.149 286.641 115.265 287.183C115.913 287.439 116.63 287.466 117.296 287.26C117.962 287.053 118.537 286.625 118.927 286.047C119.511 285.216 120.262 284.517 121.132 283.994C122.002 283.471 122.972 283.136 123.979 283.011L124.837 282.547L126.529 282.663L127.039 282.547C128.105 282.66 129.142 282.966 130.098 283.451C130.756 283.524 131.368 283.818 131.837 284.285C132.717 284.355 133.366 285.653 134.433 284.842V284.726L135.753 284.285L136.634 283.497C136.773 283.08 137.028 282.848 137.492 282.964C137.652 283.007 137.821 283.002 137.978 282.948C138.135 282.894 138.272 282.795 138.373 282.663C138.652 282.397 138.993 282.204 139.365 282.103C139.738 282.002 140.129 281.995 140.505 282.084H140.992C141.924 281.646 142.977 281.532 143.982 281.759L145.372 281.991C145.842 281.912 146.325 281.954 146.775 282.112C147.224 282.27 147.627 282.539 147.945 282.895L149.173 283.497C149.66 283.335 150.124 283.103 150.61 283.335C150.638 283.247 150.69 283.168 150.759 283.107C150.828 283.045 150.913 283.004 151.004 282.987L152.256 282.501C152.723 282.012 153.365 281.728 154.04 281.713H155.246C156.117 281.401 157.045 281.276 157.967 281.348C158.89 281.42 159.787 281.687 160.6 282.13L161.782 282.246L163.566 283.103L164.076 282.709C164.207 282.53 164.373 282.38 164.564 282.268C164.756 282.156 164.969 282.086 165.189 282.06C166.219 281.664 167.293 281.392 168.387 281.249C168.72 281.272 169.048 281.342 169.361 281.458C169.626 281.55 169.882 281.667 170.126 281.805H173.533L174.46 282.13L176.198 282.478H176.615C176.852 282.371 177.119 282.348 177.371 282.411C177.623 282.474 177.847 282.62 178.006 282.825C179.439 282.069 181.023 281.642 182.642 281.574C182.63 281.489 182.63 281.403 182.642 281.319C182.865 281.094 183.157 280.949 183.471 280.907C183.786 280.865 184.105 280.928 184.38 281.087C185.571 281.094 186.759 281.219 187.926 281.458L188.32 281.272H188.482C188.435 281.126 188.432 280.969 188.473 280.82C188.514 280.672 188.598 280.539 188.714 280.438C188.413 280.113 188.459 279.465 187.81 279.465C186.091 279.242 184.431 278.691 182.92 277.842C181.877 277.332 181.228 277.68 180.046 278.259C178.87 278.835 177.741 279.824 176.247 279.22C176.25 279.284 176.241 279.349 176.218 279.41C176.18 279.511 176.107 279.596 176.013 279.65C175.777 279.786 175.509 279.858 175.236 279.858C174.964 279.858 174.696 279.786 174.46 279.65V279.418C173.88 279.464 173.278 279.627 172.768 279.14C172.64 279.243 172.489 279.314 172.327 279.347C172.166 279.379 171.999 279.372 171.841 279.325C171.688 279.249 171.571 279.116 171.516 278.955C171.406 279.057 171.269 279.125 171.12 279.15C170.972 279.175 170.819 279.155 170.682 279.094C169.412 278.478 168.034 278.116 166.626 278.027V278.352C166.255 278.746 165.861 278.885 165.467 278.63C165.487 278.67 165.498 278.713 165.498 278.758C165.498 278.802 165.487 278.846 165.467 278.885L164.169 279.302H163.729L163.056 279.441C162.988 279.619 162.879 279.779 162.738 279.908C162.598 280.037 162.429 280.131 162.245 280.183C161.704 280.363 161.13 280.425 160.562 280.365C159.995 280.305 159.446 280.124 158.954 279.835C154.968 278.885 151.097 277.865 146.832 279.21C143.628 279.855 140.297 279.214 137.561 277.425C137.183 277.176 136.74 277.043 136.287 277.043C135.834 277.043 135.39 277.176 135.012 277.425C132.457 278.656 129.596 279.104 126.787 278.712C123.978 278.321 121.348 277.107 119.228 275.223C117.469 273.378 116.352 271.015 116.043 268.485C115.734 265.954 116.249 263.392 117.513 261.178C117.907 260.366 118.347 259.602 118.765 258.86H119.112C119.124 258.721 119.124 258.581 119.112 258.443C123.887 255.685 123.864 251.049 123.261 246.414C123.052 244.698 122.566 243.007 122.218 241.315C121.963 240.248 122.056 239.298 123.377 238.997C126.042 238.348 128.731 237.792 131.373 237.096C131.855 236.946 132.375 236.972 132.838 237.172C133.302 237.372 133.678 237.732 133.899 238.186C136.198 241.82 137.202 246.124 136.75 250.4C136.722 252.72 136.355 255.024 135.661 257.237C135.499 257.701 135.105 258.443 135.661 258.79C136.217 259.138 136.773 258.837 137.26 258.466C138.563 257.432 139.997 256.575 141.525 255.916C143.113 255.195 144.851 254.865 146.593 254.954C148.335 255.043 150.031 255.547 151.537 256.426C151.873 256.675 152.279 256.809 152.696 256.809C153.114 256.809 153.52 256.675 153.855 256.426C155.423 255.367 157.232 254.72 159.116 254.545C161 254.371 162.898 254.675 164.633 255.43C165.8 255.933 167.111 255.991 168.318 255.592C172 254.384 175.987 254.482 179.605 255.87C179.926 256.013 180.274 256.087 180.625 256.087C180.977 256.087 181.324 256.013 181.645 255.87C183.53 255.022 185.567 254.562 187.633 254.518C189.7 254.474 191.755 254.847 193.674 255.615C194.879 256.125 195.783 255.36 196.826 255.36C197.127 255.221 197.405 255.059 197.684 254.897H198.588L199.445 254.479C201.391 254.279 203.357 254.514 205.201 255.167C207.045 255.821 208.721 256.876 210.107 258.257C211.464 259.571 212.459 261.213 212.995 263.024C213.531 264.835 213.59 266.754 213.166 268.594C213.015 269.668 212.759 270.723 212.401 271.746C212.194 272.236 212.118 272.771 212.179 273.299Z" fill="#CA2626"/>
<path d="M207.881 273.717C206.261 272.748 204.465 272.11 202.596 271.839C201.669 271.7 200.742 271.376 200.858 270.286C200.974 269.197 202.086 269.104 203.037 269.22C204.906 269.484 206.716 270.064 208.391 270.935C209.04 271.26 209.526 271.654 209.99 270.495C210.655 268.979 210.914 267.317 210.742 265.67C210.571 264.024 209.974 262.451 209.012 261.104C208.049 259.758 206.752 258.685 205.25 257.991C203.747 257.297 202.09 257.005 200.441 257.145C197.544 257.376 197.474 257.469 198.703 259.88C199.097 260.621 199.166 261.27 198.494 261.827C197.822 262.383 197.034 261.989 196.478 261.317L194.693 259.161H194.299L193.882 258.837C193.882 258.698 193.882 258.582 193.882 258.466C192.323 257.67 190.61 257.223 188.861 257.155C187.112 257.087 185.369 257.4 183.753 258.072C184.588 258.999 185.399 259.81 186.071 260.714C186.179 260.839 186.258 260.987 186.303 261.146C186.348 261.306 186.357 261.473 186.331 261.636C186.304 261.8 186.243 261.955 186.15 262.092C186.057 262.229 185.935 262.344 185.793 262.429C185.581 262.633 185.299 262.747 185.005 262.747C184.711 262.747 184.428 262.633 184.217 262.429C183.784 262.043 183.374 261.633 182.988 261.201C181.458 259.645 179.559 258.502 177.468 257.878C175.377 257.254 173.162 257.169 171.029 257.631C170.496 257.631 169.754 257.631 169.615 258.396C169.105 260.714 167.946 260.019 166.579 259.231C165.306 258.33 163.853 257.719 162.32 257.439C160.786 257.158 159.21 257.216 157.702 257.608C156.101 258.189 154.635 259.088 153.392 260.251C152.149 261.414 151.156 262.818 150.471 264.376C150.007 265.234 149.451 265.906 148.431 265.396C147.411 264.886 147.666 263.936 148.106 263.078C148.894 261.711 149.775 260.389 150.61 259.045C147.202 256.727 143.216 257.029 139.322 260.297C138.661 261.022 137.76 261.485 136.785 261.6C135.81 261.715 134.826 261.474 134.014 260.923C132.137 259.694 132.67 257.863 133.157 256.032C134.513 251.583 134.513 246.83 133.157 242.381C132.23 239.53 132.184 239.553 129.379 240.225C125.207 241.268 125.369 241.245 125.902 245.533C126.621 251.026 126.806 256.496 121.267 260.111C121.207 260.171 121.163 260.245 121.139 260.326C121.115 260.406 121.111 260.492 121.128 260.575L120.919 260.853C120.872 260.843 120.823 260.843 120.776 260.853C120.728 260.863 120.683 260.883 120.644 260.911C120.605 260.94 120.572 260.976 120.547 261.018C120.523 261.06 120.508 261.106 120.502 261.154C120.108 261.989 119.645 262.823 119.32 263.704C118.821 264.758 118.551 265.907 118.528 267.074C118.505 268.24 118.73 269.398 119.188 270.472C119.646 271.545 120.326 272.509 121.184 273.3C122.042 274.091 123.057 274.691 124.164 275.061C126.112 276.15 128.371 276.55 130.575 276.197C132.779 275.844 134.799 274.757 136.309 273.114C136.773 272.65 137.236 272.14 137.978 272.465C138.137 272.512 138.284 272.591 138.411 272.697C138.539 272.802 138.644 272.933 138.72 273.08C138.795 273.227 138.841 273.388 138.852 273.553C138.864 273.719 138.843 273.884 138.789 274.041C138.418 275.293 139.484 275.339 140.11 275.617C142.515 276.774 145.239 277.089 147.844 276.514C150.45 275.938 152.787 274.504 154.48 272.442C154.967 271.886 155.384 271.306 155.871 270.773C155.965 270.617 156.09 270.483 156.239 270.379C156.388 270.275 156.557 270.203 156.735 270.168C156.914 270.133 157.098 270.137 157.275 270.178C157.452 270.218 157.618 270.296 157.764 270.405C157.909 270.515 158.029 270.653 158.118 270.812C158.206 270.971 158.26 271.147 158.276 271.328C158.292 271.509 158.27 271.691 158.211 271.863C158.152 272.035 158.057 272.193 157.934 272.326C157.234 273.275 156.459 274.166 155.616 274.991C154.828 275.802 155.06 276.15 155.987 276.475C158.073 277.102 160.269 277.284 162.43 277.008C162.49 276.906 162.537 276.797 162.569 276.683H163.728C163.86 276.582 163.97 276.456 164.052 276.312L165.489 275.826C166.092 275.293 166.324 274.759 165.489 274.273V274.087C165.489 273.786 165.281 273.601 164.98 273.647C165.158 273.463 165.293 273.241 165.373 272.998C166.208 271.631 166.834 272.743 167.367 273.253C168.63 274.729 170.216 275.895 172.002 276.66C172.419 276.769 172.847 276.831 173.277 276.845H175.595C175.925 276.819 176.251 276.756 176.568 276.66C177.728 276.381 178.812 275.851 179.744 275.107C180.161 274.203 179.535 273.624 179.071 273.021C178.269 272.103 177.606 271.072 177.101 269.962C176.893 269.452 176.615 268.803 177.356 268.502C178.098 268.2 178.237 268.78 178.515 269.197C178.793 269.614 179.257 271.028 180.392 271.26C180.392 271.654 180.393 271.932 180.856 271.955C180.841 272.17 180.87 272.386 180.942 272.589C181.014 272.793 181.126 272.979 181.273 273.137C182.782 274.696 184.68 275.823 186.77 276.401C188.861 276.98 191.068 276.989 193.163 276.428C193.743 276.289 194.577 275.965 194.762 276.869C194.948 277.773 194.137 277.749 193.58 277.865C192.898 277.958 192.267 278.275 191.784 278.766C191.302 279.256 190.996 279.894 190.915 280.577C190.84 281.106 190.921 281.646 191.147 282.13C191.192 282.22 191.257 282.298 191.338 282.358C191.418 282.419 191.511 282.459 191.61 282.478H191.796C191.761 282.599 191.761 282.727 191.796 282.848L192.445 283.127C192.432 283.203 192.432 283.282 192.445 283.358C192.526 283.752 192.719 284.114 193.001 284.401C195.319 286.719 195.597 287.229 194.021 288.689C194.05 288.302 193.943 287.917 193.719 287.6C193.279 287.159 193.024 286.348 192.19 286.742L191.703 286.255C190.738 285.109 189.385 284.358 187.902 284.146C187.461 284.03 186.928 284.146 186.581 283.66C186.314 283.444 186.005 283.285 185.674 283.193C185.343 283.101 184.997 283.079 184.657 283.127C184.205 283.128 183.756 283.215 183.336 283.381C183.231 283.422 183.141 283.491 183.075 283.582C183.009 283.672 182.971 283.78 182.965 283.891V284.03C181.806 283.451 180.833 283.451 180.439 284.981C181.482 285.838 182.756 286.557 183.011 287.994L182.826 288.156C180.972 289.454 180.346 287.507 179.233 286.812C178.956 286.616 178.622 286.518 178.283 286.534C178.283 286.047 177.889 285.838 177.542 285.56C177.298 285.39 177.004 285.308 176.707 285.328V285.328L176.568 285.097C176.396 284.908 176.184 284.76 175.947 284.664C175.711 284.568 175.456 284.525 175.201 284.54C174.946 283.914 174.204 284.03 173.648 283.845C173.446 283.835 173.248 283.901 173.092 284.03H172.929L172.605 283.799C172.387 283.706 172.15 283.67 171.915 283.694C171.68 283.718 171.454 283.802 171.261 283.938C171.261 283.938 171.261 283.938 171.261 284.077H170.079C170.079 284.077 170.079 284.077 170.079 283.938C169.915 283.863 169.737 283.824 169.557 283.824C169.377 283.824 169.199 283.863 169.036 283.938L168.85 284.17C167.853 284.17 166.672 284.054 166.695 285.606C166.185 285.792 165.93 286.255 165.582 286.603L164.771 286.279L164.052 286.093V285.792L162.731 285.375L162.291 284.888L160.993 284.563C160.144 284.08 159.198 283.792 158.224 283.72C157.25 283.648 156.272 283.794 155.361 284.146L153.692 284.54L152.696 285.305L151.073 286.325V286.673L149.775 287.646L148.083 290.149C147.666 290.427 147.295 290.682 147.481 291.146C147.2 291.321 146.886 291.435 146.558 291.479C146.23 291.523 145.897 291.496 145.58 291.401C145.548 290.941 145.405 290.495 145.163 290.103H145.325L145.464 289.384H145.835C146.785 288.365 147.967 287.507 148.153 285.931C147.453 285.2 146.517 284.74 145.511 284.633V284.633C145.397 284.601 145.277 284.601 145.163 284.633V284.633L144.213 284.239H142.961L142.034 284.656C141.732 284.602 141.421 284.616 141.125 284.696C140.828 284.776 140.553 284.921 140.319 285.12C139.819 285.147 139.336 285.316 138.928 285.606H138.511C138.302 285.668 138.111 285.779 137.955 285.931C137.862 286.082 137.791 286.246 137.746 286.418L136.889 286.835C136.889 286.974 136.889 287.09 136.889 287.206C136.831 287.807 136.831 288.412 136.889 289.014C136.798 289.148 136.672 289.256 136.525 289.325C136.379 289.394 136.216 289.423 136.054 289.408C135.888 289.286 135.699 289.199 135.498 289.153H135.173C135.175 288.966 135.135 288.781 135.054 288.612C134.974 288.444 134.856 288.295 134.71 288.179C134.539 288.027 134.333 287.919 134.112 287.862C133.89 287.806 133.658 287.803 133.435 287.855C133.502 287.691 133.502 287.508 133.435 287.345C133.297 287.188 133.126 287.064 132.933 286.984C132.74 286.904 132.531 286.868 132.323 286.881V286.881L131.72 286.348C131.487 285.902 131.101 285.554 130.634 285.367C130.166 285.179 129.647 285.166 129.17 285.328H128.776H128.637L128.776 285.166C128.545 284.494 127.965 284.494 127.409 284.424C127.173 284.411 126.938 284.452 126.721 284.544C126.504 284.637 126.311 284.778 126.157 284.958L125.253 285.375L123.932 285.676L123.492 286.14C120.525 287.994 120.502 288.179 123.075 290.381L124.79 291.934C124.787 292.071 124.837 292.204 124.929 292.305V292.305C124.929 292.745 124.929 293.185 124.929 293.603L124.512 294.066L122.82 293.858C122.284 292.959 121.47 292.26 120.502 291.864V291.864C118.999 290.499 117.115 289.626 115.102 289.361C112.652 288.957 110.14 289.505 108.08 290.893C106.021 292.28 104.569 294.402 104.023 296.824C102.98 301.46 105.228 304.705 110.814 306.35C111.347 306.512 111.927 306.605 112.483 306.721C112.882 306.753 113.268 306.882 113.607 307.096C113.946 307.31 114.229 307.603 114.43 307.949V308.413L113.479 309.549C110.876 309.397 108.351 308.6 106.132 307.231C104.973 306.512 104.44 306.675 103.814 307.81C101.497 311.843 102.331 315.088 106.828 317.753C108.867 318.982 111.138 319.816 113.224 320.929C113.843 321.21 114.382 321.64 114.793 322.18C115.204 322.721 115.475 323.355 115.58 324.026C115.686 324.696 115.624 325.383 115.398 326.024C115.173 326.664 114.793 327.239 114.291 327.697C113.781 328.183 113.248 328.531 112.552 328.067C111.857 327.604 111.579 327.024 112.042 326.399C113.711 324.081 112.251 323.246 110.35 322.505C109.401 322.166 108.486 321.739 107.616 321.23C106.294 320.396 105.877 320.975 105.553 322.18C105.058 323.667 104.984 325.262 105.34 326.788C105.696 328.314 106.467 329.711 107.569 330.825C108.817 332.294 110.429 333.408 112.244 334.055C114.058 334.702 116.011 334.859 117.906 334.511L120.896 333.074C122.564 331.577 124.05 329.889 125.323 328.044H126.157C127.038 328.693 127.432 329.528 126.667 330.362C125.555 331.753 126.436 332.1 127.594 332.517C130.143 333.533 132.963 333.651 135.587 332.85C138.212 332.05 140.486 330.379 142.034 328.114C142.66 327.326 143.286 326.213 144.352 327.163C145.418 328.114 144.699 328.971 144.027 329.783C143.355 330.594 142.544 331.613 141.709 332.633C143.193 333.312 144.801 333.676 146.432 333.704C148.064 333.732 149.683 333.423 151.189 332.796C152.417 332.262 153.507 331.753 152.093 330.246C151.49 329.597 151.745 328.879 152.417 328.369C152.688 328.179 153.023 328.105 153.349 328.161C153.674 328.217 153.964 328.4 154.156 328.67C154.921 329.458 155.57 330.339 156.473 330.988C157.584 332.1 159.03 332.817 160.588 333.026C162.147 333.236 163.73 332.927 165.095 332.147C166.138 331.614 166.81 331.22 165.605 330.061C164.583 329.015 163.835 327.733 163.427 326.329C163.102 325.379 162.847 324.405 164.099 324.011C165.35 323.617 165.582 324.475 165.883 325.379C166.472 327.023 167.481 328.483 168.812 329.614C170.142 330.744 171.745 331.506 173.462 331.822C175.878 332.323 178.359 332.433 180.81 332.147C182.455 332.031 182.988 332.587 182.803 334.279C182.373 339.27 183.169 344.29 185.121 348.904C186.882 353.539 186.859 353.377 191.425 351.871C192.978 351.337 193.117 350.851 192.491 349.321C191.444 346.815 190.923 344.121 190.963 341.405C191.003 338.689 191.602 336.011 192.723 333.537L193.163 332.68L193.557 332.216C195.126 330.728 196.284 328.86 196.918 326.793C197.507 325.072 197.577 323.217 197.12 321.457C196.662 319.698 195.697 318.112 194.345 316.896C193.242 315.791 191.832 315.044 190.299 314.75C188.766 314.457 187.18 314.631 185.746 315.25C185.144 315.25 185.074 315.552 185.028 315.969C184.981 316.386 185.862 318.287 183.753 317.591C183.491 317.409 183.189 317.29 182.872 317.244C182.935 317.021 182.933 316.786 182.867 316.564C182.802 316.343 182.675 316.145 182.502 315.992C181.78 315.395 181.004 314.867 180.184 314.416C179.743 314.254 179.28 314.022 178.816 314.416C178.787 314.206 178.679 314.016 178.515 313.883C176.432 312.994 174.091 312.92 171.956 313.674C170.125 314.161 169.986 314.671 171.052 316.224C171.469 316.85 172.512 317.591 171.84 318.217C171.168 318.843 170.403 317.73 169.754 317.267C168.227 315.825 166.383 314.764 164.369 314.168C162.356 313.572 160.231 313.458 158.165 313.837C157.763 313.821 157.363 313.903 156.999 314.077C156.636 314.251 156.32 314.51 156.079 314.833C155.291 316.316 154.411 315.899 153.229 315.297C149.381 313.303 145.441 312.608 141.64 315.297C139.782 316.583 138.282 318.322 137.283 320.349C136.518 321.81 135.683 321.833 134.756 320.488C135.382 320.488 135.405 320.164 135.196 319.724H135.452C136.402 319.237 136.796 318.24 137.422 317.406C138.302 316.27 138.047 315.389 136.796 314.81C135.255 313.992 133.481 313.722 131.766 314.045C129.074 314.636 126.602 315.969 124.628 317.893C124.187 318.287 123.793 319.167 123.075 318.611C122.356 318.055 123.075 317.545 123.26 317.035C124.023 315.479 124.539 313.813 124.79 312.098C124.844 311.783 124.819 311.46 124.718 311.157C124.617 310.853 124.442 310.58 124.211 310.36H123.909C124.005 310.253 124.079 310.129 124.127 309.994C124.175 309.858 124.195 309.715 124.187 309.572C123.979 308.737 123.932 307.857 122.959 307.486L121.592 306.142C121.547 305.896 121.477 305.655 121.383 305.423C121.105 305.029 120.85 304.635 120.363 304.867C119.9 304.102 119.529 304.38 119.158 304.867C117.466 303.499 117.512 303.383 119.598 302.433C120.479 302.039 121.568 301.854 121.8 300.649C121.922 300.671 122.049 300.649 122.156 300.584C122.262 300.52 122.342 300.42 122.379 300.301C122.509 300.335 122.645 300.335 122.774 300.301C123.066 299.992 123.432 299.762 123.837 299.633C124.242 299.503 124.674 299.478 125.091 299.559C125.073 299.591 125.063 299.627 125.063 299.664C125.063 299.7 125.073 299.736 125.091 299.768C125.16 300.292 125.069 300.826 124.829 301.297C124.589 301.769 124.212 302.157 123.747 302.41C123.005 302.897 122.82 303.407 123.376 304.125C123.43 304.406 123.557 304.667 123.744 304.883C123.931 305.098 124.172 305.261 124.442 305.354C125.196 305.595 126.006 305.595 126.76 305.354C126.969 305.191 127.177 305.075 127.386 304.936H128.568L130.074 304.334H130.631H131.233C132.667 303.841 133.929 302.948 134.872 301.761C135.083 301.531 135.213 301.238 135.243 300.927C135.426 300.834 135.584 300.7 135.705 300.535C135.825 300.37 135.906 300.178 135.938 299.976V299.976C136.022 299.999 136.11 299.999 136.193 299.976C137.259 298.818 137.885 299.721 138.511 300.347C138.094 300.347 137.908 300.579 137.816 300.927C137.79 301.191 137.865 301.456 138.024 301.668V301.668C137.873 301.752 137.755 301.885 137.692 302.046C137.628 302.207 137.623 302.385 137.677 302.549C137.653 302.687 137.653 302.828 137.677 302.966C138.858 303.892 140.302 304.42 141.802 304.473C142.915 304.473 144.12 304.751 145.047 303.824L145.163 304.056C145.473 304.191 145.821 304.214 146.147 304.121C146.472 304.028 146.755 303.824 146.948 303.546V303.546C148.987 303.546 150.239 302.155 151.583 301.089C151.908 300.672 152.348 300.324 152.301 299.745H152.51C152.881 299.574 153.208 299.32 153.465 299.002C153.722 298.685 153.903 298.312 153.994 297.914C154.224 298.001 154.472 298.028 154.716 297.991C154.959 297.955 155.19 297.856 155.384 297.705C155.418 297.759 155.461 297.805 155.513 297.84C155.565 297.876 155.624 297.901 155.685 297.914C155.813 298.303 155.843 298.717 155.774 299.121C155.706 299.525 155.54 299.906 155.291 300.231L154.805 300.394C154.353 300.652 153.965 301.008 153.669 301.437C153.252 302.178 152 302.711 153.09 303.754C153.355 303.946 153.665 304.065 153.989 304.102C154.314 304.138 154.643 304.091 154.944 303.963V303.963C155.043 304.216 155.233 304.422 155.477 304.542C155.891 304.7 156.331 304.778 156.775 304.774C157.621 304.84 158.473 304.778 159.301 304.589C159.973 304.264 160.599 303.778 161.41 304.009C161.803 303.988 162.188 303.894 162.546 303.731C163.195 303.384 163.913 303.129 164.191 302.364C164.191 301.993 164.192 301.622 163.774 301.622C163.649 300.91 163.455 300.211 163.195 299.536H163.334C163.738 299.335 164.106 299.069 164.423 298.748C164.423 299.165 164.725 299.212 165.095 299.096C164.887 299.93 165.397 300.463 165.953 300.996C166.277 301.246 166.68 301.369 167.089 301.344C167.477 301.913 168.05 302.331 168.711 302.526V302.526L169.708 303.291C171.071 303.754 172.528 303.873 173.949 303.638C174.516 303.689 175.086 303.609 175.617 303.404C176.147 303.199 176.623 302.875 177.009 302.456C177.009 302.456 177.009 302.341 177.009 302.294C177.333 302.178 177.542 301.993 177.472 301.599C177.459 301.468 177.459 301.336 177.472 301.205C176.826 300.815 176.34 300.207 176.105 299.49H175.873C175.937 299.146 175.922 298.792 175.829 298.455C175.737 298.118 175.57 297.806 175.34 297.543C175.036 297.183 174.869 296.727 174.869 296.256C174.869 295.786 175.036 295.33 175.34 294.97V294.97C176.615 296.222 177.032 298.122 178.562 299.188L179.025 299.327C179.025 300.115 179.628 300.579 180.184 301.066C180.979 301.728 181.832 302.318 182.733 302.827C183.37 303.174 184.107 303.289 184.819 303.152L184.982 303.291C185.125 303.436 185.314 303.527 185.517 303.548C185.72 303.569 185.924 303.519 186.094 303.407L186.488 303.268C187.779 303.453 189.091 303.453 190.382 303.268C190.591 302.294 190.938 301.483 192.167 301.576H192.491C192.527 301.695 192.574 301.812 192.63 301.923C194.398 302.737 196.237 303.389 198.123 303.87C199.301 304.197 200.539 304.239 201.736 303.99C202.932 303.742 204.052 303.211 205.002 302.443C205.952 301.674 206.705 300.689 207.198 299.571C207.69 298.453 207.909 297.233 207.835 296.013C207.825 293.479 207.362 290.967 206.467 288.596C206.235 287.901 205.911 287.206 206.467 286.603C206.584 286.462 206.732 286.348 206.898 286.271C207.064 286.193 207.245 286.152 207.429 286.152C207.612 286.152 207.794 286.193 207.96 286.271C208.126 286.348 208.273 286.462 208.391 286.603C208.878 287.183 209.132 287.02 209.573 286.603C210.422 285.696 211.059 284.611 211.439 283.428C211.819 282.245 211.932 280.992 211.771 279.76C211.609 278.528 211.176 277.347 210.503 276.302C209.831 275.257 208.935 274.374 207.881 273.717V273.717ZM124.697 298.887C124.697 298.887 124.744 298.864 124.697 298.887V298.887Z" fill="#DE7878"/>
<path d="M87.7127 159.155C89.3735 157.831 91.2855 156.857 93.3332 156.294C95.7479 155.624 98.1219 154.752 100.597 154.265H100.963C102.25 154.198 103.537 154.377 104.757 154.792C108.529 156.076 111.665 158.755 113.523 162.279C114.92 164.793 115.836 167.546 116.222 170.396C116.51 172.078 116.645 173.783 116.627 175.489C116.593 178.742 115.808 181.943 114.335 184.843C113.609 186.523 112.592 188.062 111.331 189.388C111.046 189.703 110.682 189.934 110.276 190.058C109.053 190.36 107.858 190.767 106.705 191.275C106.336 191.439 105.947 191.555 105.548 191.62C104.562 191.764 103.637 192.185 102.883 192.836C102.128 193.486 101.574 194.339 101.287 195.293C100.493 197.175 99.1495 198.773 97.4321 199.879C96.1021 200.675 94.5787 201.089 93.0289 201.076C92.339 201.076 91.6491 201.076 90.9998 201.076C90.6255 201.107 90.249 201.054 89.8978 200.921C89.5467 200.787 89.2299 200.577 88.9707 200.305C87.2388 198.662 85.9598 196.6 85.2574 194.319C84.5675 192.412 83.7154 190.545 82.8834 188.719C82.3761 187.643 81.5239 186.69 80.9557 185.716C79.8787 183.732 79.2484 181.536 79.1092 179.283C78.9376 174.466 79.9699 169.682 82.1124 165.364C83.3516 162.977 85.1557 160.929 87.3677 159.398C87.53 159.378 87.6721 159.297 87.7127 159.155Z" fill="#D44C4C"/>
<path d="M87.7115 159.155C87.4115 159.646 87.0103 160.068 86.5346 160.392C83.8782 162.528 81.9614 165.446 81.056 168.732C80.3357 170.781 79.8125 172.894 79.4936 175.043C79.0037 178.201 79.3753 181.432 80.5691 184.397C81.2026 185.704 81.9494 186.953 82.801 188.13C83.4269 189.136 83.9309 190.212 84.3025 191.336C85.1142 193.264 85.8041 195.252 86.7172 197.14C87.477 198.585 88.5688 199.83 89.9029 200.772C90.002 200.848 90.1229 200.89 90.2479 200.893C92.5904 201.185 94.9679 200.834 97.1265 199.879C98.3201 199.16 99.3499 198.199 100.15 197.058C100.577 196.371 100.937 195.644 101.225 194.887C101.838 193.669 102.753 192.628 103.883 191.864C104.103 191.705 104.364 191.614 104.634 191.6C105.954 191.407 107.231 190.988 108.408 190.362L108.611 190.261C109.582 190.161 110.506 189.795 111.283 189.205C112.059 188.614 112.658 187.821 113.014 186.913C114.039 185.278 114.85 183.518 115.429 181.678C116.306 178.684 116.582 175.546 116.241 172.445C116.04 170.381 115.632 168.341 115.023 166.358C114.373 164 113.223 161.81 111.651 159.937C110.079 158.064 108.122 156.551 105.913 155.502C104.526 154.845 103.022 154.472 101.489 154.407C101.391 154.426 101.29 154.426 101.192 154.405C101.095 154.384 101.002 154.343 100.921 154.285C104.023 153.714 107.226 154.163 110.052 155.563C110.052 155.563 110.194 155.563 110.275 155.563C110.903 155.706 111.475 156.03 111.919 156.497C112.938 157.236 113.788 158.184 114.414 159.276C114.414 159.276 114.414 159.114 114.414 159.276C114.154 158.888 114.026 158.425 114.049 157.958C113.998 156.97 114.121 155.98 114.414 155.036C114.414 154.873 114.556 154.711 114.759 154.691C114.815 154.706 114.866 154.733 114.91 154.77C114.954 154.807 114.989 154.854 115.012 154.906C115.035 154.959 115.047 155.016 115.045 155.074C115.043 155.131 115.029 155.187 115.003 155.239C114.739 156.93 114.78 158.655 115.125 160.332C115.353 163.126 116.213 165.832 117.641 168.245C118.006 168.833 118.29 169.483 118.676 170.031C119.284 171.1 120.143 172.005 121.179 172.67C122.214 173.334 123.395 173.738 124.621 173.845C125.331 173.808 126.024 173.614 126.65 173.277C130.788 171.568 134.445 168.872 137.303 165.425C139.31 162.837 140.892 159.947 141.99 156.862C142.858 154.339 143.536 151.755 144.019 149.131C144.324 147.731 144.628 146.331 144.81 144.91C144.915 144.286 144.887 143.647 144.726 143.035C144.565 142.422 144.276 141.851 143.877 141.359C143.709 141.096 143.486 140.873 143.223 140.705C142.961 140.537 142.664 140.428 142.355 140.386C142.173 140.386 141.929 140.386 141.949 140.061C143.425 139.908 144.909 140.252 146.166 141.039C147.423 141.826 148.381 143.01 148.889 144.403C150.115 147.359 150.562 150.579 150.188 153.757C150.14 154.6 150.011 155.436 149.802 156.253C148.654 159.516 147.107 162.623 145.196 165.506C144.593 166.53 144.298 167.707 144.344 168.894C142.182 172.311 139.434 175.32 136.227 177.782C134.369 179.241 132.193 180.242 129.876 180.704C128.536 180.963 127.158 180.963 125.818 180.704C125.514 180.927 125.209 180.704 124.905 180.704C123.553 180.291 122.302 179.6 121.232 178.675C121.232 179.994 121.232 181.191 121.232 182.388C121.232 182.733 121.232 183.098 121.009 183.362C120.68 187.017 119.385 190.519 117.255 193.507C114.614 197.304 110.709 200.037 106.237 201.218C106.075 201.252 105.928 201.338 105.819 201.462C105.709 201.586 105.642 201.743 105.628 201.908C104.669 205.799 102.221 209.157 98.8107 211.262C98.3261 211.599 97.7921 211.859 97.2279 212.033C95.7115 212.465 94.1368 212.657 92.561 212.601C91.6765 212.56 90.799 212.424 89.9435 212.195C88.7029 211.619 87.6061 210.773 86.7323 209.72C85.8585 208.668 85.2296 207.434 84.8911 206.108C83.8562 202.72 82.6996 199.351 81.4213 195.963C80.167 193.054 79.0697 190.081 78.1341 187.055C77.0417 183.524 76.7335 179.797 77.2312 176.134C77.7288 172.472 79.0203 168.962 81.0154 165.851C82.7852 163.2 85.0608 160.925 87.7115 159.155V159.155Z" fill="#CA2626"/>
<path d="M142.113 140C142.681 140.042 143.226 140.241 143.688 140.574C144.15 140.907 144.511 141.361 144.73 141.887C145.221 142.923 145.363 144.091 145.136 145.215C144.597 148.791 143.776 152.319 142.681 155.766C141.381 160.177 139.011 164.199 135.782 167.474C133.423 169.841 130.634 171.735 127.564 173.054C127.199 173.196 126.854 173.399 126.489 173.561C125.544 173.971 124.499 174.089 123.487 173.901C122.475 173.713 121.542 173.227 120.807 172.506C120.022 172.038 119.334 171.426 118.778 170.7C117.097 168.239 115.886 165.487 115.207 162.584C114.812 160.673 114.587 158.731 114.537 156.781C114.533 156.24 114.602 155.701 114.74 155.178C114.74 154.975 114.882 154.792 114.74 154.63C114.598 154.467 114.74 154.305 114.902 154.204C116.205 151.506 118.482 149.403 121.274 148.319C126.732 145.986 132.211 143.713 137.507 141.177C138.927 140.425 140.506 140.022 142.113 140V140Z" fill="#D44C4C"/>
<path d="M121.292 183.362C121.384 181.589 121.337 179.811 121.15 178.046C122.503 179.392 124.215 180.322 126.081 180.724C125.991 181.06 125.817 181.368 125.574 181.617C124.925 182.084 124.945 182.611 125.148 183.321C125.84 185.733 126.409 188.177 126.852 190.646C127.005 191.031 127.005 191.459 126.852 191.844C126.719 191.655 126.546 191.498 126.346 191.383C126.145 191.269 125.922 191.199 125.692 191.18C125.462 191.16 125.231 191.192 125.014 191.271C124.797 191.351 124.6 191.477 124.438 191.641C123.971 192.026 124.295 192.513 124.153 192.919C123.585 192.777 123.504 192.31 123.423 191.844C122.895 189.104 122.307 186.406 121.536 183.727C121.455 183.605 121.475 183.423 121.292 183.362Z" fill="#D07E72"/>
<path d="M144.505 168.834C144.323 168.315 144.323 167.749 144.505 167.231C145.122 165.465 145.99 163.798 147.082 162.28C148.047 160.507 148.888 158.67 149.598 156.781C149.649 156.543 149.786 156.333 149.984 156.192C149.728 158.176 149.181 160.111 148.36 161.935C147.341 164.373 146.048 166.688 144.505 168.834Z" fill="#CA2626"/>
<path d="M114.922 154.265L114.759 154.691C114.159 156.219 114.081 157.902 114.536 159.479C113.379 157.939 111.949 156.625 110.315 155.604C110.89 154.985 111.622 154.533 112.433 154.297C113.245 154.061 114.104 154.05 114.922 154.265V154.265Z" fill="#D07F73"/>
<path d="M124.113 193C124.008 192.892 123.93 192.761 123.885 192.617C123.841 192.473 123.831 192.32 123.857 192.172C123.883 192.023 123.943 191.883 124.034 191.763C124.124 191.642 124.242 191.545 124.377 191.478C124.684 191.23 125.057 191.077 125.45 191.037C125.842 190.997 126.238 191.073 126.589 191.255C126.812 191.438 126.771 191.681 126.812 191.925C126.555 192.388 126.147 192.748 125.655 192.944C125.163 193.14 124.618 193.16 124.113 193Z" fill="#942A2A"/>
<path d="M89.9629 212.216C92.3891 212.446 94.8338 212.391 97.2473 212.053C96.1297 212.646 94.8891 212.97 93.6243 212.998C92.3595 213.026 91.1057 212.758 89.9629 212.216V212.216Z" fill="#CA2626"/>
<path d="M124.214 188.759C123.315 187.111 122.737 185.307 122.51 183.443C122.51 183.159 122.631 182.976 122.855 182.834C123.078 182.692 123.524 182.611 123.626 183.139C123.727 183.666 123.626 184.519 123.788 185.168C124.011 186.365 124.072 187.562 124.214 188.759Z" fill="#E1AAA1"/>
<path d="M83.4713 178.634C83.0712 178.613 82.6955 178.435 82.4258 178.139C82.1561 177.842 82.014 177.452 82.0306 177.051C82.2691 172.553 84.0129 168.265 86.9816 164.877C89.4249 162.152 92.5801 160.163 96.0923 159.134C96.2827 159.072 96.4838 159.05 96.6833 159.067C96.8827 159.085 97.0764 159.143 97.2528 159.238C97.4292 159.333 97.5846 159.463 97.7095 159.619C97.8343 159.776 97.9262 159.956 97.9794 160.149C98.0933 160.534 98.0504 160.948 97.8604 161.301C97.6704 161.655 97.3486 161.919 96.9649 162.036C93.9991 162.914 91.3362 164.6 89.2745 166.906C86.7521 169.778 85.2722 173.417 85.0743 177.234C85.0431 177.631 84.8579 177.999 84.5583 178.261C84.2587 178.523 83.8685 178.657 83.4713 178.634Z" fill="#F3DEDD"/>
<path d="M126.081 151.749C125.729 151.751 125.387 151.632 125.113 151.411C124.839 151.191 124.651 150.882 124.579 150.537C124.507 150.193 124.557 149.834 124.72 149.522C124.883 149.21 125.149 148.964 125.472 148.827L135.861 144.363C136.22 144.251 136.608 144.276 136.949 144.434C137.291 144.591 137.562 144.869 137.71 145.214C137.859 145.559 137.875 145.947 137.754 146.303C137.634 146.659 137.386 146.958 137.059 147.142L126.69 151.606C126.501 151.701 126.292 151.75 126.081 151.749V151.749Z" fill="#F3DEDD"/>
<path d="M178.723 153.198C178.139 153.203 177.559 153.289 176.998 153.451C175.867 153.864 174.86 154.561 174.075 155.475C173.29 156.389 172.753 157.489 172.515 158.671C171.848 161.07 171.637 163.574 171.894 166.051V166.212L171.71 169.477C171.745 171.422 171.385 173.354 170.652 175.157L170.307 175.662C170.008 175.938 169.962 176.076 169.962 176.099L170.215 176.559V177.134C169.844 179.87 169.069 182.535 167.916 185.044C167.663 185.641 167.41 186.239 167.134 186.837C166.242 188.563 165.622 190.417 165.295 192.332V192.631C163.464 199.508 162.88 206.656 163.57 213.739C163.961 219.395 164.375 225.235 167.134 230.363V230.685C167.704 232.637 168.894 234.351 170.524 235.566C172.155 236.782 174.137 237.433 176.171 237.422C181.273 237.839 186.282 239.033 191.024 240.963C193.432 242.037 196.093 242.412 198.704 242.043H199.026C203.992 242.227 207.763 241.055 210.131 238.525C212.5 235.996 213.396 232.34 212.936 227.466V227.121C212.936 226.845 212.936 226.569 212.936 226.316C209.79 207.421 203.984 189.067 195.692 171.8C192.959 165.5 188.914 159.857 183.827 155.245C182.437 153.956 180.618 153.227 178.723 153.198V153.198Z" fill="#3F2222"/>
<path d="M115.976 242.02H116.137C118.74 242.388 121.394 242.014 123.793 240.94C128.538 239.019 133.546 237.825 138.647 237.399C143.498 236.893 146.465 234.686 147.66 230.639L147.798 230.317C150.145 225.09 151.352 219.423 151.339 213.693C152.05 206.617 151.458 199.471 149.592 192.608V192.24C149.365 190.5 148.819 188.816 147.982 187.274L147.614 186.423C146.216 183.561 145.218 180.521 144.648 177.387C143.888 175.656 143.504 173.782 143.521 171.892V171.386C143.602 170.912 143.546 170.426 143.36 169.983C143.228 169.484 143.128 168.977 143.062 168.466C142.981 167.44 142.981 166.41 143.062 165.385C143.163 164.155 143.046 162.918 142.717 161.729V161.453V161.154C142.918 159.627 142.619 158.075 141.864 156.732C141.11 155.389 139.941 154.327 138.532 153.704C135.819 152.509 133.359 153.175 130.553 155.842C127.633 158.521 125.13 161.621 123.127 165.04C114.636 180.371 108.439 196.863 104.732 213.992L104.41 215.348C102.938 220.593 102.119 225.999 101.973 231.444C101.868 232.82 102.114 234.201 102.689 235.456C103.265 236.71 104.15 237.799 105.261 238.617C108.419 240.862 112.218 242.023 116.091 241.928L115.976 242.02Z" fill="#3F2222"/>
<path d="M157.845 171.984L146.349 176.973C145.554 176.376 145.001 175.514 144.79 174.543C144.579 173.572 144.724 172.557 145.199 171.685C147.45 170.062 149.929 168.783 152.557 167.891C153.57 167.612 154.448 166.977 155.031 166.103C155.613 165.228 155.862 164.174 155.73 163.131C155.73 157.337 155.73 151.635 155.73 145.726C155.73 140.874 156.121 140.575 160.995 141.564C160.995 148.853 160.995 156.164 160.995 163.453C160.875 164.106 160.999 164.779 161.342 165.347C161.685 165.915 162.224 166.337 162.858 166.534C165.146 167.738 167.559 168.687 170.055 169.362C171.227 171.156 170.422 172.811 169.664 174.444C167.663 175.042 166.215 173.616 164.513 173.064C162.306 172.328 160.329 170.65 157.845 171.984Z" fill="#CDA8A3"/>
<path d="M145.223 171.961C144.739 170.814 144.603 169.551 144.832 168.328C145.384 168.466 144.832 170.075 146.326 169.178C147.869 168.159 149.56 167.383 151.339 166.879C153.638 166.258 153.96 164.81 153.914 162.74C153.914 156.578 153.914 150.416 153.914 144.346C153.914 142.047 154.788 141.265 156.673 141.196C158.122 141.196 159.685 140.529 161.042 141.656C155.5 141.541 156.581 141.219 156.443 145.886C156.443 152.141 156.443 158.379 156.443 164.603C156.556 165.302 156.417 166.019 156.051 166.626C155.684 167.232 155.115 167.689 154.443 167.914C151.316 169.109 148.281 170.581 145.223 171.961Z" fill="#E4BBB6"/>
<path d="M169.089 174.421C168.882 175.272 168.698 176.122 168.491 176.973L157.846 171.984C157.98 171.655 158.189 171.362 158.455 171.128C158.722 170.894 159.039 170.724 159.382 170.633C159.725 170.541 160.084 170.531 160.432 170.602C160.78 170.672 161.107 170.823 161.387 171.041C163.893 172.282 166.56 173.432 169.089 174.421Z" fill="#B58D88"/>
<path d="M214.638 227.282L214.5 226.017C211.313 206.997 205.461 188.52 197.118 171.133C194.281 164.62 190.087 158.788 184.817 154.026C183.764 152.937 182.431 152.162 180.964 151.786C179.497 151.409 177.955 151.447 176.509 151.895C175.062 152.343 173.769 153.184 172.771 154.323C171.774 155.462 171.112 156.856 170.86 158.349C170.125 160.948 169.891 163.663 170.17 166.35V166.35C170.17 167.385 170.055 168.42 169.986 169.454C170.034 171.184 169.729 172.905 169.089 174.513C168.695 174.792 168.417 175.205 168.307 175.676C168.197 176.146 168.262 176.64 168.492 177.065C168.099 179.634 167.324 182.13 166.192 184.469C164.911 186.916 163.982 189.533 163.433 192.24V192.24C161.56 199.313 160.96 206.663 161.663 213.946C162.053 219.878 162.49 225.856 165.387 231.26C166.053 233.54 167.433 235.546 169.325 236.983C171.217 238.419 173.52 239.21 175.895 239.238C180.823 239.639 185.66 240.786 190.243 242.641C192.946 243.849 195.936 244.264 198.865 243.837C209.971 244.159 215.696 238.157 214.638 227.282Z" fill="#D44C4C"/>
<path d="M151.293 192.125C150.965 189.892 150.24 187.735 149.154 185.756C147.794 182.978 146.834 180.021 146.303 176.973C145.592 175.398 145.224 173.689 145.223 171.961C145.636 170.696 144.947 169.546 144.832 168.328C144.487 166.028 145.131 163.522 144.303 161.2C144.502 159.335 144.104 157.455 143.166 155.831C142.228 154.207 140.799 152.923 139.083 152.164C135.29 150.485 132.186 151.888 129.243 154.601C126.205 157.418 123.594 160.664 121.494 164.235C112.904 179.72 106.615 196.373 102.824 213.67C101.154 219.502 100.211 225.518 100.018 231.581C99.9176 233.234 100.233 234.884 100.936 236.383C101.639 237.881 102.707 239.179 104.042 240.158C107.504 242.61 111.666 243.876 115.906 243.768C118.828 244.197 121.812 243.782 124.506 242.572C129.101 240.731 133.944 239.584 138.877 239.169C143.866 238.64 147.798 236.41 149.361 231.191C152.259 225.764 152.718 219.809 153.109 213.854C153.817 206.568 153.201 199.215 151.293 192.148V192.125Z" fill="#D44C4C"/>
<path d="M115.976 243.745C124.009 237.831 133.174 233.636 142.9 231.421C145.013 230.739 147.272 230.651 149.43 231.168C147.89 236.387 143.935 238.617 138.946 239.146C134.02 239.558 129.184 240.705 124.598 242.549C121.895 243.757 118.905 244.172 115.976 243.745V243.745Z" fill="#CA2626"/>
<path d="M165.434 231.168C167.733 229.903 170.193 231.168 172.469 231.444C176.709 232.398 180.817 233.865 184.702 235.812C189.66 238.023 194.408 240.678 198.888 243.745C195.967 244.174 192.983 243.759 190.289 242.549C185.705 240.7 180.868 239.552 175.941 239.146C173.566 239.118 171.263 238.327 169.371 236.891C167.479 235.454 166.099 233.448 165.434 231.168V231.168Z" fill="#CA2626"/>
<path d="M145.178 171.961C145.198 173.689 145.574 175.395 146.281 176.973C146.801 180.023 147.762 182.982 149.132 185.756C150.209 187.739 150.932 189.895 151.271 192.125C144.12 190.033 141.062 186.515 141.223 180.169C141.366 177.405 141.704 174.654 142.235 171.938C142.832 168.351 143.591 164.764 144.281 161.2C145.086 163.499 144.442 165.959 144.81 168.328C144.902 169.546 145.592 170.696 145.178 171.961Z" fill="#CA2626"/>
<path d="M169.068 174.421C169.708 172.813 170.013 171.092 169.965 169.362C169.965 168.328 169.965 167.293 170.149 166.258C170.907 165.408 170.264 164.304 170.792 163.131C171.735 168.098 172.885 172.788 173.506 177.525C174.54 185.388 171.344 189.849 163.48 192.148C164.029 189.441 164.958 186.824 166.24 184.377C167.361 182.034 168.136 179.539 168.539 176.973C168.303 176.556 168.226 176.067 168.323 175.597C168.421 175.128 168.685 174.71 169.068 174.421V174.421Z" fill="#CA2626"/>
<g clip-path="url(#clip0_451_2608)">
<path d="M165.35 79.4317V63.7185H165.706C168.093 63.7229 170.446 63.1558 172.569 62.0647C174.692 60.9736 176.523 59.3901 177.909 57.4467C179.295 55.5033 180.196 53.2563 180.535 50.8937C180.875 48.5311 180.645 46.1214 179.863 43.8662C179.081 41.6109 177.771 39.5755 176.041 37.9302C174.312 36.2849 172.214 35.0775 169.923 34.4088C167.631 33.7402 165.213 33.6297 162.87 34.0867C160.528 34.5437 158.328 35.5549 156.456 37.0357C154.585 35.5552 152.386 34.5441 150.043 34.087C147.701 33.6299 145.284 33.7399 142.992 34.408C140.701 35.0761 138.604 36.2827 136.874 37.9272C135.145 39.5716 133.834 41.6061 133.051 43.8605C132.269 46.115 132.037 48.5241 132.376 50.8864C132.715 53.2486 133.614 55.4956 134.998 57.4394C136.382 59.3833 138.212 60.9675 140.334 62.0599C142.456 63.1523 144.808 63.721 147.194 63.7185H147.55V79.4317C153.372 81.0277 159.516 81.0277 165.339 79.4317H165.35Z" fill="#FFFBE9"/>
<path d="M174.613 420.817C171 421.525 167.349 422.016 163.679 422.288C170.794 430.779 175.893 438.06 172.929 450.584C169.656 464.387 163.584 467.91 157.713 471.301C151.582 474.859 144.669 478.891 144.669 492.647V501.992C143.922 502.244 143.225 502.621 142.605 503.107C134.043 510.009 135.81 517.872 140.233 524.038C145.202 530.134 142.605 543.795 140.316 546.452C140.316 546.452 151.428 537.095 150.847 529.09C151.667 530.678 152.154 532.416 152.279 534.198C152.403 535.98 152.162 537.769 151.571 539.455C168.541 521.666 162.505 508.242 154.12 503.451V492.647C154.12 484.346 156.919 482.733 162.422 479.496C168.956 475.725 177.838 470.542 182.096 452.777C185.499 438.547 180.85 429.083 174.613 420.817Z" fill="#A8866D"/>
<path d="M242.802 91.3856C186.699 73.2763 126.329 73.2224 70.1939 91.2314C59.5942 109.572 54.0569 130.399 54.1486 151.582V310.493C54.1486 372.456 99.9481 422.679 156.456 422.679C158.891 422.679 161.299 422.584 163.678 422.395C167.349 422.122 171 421.631 174.612 420.924C222.452 411.532 258.812 365.661 258.812 310.493V151.582C258.882 130.455 253.358 109.686 242.802 91.3856V91.3856ZM180.163 369.705C172.715 376.013 164.785 381.726 156.445 386.794L154.381 385.525C151.096 383.485 148.06 381.445 145.214 379.406C140.708 376.168 136.652 372.931 132.738 369.705C41.4239 293.321 55.3227 177.257 156.456 113.372C257.602 177.292 271.477 293.333 180.163 369.705Z" fill="#C49A6C"/>
<path d="M101.05 115.341C130.39 104.336 125.255 99.2007 142.13 97.7302C151.297 96.9356 154.831 86.8199 156.147 77.7596C154.167 77.7596 152.186 77.7596 150.218 77.7596C121.699 77.9749 93.3784 82.5132 66.2205 91.2196C64.0943 94.8686 62.174 98.6338 60.4688 102.498C70.8217 112.198 85.527 121.164 101.05 115.341Z" fill="#332D2E"/>
<path d="M31.8411 27.1453C23.5695 32.7977 14.6712 37.4736 5.32422 41.0796L58.4883 122.219C60.6941 122.931 75.4941 127.413 90.0451 118.661C106.007 109.02 108.083 91.5991 108.284 89.6423L54.4562 7.47118C47.7015 14.8791 40.1128 21.481 31.8411 27.1453V27.1453Z" fill="#A8866D"/>
<path d="M31.8416 27.1453C41.5067 20.5398 49.5589 14.4561 55.0733 8.40805L49.9739 0.616669L0.166016 33.2171L5.31294 41.0797C14.664 37.4744 23.5662 32.7985 31.8416 27.1453Z" fill="#574747"/>
<path d="M23.8369 12.3452C23.8529 12.6408 23.7911 12.9354 23.658 13.1998C23.5248 13.4641 23.3248 13.689 23.0778 13.8521C22.8307 14.0152 22.5454 14.1108 22.25 14.1294C21.9546 14.148 21.6594 14.0889 21.3939 13.9581V13.9581C21.1242 13.8194 20.822 13.7561 20.5194 13.7749C20.2167 13.7937 19.9248 13.8938 19.6744 14.0648C7.23427 22.5321 -1.28059 30.9046 0.178073 33.2764C1.63673 35.6482 14.2666 30.4658 28.023 21.4174C41.7795 12.369 51.5988 3.10706 49.9741 0.628528C48.3494 -1.85001 37.368 2.81059 24.6314 10.8273C24.377 10.9879 24.1695 11.2128 24.03 11.4794C23.8905 11.746 23.8239 12.0447 23.8369 12.3452V12.3452Z" fill="#423030"/>
<path d="M245.446 366.871C239.611 364.76 234.464 363.704 232.294 365.365C225.985 370.215 232.294 398.38 201.793 395.226C184.597 393.447 179.106 405.697 178.525 419.75C207.011 413.145 231.156 393.542 245.446 366.871Z" fill="#332D2E"/>
<path d="M33.0276 442.057C24.7523 436.419 15.8497 431.763 6.49902 428.182L59.663 346.983C61.8806 346.272 76.6688 341.789 91.2198 350.541C107.182 360.17 109.257 377.603 109.459 379.548L55.6427 461.731C48.8885 454.323 41.2997 447.721 33.0276 442.057V442.057Z" fill="#A8866D"/>
<path d="M33.0273 442.057C42.6924 448.674 50.7327 454.746 56.259 460.806C54.7529 463.083 52.7013 466.309 51.1477 468.597L1.33984 435.985L6.48676 428.134C15.8438 431.73 24.7505 436.402 33.0273 442.057V442.057Z" fill="#574747"/>
<path d="M29.8971 449.255C29.634 449.392 29.3394 449.458 29.043 449.446C28.7465 449.434 28.4586 449.344 28.2077 449.185C27.9568 449.027 27.7519 448.805 27.6134 448.543C27.475 448.281 27.4077 447.986 27.4184 447.69V447.69C27.4302 447.388 27.3619 447.089 27.2203 446.822C27.0786 446.555 26.8687 446.331 26.6121 446.172C13.7451 438.357 2.59758 434.005 1.10335 436.365C-0.390889 438.725 9.49958 448.022 23.3865 456.81C37.2734 465.597 49.8203 470.685 51.4094 468.182C52.9985 465.68 44.1872 457.604 31.6166 449.338C31.3639 449.171 31.0709 449.075 30.7683 449.06C30.4656 449.046 30.1647 449.113 29.8971 449.255V449.255Z" fill="#423030"/>
<path d="M279.126 442.057C287.397 436.42 296.296 431.764 305.642 428.182L252.502 346.936C250.296 346.224 235.496 341.741 220.957 350.493C204.995 360.123 202.908 377.556 202.706 379.501L256.522 461.695C263.278 454.304 270.863 447.714 279.126 442.057Z" fill="#A8866D"/>
<path d="M279.125 442.057C269.46 448.674 261.408 454.746 255.894 460.806L260.993 468.597L310.801 435.985L305.654 428.134C296.301 431.73 287.398 436.402 279.125 442.057V442.057Z" fill="#574747"/>
<path d="M282.257 449.255C282.519 449.393 282.813 449.46 283.109 449.448C283.405 449.436 283.693 449.346 283.943 449.187C284.194 449.028 284.398 448.806 284.534 448.543C284.671 448.28 284.737 447.986 284.723 447.69C284.713 447.387 284.783 447.087 284.927 446.82C285.071 446.553 285.283 446.33 285.542 446.172C298.397 438.357 309.556 434.005 311.039 436.365C312.521 438.725 302.654 448.022 288.767 456.81C274.88 465.597 262.322 470.685 260.744 468.182C259.167 465.68 267.967 457.604 280.525 449.338C280.78 449.171 281.075 449.075 281.38 449.061C281.684 449.046 281.987 449.113 282.257 449.255Z" fill="#423030"/>
<path d="M281.058 27.1453C289.331 32.7953 298.229 37.4711 307.575 41.0796L254.423 122.219C252.205 122.931 237.405 127.413 222.866 118.661C206.904 109.02 204.829 91.5991 204.627 89.6423L258.431 7.47118C265.186 14.8835 272.779 21.4858 281.058 27.1453V27.1453Z" fill="#A8866D"/>
<path d="M281.059 27.1453C271.394 20.5398 263.342 14.4561 257.827 8.40805L262.927 0.616669L312.734 33.2171L307.588 41.0797C298.238 37.4719 289.336 32.7961 281.059 27.1453V27.1453Z" fill="#574747"/>
<path d="M289.064 12.3452C289.046 12.6424 289.108 12.9389 289.242 13.2048C289.375 13.4708 289.577 13.6968 289.825 13.8603C290.074 14.0237 290.362 14.1188 290.659 14.136C290.956 14.1531 291.253 14.0918 291.518 13.9581V13.9581C291.788 13.8194 292.09 13.7561 292.393 13.7749C292.696 13.7937 292.988 13.8938 293.238 14.0648C305.678 22.5321 314.252 30.8809 312.722 33.2171C311.193 35.5533 298.634 30.4065 284.889 21.3581C271.145 12.3097 261.302 3.04777 262.926 0.569233C264.551 -1.9093 275.544 2.75129 288.281 10.768C288.541 10.9369 288.75 11.1723 288.888 11.4497C289.025 11.7271 289.086 12.0364 289.064 12.3452V12.3452Z" fill="#423030"/>
</g>
<defs>
<clipPath id="clip0_451_2608">
<rect width="312.9" height="546.44" fill="white"/>
</clipPath>
</defs>
</svg>
