<svg width="316" height="547" viewBox="0 0 316 547" fill="none" xmlns="http://www.w3.org/2000/svg">
<path d="M157.995 93C285.746 169.207 303.302 307.582 187.927 398.624C178.476 406.192 168.469 413.004 157.995 419C147.521 413.004 137.514 406.192 128.063 398.624C12.6731 307.484 30.2922 169.158 157.995 93Z" fill="#751C1C"/>
<path d="M221.185 296.153C221.253 296.737 221.47 297.294 221.816 297.769C223.088 300.335 223.498 303.243 222.985 306.061C222.472 308.878 221.064 311.455 218.97 313.409C218.405 313.935 217.989 314.601 217.764 315.339C217.539 316.077 217.513 316.862 217.688 317.614C218.457 323.049 217.893 328.228 212.765 331.638C211.099 332.696 209.196 333.325 207.228 333.468C205.259 333.611 203.286 333.265 201.484 332.459C200.572 332.092 199.595 331.914 198.612 331.936C197.629 331.958 196.661 332.179 195.767 332.587V332.408H194.433H191.049C190.382 332.228 189.613 332.536 189.049 331.92C188.922 331.947 188.791 331.947 188.664 331.92C186.87 331.767 185.613 330.254 183.844 330.049C183.756 330.092 183.66 330.114 183.562 330.114C183.464 330.114 183.368 330.092 183.28 330.049C182.742 330.946 181.562 331.049 180.921 331.818L178.05 332.767L176.127 332.895V332.767C174.71 332.796 173.295 332.632 171.922 332.279C171.933 332.143 171.933 332.006 171.922 331.869C170.964 331.735 170.098 331.229 169.512 330.459H169.05L165.692 332.228V332.356C165.333 332.792 164.974 333.228 164.282 332.997C164.211 332.914 164.134 332.837 164.051 332.767C163.333 332.997 162.795 334.125 161.82 333.228C161.743 333.345 161.657 333.457 161.564 333.561C161.029 333.725 160.451 333.679 159.949 333.433V333.279C159.737 333.398 159.499 333.461 159.256 333.461C159.014 333.461 158.775 333.398 158.564 333.279L157.231 333.125L153.334 332.177L152.847 331.664C151.667 330.792 150.334 331.382 149.103 331.664C149.115 331.775 149.115 331.886 149.103 331.997H148.206L147.668 332.459C147.468 332.609 147.225 332.69 146.975 332.69C146.726 332.69 146.483 332.609 146.283 332.459H142.386H140.95V332.664C140.275 332.9 139.544 332.918 138.858 332.716C138.173 332.513 137.568 332.101 137.13 331.536L136.72 331.151C136.637 331.234 136.542 331.303 136.438 331.356C136.131 331.421 135.813 331.409 135.513 331.319C135.213 331.229 134.94 331.066 134.72 330.844C134.705 330.911 134.705 330.981 134.72 331.049C134.373 331.745 133.805 332.307 133.104 332.646C132.403 332.985 131.61 333.081 130.848 332.92L130.669 333.202C130.403 333.292 130.114 333.292 129.848 333.202C129.74 333.431 129.584 333.633 129.391 333.795C129.197 333.957 128.97 334.075 128.726 334.141C128.483 334.207 128.227 334.219 127.978 334.176C127.729 334.134 127.493 334.038 127.284 333.895V334.048C127.086 334.163 126.86 334.224 126.631 334.224C126.401 334.224 126.176 334.163 125.977 334.048L125.849 333.92C125.464 335.305 126.695 336.792 125.849 338.151L126.002 338.305C126.1 338.463 126.152 338.644 126.152 338.83C126.152 339.016 126.1 339.198 126.002 339.356C126.7 339.6 127.459 339.6 128.156 339.356C128.77 339.187 129.395 339.067 130.028 338.997C131.695 338.496 133.466 338.451 135.156 338.869H135.822H136.515C137.232 338.892 137.924 339.144 138.489 339.587C138.948 339.964 139.523 340.17 140.117 340.17C140.711 340.17 141.286 339.964 141.745 339.587L142.411 339.458H143.001C143.616 339.264 144.203 338.988 144.745 338.638C144.909 338.443 145.144 338.32 145.398 338.296C145.652 338.272 145.905 338.349 146.104 338.51H146.616C146.437 338.33 146.155 338.048 146.437 338.048C147.078 337.228 148.052 337.561 149.001 337.561C149.572 337.714 150.155 337.817 150.744 337.869C151.928 338.036 153.084 338.364 154.18 338.843C156.154 339.663 157.846 338.151 159.743 338.151C159.969 338.189 160.186 338.267 160.384 338.381L160.615 338.587L162.179 338.407C162.526 338.081 162.985 337.899 163.461 337.899C163.938 337.899 164.396 338.081 164.743 338.407L165.923 338.561L166.153 338.356C166.446 338.182 166.792 338.119 167.128 338.176C168.743 338.305 170.179 339.51 171.922 338.971C172.255 338.946 172.589 338.946 172.922 338.971C173.363 338.894 173.814 338.894 174.255 338.971C175.09 338.733 175.952 338.604 176.819 338.587C176.934 338.507 177.038 338.412 177.127 338.305C177.203 338.1 177.348 337.928 177.537 337.817C177.974 337.625 178.445 337.521 178.922 337.51C180.574 337.48 182.219 337.723 183.793 338.228C184.152 338.372 184.45 338.634 184.639 338.971V339.125C185.229 338.663 185.665 338.971 186.049 339.51C186.152 339.356 186.357 339.356 186.357 339.51C186.744 340.002 187.281 340.356 187.887 340.518C188.492 340.68 189.134 340.641 189.716 340.407V340.202C189.806 340.058 189.937 339.944 190.092 339.875C190.248 339.807 190.42 339.786 190.587 339.817L191.792 339.561L191.946 339.304C192.741 338.74 193.69 339.561 194.51 338.997C203.381 338.971 210.945 350.073 204.612 359.995C203.74 361.2 202.868 362.354 202.048 363.533C201.805 363.686 201.597 363.888 201.438 364.127C201.279 364.365 201.172 364.635 201.125 364.918L200.638 365.482C199.853 368.912 199.679 372.453 200.125 375.943C200.514 377.981 201.298 379.923 202.433 381.66C203.535 383.224 203.151 384.327 201.33 384.942C198.536 385.865 195.972 386.762 193.408 387.762C191.613 388.429 190.613 387.865 189.793 386.173C186.449 380.129 184.685 373.338 184.665 366.431C184.742 364.764 184.126 364.456 182.614 364.456C179.491 364.722 176.352 364.165 173.512 362.841C173.091 362.651 172.624 362.589 172.168 362.662C171.713 362.735 171.288 362.94 170.948 363.251C169.149 364.627 166.962 365.402 164.698 365.466C162.435 365.531 160.208 364.881 158.333 363.61C158.03 363.36 157.649 363.224 157.257 363.224C156.864 363.224 156.483 363.36 156.18 363.61C153.999 365.046 151.484 365.895 148.879 366.074C146.274 366.254 143.667 365.759 141.309 364.636C140.703 364.369 140.048 364.231 139.386 364.231C138.724 364.231 138.069 364.369 137.463 364.636C135.354 365.405 133.112 365.743 130.87 365.628C128.628 365.514 126.432 364.95 124.413 363.969C123.939 363.694 123.39 363.578 122.845 363.638C122.301 363.698 121.79 363.931 121.387 364.303C119.767 365.767 117.716 366.666 115.542 366.866L114.567 367.354L114.029 367.174L113.132 367.379C109.147 366.938 105.44 365.125 102.645 362.251C100.851 360.579 99.6192 358.392 99.1188 355.991C98.6183 353.589 98.8741 351.092 99.8507 348.842C100.135 348.345 100.224 347.76 100.1 347.201C99.9772 346.642 99.6507 346.149 99.184 345.817C95.2612 342.099 94.9791 337.894 98.1584 332.638C98.5238 332.149 98.7421 331.567 98.7875 330.958C98.8329 330.349 98.7037 329.74 98.4149 329.203C97.4452 326.952 97.1711 324.462 97.6281 322.054C98.085 319.646 99.252 317.43 100.979 315.691C102.532 313.84 104.576 312.466 106.876 311.727C109.175 310.987 111.637 310.913 113.978 311.512C114.695 311.795 115.488 311.825 116.224 311.597C116.961 311.368 117.598 310.895 118.029 310.255C118.675 309.337 119.505 308.563 120.468 307.985C121.431 307.406 122.504 307.036 123.618 306.897L124.567 306.384L126.438 306.512L127.002 306.384C128.182 306.508 129.329 306.847 130.387 307.384C131.114 307.465 131.792 307.79 132.31 308.307C133.284 308.384 134.002 309.819 135.181 308.922V308.794L136.643 308.307L137.617 307.435C137.771 306.974 138.053 306.717 138.565 306.845C138.743 306.893 138.93 306.887 139.104 306.827C139.277 306.768 139.429 306.658 139.54 306.512C139.849 306.217 140.226 306.004 140.638 305.892C141.05 305.78 141.483 305.773 141.899 305.871H142.437C143.469 305.387 144.633 305.261 145.745 305.512L147.283 305.769C147.803 305.682 148.337 305.728 148.834 305.903C149.332 306.078 149.777 306.375 150.129 306.768L151.488 307.435C152.026 307.256 152.539 306.999 153.077 307.256C153.108 307.158 153.165 307.071 153.242 307.003C153.319 306.935 153.413 306.889 153.513 306.871L154.898 306.333C155.414 305.792 156.124 305.478 156.872 305.461H158.205C159.169 305.116 160.195 304.978 161.216 305.058C162.237 305.137 163.229 305.432 164.128 305.922L165.436 306.051L167.41 306.999L167.974 306.563C168.118 306.365 168.302 306.199 168.514 306.075C168.726 305.951 168.961 305.873 169.204 305.845C170.344 305.407 171.532 305.106 172.743 304.948C173.111 304.973 173.473 305.051 173.819 305.179C174.112 305.281 174.396 305.41 174.666 305.563H178.434L179.46 305.922L181.383 306.307H181.844C182.107 306.189 182.401 306.163 182.68 306.233C182.959 306.303 183.207 306.464 183.383 306.692C184.968 305.855 186.72 305.382 188.511 305.307C188.498 305.213 188.498 305.119 188.511 305.025C188.758 304.776 189.081 304.616 189.428 304.569C189.776 304.523 190.13 304.593 190.434 304.769C191.752 304.777 193.065 304.914 194.356 305.179L194.792 304.974H194.972C194.919 304.812 194.916 304.638 194.962 304.474C195.007 304.31 195.1 304.163 195.228 304.051C194.895 303.692 194.946 302.974 194.228 302.974C192.327 302.728 190.49 302.118 188.818 301.179C187.665 300.615 186.947 301 185.639 301.641C184.339 302.278 183.089 303.372 181.437 302.703C181.441 302.774 181.43 302.846 181.405 302.913C181.363 303.026 181.282 303.12 181.178 303.179C180.917 303.33 180.62 303.409 180.319 303.409C180.017 303.409 179.721 303.33 179.46 303.179V302.923C178.819 302.974 178.153 303.153 177.588 302.615C177.447 302.729 177.279 302.808 177.101 302.843C176.922 302.879 176.738 302.871 176.563 302.82C176.394 302.736 176.265 302.588 176.204 302.41C176.082 302.523 175.93 302.599 175.766 302.626C175.602 302.653 175.433 302.632 175.281 302.564C173.876 301.883 172.352 301.482 170.794 301.384V301.743C170.384 302.179 169.948 302.333 169.512 302.051C169.535 302.094 169.546 302.143 169.546 302.192C169.546 302.241 169.535 302.289 169.512 302.333L168.076 302.794H167.589L166.846 302.948C166.77 303.145 166.649 303.322 166.494 303.464C166.338 303.607 166.151 303.711 165.948 303.769C165.349 303.967 164.714 304.036 164.086 303.97C163.458 303.903 162.852 303.704 162.307 303.384C157.897 302.333 153.616 301.205 148.898 302.692C145.353 303.406 141.669 302.697 138.642 300.718C138.224 300.442 137.734 300.295 137.233 300.295C136.731 300.295 136.241 300.442 135.822 300.718C132.996 302.08 129.831 302.575 126.724 302.142C123.617 301.708 120.707 300.365 118.362 298.282C116.416 296.241 115.18 293.627 114.838 290.828C114.496 288.028 115.067 285.194 116.465 282.745C116.901 281.847 117.388 281.001 117.849 280.181H118.234C118.247 280.027 118.247 279.873 118.234 279.719C123.516 276.668 123.49 271.54 122.823 266.412C122.592 264.515 122.054 262.643 121.669 260.772C121.387 259.592 121.49 258.541 122.951 258.208C125.9 257.49 128.874 256.875 131.797 256.106C132.33 255.939 132.905 255.969 133.418 256.19C133.93 256.411 134.347 256.808 134.592 257.311C137.134 261.331 138.245 266.092 137.745 270.822C137.714 273.389 137.308 275.937 136.54 278.386C136.361 278.899 135.925 279.719 136.54 280.104C137.156 280.488 137.771 280.155 138.309 279.745C139.751 278.601 141.337 277.653 143.027 276.925C144.784 276.127 146.706 275.762 148.633 275.86C150.56 275.958 152.436 276.517 154.103 277.489C154.474 277.763 154.923 277.912 155.385 277.912C155.847 277.912 156.296 277.763 156.667 277.489C158.401 276.316 160.403 275.601 162.487 275.408C164.571 275.215 166.67 275.552 168.589 276.386C169.88 276.943 171.331 277.007 172.666 276.566C176.739 275.229 181.149 275.338 185.152 276.873C185.507 277.032 185.891 277.113 186.28 277.113C186.669 277.113 187.053 277.032 187.408 276.873C189.494 275.935 191.747 275.426 194.033 275.378C196.319 275.329 198.592 275.742 200.715 276.591C202.048 277.155 203.048 276.309 204.202 276.309C204.535 276.155 204.843 275.976 205.151 275.796H206.15L207.099 275.335C209.252 275.113 211.427 275.373 213.467 276.096C215.507 276.819 217.36 277.986 218.893 279.514C220.394 280.967 221.495 282.783 222.088 284.787C222.681 286.79 222.746 288.913 222.277 290.949C222.111 292.136 221.827 293.304 221.431 294.436C221.203 294.978 221.118 295.569 221.185 296.153Z" fill="#CA2626"/>
<path d="M216.431 296.616C214.638 295.544 212.651 294.838 210.585 294.539C209.559 294.385 208.534 294.026 208.662 292.821C208.79 291.616 210.021 291.513 211.072 291.642C213.139 291.934 215.142 292.575 216.995 293.539C217.713 293.898 218.251 294.334 218.764 293.052C219.499 291.375 219.786 289.536 219.596 287.715C219.406 285.894 218.747 284.153 217.681 282.664C216.616 281.175 215.182 279.988 213.52 279.22C211.858 278.452 210.025 278.129 208.2 278.284C204.995 278.54 204.919 278.643 206.277 281.309C206.713 282.129 206.79 282.847 206.047 283.463C205.303 284.078 204.431 283.642 203.816 282.899L201.842 280.514H201.406L200.945 280.155C200.945 280.001 200.945 279.873 200.945 279.745C199.22 278.865 197.325 278.37 195.39 278.295C193.456 278.219 191.528 278.566 189.74 279.309C190.663 280.335 191.561 281.232 192.304 282.232C192.424 282.371 192.511 282.534 192.561 282.71C192.611 282.887 192.621 283.071 192.592 283.252C192.563 283.433 192.494 283.605 192.391 283.757C192.288 283.908 192.154 284.035 191.997 284.129C191.762 284.355 191.45 284.481 191.125 284.481C190.799 284.481 190.487 284.355 190.253 284.129C189.775 283.702 189.321 283.249 188.894 282.77C187.201 281.05 185.1 279.785 182.787 279.095C180.474 278.404 178.024 278.311 175.664 278.822C175.075 278.822 174.254 278.822 174.1 279.668C173.536 282.232 172.254 281.463 170.742 280.591C169.334 279.595 167.726 278.919 166.03 278.609C164.334 278.299 162.591 278.363 160.922 278.796C159.152 279.438 157.53 280.433 156.155 281.72C154.78 283.007 153.68 284.559 152.923 286.283C152.41 287.232 151.794 287.975 150.666 287.411C149.538 286.847 149.82 285.796 150.307 284.847C151.179 283.335 152.153 281.873 153.076 280.386C149.307 277.822 144.897 278.155 140.59 281.771C139.858 282.573 138.862 283.085 137.784 283.212C136.705 283.339 135.617 283.073 134.719 282.463C132.642 281.104 133.231 279.078 133.77 277.053C135.27 272.131 135.27 266.874 133.77 261.952C132.744 258.798 132.693 258.823 129.591 259.567C124.976 260.721 125.155 260.695 125.745 265.438C126.54 271.515 126.745 277.566 120.617 281.565C120.551 281.631 120.502 281.713 120.476 281.802C120.449 281.892 120.445 281.987 120.463 282.078L120.233 282.386C120.18 282.375 120.126 282.375 120.074 282.386C120.021 282.397 119.972 282.419 119.928 282.45C119.885 282.482 119.848 282.522 119.821 282.568C119.794 282.614 119.777 282.666 119.771 282.719C119.335 283.642 118.822 284.565 118.463 285.539C117.911 286.706 117.613 287.977 117.587 289.267C117.562 290.558 117.811 291.839 118.317 293.026C118.824 294.213 119.576 295.28 120.525 296.155C121.474 297.03 122.598 297.694 123.822 298.103C125.977 299.307 128.476 299.75 130.914 299.359C133.352 298.969 135.587 297.767 137.257 295.949C137.77 295.436 138.283 294.872 139.103 295.231C139.279 295.283 139.442 295.371 139.583 295.488C139.723 295.604 139.84 295.749 139.923 295.912C140.007 296.074 140.057 296.252 140.07 296.435C140.084 296.618 140.06 296.801 140 296.974C139.59 298.359 140.769 298.41 141.462 298.718C144.122 299.997 147.135 300.347 150.017 299.71C152.9 299.073 155.485 297.487 157.358 295.205C157.896 294.59 158.358 293.949 158.896 293.359C159 293.187 159.139 293.039 159.304 292.923C159.468 292.808 159.655 292.729 159.853 292.69C160.05 292.652 160.253 292.655 160.449 292.701C160.645 292.746 160.83 292.832 160.99 292.953C161.151 293.074 161.284 293.227 161.382 293.403C161.479 293.578 161.539 293.773 161.557 293.973C161.574 294.173 161.55 294.375 161.485 294.565C161.419 294.756 161.315 294.93 161.178 295.077C160.404 296.127 159.547 297.113 158.614 298.026C157.743 298.923 157.999 299.308 159.025 299.667C161.333 300.361 163.761 300.562 166.152 300.256C166.219 300.144 166.271 300.023 166.306 299.897H167.588C167.734 299.786 167.856 299.646 167.947 299.487L169.537 298.949C170.203 298.359 170.46 297.769 169.537 297.231V297.026C169.537 296.692 169.306 296.487 168.973 296.539C169.17 296.335 169.319 296.09 169.408 295.821C170.331 294.308 171.024 295.539 171.613 296.103C173.011 297.735 174.766 299.025 176.741 299.872C177.202 299.992 177.675 300.061 178.151 300.077H180.715C181.081 300.047 181.442 299.978 181.792 299.872C183.075 299.563 184.274 298.977 185.305 298.154C185.766 297.154 185.074 296.513 184.561 295.846C183.674 294.83 182.94 293.69 182.382 292.462C182.151 291.898 181.843 291.18 182.664 290.847C183.484 290.513 183.638 291.154 183.946 291.616C184.253 292.077 184.766 293.641 186.022 293.898C186.022 294.334 186.023 294.641 186.535 294.667C186.519 294.905 186.551 295.144 186.631 295.369C186.71 295.594 186.834 295.8 186.997 295.975C188.666 297.699 190.765 298.945 193.078 299.585C195.39 300.226 197.832 300.236 200.15 299.615C200.791 299.461 201.714 299.103 201.919 300.102C202.124 301.102 201.227 301.077 200.611 301.205C199.857 301.308 199.158 301.658 198.624 302.201C198.09 302.744 197.752 303.449 197.663 304.205C197.58 304.79 197.669 305.387 197.919 305.923C197.969 306.022 198.041 306.108 198.13 306.175C198.219 306.242 198.323 306.287 198.432 306.307H198.637C198.599 306.441 198.599 306.583 198.637 306.717L199.355 307.025C199.341 307.11 199.341 307.197 199.355 307.281C199.445 307.717 199.658 308.118 199.97 308.435C202.534 310.999 202.842 311.563 201.098 313.178C201.131 312.75 201.013 312.324 200.765 311.973C200.278 311.486 199.996 310.589 199.073 311.025L198.534 310.486C197.467 309.218 195.97 308.388 194.329 308.153C193.842 308.025 193.253 308.153 192.868 307.615C192.573 307.376 192.232 307.2 191.865 307.099C191.499 306.997 191.116 306.972 190.74 307.025C190.24 307.027 189.744 307.122 189.279 307.307C189.163 307.351 189.063 307.428 188.99 307.528C188.917 307.628 188.875 307.748 188.869 307.871V308.025C187.587 307.384 186.51 307.384 186.074 309.076C187.228 310.025 188.638 310.82 188.92 312.409L188.715 312.589C186.664 314.025 185.971 311.871 184.74 311.102C184.434 310.885 184.064 310.777 183.689 310.794C183.689 310.256 183.253 310.025 182.869 309.717C182.6 309.529 182.274 309.438 181.946 309.461V309.461L181.792 309.204C181.602 308.996 181.367 308.832 181.105 308.726C180.844 308.619 180.561 308.572 180.279 308.589C179.997 307.897 179.177 308.025 178.562 307.82C178.338 307.809 178.119 307.882 177.946 308.025H177.767L177.408 307.769C177.167 307.666 176.905 307.626 176.644 307.653C176.384 307.68 176.135 307.772 175.921 307.922C175.921 307.922 175.921 307.922 175.921 308.076H174.613C174.613 308.076 174.613 308.076 174.613 307.922C174.432 307.839 174.235 307.797 174.036 307.797C173.837 307.797 173.641 307.839 173.46 307.922L173.254 308.179C172.152 308.179 170.844 308.051 170.87 309.768C170.306 309.974 170.024 310.486 169.639 310.871L168.742 310.512L167.947 310.307V309.974L166.485 309.512L165.998 308.974L164.563 308.615C163.623 308.08 162.577 307.762 161.499 307.682C160.422 307.602 159.34 307.763 158.332 308.153L156.486 308.589L155.384 309.435L153.589 310.563V310.948L152.153 312.025L150.282 314.794C149.82 315.101 149.41 315.383 149.615 315.896C149.305 316.09 148.957 316.216 148.594 316.265C148.232 316.313 147.863 316.284 147.513 316.178C147.477 315.669 147.319 315.177 147.051 314.742H147.23L147.384 313.948H147.795C148.846 312.82 150.154 311.871 150.359 310.127C149.584 309.319 148.549 308.81 147.436 308.692V308.692C147.31 308.657 147.177 308.657 147.051 308.692V308.692L146 308.256H144.616L143.59 308.717C143.255 308.658 142.912 308.673 142.584 308.762C142.256 308.85 141.952 309.01 141.693 309.23C141.139 309.26 140.606 309.447 140.154 309.768H139.693C139.462 309.836 139.25 309.96 139.077 310.127C138.974 310.295 138.897 310.476 138.847 310.666L137.898 311.127C137.898 311.281 137.898 311.409 137.898 311.538C137.834 312.203 137.834 312.872 137.898 313.537C137.798 313.686 137.659 313.805 137.496 313.882C137.334 313.959 137.154 313.99 136.975 313.973C136.791 313.839 136.581 313.743 136.359 313.691H136C136.003 313.485 135.958 313.28 135.869 313.094C135.78 312.907 135.65 312.743 135.488 312.614C135.298 312.447 135.071 312.326 134.826 312.264C134.581 312.202 134.324 312.199 134.078 312.255C134.152 312.075 134.152 311.872 134.078 311.691C133.925 311.518 133.735 311.381 133.522 311.292C133.309 311.203 133.078 311.164 132.847 311.179V311.179L132.18 310.589C131.922 310.095 131.496 309.71 130.979 309.503C130.462 309.296 129.887 309.281 129.36 309.461H128.924H128.77L128.924 309.281C128.668 308.538 128.027 308.538 127.412 308.461C127.151 308.446 126.89 308.491 126.65 308.593C126.41 308.696 126.197 308.852 126.027 309.051L125.027 309.512L123.566 309.845L123.079 310.358C119.797 312.409 119.771 312.614 122.617 315.05L124.514 316.768C124.511 316.919 124.566 317.066 124.668 317.178V317.178C124.668 317.665 124.668 318.152 124.668 318.614L124.207 319.127L122.335 318.896C121.742 317.902 120.842 317.128 119.771 316.691V316.691C118.108 315.181 116.024 314.215 113.797 313.922C111.087 313.475 108.308 314.081 106.03 315.616C103.752 317.151 102.146 319.498 101.542 322.178C100.388 327.306 102.875 330.895 109.054 332.715C109.644 332.895 110.285 332.997 110.9 333.126C111.342 333.161 111.769 333.303 112.144 333.54C112.519 333.777 112.831 334.101 113.054 334.485V334.997L112.002 336.254C109.123 336.086 106.33 335.205 103.875 333.69C102.593 332.895 102.003 333.074 101.311 334.331C98.747 338.792 99.6701 342.381 104.644 345.33C106.9 346.689 109.413 347.612 111.72 348.842C112.404 349.153 113.001 349.629 113.455 350.227C113.91 350.825 114.21 351.526 114.326 352.268C114.443 353.01 114.374 353.77 114.125 354.478C113.876 355.187 113.455 355.823 112.9 356.329C112.336 356.867 111.746 357.252 110.977 356.739C110.208 356.227 109.9 355.586 110.413 354.893C112.259 352.329 110.644 351.406 108.541 350.586C107.491 350.211 106.478 349.739 105.516 349.176C104.054 348.253 103.593 348.894 103.234 350.227C102.686 351.872 102.605 353.636 102.998 355.324C103.392 357.012 104.246 358.558 105.465 359.79C106.844 361.415 108.628 362.647 110.635 363.362C112.643 364.078 114.803 364.252 116.899 363.867L120.207 362.277C122.052 360.621 123.695 358.754 125.104 356.714H126.027C127.001 357.432 127.437 358.355 126.591 359.278C125.36 360.816 126.335 361.2 127.617 361.662C130.436 362.786 133.555 362.915 136.458 362.03C139.362 361.144 141.877 359.297 143.59 356.791C144.282 355.919 144.974 354.688 146.154 355.739C147.333 356.791 146.538 357.739 145.795 358.637C145.051 359.534 144.154 360.662 143.231 361.79C144.872 362.541 146.651 362.944 148.455 362.975C150.26 363.006 152.051 362.664 153.717 361.97C155.076 361.38 156.281 360.816 154.717 359.149C154.051 358.431 154.333 357.637 155.076 357.073C155.376 356.863 155.746 356.78 156.106 356.843C156.467 356.905 156.788 357.108 156.999 357.406C157.845 358.278 158.563 359.252 159.563 359.97C160.792 361.201 162.391 361.993 164.115 362.225C165.839 362.457 167.591 362.115 169.101 361.252C170.254 360.662 170.998 360.226 169.665 358.944C168.534 357.787 167.707 356.369 167.255 354.816C166.896 353.765 166.614 352.688 167.998 352.252C169.383 351.817 169.639 352.765 169.972 353.765C170.623 355.583 171.74 357.199 173.212 358.45C174.683 359.701 176.457 360.543 178.356 360.893C181.029 361.447 183.773 361.569 186.484 361.252C188.304 361.124 188.894 361.739 188.689 363.611C188.213 369.132 189.093 374.685 191.253 379.789C193.201 384.917 193.176 384.737 198.227 383.071C199.944 382.481 200.099 381.943 199.406 380.25C198.247 377.478 197.672 374.498 197.716 371.494C197.76 368.489 198.423 365.527 199.663 362.79L200.15 361.841L200.586 361.329C202.321 359.683 203.602 357.616 204.303 355.329C204.955 353.426 205.032 351.374 204.526 349.427C204.02 347.481 202.953 345.726 201.457 344.381C200.237 343.159 198.678 342.332 196.981 342.008C195.285 341.683 193.531 341.876 191.945 342.561C191.279 342.561 191.202 342.894 191.15 343.356C191.099 343.817 192.073 345.92 189.74 345.15C189.45 344.948 189.116 344.817 188.766 344.766C188.835 344.52 188.833 344.259 188.76 344.015C188.687 343.77 188.547 343.55 188.356 343.381C187.558 342.721 186.699 342.137 185.792 341.638C185.305 341.458 184.792 341.202 184.279 341.638C184.247 341.406 184.128 341.195 183.946 341.048C181.642 340.065 179.052 339.983 176.69 340.817C174.665 341.356 174.511 341.92 175.69 343.638C176.152 344.33 177.305 345.15 176.562 345.843C175.818 346.535 174.972 345.304 174.254 344.791C172.565 343.197 170.525 342.023 168.298 341.363C166.07 340.704 163.719 340.579 161.435 340.997C160.989 340.979 160.547 341.071 160.145 341.263C159.742 341.455 159.393 341.742 159.127 342.099C158.255 343.74 157.281 343.279 155.973 342.612C151.717 340.407 147.359 339.638 143.154 342.612C141.099 344.036 139.44 345.959 138.334 348.201C137.488 349.817 136.565 349.842 135.539 348.355C136.231 348.355 136.257 347.996 136.026 347.509H136.308C137.36 346.971 137.795 345.868 138.488 344.945C139.462 343.689 139.18 342.715 137.795 342.074C136.09 341.169 134.128 340.871 132.232 341.228C129.254 341.881 126.518 343.356 124.335 345.484C123.848 345.92 123.412 346.894 122.617 346.279C121.822 345.663 122.617 345.099 122.822 344.535C123.666 342.813 124.237 340.971 124.514 339.074C124.574 338.725 124.546 338.368 124.434 338.032C124.322 337.697 124.13 337.394 123.873 337.151H123.54C123.646 337.033 123.728 336.895 123.781 336.746C123.834 336.596 123.856 336.438 123.848 336.279C123.617 335.356 123.566 334.382 122.489 333.972L120.976 332.485C120.927 332.213 120.849 331.946 120.745 331.69C120.438 331.254 120.156 330.818 119.617 331.075C119.104 330.228 118.694 330.536 118.284 331.075C116.412 329.562 116.464 329.434 118.771 328.382C119.745 327.947 120.95 327.741 121.207 326.408C121.342 326.433 121.482 326.408 121.6 326.337C121.718 326.266 121.806 326.155 121.848 326.024C121.991 326.062 122.141 326.062 122.284 326.024C122.608 325.682 123.012 325.428 123.46 325.284C123.909 325.141 124.386 325.113 124.848 325.203C124.827 325.238 124.817 325.278 124.817 325.319C124.817 325.359 124.827 325.399 124.848 325.434C124.924 326.014 124.823 326.604 124.557 327.126C124.292 327.648 123.875 328.077 123.361 328.357C122.54 328.895 122.335 329.459 122.95 330.254C123.01 330.564 123.15 330.853 123.357 331.092C123.565 331.331 123.831 331.51 124.13 331.613C124.964 331.88 125.86 331.88 126.694 331.613C126.924 331.433 127.155 331.305 127.386 331.151H128.694L130.36 330.485H130.975H131.642C133.228 329.939 134.624 328.952 135.667 327.639C135.901 327.384 136.045 327.06 136.077 326.716C136.279 326.614 136.455 326.465 136.588 326.283C136.722 326.1 136.811 325.888 136.847 325.665V325.665C136.939 325.69 137.036 325.69 137.129 325.665C138.308 324.383 139 325.383 139.693 326.075C139.231 326.075 139.026 326.331 138.923 326.716C138.895 327.009 138.978 327.301 139.154 327.536V327.536C138.987 327.628 138.857 327.776 138.786 327.954C138.716 328.132 138.71 328.329 138.77 328.511C138.744 328.663 138.744 328.819 138.77 328.972C140.076 329.997 141.674 330.58 143.334 330.639C144.564 330.639 145.897 330.946 146.923 329.921L147.051 330.177C147.395 330.327 147.779 330.352 148.139 330.249C148.499 330.146 148.813 329.921 149.025 329.613V329.613C151.282 329.613 152.666 328.075 154.153 326.895C154.512 326.434 154.999 326.049 154.948 325.408H155.179C155.589 325.219 155.951 324.938 156.235 324.587C156.52 324.236 156.72 323.824 156.82 323.383C157.074 323.479 157.349 323.509 157.619 323.468C157.888 323.428 158.143 323.319 158.358 323.152C158.395 323.211 158.443 323.262 158.501 323.302C158.558 323.341 158.623 323.369 158.691 323.383C158.832 323.813 158.866 324.272 158.79 324.719C158.714 325.165 158.53 325.587 158.255 325.947L157.717 326.126C157.217 326.412 156.788 326.806 156.461 327.28C155.999 328.1 154.615 328.69 155.82 329.844C156.113 330.055 156.456 330.188 156.815 330.228C157.174 330.269 157.538 330.216 157.871 330.075V330.075C157.981 330.354 158.191 330.583 158.46 330.716C158.919 330.889 159.406 330.976 159.896 330.972C160.833 331.045 161.775 330.976 162.691 330.767C163.434 330.408 164.127 329.87 165.024 330.126C165.458 330.103 165.885 329.998 166.28 329.818C166.998 329.434 167.793 329.152 168.101 328.305C168.101 327.895 168.101 327.485 167.639 327.485C167.501 326.697 167.286 325.924 166.998 325.177H167.152C167.599 324.955 168.006 324.661 168.357 324.306C168.357 324.767 168.69 324.819 169.101 324.69C168.87 325.613 169.434 326.203 170.049 326.793C170.408 327.069 170.854 327.205 171.306 327.177C171.735 327.807 172.369 328.269 173.101 328.485V328.485L174.203 329.331C175.711 329.843 177.323 329.975 178.895 329.716C179.522 329.772 180.153 329.683 180.739 329.456C181.326 329.23 181.853 328.871 182.279 328.408C182.279 328.408 182.279 328.28 182.279 328.229C182.638 328.1 182.869 327.895 182.792 327.459C182.777 327.314 182.777 327.168 182.792 327.024C182.077 326.593 181.54 325.919 181.279 325.126H181.023C181.093 324.746 181.077 324.355 180.975 323.982C180.873 323.609 180.688 323.264 180.433 322.973C180.097 322.575 179.912 322.071 179.912 321.55C179.912 321.029 180.097 320.525 180.433 320.127V320.127C181.843 321.511 182.305 323.614 183.997 324.793L184.51 324.947C184.51 325.818 185.176 326.331 185.792 326.87C186.671 327.603 187.615 328.255 188.612 328.818C189.316 329.202 190.132 329.329 190.92 329.177L191.099 329.331C191.258 329.492 191.467 329.592 191.691 329.616C191.916 329.639 192.142 329.584 192.33 329.459L192.766 329.305C194.194 329.511 195.645 329.511 197.073 329.305C197.304 328.229 197.688 327.331 199.047 327.434H199.406C199.446 327.566 199.498 327.695 199.56 327.818C201.516 328.718 203.55 329.439 205.636 329.972C206.939 330.334 208.309 330.379 209.633 330.105C210.956 329.83 212.195 329.243 213.246 328.393C214.297 327.543 215.13 326.453 215.675 325.216C216.22 323.979 216.461 322.63 216.379 321.28C216.369 318.477 215.856 315.698 214.866 313.076C214.61 312.307 214.251 311.538 214.866 310.871C214.996 310.715 215.159 310.589 215.343 310.503C215.527 310.417 215.727 310.372 215.931 310.372C216.134 310.372 216.334 310.417 216.518 310.503C216.702 310.589 216.865 310.715 216.995 310.871C217.533 311.512 217.815 311.332 218.302 310.871C219.241 309.867 219.946 308.668 220.367 307.359C220.787 306.05 220.912 304.664 220.734 303.301C220.555 301.938 220.076 300.632 219.332 299.476C218.588 298.32 217.597 297.343 216.431 296.616V296.616ZM124.412 324.46C124.412 324.46 124.463 324.434 124.412 324.46V324.46Z" fill="#DE7878"/>
<path d="M197.929 148.272C197.606 144.695 197.121 144.234 193.706 144.026C192.945 144.026 192.16 144.026 191.399 144.026C187.337 144.141 186.991 144.603 186.045 148.641C184.13 156.671 182.353 164.794 179.976 172.663C174.761 189.923 179.976 205.199 194.814 214.821C204.441 220.785 215.399 224.266 226.704 224.951C228.422 225.214 230.176 225.118 231.855 224.67C233.534 224.222 235.103 223.431 236.462 222.347C237.821 221.263 238.94 219.91 239.751 218.373C240.562 216.836 241.046 215.147 241.172 213.414C242.102 206.832 242.273 200.166 241.68 193.546C240.549 181.27 236.696 169.87 227.65 160.848C227.293 160.411 226.969 159.949 226.681 159.464C227.494 159.257 228.319 159.095 229.15 158.979C233.511 158.494 234.134 157.941 234.411 153.556C234.473 152.111 234.372 150.664 234.111 149.241C234.096 148.809 233.996 148.384 233.816 147.99C233.636 147.597 233.38 147.243 233.062 146.949C232.745 146.655 232.372 146.427 231.966 146.278C231.56 146.129 231.128 146.061 230.696 146.08H220.981C221.512 143.772 221.858 141.765 222.527 139.803C222.707 139.46 222.804 139.079 222.81 138.691C222.817 138.303 222.732 137.919 222.564 137.57C222.396 137.22 222.149 136.914 221.842 136.677C221.535 136.44 221.177 136.278 220.797 136.204C220.443 135.994 220.045 135.869 219.634 135.839C219.224 135.809 218.812 135.875 218.432 136.032C218.051 136.189 217.713 136.431 217.442 136.742C217.172 137.052 216.977 137.421 216.874 137.819C216.631 138.408 216.346 138.979 216.02 139.526C215.743 136.965 216.02 134.265 212.443 133.988C207.828 133.642 208.82 137.311 208.244 140.472L207.159 137.727C207.061 137.221 206.841 136.747 206.517 136.347C206.192 135.947 205.775 135.632 205.301 135.432C204.826 135.231 204.31 135.15 203.797 135.196C203.284 135.242 202.79 135.414 202.359 135.696C201.881 135.803 201.435 136.022 201.059 136.337C200.683 136.651 200.388 137.051 200.198 137.503C200.009 137.955 199.93 138.445 199.968 138.934C200.007 139.423 200.162 139.895 200.421 140.311C202.221 144.718 202.221 144.718 197.929 148.272Z" fill="white"/>
<path d="M197.929 148.272C202.221 144.718 202.221 144.718 200.421 140.334C200.162 139.918 200.007 139.446 199.968 138.957C199.93 138.468 200.008 137.978 200.198 137.526C200.388 137.074 200.683 136.674 201.059 136.36C201.435 136.045 201.881 135.826 202.359 135.719C202.79 135.437 203.284 135.265 203.797 135.219C204.31 135.173 204.826 135.254 205.3 135.455C205.775 135.655 206.192 135.97 206.516 136.37C206.841 136.77 207.061 137.244 207.159 137.75L208.243 140.496C208.82 137.334 207.897 133.573 212.443 134.011C216.066 134.288 215.743 136.988 216.02 139.549C216.346 139.002 216.631 138.431 216.874 137.842C216.977 137.444 217.172 137.075 217.442 136.765C217.712 136.455 218.051 136.211 218.432 136.055C218.812 135.898 219.224 135.832 219.634 135.862C220.045 135.892 220.443 136.017 220.796 136.227C221.177 136.301 221.535 136.463 221.842 136.7C222.149 136.938 222.396 137.243 222.564 137.593C222.732 137.942 222.816 138.326 222.81 138.714C222.804 139.102 222.707 139.483 222.527 139.826C221.858 141.788 221.512 143.888 220.981 146.103H230.696C231.128 146.084 231.56 146.152 231.966 146.301C232.372 146.45 232.745 146.678 233.062 146.972C233.38 147.266 233.636 147.62 233.816 148.013C233.996 148.407 234.096 148.832 234.111 149.264C234.372 150.687 234.473 152.134 234.411 153.579C234.134 157.964 233.511 158.517 229.15 159.002C228.318 159.118 227.494 159.28 226.681 159.486C226.969 159.972 227.293 160.434 227.65 160.871C236.695 169.893 240.549 181.293 241.68 193.569C242.273 200.189 242.102 206.855 241.172 213.437C241.045 215.17 240.562 216.859 239.751 218.396C238.94 219.933 237.82 221.287 236.462 222.37C235.103 223.454 233.534 224.245 231.855 224.693C230.176 225.141 228.422 225.237 226.704 224.974C215.405 224.247 204.463 220.726 194.86 214.729C179.953 205.106 174.807 189.831 180.022 172.57C182.33 164.678 184.176 156.579 186.091 148.549C187.037 144.58 187.383 144.118 191.445 143.934C192.206 143.934 192.991 143.934 193.752 143.934C197.167 144.234 197.606 144.695 197.929 148.272ZM197.375 172.893C200.998 174.209 204.297 175.201 207.482 176.655C209.539 177.583 211.725 178.19 213.966 178.454C216.564 179.083 219.075 180.029 221.443 181.27C221.766 181.408 221.673 182.493 221.789 183.139C221.193 183.076 220.605 182.952 220.035 182.769C218.073 181.893 216.158 180.923 214.243 180L213.828 180.716C214.266 181.2 214.751 181.639 215.143 182.146C217.866 185.654 220.496 189.207 223.265 192.646C224.095 193.759 225.148 194.687 226.358 195.369C229.302 196.414 231.763 198.498 233.28 201.23C233.534 201.83 233.165 202.684 233.096 203.422C232.542 203.03 231.78 202.776 231.48 202.245C230.347 200.132 228.435 198.543 226.15 197.815C227.027 201.345 227.927 204.622 228.573 207.945C228.734 208.798 228.134 209.791 227.904 210.737C227.386 210.015 226.945 209.242 226.588 208.429C225.873 205.983 225.481 203.399 224.604 201.022C223.496 197.976 221.996 195.046 220.681 192.092L219.735 192.346C219.735 194.999 219.735 197.676 219.735 200.33C219.662 201.169 219.531 202.001 219.343 202.822C218.766 202.13 217.681 201.437 217.681 200.722C217.565 197.599 217.727 194.471 218.166 191.377C218.42 189.877 218.512 188.769 217.381 187.731C214.803 185.023 212.043 182.494 209.12 180.162C206.285 178.458 203.313 176.992 200.236 175.778C201.421 178.556 202.841 181.227 204.482 183.762C205.196 184.961 206.109 186.03 207.182 186.923C208.532 187.905 209.666 189.152 210.515 190.589C211.364 192.026 211.91 193.621 212.12 195.276C212.12 195.876 211.543 196.615 211.22 197.284C210.793 196.749 210.415 196.178 210.089 195.576C209.189 193.569 208.336 191.515 207.459 189.461L206.674 189.784C206.674 190.315 206.859 190.869 206.905 191.423C207.136 195.161 207.413 198.899 207.505 202.637C207.505 203.122 206.697 203.63 206.236 204.137C205.902 203.63 205.659 203.067 205.521 202.476C205.521 201.207 205.521 199.915 205.521 198.622C205.443 193.51 204.246 188.477 202.013 183.877C200.127 186.368 199.026 189.365 198.852 192.484C198.852 193.223 198.16 193.915 197.813 194.653C197.364 193.946 197.044 193.165 196.867 192.346C196.894 188.486 198.284 184.759 200.79 181.823C196.406 174.647 195.16 174.785 188.606 177.047C186.224 177.957 184.05 179.338 182.215 181.108C181.071 182.307 180.407 183.883 180.345 185.539C180.138 197.584 186.068 206.306 195.737 212.814C204.683 218.406 214.83 221.791 225.342 222.69C233.326 223.682 238.172 220.105 239.418 212.075C240.723 203.441 240.418 194.639 238.518 186.115C238.18 184.476 237.449 182.944 236.388 181.65C235.327 180.355 233.967 179.338 232.426 178.685C230.119 177.601 227.673 176.77 225.365 175.662C223.354 174.766 221.716 173.199 220.731 171.23C219.746 169.26 219.476 167.01 219.966 164.863C220.424 162.809 221.506 160.946 223.063 159.529C224.62 158.113 226.577 157.211 228.665 156.948C232.15 156.556 232.311 156.394 232.357 152.956C232.357 152.195 232.357 151.41 232.242 150.649C232.242 149.033 231.434 147.972 229.703 148.18C226.153 148.255 222.626 148.774 219.204 149.726C208.197 153.856 202.175 162.879 197.375 172.893V172.893ZM180.876 177.901C184.522 176.516 188.122 174.855 191.883 173.839C195.644 172.824 195.806 172.778 195.737 169.224C195.737 168.209 195.46 167.194 195.437 166.178C195.437 162.094 195.252 158.033 195.275 153.948C195.275 151.941 195.575 149.91 195.621 147.88C195.627 147.601 195.573 147.325 195.461 147.07C195.35 146.815 195.184 146.587 194.975 146.403C194.335 146.053 193.624 145.854 192.895 145.822C192.167 145.79 191.441 145.925 190.773 146.217C190.104 146.508 189.512 146.949 189.04 147.506C188.569 148.062 188.231 148.719 188.052 149.426C186.137 157.364 184.084 165.278 182.076 173.216C181.661 174.947 181.199 176.655 180.876 177.901V177.901ZM219.62 137.75C218.877 139.209 218.028 140.613 217.081 141.949C216.789 142.27 216.432 142.526 216.035 142.701C215.637 142.876 215.208 142.965 214.774 142.965C214.312 142.965 213.782 141.742 213.597 141.003C213.412 140.265 213.597 139.111 213.458 138.211C213.153 137.478 212.741 136.793 212.236 136.18C211.633 136.787 211.134 137.489 210.759 138.257C210.459 139.296 210.759 140.565 210.412 141.534C210.066 142.503 209.536 143.426 208.89 143.565C208.243 143.703 207.228 142.895 206.744 142.226C206.197 141.272 205.764 140.258 205.451 139.203C204.575 136.896 204.205 136.896 202.198 138.649C203.836 143.565 205.636 144.118 200.121 149.587C196.452 153.21 195.737 161.471 198.159 166.409C203.375 157.94 209.697 150.695 218.927 147.003C219.135 145.295 219.389 143.795 219.481 142.272C219.573 140.749 221.119 139.573 219.62 137.75V137.75ZM224.696 161.033C223.692 161.798 222.902 162.809 222.403 163.968C221.904 165.128 221.712 166.396 221.847 167.652C221.982 168.907 222.438 170.106 223.171 171.133C223.905 172.161 224.891 172.982 226.035 173.516C229.127 175.062 232.334 176.285 235.749 177.739C233.631 171.279 229.813 165.508 224.696 161.033V161.033Z" fill="#3F2222"/>
<path d="M197.375 172.893C202.174 162.879 208.197 153.856 219.135 149.633C222.556 148.682 226.083 148.163 229.634 148.087C231.365 147.88 232.103 148.941 232.172 150.556C232.172 151.318 232.288 152.103 232.288 152.864C232.288 156.302 232.08 156.464 228.596 156.856C226.507 157.119 224.551 158.021 222.994 159.437C221.437 160.854 220.355 162.716 219.896 164.771C219.406 166.918 219.677 169.168 220.662 171.138C221.646 173.107 223.284 174.674 225.296 175.57C227.603 176.678 229.911 177.508 232.357 178.593C233.898 179.246 235.257 180.263 236.318 181.557C237.38 182.852 238.111 184.384 238.449 186.023C240.349 194.547 240.654 203.348 239.349 211.983C238.103 220.013 233.257 223.521 225.273 222.598C214.755 221.678 204.607 218.269 195.667 212.652C185.998 206.191 180.068 197.422 180.276 185.377C180.337 183.722 181.002 182.146 182.145 180.947C183.98 179.177 186.155 177.795 188.537 176.885C195.09 174.578 196.336 174.578 200.721 181.662C198.214 184.598 196.825 188.324 196.798 192.184C196.974 193.003 197.294 193.785 197.744 194.492C198.09 193.754 198.736 193.061 198.782 192.323C198.957 189.203 200.058 186.207 201.944 183.716C204.176 188.315 205.374 193.349 205.451 198.461C205.451 199.753 205.313 201.045 205.451 202.314C205.59 202.906 205.832 203.468 206.166 203.976C206.628 203.468 207.459 202.961 207.436 202.476C207.436 198.738 207.066 195 206.836 191.261C206.836 190.708 206.674 190.154 206.605 189.623L207.389 189.3C208.266 191.354 209.12 193.407 210.02 195.415C210.345 196.017 210.724 196.588 211.151 197.122C211.474 196.453 212.143 195.715 212.051 195.115C211.841 193.459 211.295 191.864 210.445 190.428C209.596 188.991 208.462 187.743 207.112 186.762C206.039 185.869 205.126 184.8 204.413 183.6C202.772 181.065 201.351 178.394 200.167 175.616C203.244 176.83 206.215 178.297 209.051 180.001C211.973 182.333 214.733 184.862 217.312 187.569C218.442 188.608 218.35 189.715 218.096 191.215C217.658 194.31 217.496 197.437 217.612 200.561C217.612 201.276 218.696 201.968 219.273 202.661C219.462 201.84 219.593 201.007 219.665 200.168C219.665 197.515 219.665 194.838 219.665 192.184L220.611 191.931C221.927 194.884 223.427 197.815 224.534 200.861C225.411 203.168 225.803 205.822 226.519 208.268C226.876 209.081 227.317 209.854 227.834 210.575C228.065 209.629 228.665 208.637 228.503 207.783C227.857 204.461 226.957 201.184 226.08 197.653C228.365 198.382 230.277 199.971 231.411 202.084C231.711 202.614 232.472 202.868 233.026 203.261C233.026 202.522 233.464 201.668 233.211 201.068C231.694 198.337 229.232 196.253 226.288 195.207C225.079 194.525 224.025 193.598 223.196 192.484C220.427 189.046 217.796 185.562 215.073 181.985C214.681 181.477 214.197 181.039 213.758 180.554L214.173 179.839C216.089 180.762 218.004 181.731 219.965 182.608C220.536 182.791 221.123 182.915 221.719 182.977C221.719 182.331 221.719 181.247 221.373 181.108C219.005 179.868 216.494 178.922 213.897 178.293C211.656 178.028 209.469 177.421 207.412 176.493C204.39 175.155 200.998 174.209 197.375 172.893Z" fill="#CF3B3B"/>
<path d="M180.877 177.901C181.2 176.655 181.662 174.947 182.077 173.286C184.084 165.348 186.138 157.433 188.053 149.495C188.232 148.788 188.57 148.131 189.041 147.575C189.513 147.019 190.105 146.578 190.773 146.286C191.442 145.994 192.168 145.859 192.896 145.891C193.625 145.924 194.336 146.122 194.976 146.472C195.185 146.656 195.35 146.884 195.462 147.139C195.574 147.394 195.628 147.671 195.622 147.949C195.622 149.979 195.299 152.01 195.276 154.018C195.276 158.102 195.276 162.163 195.437 166.248C195.437 167.263 195.714 168.278 195.737 169.294C195.737 172.824 195.322 172.963 191.884 173.909C188.446 174.855 184.523 176.516 180.877 177.901Z" fill="#4D6CDF"/>
<path d="M219.62 137.75C221.12 139.573 219.62 140.888 219.505 142.365C219.389 143.842 219.158 145.388 218.951 147.095C209.721 150.787 203.352 158.033 198.183 166.502C195.875 161.563 196.475 153.302 200.144 149.68C205.659 144.211 203.859 143.657 202.221 138.742C204.229 136.896 204.529 136.965 205.475 139.296C205.787 140.35 206.221 141.364 206.767 142.319C207.251 142.988 208.29 143.772 208.913 143.657C209.536 143.542 210.205 142.411 210.436 141.626C210.667 140.842 210.436 139.319 210.782 138.35C211.157 137.581 211.656 136.879 212.259 136.273C212.764 136.886 213.176 137.57 213.482 138.303C213.69 139.203 213.482 140.196 213.62 141.096C213.759 141.996 214.336 143.011 214.797 143.057C215.231 143.058 215.661 142.968 216.058 142.793C216.456 142.618 216.812 142.362 217.105 142.042C218.048 140.675 218.888 139.24 219.62 137.75V137.75Z" fill="#C71919"/>
<path d="M224.697 161.033C229.814 165.508 233.632 171.279 235.75 177.739C232.334 176.285 229.127 175.062 226.035 173.516C224.891 172.982 223.905 172.161 223.172 171.133C222.438 170.106 221.982 168.907 221.847 167.652C221.713 166.396 221.904 165.128 222.404 163.968C222.903 162.809 223.692 161.798 224.697 161.033Z" fill="#4D6CDF"/>
<path d="M49.7663 166.64C51.9055 164.934 54.3682 163.681 57.0057 162.955C60.1158 162.092 63.1737 160.968 66.3622 160.341H66.8326C68.4901 160.255 70.1487 160.486 71.7199 161.021C76.5778 162.674 80.618 166.125 83.0104 170.664C84.8105 173.902 85.9895 177.448 86.4864 181.119C86.8574 183.285 87.0323 185.481 87.0092 187.679C86.9648 191.868 85.9541 195.992 84.0559 199.727C83.1212 201.891 81.8117 203.873 80.1877 205.581C79.8207 205.986 79.3513 206.284 78.8288 206.444C77.2531 206.832 75.714 207.357 74.229 208.012C73.7534 208.223 73.2527 208.372 72.7392 208.456C71.469 208.641 70.2778 209.184 69.3056 210.022C68.3334 210.86 67.6205 211.958 67.2507 213.187C66.2278 215.611 64.4972 217.669 62.2851 219.093C60.572 220.118 58.6099 220.652 56.6138 220.635C55.7252 220.635 54.8366 220.635 54.0002 220.635C53.5181 220.675 53.0331 220.607 52.5808 220.435C52.1286 220.263 51.7206 219.992 51.3867 219.642C49.1559 217.526 47.5086 214.871 46.6039 211.932C45.7153 209.475 44.6176 207.071 43.5461 204.719C42.8927 203.334 41.795 202.105 41.0632 200.851C39.6759 198.296 38.8641 195.468 38.6848 192.566C38.4638 186.361 39.7933 180.199 42.5529 174.637C44.1491 171.562 46.4729 168.924 49.3219 166.953C49.531 166.927 49.714 166.823 49.7663 166.64Z" fill="#D44C4C"/>
<path d="M49.7655 166.64C49.379 167.272 48.8622 167.816 48.2496 168.234C44.828 170.985 42.3591 174.743 41.193 178.975C40.2653 181.615 39.5914 184.336 39.1805 187.103C38.5495 191.171 39.0281 195.334 40.5658 199.152C41.3818 200.836 42.3437 202.445 43.4406 203.961C44.2467 205.256 44.8959 206.642 45.3746 208.09C46.42 210.573 47.3086 213.134 48.4847 215.565C49.4634 217.427 50.8696 219.03 52.588 220.243C52.7157 220.341 52.8714 220.396 53.0324 220.4C56.0495 220.775 59.1118 220.323 61.8922 219.093C63.4295 218.167 64.756 216.93 65.7863 215.46C66.3361 214.574 66.8 213.638 67.1716 212.664C67.961 211.094 69.1398 209.754 70.5953 208.77C70.878 208.565 71.2139 208.447 71.5623 208.43C73.2621 208.181 74.9065 207.642 76.4234 206.836L76.6849 206.705C77.9349 206.576 79.1252 206.105 80.1255 205.345C81.1258 204.584 81.8976 203.563 82.3562 202.393C83.6754 200.286 84.7206 198.021 85.4663 195.65C86.596 191.794 86.9514 187.752 86.5118 183.758C86.2534 181.099 85.7279 178.472 84.9436 175.918C84.1066 172.881 82.6253 170.06 80.6004 167.647C78.5754 165.234 76.0543 163.286 73.2088 161.935C71.4232 161.088 69.4858 160.608 67.5113 160.524C67.3851 160.549 67.255 160.548 67.1291 160.521C67.0033 160.494 66.8842 160.442 66.7795 160.367C70.7747 159.632 74.9006 160.21 78.5404 162.014C78.5404 162.014 78.7234 162.014 78.828 162.014C79.6367 162.197 80.3732 162.615 80.9449 163.216C82.2575 164.169 83.3531 165.389 84.1595 166.796C84.1595 166.796 84.1595 166.587 84.1595 166.796C83.8237 166.296 83.6587 165.7 83.6891 165.098C83.6226 163.825 83.7818 162.551 84.1595 161.334C84.1595 161.125 84.3424 160.916 84.6038 160.89C84.6753 160.909 84.7416 160.944 84.7979 160.992C84.8542 161.04 84.899 161.1 84.929 161.168C84.9591 161.235 84.9736 161.309 84.9716 161.383C84.9696 161.457 84.9511 161.53 84.9174 161.595C84.5773 163.774 84.6304 165.996 85.0742 168.155C85.3684 171.755 86.4767 175.24 88.3151 178.348C88.7856 179.106 89.1513 179.942 89.6479 180.648C90.432 182.025 91.5384 183.191 92.8721 184.047C94.2058 184.903 95.727 185.423 97.3055 185.561C98.2199 185.513 99.1124 185.263 99.9191 184.83C105.249 182.628 109.96 179.155 113.64 174.715C116.225 171.383 118.263 167.66 119.678 163.686C120.795 160.437 121.669 157.108 122.291 153.729C122.683 151.925 123.075 150.122 123.31 148.292C123.446 147.488 123.408 146.665 123.201 145.876C122.994 145.088 122.621 144.352 122.108 143.719C121.892 143.38 121.604 143.092 121.266 142.876C120.928 142.659 120.546 142.519 120.148 142.464C119.913 142.464 119.599 142.464 119.625 142.046C121.525 141.849 123.437 142.293 125.056 143.306C126.675 144.319 127.91 145.844 128.563 147.639C130.142 151.446 130.718 155.594 130.236 159.688C130.175 160.773 130.009 161.849 129.74 162.902C128.261 167.104 126.269 171.107 123.807 174.82C123.031 176.14 122.65 177.655 122.709 179.184C119.925 183.585 116.386 187.461 112.255 190.632C109.862 192.512 107.059 193.801 104.075 194.395C102.348 194.729 100.574 194.729 98.8476 194.395C98.4556 194.683 98.0635 194.395 97.6715 194.395C95.9297 193.863 94.3185 192.973 92.941 191.782C92.941 193.481 92.941 195.022 92.941 196.564C92.941 197.009 92.941 197.479 92.6535 197.819C92.2301 202.527 90.5613 207.037 87.8185 210.887C84.417 215.777 79.3864 219.297 73.6269 220.818C73.4181 220.862 73.2291 220.973 73.0879 221.133C72.9467 221.293 72.8607 221.494 72.8429 221.707C71.6065 226.718 68.4535 231.044 64.0614 233.755C63.4372 234.189 62.7495 234.524 62.0228 234.748C60.0696 235.305 58.0413 235.552 56.0117 235.48C54.8724 235.427 53.7422 235.252 52.6403 234.957C51.0424 234.214 49.6297 233.125 48.5042 231.769C47.3787 230.413 46.5686 228.824 46.1326 227.117C44.7997 222.752 43.31 218.414 41.6634 214.049C40.0479 210.303 38.6346 206.473 37.4295 202.576C36.0224 198.028 35.6255 193.227 36.2665 188.51C36.9075 183.792 38.571 179.272 41.1407 175.264C43.4203 171.85 46.3513 168.919 49.7655 166.64V166.64Z" fill="#CA2626"/>
<path d="M119.835 141.968C120.566 142.022 121.268 142.278 121.864 142.707C122.459 143.136 122.923 143.721 123.206 144.398C123.838 145.733 124.021 147.237 123.729 148.685C123.034 153.291 121.977 157.835 120.566 162.275C118.891 167.957 115.839 173.137 111.68 177.355C108.642 180.403 105.05 182.843 101.095 184.542C100.625 184.725 100.181 184.987 99.7104 185.196C98.4938 185.723 97.1476 185.875 95.844 185.633C94.5404 185.391 93.3387 184.765 92.3925 183.837C91.3817 183.234 90.4947 182.445 89.779 181.511C87.613 178.34 86.0533 174.795 85.1791 171.056C84.67 168.595 84.3813 166.094 84.3166 163.582C84.3116 162.885 84.3994 162.191 84.5779 161.517C84.5779 161.256 84.7608 161.02 84.5779 160.811C84.395 160.602 84.5779 160.393 84.787 160.263C86.4644 156.788 89.3972 154.08 92.9936 152.683C100.024 149.678 107.081 146.751 113.902 143.484C115.731 142.516 117.765 141.996 119.835 141.968V141.968Z" fill="#D44C4C"/>
<path d="M93.0189 197.819C93.1372 195.535 93.076 193.246 92.8359 190.972C94.5787 192.706 96.783 193.904 99.1868 194.421C99.0712 194.854 98.8462 195.25 98.5334 195.571C97.6971 196.173 97.7232 196.852 97.9845 197.767C98.8761 200.872 99.609 204.021 100.18 207.202C100.376 207.697 100.376 208.248 100.18 208.744C100.008 208.501 99.7857 208.298 99.5275 208.151C99.2694 208.003 98.9821 207.913 98.6858 207.889C98.3894 207.864 98.0912 207.904 97.8121 208.006C97.5329 208.109 97.2796 208.271 97.0699 208.482C96.4687 208.979 96.8869 209.606 96.7039 210.129C95.9721 209.946 95.8676 209.345 95.7631 208.744C95.0836 205.215 94.3257 201.739 93.3325 198.289C93.228 198.133 93.2541 197.897 93.0189 197.819Z" fill="#D07E72"/>
<path d="M122.918 179.106C122.682 178.438 122.682 177.71 122.918 177.041C123.712 174.767 124.83 172.62 126.237 170.664C127.48 168.381 128.563 166.015 129.478 163.582C129.543 163.276 129.72 163.006 129.974 162.824C129.645 165.379 128.941 167.871 127.883 170.22C126.571 173.361 124.905 176.342 122.918 179.106Z" fill="#CA2626"/>
<path d="M84.8127 160.341L84.6035 160.89C83.8305 162.858 83.7294 165.026 84.3161 167.058C82.8264 165.074 80.9834 163.381 78.8799 162.066C79.6201 161.268 80.563 160.687 81.6078 160.383C82.6526 160.079 83.7602 160.065 84.8127 160.341V160.341Z" fill="#D07F73"/>
<path d="M96.653 210.233C96.5175 210.094 96.417 209.925 96.3596 209.74C96.3022 209.554 96.2896 209.358 96.3228 209.167C96.3559 208.975 96.4339 208.795 96.5504 208.639C96.6669 208.484 96.8184 208.359 96.9927 208.273C97.3881 207.953 97.8683 207.756 98.3743 207.705C98.8803 207.654 99.3902 207.751 99.8415 207.986C100.129 208.221 100.077 208.534 100.129 208.848C99.7987 209.445 99.2721 209.909 98.6385 210.161C98.0048 210.414 97.3032 210.439 96.653 210.233Z" fill="#942A2A"/>
<path d="M52.666 234.983C55.791 235.28 58.9398 235.21 62.0485 234.774C60.6091 235.538 59.0111 235.955 57.382 235.991C55.7529 236.027 54.138 235.682 52.666 234.983V234.983Z" fill="#CA2626"/>
<path d="M96.7824 204.771C95.6243 202.648 94.8793 200.324 94.5869 197.923C94.5869 197.558 94.7437 197.322 95.0312 197.139C95.3187 196.956 95.8936 196.852 96.0243 197.531C96.155 198.211 96.0244 199.309 96.2335 200.145C96.5209 201.687 96.5994 203.229 96.7824 204.771Z" fill="#E1AAA1"/>
<path d="M44.3036 191.729C43.7883 191.702 43.3044 191.473 42.957 191.091C42.6096 190.71 42.4266 190.207 42.448 189.691C42.7552 183.897 45.0012 178.374 48.825 174.01C51.972 170.5 56.036 167.939 60.5597 166.613C60.805 166.533 61.064 166.504 61.321 166.527C61.5779 166.55 61.8274 166.625 62.0546 166.747C62.2818 166.869 62.4819 167.036 62.6427 167.238C62.8036 167.439 62.9219 167.671 62.9905 167.92C63.1371 168.416 63.0819 168.949 62.8372 169.404C62.5924 169.86 62.178 170.2 61.6837 170.351C57.8637 171.481 54.4338 173.653 51.7783 176.623C48.5293 180.322 46.6232 185.009 46.3683 189.926C46.3281 190.437 46.0896 190.912 45.7037 191.249C45.3178 191.586 44.8152 191.758 44.3036 191.729Z" fill="#F3DEDD"/>
<path d="M99.1871 157.1C98.7339 157.104 98.2934 156.95 97.9406 156.666C97.5878 156.381 97.3446 155.984 97.2521 155.54C97.1597 155.096 97.2238 154.634 97.4337 154.233C97.6435 153.831 97.9861 153.514 98.4031 153.337L111.784 147.587C112.247 147.443 112.746 147.476 113.185 147.678C113.625 147.881 113.974 148.239 114.166 148.684C114.357 149.128 114.378 149.628 114.223 150.087C114.068 150.545 113.748 150.93 113.326 151.167L99.9711 156.917C99.7279 157.039 99.4592 157.102 99.1871 157.1V157.1Z" fill="#F3DEDD"/>
<path d="M182.61 168.239C181.975 168.245 181.344 168.337 180.734 168.514C179.503 168.964 178.409 169.722 177.555 170.716C176.701 171.71 176.117 172.906 175.858 174.191C175.133 176.801 174.904 179.524 175.182 182.219V182.394L174.982 185.945C175.02 188.061 174.629 190.162 173.832 192.123L173.457 192.673C173.132 192.973 173.082 193.123 173.082 193.148L173.357 193.648V194.273C172.953 197.249 172.11 200.148 170.856 202.876C170.581 203.527 170.306 204.177 170.006 204.827C169.035 206.705 168.36 208.721 168.005 210.804V211.129C166.013 218.609 165.378 226.384 166.129 234.088C166.554 240.24 167.005 246.592 170.006 252.169V252.519C170.625 254.643 171.92 256.507 173.693 257.829C175.466 259.151 177.622 259.859 179.834 259.847C185.384 260.301 190.832 261.6 195.99 263.698C198.609 264.867 201.503 265.275 204.343 264.874H204.693C210.095 265.074 214.197 263.798 216.772 261.047C219.348 258.296 220.324 254.32 219.823 249.018V248.643C219.823 248.343 219.823 248.043 219.823 247.768C216.401 227.216 210.086 207.253 201.067 188.471C198.094 181.62 193.695 175.481 188.162 170.465C186.65 169.063 184.672 168.27 182.61 168.239V168.239Z" fill="#3F2222"/>
<path d="M114.362 264.849H114.537C117.368 265.249 120.255 264.842 122.865 263.673C128.026 261.584 133.472 260.285 139.021 259.822C144.297 259.272 147.524 256.871 148.824 252.469L148.974 252.119C151.527 246.434 152.84 240.27 152.826 234.038C153.599 226.341 152.955 218.568 150.925 211.104V210.704C150.678 208.811 150.085 206.98 149.174 205.302L148.774 204.377C147.253 201.264 146.168 197.957 145.548 194.548C144.721 192.665 144.303 190.628 144.322 188.571V188.021C144.41 187.506 144.349 186.977 144.147 186.496C144.003 185.953 143.895 185.402 143.822 184.845C143.735 183.73 143.735 182.609 143.822 181.494C143.932 180.157 143.805 178.81 143.447 177.517V177.217V176.892C143.666 175.231 143.341 173.544 142.52 172.083C141.7 170.622 140.428 169.467 138.896 168.789C135.945 167.489 133.269 168.214 130.218 171.115C127.041 174.028 124.319 177.4 122.14 181.119C112.905 197.794 106.164 215.733 102.132 234.363L101.782 235.838C100.18 241.542 99.29 247.422 99.1312 253.345C99.0167 254.842 99.285 256.343 99.9106 257.708C100.536 259.073 101.499 260.257 102.708 261.147C106.142 263.588 110.274 264.852 114.487 264.749L114.362 264.849Z" fill="#3F2222"/>
<path d="M159.902 188.671L147.397 194.098C146.533 193.449 145.931 192.511 145.701 191.455C145.472 190.399 145.63 189.296 146.147 188.346C148.595 186.581 151.292 185.19 154.149 184.22C155.251 183.916 156.206 183.226 156.84 182.275C157.474 181.324 157.744 180.177 157.601 179.043C157.601 172.741 157.601 166.539 157.601 160.111C157.601 154.834 158.026 154.509 163.328 155.585C163.328 163.512 163.328 171.465 163.328 179.393C163.197 180.103 163.331 180.836 163.705 181.453C164.078 182.071 164.665 182.53 165.354 182.744C167.842 184.054 170.467 185.086 173.181 185.82C174.457 187.771 173.581 189.572 172.756 191.347C170.58 191.998 169.005 190.447 167.154 189.847C164.753 189.047 162.603 187.221 159.902 188.671Z" fill="#CDA8A3"/>
<path d="M146.174 188.646C145.648 187.399 145.5 186.025 145.748 184.695C146.349 184.845 145.749 186.596 147.374 185.62C149.052 184.511 150.891 183.668 152.826 183.119C155.327 182.444 155.677 180.869 155.627 178.618C155.627 171.915 155.627 165.213 155.627 158.611C155.627 156.11 156.577 155.259 158.628 155.184C160.204 155.184 161.904 154.459 163.38 155.685C157.353 155.56 158.528 155.209 158.378 160.286C158.378 167.089 158.378 173.874 158.378 180.644C158.501 181.404 158.35 182.184 157.951 182.844C157.553 183.503 156.933 184 156.202 184.245C152.801 185.545 149.5 187.146 146.174 188.646Z" fill="#E4BBB6"/>
<path d="M172.133 191.322C171.908 192.248 171.708 193.173 171.482 194.098L159.903 188.671C160.05 188.314 160.276 187.996 160.566 187.741C160.856 187.486 161.201 187.302 161.574 187.202C161.947 187.103 162.338 187.091 162.717 187.168C163.095 187.245 163.45 187.409 163.755 187.646C166.481 188.996 169.382 190.247 172.133 191.322Z" fill="#B58D88"/>
<path d="M221.675 248.818L221.525 247.443C218.058 226.754 211.693 206.658 202.618 187.746C199.533 180.663 194.972 174.319 189.239 169.139C188.094 167.955 186.644 167.112 185.049 166.702C183.453 166.293 181.776 166.335 180.203 166.822C178.629 167.309 177.222 168.223 176.138 169.462C175.053 170.702 174.333 172.217 174.058 173.841C173.259 176.668 173.004 179.622 173.308 182.544V182.544C173.308 183.67 173.183 184.795 173.108 185.92C173.161 187.802 172.829 189.674 172.133 191.422C171.704 191.726 171.401 192.176 171.281 192.687C171.162 193.199 171.233 193.736 171.482 194.198C171.056 196.993 170.213 199.707 168.982 202.251C167.588 204.913 166.577 207.759 165.98 210.704V210.704C163.943 218.397 163.291 226.391 164.055 234.313C164.48 240.765 164.955 247.267 168.106 253.145C168.83 255.625 170.331 257.807 172.389 259.37C174.446 260.932 176.952 261.792 179.535 261.823C184.895 262.259 190.157 263.507 195.141 265.524C198.08 266.838 201.333 267.289 204.519 266.824C216.599 267.175 222.826 260.647 221.675 248.818Z" fill="#D44C4C"/>
<path d="M152.775 210.579C152.418 208.15 151.631 205.804 150.449 203.652C148.97 200.63 147.926 197.413 147.348 194.098C146.575 192.385 146.174 190.526 146.173 188.646C146.623 187.271 145.873 186.02 145.748 184.695C145.373 182.194 146.073 179.468 145.173 176.942C145.39 174.914 144.957 172.869 143.936 171.102C142.916 169.336 141.361 167.939 139.496 167.114C135.369 165.288 131.993 166.813 128.792 169.764C125.488 172.829 122.648 176.359 120.364 180.243C111.021 197.086 104.18 215.199 100.056 234.013C98.2402 240.356 97.2153 246.9 97.0053 253.495C96.8957 255.292 97.2389 257.087 98.0036 258.717C98.7683 260.347 99.9299 261.759 101.382 262.823C105.147 265.49 109.674 266.867 114.286 266.749C117.464 267.216 120.71 266.765 123.64 265.449C128.637 263.446 133.905 262.198 139.271 261.748C144.697 261.172 148.974 258.746 150.675 253.069C153.826 247.167 154.326 240.69 154.751 234.213C155.521 226.288 154.851 218.29 152.775 210.604V210.579Z" fill="#D44C4C"/>
<path d="M114.362 266.724C123.1 260.292 133.069 255.729 143.648 253.319C145.945 252.578 148.402 252.483 150.75 253.044C149.075 258.721 144.773 261.147 139.346 261.722C133.989 262.17 128.729 263.418 123.741 265.424C120.801 266.738 117.548 267.189 114.362 266.724V266.724Z" fill="#CA2626"/>
<path d="M168.156 253.044C170.657 251.669 173.333 253.045 175.809 253.345C180.42 254.383 184.888 255.979 189.114 258.096C194.507 260.501 199.672 263.389 204.544 266.724C201.366 267.191 198.121 266.74 195.191 265.424C190.205 263.412 184.944 262.164 179.585 261.723C177.002 261.692 174.497 260.832 172.439 259.27C170.381 257.707 168.88 255.525 168.156 253.044V253.044Z" fill="#CA2626"/>
<path d="M146.124 188.646C146.146 190.527 146.555 192.382 147.324 194.098C147.89 197.416 148.934 200.634 150.425 203.652C151.596 205.809 152.383 208.153 152.751 210.579C144.973 208.303 141.647 204.477 141.822 197.574C141.977 194.568 142.345 191.576 142.922 188.621C143.573 184.72 144.398 180.818 145.148 176.942C146.024 179.443 145.323 182.119 145.723 184.695C145.823 186.02 146.574 187.271 146.124 188.646Z" fill="#CA2626"/>
<path d="M172.108 191.322C172.804 189.574 173.135 187.702 173.083 185.82C173.083 184.695 173.083 183.57 173.283 182.444C174.108 181.519 173.408 180.318 173.983 179.043C175.009 184.445 176.259 189.547 176.934 194.698C178.06 203.252 174.583 208.103 166.03 210.604C166.627 207.659 167.637 204.813 169.031 202.151C170.251 199.603 171.094 196.89 171.532 194.098C171.275 193.644 171.192 193.113 171.298 192.602C171.404 192.091 171.691 191.637 172.108 191.322V191.322Z" fill="#CA2626"/>
<path d="M143.272 359.84C142.803 356.491 142.118 353.175 141.221 349.914C140.855 348.307 140.123 346.806 139.082 345.528C138.042 344.25 136.72 343.23 135.22 342.546C134.41 342.268 134.258 341.913 134.511 341.078C134.966 339.433 134.997 337.701 134.603 336.041C134.209 334.381 133.403 332.848 132.258 331.583C131.701 330.899 131.042 330.216 132.106 329.507C133.169 328.798 133.271 326.114 135.524 326.848C137.111 327.3 138.776 327.41 140.408 327.17C142.041 326.929 143.604 326.345 144.994 325.456C147.304 323.776 149.869 322.477 152.589 321.607C158.286 324.367 159.198 331.735 153.627 334.723C146.968 338.242 146.462 343.509 147.298 349.737C147.623 352.075 148.088 354.392 148.69 356.675C150.374 364.06 150.979 371.65 150.488 379.209C150.488 379.868 150.285 380.526 150.209 381.159C149.88 383.564 148.665 384.476 146.31 383.691C145.891 383.689 145.476 383.596 145.096 383.419C144.715 383.242 144.378 382.984 144.106 382.664C143.834 382.345 143.635 381.97 143.521 381.566C143.408 381.162 143.383 380.738 143.449 380.323C143.576 374.601 143.449 368.904 143.576 363.182C143.747 361.498 143.747 359.802 143.576 358.118C143.424 357.738 142.993 358.118 143.373 358.118C143.753 358.118 143.5 358.118 143.525 358.321C143.626 358.675 143.778 359.308 143.272 359.84Z" fill="#E4BBB6"/>
<path d="M146.184 383.59C148.057 383.843 148.994 383.286 149.247 381.058C149.666 376.172 149.666 371.259 149.247 366.373C148.741 358.296 145.323 350.624 146.057 342.344C146.032 341.218 146.305 340.106 146.847 339.119C147.39 338.132 148.183 337.306 149.146 336.723C150.21 336.115 151.172 335.33 152.21 334.672C157.451 331.178 157.78 326.646 153.096 322.392C152.839 322.123 152.602 321.835 152.387 321.531C156.058 321.531 158.565 324.063 159.679 328.899C159.363 330 159.363 331.167 159.679 332.267C158.97 334.546 156.894 335.204 155.071 336.115C148.057 339.61 146.893 341.61 149.323 349.104C151.821 357.055 153.018 365.357 152.868 373.69C152.839 375.767 152.67 377.839 152.362 379.893C151.931 383.59 149.906 384.78 146.184 383.59Z" fill="#CDA8A3"/>
<path d="M136.005 349.332C135.69 347.217 134.816 345.224 133.473 343.559C132.536 344.116 132.385 345.56 130.941 345.281C130.909 344.869 130.969 344.455 131.118 344.069C131.267 343.683 131.501 343.336 131.802 343.053C135.119 340.141 133.499 334.697 130.941 331.887C130.283 331.153 129.675 331.659 129.245 332.064C127.348 333.444 125.351 334.68 123.269 335.761V335.761C122.611 335.634 121.851 336.242 121.193 335.356C121.548 335.128 121.826 334.9 122.13 334.723L123.32 334.064C131.676 331.254 136.664 322.848 135.777 313.049C135.91 311.341 135.721 309.623 135.22 307.985C133.22 298.186 126.257 290.717 117.75 289.122C111.234 288.04 104.543 289.041 98.6284 291.983C92.7143 294.924 87.8783 299.655 84.8087 305.504C80.4885 314.749 79.0759 325.088 80.7577 335.153C82.4541 346.977 87.037 357.409 96.6078 364.954C104.204 371.056 112.964 373.994 122.864 370.955C129.245 369.031 135.347 366.676 136.79 359.03C137.452 355.788 137.18 352.425 136.005 349.332Z" fill="#DA6666"/>
<path d="M121.774 371.006C125.614 367.974 128.917 364.319 131.548 360.194C133.659 356.967 134.825 353.213 134.915 349.358C136.118 352.444 136.391 355.815 135.7 359.055C134.257 366.727 128.18 369.082 121.774 371.006Z" fill="#D04040"/>
<path d="M122.33 334.09C124.356 331.355 127.141 329.33 129.065 326.494C131.445 322.256 133.339 317.763 134.711 313.1C135.699 322.873 130.711 331.279 122.33 334.09Z" fill="#D04040"/>
<path d="M130.813 343.053C129.75 340.698 130.636 337.989 129.826 335.634C129.421 334.318 129.117 334.115 128.003 334.672C126.257 335.603 124.273 335.991 122.306 335.786C124.384 334.699 126.381 333.464 128.281 332.09C128.712 331.684 129.294 331.153 129.978 331.912C132.535 334.723 134.155 340.167 130.813 343.053Z" fill="#D04040"/>
<path d="M143.271 359.84C143.474 359.258 143.094 358.523 143.828 357.84C143.828 359.713 144.36 361.435 143.449 363.081L143.271 359.84Z" fill="#EBC0BB"/>
<path d="M159.754 332.343C159.401 331.852 159.212 331.263 159.212 330.659C159.212 330.055 159.401 329.466 159.754 328.975C160.197 330.054 160.197 331.264 159.754 332.343V332.343Z" fill="#D4AEA9"/>
<path d="M123.167 371.993C120.53 372.828 117.78 373.255 115.014 373.259C107.989 373.058 101.252 370.427 95.9485 365.815C86.9347 358.701 81.6176 348.725 79.6933 335.432C77.9587 325.159 79.4076 314.601 83.8456 305.175C90.606 291.249 106.633 286.033 118.053 288.185C126.914 289.831 134.283 297.756 136.359 307.884L136.536 308.669C136.941 310.135 137.078 311.661 136.941 313.176C137.295 316.348 136.947 319.559 135.923 322.582C134.9 325.605 133.224 328.367 131.016 330.672C131.329 330.798 131.607 330.998 131.826 331.254C133.798 333.437 134.866 336.288 134.814 339.23C134.771 340.343 134.458 341.429 133.903 342.395L134.384 342.977C135.754 344.779 136.627 346.91 136.916 349.155C138.135 352.387 138.416 355.898 137.726 359.283L123.167 371.993ZM112.685 289.78C107.116 289.727 101.642 291.221 96.8716 294.095C92.1016 296.97 88.2233 301.112 85.6687 306.061C81.4105 315.1 80.0317 325.229 81.7188 335.077C83.5419 347.889 88.5804 357.435 97.1638 364.195C105.747 370.955 113.748 372.677 122.484 370.018C128.94 368.069 134.359 365.891 135.675 358.903C136.325 355.858 136.07 352.69 134.941 349.788V349.56C134.722 348.051 134.215 346.598 133.447 345.281C133.178 345.692 132.796 346.017 132.347 346.214C131.897 346.412 131.4 346.475 130.915 346.395L130.155 346.243V345.484C130.105 344.931 130.173 344.373 130.357 343.849C130.54 343.325 130.834 342.846 131.219 342.445C131.713 342.025 132.115 341.506 132.398 340.922C132.682 340.338 132.84 339.701 132.865 339.052C132.881 336.713 132.034 334.45 130.485 332.697L130.257 332.9C129.133 333.904 127.882 334.756 126.535 335.432C125.705 335.821 124.909 336.279 124.155 336.799L123.8 337.052H123.344H123.066C122.604 337.187 122.112 337.174 121.658 337.016C121.204 336.857 120.811 336.56 120.534 336.166L119.901 335.28L121.116 334.444L121.775 334.014L122.661 333.533L122.99 333.33C131.042 330.621 135.65 322.62 134.916 313.328V313.074C135.033 311.781 134.913 310.476 134.561 309.226L134.384 308.416C132.485 299.123 125.8 291.882 117.749 290.363C116.117 290 114.456 289.789 112.786 289.73L112.685 289.78Z" fill="#3F2222"/>
<path d="M171.806 320.974C173.813 321.486 175.693 322.408 177.325 323.683C180.972 325.81 184.516 327.658 189.023 326.215C190.897 325.608 191.125 328.19 192.34 329.076C193.555 329.963 192.34 330.393 191.986 330.899C190.854 332.178 190.057 333.716 189.664 335.377C189.271 337.038 189.294 338.77 189.732 340.42C189.909 341.053 189.985 341.508 189.302 341.787C184.06 343.888 183.022 348.648 182.01 353.383C181.579 355.308 181.301 357.257 180.972 359.207C180.782 358.938 180.654 358.631 180.597 358.307C180.54 357.983 180.556 357.65 180.642 357.333C180.546 358.863 180.605 360.398 180.82 361.916C180.82 367.664 180.82 373.386 180.82 379.108C180.82 381.64 179.959 382.83 177.553 383.083C176.558 383.412 175.485 383.412 174.49 383.083V383.083C172.717 379.513 173.274 375.741 173.3 371.968C173.3 363.688 175.832 355.738 176.87 347.61C177.423 345.304 177.2 342.88 176.234 340.714C175.267 338.549 173.613 336.763 171.527 335.634C165.096 331.71 165.375 325.126 171.806 320.974Z" fill="#E4BBB6"/>
<path d="M171.807 320.974C170.92 323.051 168.641 324.038 168.11 326.519C167.274 330.393 167.654 331.988 170.971 334.242C171.579 334.672 172.212 335.103 172.845 335.483C177.908 338.47 178.567 341.635 177.731 347.813C176.44 357.384 173.984 366.828 174.06 376.602C174.456 378.731 174.651 380.893 174.642 383.058C172.541 382.729 172.11 381.134 171.807 379.362C170.691 370.244 171.379 360.995 173.832 352.143C174.414 350.041 175.098 347.991 175.579 345.889C175.911 345.017 176.067 344.087 176.038 343.154C176.009 342.221 175.795 341.303 175.409 340.453C175.023 339.603 174.472 338.838 173.789 338.202C173.105 337.566 172.302 337.072 171.427 336.749C169.933 335.938 168.388 335.255 166.92 334.394C166.334 334.191 165.801 333.857 165.363 333.419C164.924 332.98 164.591 332.448 164.388 331.862C164.705 330.762 164.705 329.594 164.388 328.494C165.552 323.506 168.16 320.873 171.807 320.974Z" fill="#CDA8A3"/>
<path d="M243.182 316.366C242.158 308.49 238.36 301.236 232.471 295.908C228.898 292.708 224.627 290.385 219.999 289.124C215.371 287.862 210.513 287.697 205.81 288.641C195.555 290.59 188.086 301.68 188.339 314.163C188.007 317.738 188.745 321.331 190.458 324.486C192.171 327.642 194.782 330.217 197.96 331.887C199.277 333.609 201.86 333.279 203.024 335.102C200.096 334.896 197.331 333.679 195.201 331.659C194.289 331.001 193.58 330.469 192.669 331.659C190.137 335.001 189.377 339.533 192.238 342.521C192.238 343.281 193.681 343.585 193.074 344.623C191.631 344.977 191.656 342.977 190.339 343.028C188.864 345.454 187.947 348.178 187.655 351.003C187.483 351.274 187.42 351.599 187.478 351.915C185.832 360.979 190.01 366.6 198.492 369.233C200.229 370.263 202.197 370.838 204.215 370.904C207.17 371.74 210.299 371.74 213.254 370.904V370.904C213.811 370.904 214.393 370.905 214.925 370.702C226.268 367.714 233.813 360.245 238.801 350.041C243.86 339.584 245.397 327.769 243.182 316.366V316.366Z" fill="#DA6666"/>
<path d="M188.821 351.282C190.239 358.675 194.771 364.195 199.658 369.512C190.847 366.778 186.669 360.903 188.821 351.282Z" fill="#D04040"/>
<path d="M204.189 335.33C201.657 337.381 199.126 335.938 196.796 335.001C194.467 334.064 193.96 334.697 193.91 336.9C193.606 338.853 193.428 340.824 193.378 342.8C190.542 339.812 191.352 335.204 193.834 331.938C194.745 330.697 195.454 331.229 196.366 331.938C198.503 333.939 201.268 335.138 204.189 335.33V335.33Z" fill="#D04040"/>
<path d="M189.402 314.341C191.327 318.265 192.162 322.671 194.795 326.266L199.024 332.115C195.846 330.432 193.236 327.846 191.524 324.683C189.812 321.521 189.074 317.922 189.402 314.341Z" fill="#D04040"/>
<path d="M205.381 371.183C208.346 370.423 211.455 370.423 214.42 371.183C211.465 372.019 208.336 372.019 205.381 371.183V371.183Z" fill="#D04040"/>
<path d="M180.82 361.942C179.908 360.296 180.491 358.549 180.415 356.624C181.2 357.561 180.769 358.447 180.972 359.156L180.82 361.942Z" fill="#EBC0BB"/>
<path d="M164.49 328.418C164.846 328.907 165.038 329.497 165.038 330.102C165.038 330.707 164.846 331.297 164.49 331.786C164.06 330.704 164.06 329.5 164.49 328.418V328.418Z" fill="#D4AEA9"/>
<path d="M174.617 383.058H177.681C177.24 383.393 176.702 383.574 176.149 383.574C175.596 383.574 175.058 383.393 174.617 383.058Z" fill="#CDA8A3"/>
<path d="M88.582 313.657C89.5418 308.152 92.3133 303.126 96.4564 299.376C96.9525 298.917 97.6034 298.662 98.2794 298.662C98.9553 298.662 99.6064 298.917 100.102 299.376C101.292 300.541 100.254 301.908 99.3934 302.541C96.3217 305.513 94.1235 309.27 93.0382 313.403C92.845 313.933 92.599 314.442 92.304 314.923C91.7722 315.935 91.2658 317.176 89.772 316.923C88.2781 316.67 88.8099 315.1 88.582 313.657Z" fill="#E69999"/>
<path d="M225.864 298.819C227.535 298.541 228.396 299.756 229.308 300.87C232.127 304.427 234.156 308.545 235.258 312.948C235.638 314.518 235.967 316.189 234.194 316.847C232.422 317.505 232.093 315.708 231.511 314.568C231.062 313.637 230.665 312.682 230.321 311.707C229.311 308.138 227.34 304.915 224.624 302.389C224.218 302.124 223.911 301.732 223.751 301.274C223.59 300.816 223.586 300.318 223.737 299.858C224.092 298.87 224.953 298.794 225.864 298.819Z" fill="#E69999"/>
<path d="M190.848 344.597C189.715 346.626 189.016 348.868 188.797 351.181V351.484L188.62 351.738V352.219C187.1 360.422 190.468 365.714 198.899 368.322L199.153 368.449C200.74 369.373 202.533 369.886 204.369 369.942H204.596C207.366 370.748 210.309 370.748 213.079 369.942H213.787C214.103 369.927 214.416 369.884 214.724 369.816C225.055 367.107 232.651 360.549 237.917 349.712C242.858 339.434 244.333 327.831 242.12 316.644V316.644C241.156 309.014 237.492 301.981 231.79 296.819C228.336 293.716 224.203 291.466 219.723 290.248C215.242 289.03 210.539 288.878 205.989 289.806C196.317 291.629 189.177 302.136 189.405 314.239C189.061 317.637 189.741 321.06 191.356 324.068C192.971 327.077 195.448 329.535 198.469 331.127L198.798 331.381C199.35 331.97 200.063 332.384 200.849 332.571C202.099 332.904 203.203 333.644 203.989 334.672L205.103 336.267H203.153C200.191 336.138 197.369 334.973 195.178 332.976L194.696 332.647C194.453 332.439 194.18 332.268 193.886 332.14C193.782 332.23 193.688 332.332 193.608 332.444C191.532 335.254 190.569 339.28 193.076 341.939L193.329 342.167V342.521C193.329 342.521 193.329 342.521 193.506 342.521C193.903 342.824 194.176 343.261 194.274 343.75C194.372 344.239 194.288 344.748 194.038 345.18L193.81 345.585H193.354C192.886 345.696 192.394 345.662 191.946 345.485C191.498 345.308 191.114 344.999 190.848 344.597ZM208.572 372.677C207.08 372.689 205.594 372.475 204.166 372.044C202.065 371.958 200.015 371.368 198.191 370.322C188.949 367.41 184.923 361.055 186.543 351.991C186.495 351.575 186.566 351.153 186.746 350.775C187.085 347.883 188.035 345.096 189.531 342.597L189.835 342.065H190.595C189.721 340.314 189.385 338.344 189.629 336.402C189.872 334.461 190.684 332.634 191.962 331.153C192.313 330.611 192.841 330.209 193.456 330.013C191.3 328.009 189.628 325.54 188.567 322.794C187.505 320.048 187.082 317.097 187.328 314.163C187.101 301.073 194.924 289.628 205.66 287.628C210.526 286.651 215.553 286.83 220.337 288.149C225.122 289.468 229.53 291.891 233.208 295.224C239.304 300.702 243.23 308.186 244.272 316.315V316.315C246.553 327.941 245.017 339.992 239.892 350.674C234.398 361.941 226.144 369.082 215.332 371.892C214.9 371.998 214.459 372.066 214.015 372.095H213.534C211.893 372.492 210.21 372.687 208.521 372.677H208.572Z" fill="#3F2222"/>
<path d="M167.08 54.3808V35.6874H167.445C176.025 35.6874 182.984 27.7462 182.984 17.8357C182.984 7.92521 176.025 0 167.445 0C163.901 0.0557185 160.503 1.42543 157.912 3.84347C155.297 1.40343 151.861 0.0320719 148.284 0C139.704 0 132.745 7.94109 132.745 17.8357C132.745 27.7304 139.704 35.6874 148.284 35.6874H148.665V54.3808C151.57 55.3023 154.595 55.7894 157.642 55.8261C160.844 55.8435 164.029 55.3557 167.08 54.3808Z" fill="#FFFBE9"/>
<path d="M166.302 544.824C168.919 537.335 170.813 529.613 171.958 521.763C172.576 521.194 173.15 520.578 173.674 519.921C185.177 505.373 170.163 473.593 162.902 465.238C162.705 465.01 162.461 464.827 162.187 464.701C161.912 464.576 161.614 464.51 161.313 464.51C161.011 464.51 160.713 464.576 160.439 464.701C160.165 464.827 159.921 465.01 159.724 465.238C159.291 465.764 159.055 466.424 159.055 467.105C159.055 467.785 159.291 468.445 159.724 468.971C166.349 476.578 176.089 499.29 172.546 511.853C172.26 505.929 170.671 501.688 167.779 499.512C163.823 496.542 157.357 497.162 153.067 500.926C151.395 502.452 150.054 504.305 149.127 506.371C148.201 508.436 147.708 510.669 147.681 512.933C147.685 514.171 147.845 515.404 148.157 516.602C148.752 518.774 149.867 520.768 151.406 522.412C152.945 524.056 154.862 525.299 156.991 526.036C160.246 527.031 163.758 526.747 166.81 525.242C165.629 531.226 164.036 537.122 162.044 542.887C161.81 543.517 161.815 544.21 162.058 544.836C162.301 545.463 162.765 545.978 163.362 546.286C163.65 546.399 163.959 546.451 164.268 546.438C164.577 546.425 164.88 546.347 165.157 546.209C165.435 546.071 165.68 545.877 165.877 545.638C166.074 545.4 166.219 545.122 166.302 544.824V544.824ZM158.183 521.001C156.833 520.54 155.613 519.766 154.621 518.741C153.63 517.717 152.895 516.472 152.479 515.109C152.104 513.306 152.211 511.437 152.788 509.689C153.365 507.941 154.393 506.376 155.768 505.151C158.771 502.53 163.14 502.419 165.19 503.959C166.874 505.23 167.938 508.565 167.938 513.854C167.938 515.347 167.843 517.03 167.668 518.793C165.205 520.604 161.631 522.16 158.183 521.017V521.001Z" fill="#BA6E8A"/>
<path d="M277.122 55.159C239.467 51.9825 199.031 50.0925 156.117 50.1402C114.474 50.1402 75.1979 52.0778 38.5436 55.159C35.8884 66.7884 34.5507 78.6796 34.5557 90.6081V349.997C34.5557 428.217 89.7515 491.619 157.849 491.619C225.93 491.619 281.126 428.217 281.126 349.997V90.6081C281.133 78.6786 279.79 66.7865 277.122 55.159V55.159ZM187.766 398.072C178.315 405.469 168.307 412.128 157.833 417.989C147.356 412.124 137.343 405.466 127.883 398.072C12.4869 309.132 30.1229 173.783 157.833 99.3433C285.574 173.831 303.131 309.068 187.766 398.072Z" fill="#FCC0E6"/>
<path d="M87.2092 394.483C86.8226 402.232 85.456 409.9 83.1418 417.306C81.3518 423.035 78.9661 428.56 76.0239 433.792L19.4141 394.499C21.9229 387.4 25.1434 380.573 29.0264 374.122C30.9471 370.956 33.0312 367.892 35.2705 364.942C37.3678 363.973 52.6046 357.287 68.2227 366.959C82.4427 375.774 86.4625 391.704 87.2092 394.483Z" fill="#D389A7"/>
<path d="M65.8557 380.793C63.2899 378.96 60.2152 377.974 57.0616 377.974C53.908 377.974 50.8332 378.96 48.2674 380.793C47.1554 381.551 45.8926 382.06 44.5654 382.285C43.0418 382.548 41.4763 382.411 40.0214 381.888C34.0474 379.76 27.4696 382.127 23.2434 387.431C19.628 392.124 16.9871 397.492 15.4755 403.22C13.964 408.947 13.6124 414.919 14.4413 420.784C17.3012 442.638 34.7783 457.79 53.3516 454.613C71.925 451.437 84.7945 431.092 81.9505 409.19C81.3479 403.609 79.6092 398.211 76.8412 393.327C74.0733 388.444 70.3347 384.178 65.8557 380.793V380.793Z" fill="#BA6E8A"/>
<path d="M28.6127 435.983C25.2444 430.663 26.8967 420.832 40.4971 426.994C54.0974 433.156 43.6747 441.478 43.6747 441.478C43.6747 441.478 36.8587 448.943 28.6127 435.983Z" fill="#DCA1B9"/>
<path d="M72.1149 428.535C74.0056 422.325 69.9223 413.478 58.4668 423.913C47.0114 434.348 59.1342 438.842 59.1342 438.842C59.1342 438.842 67.5232 443.702 72.1149 428.535Z" fill="#DCA1B9"/>
<path d="M65.2999 395.595C64.8976 394.29 64.2393 393.079 63.3636 392.032C62.488 390.985 61.4124 390.123 60.1997 389.496C59.601 389.224 58.9509 389.083 58.2931 389.083C57.6354 389.083 56.9853 389.224 56.3865 389.496C54.8099 390.03 53.4165 390.999 52.3668 392.291C49.9756 394.592 47.8444 397.149 46.0115 399.915C43.5699 398.08 40.9574 396.485 38.2104 395.15C36.7391 394.207 35.0327 393.695 33.285 393.673C32.5897 393.604 31.8875 393.68 31.223 393.896C30.5584 394.112 29.946 394.463 29.4242 394.928C28.3988 395.893 27.5768 397.053 27.0065 398.341C26.4363 399.628 26.1292 401.016 26.1035 402.424C26.1035 405.743 26.3418 412.35 27.2951 413.939C28.1372 420.466 37.6861 424.246 48.5695 422.388C58.8969 420.625 66.7616 414.447 66.8251 408.189C67.3653 406.299 66.2691 398.692 65.2999 395.595Z" fill="#DCA1B9"/>
<path d="M228.488 394.483C228.875 402.232 230.242 409.9 232.556 417.306C234.359 423.04 236.766 428.566 239.737 433.792L296.331 394.499C293.822 387.4 290.602 380.573 286.719 374.122C284.798 370.956 282.714 367.892 280.475 364.942C278.377 363.973 263.141 357.287 247.522 366.959C233.207 375.774 229.156 391.704 228.488 394.483Z" fill="#D389A7"/>
<path d="M249.762 380.793C252.328 378.96 255.403 377.974 258.556 377.974C261.71 377.974 264.785 378.96 267.35 380.793C268.462 381.551 269.725 382.06 271.052 382.285C272.576 382.548 274.141 382.411 275.596 381.888C281.57 379.76 288.148 382.127 292.374 387.431C295.99 392.124 298.631 397.492 300.142 403.22C301.654 408.947 302.005 414.919 301.176 420.784C298.332 442.638 280.919 457.79 262.282 454.613C243.645 451.437 230.823 431.092 233.683 409.19C234.284 403.611 236.02 398.213 238.785 393.329C241.55 388.446 245.286 384.179 249.762 380.793V380.793Z" fill="#BA6E8A"/>
<path d="M288.244 437.143C291.834 431.504 290.071 421.086 275.644 427.613C261.218 434.141 272.308 442.987 272.308 442.987C272.308 442.987 279.457 450.913 288.244 437.143Z" fill="#DCA1B9"/>
<path d="M242.136 429.281C240.134 422.69 244.455 413.303 256.594 424.373C268.732 435.443 255.895 440.256 255.895 440.256C255.895 440.256 247.013 445.354 242.136 429.281Z" fill="#DCA1B9"/>
<path d="M249.364 394.34C249.784 392.962 250.474 391.681 251.393 390.571C252.312 389.461 253.442 388.545 254.719 387.876C255.356 387.59 256.046 387.442 256.744 387.442C257.443 387.442 258.133 387.59 258.77 387.876C260.439 388.448 261.914 389.477 263.028 390.846C265.535 393.29 267.767 396.001 269.685 398.93C272.265 396.954 275.032 395.236 277.947 393.8C279.502 392.795 281.307 392.245 283.159 392.212C283.896 392.134 284.642 392.211 285.347 392.438C286.053 392.665 286.704 393.037 287.258 393.53C288.344 394.553 289.215 395.782 289.821 397.146C290.426 398.509 290.754 399.98 290.785 401.471C290.785 404.997 290.515 412.001 289.53 413.684C288.624 420.593 278.503 424.611 266.968 422.626C256.021 420.752 247.68 414.161 247.601 407.586C247.156 405.696 248.331 397.628 249.364 394.34Z" fill="#DCA1B9"/>
<path d="M34.5397 152.93C30.9966 149.5 27.3423 145.704 23.6404 141.527C17.7935 134.936 12.7252 130.79 8.3877 124.628C17.015 115.925 25.8648 107.555 34.2855 98.5335C42.7063 89.5123 59.818 72.7725 59.818 72.7725C59.818 72.7725 69.3509 84.4936 72.9417 91.0212C80.0755 107.459 78.7091 126.947 69.3668 141.225C56.7833 160.458 36.3669 153.01 34.5397 152.93Z" fill="#D389A7"/>
<path d="M49.7604 63.4813C47.0662 61.8689 43.9376 61.1328 40.8068 61.3746C37.6761 61.6165 34.6977 62.8243 32.2833 64.8312C31.2185 65.6693 29.9899 66.2753 28.6766 66.6101C27.187 66.9996 25.6222 66.9996 24.1326 66.6101C18.0315 64.9424 11.6127 67.8171 7.7042 73.4235C4.38124 78.3444 2.0653 83.874 0.890017 89.6937C-0.285265 95.5134 -0.296645 101.508 0.856367 107.332C4.97142 128.964 23.227 142.749 41.6415 138.144C60.056 133.538 71.6544 112.256 67.5552 90.624C65.1879 78.4741 58.4671 68.8336 49.7604 63.4813Z" fill="#BA6E8A"/>
<path d="M15.5853 124.564C11.4385 119.8 11.7404 109.381 26.3576 113.177C40.9748 116.973 31.5689 127.471 31.5689 127.471C31.5689 127.471 25.7379 136.317 15.5853 124.564Z" fill="#DCA1B9"/>
<path d="M61.7881 108.587C62.9797 101.916 57.8161 93.4512 47.3934 105.919C36.9707 118.386 49.7925 121.134 49.7925 121.134C49.7925 121.134 58.8329 124.866 61.7881 108.587Z" fill="#DCA1B9"/>
<path d="M51.762 72.8836C51.1843 71.452 50.3237 70.1516 49.2318 69.06C48.1398 67.9685 46.8388 67.1082 45.4067 66.5307C44.6846 66.2748 43.9155 66.1791 43.1527 66.2505C42.39 66.3218 41.6518 66.5583 40.9897 66.9437C39.2165 67.7531 37.7036 69.0399 36.6205 70.6601C34.1149 73.5984 31.9262 76.7925 30.0904 80.1894C27.072 78.3444 23.8789 76.8017 20.5575 75.5836C18.759 74.685 16.7438 74.3108 14.7424 74.5036C13.9257 74.5113 13.119 74.6841 12.3708 75.0116C11.6226 75.3391 10.9485 75.8146 10.389 76.4095C8.17516 78.908 7.03372 82.177 7.21138 85.51C7.44971 89.3535 8.45066 96.9452 9.68995 98.6605C11.2788 106.093 22.6706 109.27 35.1112 105.76C46.8843 102.425 55.3846 94.2611 54.8761 87.0823C55.178 85.0017 53.1761 76.3459 51.762 72.8836Z" fill="#DCA1B9"/>
<path d="M280.681 152.93C284.224 149.5 287.878 145.704 291.58 141.527C297.443 134.936 302.495 130.79 306.833 124.628C298.205 115.925 289.356 107.555 280.951 98.5335C272.546 89.5123 255.402 72.7725 255.402 72.7725C255.402 72.7725 245.87 84.4936 242.279 91.0212C235.145 107.459 236.527 126.947 245.854 141.225C258.437 160.458 278.822 153.01 280.681 152.93Z" fill="#D389A7"/>
<path d="M265.459 63.4813C268.154 61.8712 271.282 61.1364 274.412 61.3782C277.542 61.62 280.52 62.8264 282.936 64.8312C283.993 65.6718 285.217 66.2782 286.527 66.6101C288.022 66.9996 289.592 66.9996 291.087 66.6101C297.172 64.9424 303.591 67.8171 307.515 73.4235C310.836 78.3452 313.15 83.8754 314.322 89.6951C315.495 95.5149 315.503 101.509 314.347 107.332C310.248 128.964 291.976 142.75 273.562 138.144C255.147 133.538 243.549 112.256 247.648 90.624C250.031 78.4741 256.752 68.8336 265.459 63.4813Z" fill="#BA6E8A"/>
<path d="M301.177 122.388C305.196 117.735 304.894 107.697 290.77 111.382C276.645 115.067 285.733 125.152 285.733 125.152C285.733 125.152 291.358 133.792 301.177 122.388Z" fill="#DCA1B9"/>
<path d="M254.433 108.492C252.844 102.139 257.356 93.5623 268.16 104.775C278.964 115.988 266.762 119.657 266.762 119.657C266.762 119.657 258.23 123.961 254.433 108.492Z" fill="#DCA1B9"/>
<path d="M266.126 75.0277C266.632 73.7635 267.39 72.6156 268.354 71.6544C269.318 70.6931 270.469 69.9387 271.735 69.4372C272.365 69.2126 273.037 69.1276 273.704 69.1879C274.37 69.2482 275.016 69.4525 275.596 69.7866C277.149 70.4969 278.474 71.624 279.425 73.0425C281.615 75.6299 283.527 78.4406 285.129 81.4283C287.749 79.8152 290.521 78.464 293.407 77.3942C294.978 76.6067 296.741 76.2817 298.491 76.4571C299.198 76.4512 299.9 76.5889 300.552 76.8619C301.205 77.1349 301.796 77.5375 302.288 78.0454C304.208 80.231 305.195 83.0819 305.037 85.9865C304.83 89.3535 303.956 95.9923 302.876 97.4853C301.494 103.981 291.532 106.76 280.632 103.695C270.337 100.789 262.917 93.6417 263.362 87.3682C263.155 85.6371 264.887 78.0771 266.126 75.0277Z" fill="#DCA1B9"/>
</svg>
