<svg xmlns="http://www.w3.org/2000/svg" viewBox="0 0 86.5 150"><defs><style>.cls-1{fill:#fffbe9;}.cls-2{fill:#ba6e8a;}.cls-3{fill:#fcc0e6;}.cls-4{fill:#d389a7;}.cls-5{fill:#dca1b9;}.cls-6{fill:#751c1c;}</style></defs><g id="Layer_2" data-name="Layer 2"><g id="Layer_11" data-name="Layer 11"><path class="cls-1" d="M45.85,14.94V9.79H46c2.36,0,4.26-2.19,4.26-4.9S48.31,0,46,0a3.92,3.92,0,0,0-2.64,1.06A3.92,3.92,0,0,0,40.67,0c-2.35,0-4.26,2.19-4.26,4.9s1.91,4.9,4.26,4.9h.1v5.15a8.3,8.3,0,0,0,2.47.4A8.47,8.47,0,0,0,45.85,14.94Z"/><path class="cls-2" d="M45.64,149.54a35.37,35.37,0,0,0,1.55-6.33,4.36,4.36,0,0,0,.47-.51c3.15-4-1-12.71-3-15a.58.58,0,0,0-.89,0,.8.8,0,0,0,0,1c1.82,2.09,4.49,8.32,3.52,11.78A4.39,4.39,0,0,0,46,137.11a3.35,3.35,0,0,0-4,.39,4.57,4.57,0,0,0-1.47,3.3,3.87,3.87,0,0,0,.13,1,3.76,3.76,0,0,0,2.42,2.59,3.61,3.61,0,0,0,2.69-.22A34.53,34.53,0,0,1,44.46,149a.76.76,0,0,0,.36.93A.62.62,0,0,0,45.64,149.54ZM43.41,143a2.48,2.48,0,0,1-1.57-1.62,2.9,2.9,0,0,1,.9-2.73,2.25,2.25,0,0,1,2.59-.33c.46.35.75,1.27.75,2.72a13.28,13.28,0,0,1-.07,1.35A2.93,2.93,0,0,1,43.41,143Z"/><path class="cls-3" d="M10.58,15.14a43.56,43.56,0,0,0-1.1,9.73V96.06c0,21.47,15.15,38.87,33.83,38.87h0c18.68,0,33.83-17.4,33.83-38.87V24.87A43.56,43.56,0,0,0,76,15.14c-10.33-.87-21.43-1.4-33.2-1.38C31.42,13.77,20.64,14.29,10.58,15.14Z"/><path class="cls-4" d="M23.91,108.27a25,25,0,0,1-1.11,6.26,23.38,23.38,0,0,1-2,4.53L5.31,108.28A30.66,30.66,0,0,1,8,102.68a29.44,29.44,0,0,1,1.71-2.51,9.72,9.72,0,0,1,9.05.55A12.55,12.55,0,0,1,23.91,108.27Z"/><path class="cls-2" d="M18.07,104.52a4.13,4.13,0,0,0-4.82,0,2.43,2.43,0,0,1-1,.41,2.39,2.39,0,0,1-1.25-.1,4.14,4.14,0,0,0-4.61,1.52A12.22,12.22,0,0,0,4,115.48c.78,6,5.56,10.17,10.67,9.3s8.63-6.46,7.86-12.47A11.27,11.27,0,0,0,18.07,104.52Z"/><path class="cls-5" d="M7.86,119.66c-.93-1.46-.47-4.16,3.26-2.47s.86,4,.86,4S10.12,123.22,7.86,119.66Z"/><path class="cls-5" d="M19.79,117.62c.52-1.71-.6-4.14-3.74-1.27s.18,4.1.18,4.1S18.53,121.78,19.79,117.62Z"/><path class="cls-5" d="M17.92,108.58a2.81,2.81,0,0,0-1.38-1.68,1.28,1.28,0,0,0-1,0,2.33,2.33,0,0,0-1.1.76,11.88,11.88,0,0,0-1.72,2.1,12.8,12.8,0,0,0-2.14-1.33,2.6,2.6,0,0,0-1.35-.4,1.33,1.33,0,0,0-1.06.34,2.88,2.88,0,0,0-.92,2.06,10.23,10.23,0,0,0,.33,3.16c.23,1.79,2.85,2.83,5.84,2.32,2.83-.49,5-2.2,5-3.9h0A12.09,12.09,0,0,0,17.92,108.58Z"/><path class="cls-4" d="M62.7,108.27a25,25,0,0,0,1.11,6.26,23.38,23.38,0,0,0,2,4.53L81.3,108.28a30.66,30.66,0,0,0-2.64-5.6A29.44,29.44,0,0,0,77,100.17a9.7,9.7,0,0,0-9,.55A12.53,12.53,0,0,0,62.7,108.27Z"/><path class="cls-2" d="M68.54,104.52a4.13,4.13,0,0,1,4.82,0,2.48,2.48,0,0,0,1,.41,2.39,2.39,0,0,0,1.25-.1,4.14,4.14,0,0,1,4.61,1.52,12.22,12.22,0,0,1,2.41,9.14c-.78,6-5.56,10.17-10.67,9.3s-8.63-6.46-7.85-12.47A11.22,11.22,0,0,1,68.54,104.52Z"/><path class="cls-5" d="M79.09,120c1-1.55.5-4.41-3.45-2.62s-.92,4.22-.92,4.22S76.7,123.76,79.09,120Z"/><path class="cls-5" d="M66.44,117.82c-.55-1.81.64-4.38,4-1.34s-.19,4.34-.19,4.34S67.78,122.23,66.44,117.82Z"/><path class="cls-5" d="M68.42,108.23a3,3,0,0,1,1.47-1.77,1.31,1.31,0,0,1,1.11,0,2.58,2.58,0,0,1,1.17.81A13.42,13.42,0,0,1,74,109.47a13.66,13.66,0,0,1,2.27-1.4,2.67,2.67,0,0,1,1.43-.43,1.46,1.46,0,0,1,1.12.36,3.07,3.07,0,0,1,1,2.19,10.75,10.75,0,0,1-.35,3.35c-.24,1.89-3,3-6.18,2.45s-5.3-2.32-5.32-4.13h0A12.94,12.94,0,0,1,68.42,108.23Z"/><path class="cls-4" d="M9.48,42c-1-.94-2-2-3-3.13a57.9,57.9,0,0,1-4.19-4.63c2.37-2.39,4.8-4.69,7.1-7.17s7-7.07,7-7.07A48,48,0,0,1,20,25a14.83,14.83,0,0,1-1,13.78C15.59,44,10,42,9.48,42Z"/><path class="cls-2" d="M13.66,17.42a4.15,4.15,0,0,0-4.81.37,2.63,2.63,0,0,1-1,.49,2.41,2.41,0,0,1-1.25,0A4.22,4.22,0,0,0,2.1,20.14a12.34,12.34,0,0,0-1.87,9.3c1.12,5.94,6.13,9.73,11.19,8.46s8.23-7.1,7.11-13A11,11,0,0,0,13.66,17.42Z"/><path class="cls-5" d="M4.29,34.19c-1.15-1.32-1.06-4.17,3-3.13S8.67,35,8.67,35,7.07,37.41,4.29,34.19Z"/><path class="cls-5" d="M17,29.8c.33-1.83-1.09-4.15-3.95-.73s.66,4.18.66,4.18S16.15,34.27,17,29.8Z"/><path class="cls-5" d="M14.21,20a3.17,3.17,0,0,0-1.76-1.76,1.49,1.49,0,0,0-1.21.11,2.87,2.87,0,0,0-1.2,1A14.18,14.18,0,0,0,8.25,22a15.28,15.28,0,0,0-2.6-1.27,2.89,2.89,0,0,0-1.6-.29A1.64,1.64,0,0,0,2.86,21,3.47,3.47,0,0,0,2,23.47a11.73,11.73,0,0,0,.67,3.61c.44,2,3.56,2.91,7,2,3.23-.92,5.56-3.16,5.42-5.13h0A13.65,13.65,0,0,0,14.21,20Z"/><path class="cls-4" d="M77,42q1.45-1.41,3-3.13a59.63,59.63,0,0,0,4.18-4.63c-2.36-2.39-4.8-4.69-7.1-7.17s-7-7.07-7-7.07a48,48,0,0,0-3.6,5,14.83,14.83,0,0,0,1,13.78C70.91,44,76.51,42,77,42Z"/><path class="cls-2" d="M72.84,17.42a4.16,4.16,0,0,1,4.82.37,2.59,2.59,0,0,0,1,.49,2.41,2.41,0,0,0,1.25,0,4.21,4.21,0,0,1,4.51,1.87,12.35,12.35,0,0,1,1.88,9.3c-1.13,5.94-6.14,9.73-11.19,8.46s-8.24-7.1-7.11-13A11,11,0,0,1,72.84,17.42Z"/><path class="cls-5" d="M82.64,33.59c1.1-1.28,1-4-2.86-3s-1.38,3.78-1.38,3.78S80,36.71,82.64,33.59Z"/><path class="cls-5" d="M69.82,29.78c-.43-1.75.8-4.1,3.76-1s-.38,4.08-.38,4.08S70.86,34,69.82,29.78Z"/><path class="cls-5" d="M73,20.6a2.79,2.79,0,0,1,1.54-1.54,1.26,1.26,0,0,1,1.06.1,2.54,2.54,0,0,1,1,.89,13.22,13.22,0,0,1,1.57,2.3,12.17,12.17,0,0,1,2.27-1.1A2.52,2.52,0,0,1,81.9,21a1.41,1.41,0,0,1,1,.46,3,3,0,0,1,.75,2.18,10.64,10.64,0,0,1-.59,3.15c-.38,1.78-3.11,2.55-6.09,1.7-2.82-.79-4.86-2.76-4.74-4.48h0A12.55,12.55,0,0,1,73,20.6Z"/><path class="cls-6" d="M43.31,27.26c35.05,20.45,39.87,57.57,8.22,82a64.35,64.35,0,0,1-8.22,5.46,64.19,64.19,0,0,1-8.21-5.46C3.43,84.82,8.27,47.7,43.31,27.26Z"/></g></g></svg>