<svg xmlns="http://www.w3.org/2000/svg" viewBox="0 0 323.65 294.78"><defs><style>.cls-1{fill:none;}.cls-2{fill:#8c6239;}.cls-3{fill:#999;}.cls-4{fill:#b3b3b3;}.cls-5{fill:#666;}.cls-6,.cls-7{fill:red;}.cls-6{opacity:0.68;}.cls-7{opacity:0.6;}</style></defs><g id="Layer_2" data-name="Layer 2"><g id="cleaver"><circle class="cls-1" cx="84.63" cy="18.92" r="8.97"/><path class="cls-2" d="M321.17,265.48l-78.23-92,0,0,.54.64-28,25-.06,0L290.63,291a10.4,10.4,0,0,0,14.71,1.39l14.57-12.16A10.4,10.4,0,0,0,321.17,265.48Zm-74.58-51.32c-4.36,0-7.89-3.84-7.89-8.59s3.53-8.58,7.89-8.58,7.88,3.84,7.88,8.58S250.94,214.16,246.59,214.16Zm49.63,59.25c-4.36,0-7.89-3.85-7.89-8.59s3.53-8.59,7.89-8.59,7.88,3.85,7.88,8.59S300.57,273.41,296.22,273.41Z"/><path class="cls-3" d="M51,138.75a726.52,726.52,0,0,0,52.83,61.43c-.83-.9-1.67-1.83-2.5-2.75C85.25,179.92,67.4,159.32,51,138.75Z"/><path class="cls-3" d="M243.46,174.18l-.54-.64L103.48,9.26a26.23,26.23,0,0,0-36.95-3l-55,46.54c.44.69,3,4.76,7.24,11.19,30.51,2.65,84.62,8.76,54.73,16.85-40.55,11,1.69,32.1,1.69,32.1s78.55,36.32,31.25,22.81C76.27,127.08,82.51,147,91,162.5c5,6,10.08,11.86,15.17,17.48,20.3,5.13,96.72,25,63.62,25-38,0-.66,25.25-.66,25.25s-.7.66-1.84,1.7L207.23,199s5.19-3.15,8.2.13l.06,0ZM84.62,27.89a9,9,0,1,1,9-9A9,9,0,0,1,84.62,27.89Zm17.59,26A5.15,5.15,0,1,1,107.36,59,5.14,5.14,0,0,1,102.21,53.85Zm8.59,42.27A5.15,5.15,0,1,1,116,91,5.16,5.16,0,0,1,110.8,96.12Zm25,35.28a5.15,5.15,0,1,1,5.15,5.15A5.15,5.15,0,0,1,135.79,131.4ZM170.91,163c-14.62,0-26.47-3.91-26.47-8.73s11.85-8.73,26.47-8.73,26.46,3.91,26.46,8.73S185.52,163,170.91,163Z"/><ellipse class="cls-4" cx="246.59" cy="205.57" rx="7.88" ry="8.59"/><ellipse class="cls-4" cx="296.22" cy="264.82" rx="7.88" ry="8.59"/><path class="cls-5" d="M11.52,52.75l-.07-.11L0,62.49s7.88.51,18.76,1.45C14.53,57.51,12,53.44,11.52,52.75Z"/><path class="cls-5" d="M103.82,200.18c6.85,7.51,13.54,14.53,19.9,20.82-6.75-6.82-14.35-14.8-22.4-23.57C102.15,198.35,103,199.28,103.82,200.18Z"/><path class="cls-5" d="M106.16,180C101.07,174.36,96,168.49,91,162.5a154.1,154.1,0,0,0,10.37,16.28Z"/><path class="cls-5" d="M6.94,76.13C4.2,71.28,1.85,66.7,0,62.49.57,65,3,69.76,6.94,76.13Z"/><path class="cls-5" d="M151.48,244.94c4.4-2.77,12.25-9.78,15.8-13,1.14-1,1.84-1.7,1.84-1.7S158,240.16,151.48,244.94Z"/><path class="cls-6" d="M151.48,244.94c-7.79-5.23-17.31-13.59-27.76-23.94C138.24,235.68,148.84,245,151.48,244.94Z"/><path class="cls-6" d="M6.94,76.13C17.23,94.34,33.27,116.52,51,138.75c-9.9-12.88-18.43-24.83-25.49-35.25C17.81,92.82,11.42,83.42,6.94,76.13Z"/><path class="cls-3" d="M25.5,103.5c7.06,10.42,15.59,22.37,25.49,35.25,16.41,20.57,34.26,41.17,50.33,58.68A1177.35,1177.35,0,0,1,25.5,103.5Z"/><path class="cls-6" d="M25.5,103.5c7.06,10.42,15.59,22.37,25.49,35.25,16.41,20.57,34.26,41.17,50.33,58.68A1177.35,1177.35,0,0,1,25.5,103.5Z"/><path class="cls-3" d="M106.43,135.7c47.3,13.51-31.25-22.81-31.25-22.81s-42.24-21.11-1.69-32.1c29.89-8.09-24.22-14.2-54.73-16.85C31.65,83.58,60,125.47,91,162.5,82.51,147,76.27,127.08,106.43,135.7Z"/><path class="cls-6" d="M106.43,135.7c47.3,13.51-31.25-22.81-31.25-22.81s-42.24-21.11-1.69-32.1c29.89-8.09-24.22-14.2-54.73-16.85C31.65,83.58,60,125.47,91,162.5,82.51,147,76.27,127.08,106.43,135.7Z"/><path class="cls-3" d="M169.12,230.21S131.77,205,169.78,205c33.1,0-43.32-19.85-63.62-25C128.46,204.62,151,224.6,169.12,230.21Z"/><path class="cls-6" d="M169.12,230.21S131.77,205,169.78,205c33.1,0-43.32-19.85-63.62-25C128.46,204.62,151,224.6,169.12,230.21Z"/><path class="cls-5" d="M106.16,180l-4.8-1.2A154.1,154.1,0,0,1,91,162.5C60,125.47,31.65,83.58,18.76,63.94,7.88,63,0,62.49,0,62.49c1.85,4.21,4.2,8.79,6.94,13.64,4.48,7.29,10.87,16.69,18.56,27.37a1177.35,1177.35,0,0,0,75.82,93.93c8.05,8.77,15.65,16.75,22.4,23.57,10.45,10.35,20,18.71,27.76,23.94,6.48-4.78,17.64-14.73,17.64-14.73C151,224.6,128.46,204.62,106.16,180Z"/><path class="cls-6" d="M106.16,180l-4.8-1.2A154.1,154.1,0,0,1,91,162.5C60,125.47,31.65,83.58,18.76,63.94,7.88,63,0,62.49,0,62.49c1.85,4.21,4.2,8.79,6.94,13.64,4.48,7.29,10.87,16.69,18.56,27.37a1177.35,1177.35,0,0,0,75.82,93.93c8.05,8.77,15.65,16.75,22.4,23.57,10.45,10.35,20,18.71,27.76,23.94,6.48-4.78,17.64-14.73,17.64-14.73C151,224.6,128.46,204.62,106.16,180Z"/><path class="cls-3" d="M112.51,53.85A5.15,5.15,0,1,0,107.36,59,5.15,5.15,0,0,0,112.51,53.85Z"/><path class="cls-7" d="M112.51,53.85A5.15,5.15,0,1,0,107.36,59,5.15,5.15,0,0,0,112.51,53.85Z"/><path class="cls-3" d="M110.8,85.82A5.15,5.15,0,1,0,116,91,5.15,5.15,0,0,0,110.8,85.82Z"/><path class="cls-7" d="M110.8,85.82A5.15,5.15,0,1,0,116,91,5.15,5.15,0,0,0,110.8,85.82Z"/><path class="cls-3" d="M146.09,131.4a5.15,5.15,0,1,0-5.15,5.15A5.14,5.14,0,0,0,146.09,131.4Z"/><path class="cls-7" d="M146.09,131.4a5.15,5.15,0,1,0-5.15,5.15A5.14,5.14,0,0,0,146.09,131.4Z"/><path class="cls-3" d="M170.91,145.55c-14.62,0-26.47,3.91-26.47,8.73S156.29,163,170.91,163s26.46-3.91,26.46-8.73S185.52,145.55,170.91,145.55Z"/><path class="cls-7" d="M170.91,145.55c-14.62,0-26.47,3.91-26.47,8.73S156.29,163,170.91,163s26.46-3.91,26.46-8.73S185.52,145.55,170.91,145.55Z"/></g></g></svg>