<?xml version="1.0" encoding="utf-8"?>
<!-- Generator: Adobe Illustrator 26.0.2, SVG Export Plug-In . SVG Version: 6.00 Build 0)  -->
<svg version="1.1" id="Layer_1" xmlns="http://www.w3.org/2000/svg" xmlns:xlink="http://www.w3.org/1999/xlink" x="0px" y="0px"
	 viewBox="0 0 186.1 500" style="enable-background:new 0 0 186.1 500;" xml:space="preserve">
<style type="text/css">
	.st0{fill:#FFC8BD;}
	.st1{fill:#BF0000;}
	.st2{fill:#FDB376;}
	.st3{fill:#FCA054;}
	.st4{fill:#3F2222;}
	.st5{fill:#CC8F89;}
	.st6{fill:#D1814A;}
	.st7{fill:#EFADA3;}
	.st8{fill:#D44C4C;}
	.st9{fill:#FFFBE9;}
</style>
<g>
	<g>
		<path class="st0" d="M129.2,150.9l14.5-68.3c3.2-15.3,0.9-30.2-5.6-42.1c-1.1-2-2.3-4-3.7-5.8c-3.5-4.9-7.8-9-12.7-12.2
			c-2.8-1.8-5.9-3.3-9.1-4.5c-1.7-0.6-3.4-1.1-5.1-1.4C80.9,11,54.1,31.4,47.5,62.2L29.9,145c13.8,3.5,30.2,6.4,48.8,7.6
			C97.7,153.7,114.7,152.8,129.2,150.9z"/>
		<path class="st1" d="M62.9,76.1c-0.8-1.6-2.1-2.9-3.7-4c0-2.6-0.5-5.2-1.8-7.7c-4.3-8.7-15.1-12-24.1-7.6
			c-9,4.5-12.8,15.1-8.5,23.8c0.2,0.3,0.4,0.6,0.5,1c-3.9,4.9-5.3,10.4-3.1,14.7c3.6,7.2,15.6,8.5,26.8,2.9
			C60.3,93.7,66.5,83.3,62.9,76.1z"/>
		<path class="st1" d="M163.3,80.8c0.4-2.5-0.6-5-2.2-7.2c0.1-0.4,0.2-0.7,0.3-1.1c1.6-0.6,3.1-1.2,4.3-1.7
			c7.5-3.1,22.1-11.9,20.3-21.1c-0.7-3.5-3.6-6.2-7.5-8.2c3.9-8.5,3.3-19.5-2.4-24.6c-4.3-3.9-11.3-3.9-17.3-2
			c-1.7-8.7-11.9-16.4-19.5-14.7c-5.6,1.2-9.3,7.5-9.8,13.5c-0.7-0.1-1.8-0.2-2.9,0c-5.6,1-10.4,7.7-10.3,14.3
			c0,7.9,6.9,12.5,7.5,12.9c-0.8,4.2-0.2,8.5,2.4,11.6c2.3,2.7,5.7,4,9.4,4.4c-0.1,2.5,0.3,5.3,1.6,8.1c0.7,1.5,1.5,2.8,2.5,4
			c0.4,1.3,0.8,2.7,1,4.3c0.2,2.3,0,4.2-0.4,5.9c0,0-0.1,0.1-0.1,0.1c-0.4,0.7-0.8,1.4-1.2,2c-0.1,0.2-0.3,0.4-0.4,0.6
			c-1.4,2.3,5,7.3,3.2,9.3c2.5,1.3,6,0.2,7.7,0.6C157.5,93.5,162.1,88.7,163.3,80.8z"/>
		<g>
			<path class="st2" d="M64.5,88.9c9.5-3.7,14-31.1,1.7-46.8c-7.8-9.9-22.5-15.3-29.6-10c2.9,8.2,6.6,17.4,11.3,27.2
				C53.3,70.7,59.1,80.5,64.5,88.9z"/>
			<path class="st3" d="M47.8,59.3c-4.7-9.8-8.4-18.9-11.3-27.2c-0.5,0.3-0.9,0.7-1.3,1.2c-6,6.8-0.8,21.7,0.5,25.5
				C41,74.2,54.9,91.1,63.6,89.1c0.3-0.1,0.6-0.2,0.9-0.3C59.1,80.5,53.3,70.7,47.8,59.3z"/>
		</g>
		<path class="st4" d="M88,40.1l8.9,3.9c1.3,0.6,2.9,0.1,3.6-1.2c0.7-1.2,0.1-2.7-1.2-3.3l-7.2-3.2l5.8-5.2c1.1-1,1.1-2.5,0.1-3.5
			c-1-1-2.7-1-3.8,0L87,34.2l-8.9-3.9c-1.3-0.6-2.9-0.1-3.6,1.2c-0.3,0.5-0.3,1-0.3,1.5c0.1,0.8,0.6,1.5,1.4,1.8l7.2,3.2l-5.8,5.2
			c-0.7,0.6-0.9,1.4-0.8,2.2c0.1,0.5,0.3,0.9,0.7,1.3c1,1,2.7,1,3.8,0L88,40.1z"/>
		<path class="st4" d="M101.4,79.2l9.6,5.3c1.4,0.8,3.2,0.3,4-1.2c0.8-1.4,0.3-3.2-1.2-4l-7.7-4.3l6.6-5.8c1.2-1.1,1.3-2.9,0.3-4.1
			c-1.1-1.2-2.9-1.3-4.1-0.3l-8.2,7.2L91,66.8c-1.4-0.8-3.2-0.3-4,1.2c-0.3,0.5-0.4,1.1-0.3,1.7c0.1,0.9,0.6,1.8,1.5,2.2l7.7,4.3
			L89.3,82c-0.7,0.7-1.1,1.6-1,2.5c0.1,0.6,0.3,1.1,0.7,1.6c1.1,1.2,2.9,1.3,4.1,0.3L101.4,79.2z"/>
	</g>
	<g>
		<path class="st0" d="M87.6,187.7c-18.6-1.1-35.1-4.1-48.8-7.6l-10.3,48.6c-6.5,30.8,9.7,60.3,36.3,65.9
			c26.6,5.6,53.4-14.7,59.9-45.5l13.4-63.1C123.5,187.9,106.5,188.9,87.6,187.7z"/>
		<path class="st5" d="M112,230l-27.3,2.5c-9.1,0.8-16.8,5.8-21.6,13l-0.2-0.1L8.3,313.7c-2.7,3.4-3.9,12.8,0.6,12.1
			c27.7-4.3,52.7-14.5,73.3-37.9l54.1-5.1c9.3-0.9,16-9.5,14.9-19.3l0,0C148.9,243.3,131.3,228.2,112,230z"/>
		<path class="st6" d="M106.5,371.2l-16.6-8.7l-34.1,71c-3,0-5.6,0.1-7.9,0.2c-14.2,0.8-19.8,3-22.8,4.5c-1.2,0.6-9.7,4.7-9.1,6.8
			c0.5,1.7,7,2.6,32.6-1.2c-4.4,4.5-8.9,9.1-13.3,13.6c-5.1,6.4-7.2,10.1-6.4,11.2c1.3,1.7,10.4-3.6,27.1-15.8
			c-6,20.9-5.5,25.7-4.1,26.3c2.3,1,9.3-8.1,12.9-17.4c1.2-3,1.9-5.9,2.4-8.8C80.3,425.7,93.4,398.5,106.5,371.2z"/>
		<path class="st5" d="M144.1,341.1c7.7-19-1.5-40.7-20.5-48.4c-18.3-7.4-38.9,0.8-47.4,18.3l-0.3-0.1c-0.8,1.8-2,4.6-3,8.2
			c-4.1,14.4-1.3,26.3-0.3,32.5c1.1,7.9-2.1,31.7-8.4,50.7c-2.2,6.8,1.2,14.2,7.9,16.8c6.7,2.6,14.3-0.5,17.3-7.1
			c8.2-18.4,23.3-37.2,29.5-42.1c4.8-3.8,14.4-9.8,21.6-22.1C141.9,345.8,143.1,343.5,144.1,341.1z"/>
		<path class="st0" d="M91.1,400.8l-16.4,0.1c-37.8,0.2-68.7-30.3-69-68.1l-0.4-63.9c-0.2-39.2,31.3-71.1,70.5-71.4l14-0.1
			c44.8-0.3,81.4,35.9,81.7,80.7l0.3,41C172,364,135.9,400.5,91.1,400.8z"/>
		<path class="st3" d="M105.8,394.4L89.4,385L52,454.6c-3-0.1-5.7-0.1-8-0.1c-14.3,0.2-20.1,2.2-23.2,3.5c-1.2,0.5-10,4.2-9.5,6.4
			c0.4,1.8,6.9,2.8,32.9,0.2c-4.7,4.4-9.4,8.7-14,13.1c-5.4,6.2-7.7,9.8-6.9,10.9c1.3,1.8,10.6-3.1,28-14.7
			c-6.9,20.6-6.7,25.4-5.3,26.1c2.3,1.1,9.8-7.7,13.8-16.9c1.3-2.9,2.2-5.8,2.8-8.7C77,447.7,91.4,421.1,105.8,394.4z"/>
		<path class="st7" d="M156.2,355.6c9.1-18.4,1.6-40.7-16.7-49.8c-17.6-8.8-38.9-2.2-48.6,14.6l-0.2-0.1c-1,1.8-2.4,4.5-3.6,7.9
			c-5.2,14-3.3,26.1-2.9,32.4c0.5,7.9-4.6,31.4-12.3,49.9c-2.8,6.6,0.1,14.3,6.6,17.4c6.5,3.2,14.3,0.6,17.8-5.7
			c9.6-17.7,26.1-35.3,32.6-39.6c5.1-3.4,15.2-8.6,23.3-20.4C153.6,360.1,155,357.9,156.2,355.6z"/>
		<path class="st7" d="M112.1,218.3l-29.4,2.5c-9.8,0.8-18,6.3-23.2,14.3l-0.2-0.1L1.1,310.7c-2.9,3.8,0.3,8.8,5.2,8
			c29.8-4.5,52.3-10.1,74.3-36l58.4-5c10-0.9,17.1-10.5,15.8-21.4l0,0C152,233.6,132.9,216.5,112.1,218.3z"/>
		
			<ellipse transform="matrix(4.780347e-02 -0.9989 0.9989 4.780347e-02 -98.8785 262.7106)" class="st4" cx="88.4" cy="183.2" rx="6.7" ry="49.7"/>
		
			<ellipse transform="matrix(4.780347e-02 -0.9989 0.9989 4.780347e-02 -97.9552 262.4272)" class="st8" cx="88.7" cy="182.6" rx="4.9" ry="36.5"/>
		<path class="st9" d="M94.8,182.2l0.4-8.1c0.1,0,0.1,0,0.2,0c4.5,0.2,8.3-3.1,8.5-7.4c0.2-4.3-3.3-7.9-7.7-8.1
			c-1.9-0.1-3.7,0.5-5.1,1.4c-1.3-1.1-3-1.8-4.9-1.9c-4.5-0.2-8.3,3.1-8.5,7.4c-0.2,4.3,3.3,7.9,7.7,8.1c0.1,0,0.1,0,0.2,0l-0.4,8.1
			c1.2,0.4,2.7,0.7,4.6,0.8C91.9,182.7,93.6,182.4,94.8,182.2z"/>
	</g>
</g>
</svg>
