<?xml version="1.0" encoding="utf-8"?>
<!-- Generator: Adobe Illustrator 26.0.2, SVG Export Plug-In . SVG Version: 6.00 Build 0)  -->
<svg version="1.1" id="Layer_1" xmlns="http://www.w3.org/2000/svg" xmlns:xlink="http://www.w3.org/1999/xlink" x="0px" y="0px"
	 viewBox="0 0 300 293.5" style="enable-background:new 0 0 300 293.5;" xml:space="preserve">
<style type="text/css">
	.st0{fill:#FFDBB8;}
	.st1{fill:#1C1617;}
	.st2{fill:#EAEAEA;}
	.st3{fill:#F9C9D3;}
	.st4{fill:#B27685;}
	.st5{fill:#443237;}
</style>
<g>
	<g>
		<path class="st0" d="M208.5,47.1c2.6-6.6,6.6-14.9,13-23.6c8.3-11.3,17.4-18.8,24.1-23.6c1.4,10.4,2.3,24.6,0,41.1
			c-2.9,20.8-9.6,37-15,47.6C223.2,74.9,215.9,61,208.5,47.1z"/>
		<path class="st0" d="M91.5,54.6c-2.6-6.6-6.6-14.9-13-23.6C70.2,19.7,61.1,12.2,54.4,7.5c-1.4,10.4-2.3,24.6,0,41.1
			c2.9,20.8,9.6,37,15,47.6C76.8,82.4,84.1,68.5,91.5,54.6z"/>
	</g>
	<g>
		<path class="st1" d="M72.9,55.2c-9.2,2.5-26.4,8.5-42.9,23.3C10.6,95.9,2.9,116,0,125.3c5.2,0.1,15.9-0.3,27.5-6.2
			c12.7-6.4,19.6-15.8,22.5-20.2C57.6,84.3,65.2,69.8,72.9,55.2z"/>
		<path class="st1" d="M227.3,55.1c9.2,2.5,26.4,8.6,42.8,23.4c19.3,17.5,27,37.6,29.8,46.9c-5.2,0.1-15.9-0.4-27.4-6.3
			c-12.7-6.4-19.6-15.9-22.4-20.3C242.5,84.3,234.9,69.7,227.3,55.1z"/>
	</g>
	<path class="st2" d="M280.5,145.8c-9.2-66.5-67-115.8-133-114.5c-64.2,1.3-119,50-127.9,114.6c0,6.6,0,13.2,0,19.8c0,0,0,0,0,0.1
		c0,70.2,58.4,127.1,130.5,127.1c72.1,0,130.5-56.9,130.5-127.1c0,0,0,0,0,0h0V145.8z"/>
	<g>
		<ellipse class="st3" cx="150" cy="225.1" rx="73.2" ry="54.4"/>
		<g>
			<circle class="st4" cx="119" cy="226.7" r="10.4"/>
			<circle class="st4" cx="181" cy="226.7" r="10.4"/>
		</g>
	</g>
	<g>
		<ellipse class="st5" cx="83.7" cy="144.5" rx="14.6" ry="27.2"/>
		<ellipse class="st5" cx="216.3" cy="144.5" rx="14.6" ry="27.2"/>
	</g>
</g>
</svg>
