<svg xmlns="http://www.w3.org/2000/svg" viewBox="0 0 105.79 137.1"><defs><style>.cls-1,.cls-14,.cls-15{fill:none;}.cls-2{fill:#f9d57a;}.cls-3{fill:#efb430;}.cls-4{fill:#ffdbb8;}.cls-5{fill:#0f0e0e;}.cls-6{fill:#eaeaea;}.cls-7{fill:#f9c9d3;}.cls-8{fill:#b27685;}.cls-9{fill:#443237;}.cls-10,.cls-12{fill:#424141;}.cls-10,.cls-11{opacity:0.28;}.cls-13{fill:#939393;}.cls-14,.cls-15{stroke:#939393;stroke-miterlimit:10;}.cls-14{stroke-width:3.5px;}.cls-15{stroke-width:3px;}.cls-16{fill:#fff;opacity:0.14;}</style></defs><g id="Layer_2" data-name="Layer 2"><g id="Layer_2-2" data-name="Layer 2"><path class="cls-1" d="M37.63,101.67a5.09,5.09,0,0,0,.29,1.13,3.91,3.91,0,0,0,.55,1,2.3,2.3,0,0,1,.73-1,1.56,1.56,0,0,1,1-.32,5.23,5.23,0,0,0-.33-1.07,4.46,4.46,0,0,0-.54-.91,2.11,2.11,0,0,1-.69,1A1.21,1.21,0,0,1,37.63,101.67Z"/><path class="cls-1" d="M41.82,110.09a3.5,3.5,0,0,0,.48,1,2.81,2.81,0,0,0,.75.78,2.84,2.84,0,0,1,.7-1.26A2.34,2.34,0,0,1,44.9,110a3.88,3.88,0,0,0-.52-1,3.47,3.47,0,0,0-.73-.71,2.57,2.57,0,0,1-.67,1.25A1.72,1.72,0,0,1,41.82,110.09Z"/><path class="cls-1" d="M39.6,104.44a.53.53,0,0,0,.34-.11,1,1,0,0,0,.23-.34.63.63,0,0,0-.34.11A.85.85,0,0,0,39.6,104.44Z"/><path class="cls-1" d="M39.52,106a3.94,3.94,0,0,0,.38,1.09,3.12,3.12,0,0,0,.66.88,2.52,2.52,0,0,1,.71-1.14,1.89,1.89,0,0,1,1.1-.48,5.18,5.18,0,0,0-.43-1,3.77,3.77,0,0,0-.64-.82,2.33,2.33,0,0,1-.68,1.15A1.44,1.44,0,0,1,39.52,106Z"/><path class="cls-1" d="M44.52,113.77a3.33,3.33,0,0,0,.57.94,2.88,2.88,0,0,0,.85.64,3.22,3.22,0,0,1,.68-1.37,3,3,0,0,1,1.2-.86,3,3,0,0,0-.6-.85,3.06,3.06,0,0,0-.83-.58,2.79,2.79,0,0,1-.65,1.36A2.23,2.23,0,0,1,44.52,113.77Z"/><path class="cls-1" d="M41.81,108.5a.69.69,0,0,0,.36-.16,1,1,0,0,0,.22-.38.72.72,0,0,0-.35.17A.87.87,0,0,0,41.81,108.5Z"/><path class="cls-1" d="M51.07,119.58a2.29,2.29,0,0,0,.74.71,2.38,2.38,0,0,0,3.1-.68A1.82,1.82,0,0,0,54,117a2.76,2.76,0,0,0-1-.24,3.59,3.59,0,0,1-.59,1.61A3.66,3.66,0,0,1,51.07,119.58Z"/><path class="cls-1" d="M38.35,99.73a.48.48,0,0,0-.31.07.88.88,0,0,0-.24.31.49.49,0,0,0,.32-.07A.68.68,0,0,0,38.35,99.73Z"/><path class="cls-1" d="M38.51,98.17a5.36,5.36,0,0,0-.24-1.12c-.44-1.35-1.16-2-1.6-1.73s-.72,1.52-.3,3a4,4,0,0,0,.45,1,2.08,2.08,0,0,1,.72-.94A1.26,1.26,0,0,1,38.51,98.17Z"/><path class="cls-1" d="M47.42,115.41a1.09,1.09,0,0,0,.4-.29,1.3,1.3,0,0,0,.21-.46,1.31,1.31,0,0,0-.39.3A1.35,1.35,0,0,0,47.42,115.41Z"/><path class="cls-1" d="M47.62,117a2.68,2.68,0,0,0,.65.84,2.47,2.47,0,0,0,.94.48,3.68,3.68,0,0,1,.66-1.49,3.91,3.91,0,0,1,1.24-1.09,2.64,2.64,0,0,0-.69-.73,2.85,2.85,0,0,0-.91-.42,3.19,3.19,0,0,1-.63,1.48A2.78,2.78,0,0,1,47.62,117Z"/><path class="cls-1" d="M50.79,118.07a1.64,1.64,0,0,0,.41-.37,1.33,1.33,0,0,0,.2-.49,1.39,1.39,0,0,0-.61.86Z"/><path class="cls-1" d="M44.42,112.19a1,1,0,0,0,.38-.22,1.12,1.12,0,0,0,.22-.42,1,1,0,0,0-.37.23A1.25,1.25,0,0,0,44.42,112.19Z"/><path class="cls-2" d="M38.47,103.76a3.91,3.91,0,0,1-.55-1,5.09,5.09,0,0,1-.29-1.13,2.41,2.41,0,0,1-1.14-.77,6.59,6.59,0,0,0,.42,2.51,5.06,5.06,0,0,0,1.32,2A4.48,4.48,0,0,1,38.47,103.76Z"/><path class="cls-3" d="M36.32,93.83c-1,.55-1.54,2.69-.93,4.92a5.58,5.58,0,0,0,1.1,2.15,2.41,2.41,0,0,0,1.14.77,1.21,1.21,0,0,0,1-.2,2.11,2.11,0,0,0,.69-1,1.5,1.5,0,0,0-1-.69.68.68,0,0,1-.23.31.49.49,0,0,1-.32.07,1.53,1.53,0,0,1-1-.82,4,4,0,0,1-.45-1c-.42-1.43-.14-2.69.3-3s1.16.38,1.6,1.73a5.36,5.36,0,0,1,.24,1.12,2.17,2.17,0,0,1,1.07.59,8.23,8.23,0,0,0-.44-2.4C38.45,94.35,37.31,93.27,36.32,93.83Z"/><path class="cls-3" d="M41.3,104.53a3.77,3.77,0,0,1,.64.82,5.18,5.18,0,0,1,.43,1,2.65,2.65,0,0,1,1.32.25,6.07,6.07,0,0,0-.83-2.22,4.86,4.86,0,0,0-1.43-1.56A4.64,4.64,0,0,1,41.3,104.53Z"/><path class="cls-2" d="M39.58,98.76a2.17,2.17,0,0,0-1.07-.59,1.26,1.26,0,0,0-1,.18,2.08,2.08,0,0,0-.72.94,1.53,1.53,0,0,0,1,.82A.88.88,0,0,1,38,99.8a.48.48,0,0,1,.31-.07,1.5,1.5,0,0,1,1,.69,4.46,4.46,0,0,1,.54.91,5.23,5.23,0,0,1,.33,1.07,3,3,0,0,1-.06,1.59,1,1,0,0,1-.23.34.53.53,0,0,1-.34.11,2.61,2.61,0,0,0-.08,1.58,1.44,1.44,0,0,0,1.1-.34,2.33,2.33,0,0,0,.68-1.15,4.64,4.64,0,0,0,.13-1.69,7.19,7.19,0,0,0-.64-2.33A5.49,5.49,0,0,0,39.58,98.76Z"/><path class="cls-2" d="M43.05,111.89a2.81,2.81,0,0,1-.75-.78,3.5,3.5,0,0,1-.48-1,2.44,2.44,0,0,1-1.42-.41,5.36,5.36,0,0,0,.82,2.34A4.07,4.07,0,0,0,43,113.59,4,4,0,0,1,43.05,111.89Z"/><path class="cls-3" d="M42.39,108a1,1,0,0,1-.22.38.69.69,0,0,1-.36.16,1.48,1.48,0,0,1-1.25-.51,3.12,3.12,0,0,1-.66-.88,3.94,3.94,0,0,1-.38-1.09,2.61,2.61,0,0,1,.08-1.58.85.85,0,0,1,.23-.34.63.63,0,0,1,.34-.11,3,3,0,0,0,.06-1.59,1.56,1.56,0,0,0-1,.32,2.3,2.3,0,0,0-.73,1,4.48,4.48,0,0,0-.24,1.65,6.12,6.12,0,0,0,.62,2.45,4.64,4.64,0,0,0,1.55,1.82,2.44,2.44,0,0,0,1.42.41,1.72,1.72,0,0,0,1.16-.52,2.57,2.57,0,0,0,.67-1.25A1.66,1.66,0,0,0,42.39,108Z"/><path class="cls-3" d="M46.39,111.69a3.06,3.06,0,0,1,.83.58,3,3,0,0,1,.6.85,3.54,3.54,0,0,1,1.55-.25A4.34,4.34,0,0,0,48.18,111a4.12,4.12,0,0,0-1.84-1A3.92,3.92,0,0,1,46.39,111.69Z"/><path class="cls-2" d="M43.69,106.62a2.65,2.65,0,0,0-1.32-.25,1.89,1.89,0,0,0-1.1.48,2.52,2.52,0,0,0-.71,1.14,1.48,1.48,0,0,0,1.25.51.87.87,0,0,1,.23-.37.72.72,0,0,1,.35-.17,1.66,1.66,0,0,1,1.26.36,3.47,3.47,0,0,1,.73.71,3.88,3.88,0,0,1,.52,1,2.5,2.5,0,0,1,.12,1.57,1.12,1.12,0,0,1-.22.42,1,1,0,0,1-.38.22,2.38,2.38,0,0,0,.1,1.58,2.23,2.23,0,0,0,1.22-.72,2.79,2.79,0,0,0,.65-1.36,3.92,3.92,0,0,0,0-1.7,5.15,5.15,0,0,0-1-2.06A4.46,4.46,0,0,0,43.69,106.62Z"/><path class="cls-2" d="M49.21,118.28a2.47,2.47,0,0,1-.94-.48,2.68,2.68,0,0,1-.65-.84,2.83,2.83,0,0,1-1.66.09,3.93,3.93,0,0,0,1.2,2,3.47,3.47,0,0,0,2.16.91A3.51,3.51,0,0,1,49.21,118.28Z"/><path class="cls-3" d="M48,114.66a1.3,1.3,0,0,1-.21.46,1.09,1.09,0,0,1-.4.29,1.76,1.76,0,0,1-1.48-.06,2.88,2.88,0,0,1-.85-.64,3.33,3.33,0,0,1-.57-.94,2.38,2.38,0,0,1-.1-1.58,1.25,1.25,0,0,1,.23-.41,1,1,0,0,1,.37-.23A2.5,2.5,0,0,0,44.9,110a2.34,2.34,0,0,0-1.15.65,2.84,2.84,0,0,0-.7,1.26,4,4,0,0,0-.07,1.7,4.61,4.61,0,0,0,1,2.2,3.66,3.66,0,0,0,2,1.26,2.83,2.83,0,0,0,1.66-.09,2.78,2.78,0,0,0,1.26-.93,3.19,3.19,0,0,0,.63-1.48A2.14,2.14,0,0,0,48,114.66Z"/><path class="cls-2" d="M49.37,112.87a3.54,3.54,0,0,0-1.55.25,3,3,0,0,0-1.2.86,3.22,3.22,0,0,0-.68,1.37,1.76,1.76,0,0,0,1.48.06,1.35,1.35,0,0,1,.22-.45,1.31,1.31,0,0,1,.39-.3,2.14,2.14,0,0,1,1.48-.11,2.85,2.85,0,0,1,.91.42,2.64,2.64,0,0,1,.69.73,2,2,0,0,1,.29,1.51,1.33,1.33,0,0,1-.2.49,1.64,1.64,0,0,1-.41.37,2,2,0,0,0,.28,1.51,3.66,3.66,0,0,0,1.31-1.17A3.59,3.59,0,0,0,53,116.8a3.29,3.29,0,0,0-.22-1.65,3.49,3.49,0,0,0-1.37-1.63A3.92,3.92,0,0,0,49.37,112.87Z"/><path class="cls-3" d="M52.75,115.15A3.29,3.29,0,0,1,53,116.8a2.76,2.76,0,0,1,1,.24,1.82,1.82,0,0,1,.95,2.57,2.38,2.38,0,0,1-3.1.68,2.29,2.29,0,0,1-.74-.71,2,2,0,0,1-.28-1.51,1.39,1.39,0,0,1,.61-.86,2,2,0,0,0-.29-1.51,3.91,3.91,0,0,0-1.24,1.09,3.68,3.68,0,0,0-.66,1.49,3.51,3.51,0,0,0,.11,1.7,3.3,3.3,0,0,0,1.38,1.79c1.75,1.12,4.34.28,5.49-1.69s.47-4-1.27-4.69A4,4,0,0,0,52.75,115.15Z"/><path class="cls-1" d="M68.16,101.67a5.09,5.09,0,0,1-.29,1.13,3.91,3.91,0,0,1-.55,1,2.3,2.3,0,0,0-.73-1,1.56,1.56,0,0,0-1-.32,5.23,5.23,0,0,1,.33-1.07,4.46,4.46,0,0,1,.54-.91,2.11,2.11,0,0,0,.69,1A1.21,1.21,0,0,0,68.16,101.67Z"/><path class="cls-1" d="M64,110.09a3.5,3.5,0,0,1-.48,1,2.81,2.81,0,0,1-.75.78,2.75,2.75,0,0,0-.7-1.26,2.34,2.34,0,0,0-1.15-.65,3.88,3.88,0,0,1,.52-1,3.47,3.47,0,0,1,.73-.71,2.57,2.57,0,0,0,.67,1.25A1.72,1.72,0,0,0,64,110.09Z"/><path class="cls-1" d="M66.19,104.44a.53.53,0,0,1-.34-.11,1,1,0,0,1-.23-.34.63.63,0,0,1,.34.11A.85.85,0,0,1,66.19,104.44Z"/><path class="cls-1" d="M66.27,106a3.94,3.94,0,0,1-.38,1.09,3.12,3.12,0,0,1-.66.88,2.52,2.52,0,0,0-.71-1.14,1.89,1.89,0,0,0-1.1-.48,5.18,5.18,0,0,1,.43-1,3.77,3.77,0,0,1,.64-.82,2.33,2.33,0,0,0,.68,1.15A1.44,1.44,0,0,0,66.27,106Z"/><path class="cls-1" d="M61.27,113.77a3.33,3.33,0,0,1-.57.94,2.88,2.88,0,0,1-.85.64,3.22,3.22,0,0,0-.68-1.37,3,3,0,0,0-1.2-.86,3,3,0,0,1,.6-.85,3.06,3.06,0,0,1,.83-.58,2.79,2.79,0,0,0,.65,1.36A2.23,2.23,0,0,0,61.27,113.77Z"/><path class="cls-1" d="M64,108.5a.69.69,0,0,1-.36-.16,1.15,1.15,0,0,1-.22-.38.8.8,0,0,1,.36.17A1,1,0,0,1,64,108.5Z"/><path class="cls-1" d="M54.72,119.58a2.29,2.29,0,0,1-.74.71,2.38,2.38,0,0,1-3.1-.68,1.82,1.82,0,0,1,.95-2.57,2.76,2.76,0,0,1,1-.24,3.59,3.59,0,0,0,.59,1.61A3.66,3.66,0,0,0,54.72,119.58Z"/><path class="cls-1" d="M67.44,99.73a.48.48,0,0,1,.31.07.88.88,0,0,1,.24.31.49.49,0,0,1-.32-.07A.68.68,0,0,1,67.44,99.73Z"/><path class="cls-1" d="M67.28,98.17a6.09,6.09,0,0,1,.24-1.12c.44-1.35,1.16-2,1.6-1.73s.72,1.52.3,3a4.4,4.4,0,0,1-.44,1,2.09,2.09,0,0,0-.73-.94A1.26,1.26,0,0,0,67.28,98.17Z"/><path class="cls-1" d="M58.37,115.41a1.09,1.09,0,0,1-.4-.29,1.3,1.3,0,0,1-.21-.46,1.31,1.31,0,0,1,.39.3A1.35,1.35,0,0,1,58.37,115.41Z"/><path class="cls-1" d="M58.17,117a2.68,2.68,0,0,1-.65.84,2.47,2.47,0,0,1-.94.48,3.68,3.68,0,0,0-.66-1.49,3.91,3.91,0,0,0-1.24-1.09,2.64,2.64,0,0,1,.69-.73,2.85,2.85,0,0,1,.91-.42,3.19,3.19,0,0,0,.63,1.48A2.78,2.78,0,0,0,58.17,117Z"/><path class="cls-1" d="M55,118.07a1.64,1.64,0,0,1-.41-.37,1.33,1.33,0,0,1-.2-.49,1.56,1.56,0,0,1,.4.37A1.55,1.55,0,0,1,55,118.07Z"/><path class="cls-1" d="M61.37,112.19A1,1,0,0,1,61,112a1.12,1.12,0,0,1-.22-.42,1,1,0,0,1,.37.23A1.25,1.25,0,0,1,61.37,112.19Z"/><path class="cls-2" d="M67.32,103.76a3.91,3.91,0,0,0,.55-1,5.09,5.09,0,0,0,.29-1.13,2.41,2.41,0,0,0,1.14-.77,6.59,6.59,0,0,1-.42,2.51,5,5,0,0,1-1.32,2A4.48,4.48,0,0,0,67.32,103.76Z"/><path class="cls-3" d="M69.47,93.83c1,.55,1.54,2.69.93,4.92a5.58,5.58,0,0,1-1.1,2.15,2.41,2.41,0,0,1-1.14.77,1.21,1.21,0,0,1-1-.2,2.11,2.11,0,0,1-.69-1,1.5,1.5,0,0,1,1-.69.68.68,0,0,0,.23.31.49.49,0,0,0,.32.07,1.56,1.56,0,0,0,1-.82,4.4,4.4,0,0,0,.44-1c.42-1.43.14-2.69-.3-3s-1.16.38-1.6,1.73a6.09,6.09,0,0,0-.24,1.12,2.17,2.17,0,0,0-1.07.59,8.23,8.23,0,0,1,.44-2.4C67.34,94.35,68.48,93.27,69.47,93.83Z"/><path class="cls-3" d="M64.49,104.53a3.77,3.77,0,0,0-.64.82,5.18,5.18,0,0,0-.43,1,2.65,2.65,0,0,0-1.32.25,6.07,6.07,0,0,1,.83-2.22,4.86,4.86,0,0,1,1.43-1.56A4.64,4.64,0,0,0,64.49,104.53Z"/><path class="cls-2" d="M66.21,98.76a2.17,2.17,0,0,1,1.07-.59,1.26,1.26,0,0,1,1,.18,2.09,2.09,0,0,1,.73.94,1.56,1.56,0,0,1-1,.82.88.88,0,0,0-.24-.31.48.48,0,0,0-.31-.07,1.5,1.5,0,0,0-1,.69,4.46,4.46,0,0,0-.54.91,5.23,5.23,0,0,0-.33,1.07,3,3,0,0,0,.06,1.59,1,1,0,0,0,.23.34.53.53,0,0,0,.34.11,2.61,2.61,0,0,1,.08,1.58,1.44,1.44,0,0,1-1.1-.34,2.33,2.33,0,0,1-.68-1.15,4.64,4.64,0,0,1-.13-1.69,7.19,7.19,0,0,1,.64-2.33A5.49,5.49,0,0,1,66.21,98.76Z"/><path class="cls-2" d="M62.74,111.89a2.81,2.81,0,0,0,.75-.78,3.5,3.5,0,0,0,.48-1,2.44,2.44,0,0,0,1.42-.41,5.36,5.36,0,0,1-.82,2.34,4.07,4.07,0,0,1-1.76,1.57A4,4,0,0,0,62.74,111.89Z"/><path class="cls-3" d="M63.4,108a1.15,1.15,0,0,0,.22.38.69.69,0,0,0,.36.16,1.48,1.48,0,0,0,1.25-.51,3.12,3.12,0,0,0,.66-.88,3.94,3.94,0,0,0,.38-1.09,2.61,2.61,0,0,0-.08-1.58.85.85,0,0,0-.23-.34.63.63,0,0,0-.34-.11,3,3,0,0,1-.06-1.59,1.56,1.56,0,0,1,1,.32,2.3,2.3,0,0,1,.73,1,4.48,4.48,0,0,1,.24,1.65,6.12,6.12,0,0,1-.62,2.45,4.64,4.64,0,0,1-1.55,1.82,2.44,2.44,0,0,1-1.42.41,1.72,1.72,0,0,1-1.16-.52,2.57,2.57,0,0,1-.67-1.25A1.66,1.66,0,0,1,63.4,108Z"/><path class="cls-3" d="M59.4,111.69a3.06,3.06,0,0,0-.83.58,3,3,0,0,0-.6.85,3.54,3.54,0,0,0-1.55-.25A4.34,4.34,0,0,1,57.61,111a4.12,4.12,0,0,1,1.84-1A3.92,3.92,0,0,0,59.4,111.69Z"/><path class="cls-2" d="M62.1,106.62a2.65,2.65,0,0,1,1.32-.25,1.89,1.89,0,0,1,1.1.48,2.52,2.52,0,0,1,.71,1.14,1.48,1.48,0,0,1-1.25.51,1,1,0,0,0-.22-.37.8.8,0,0,0-.36-.17,1.66,1.66,0,0,0-1.26.36,3.47,3.47,0,0,0-.73.71,3.88,3.88,0,0,0-.52,1,2.5,2.5,0,0,0-.12,1.57A1.12,1.12,0,0,0,61,112a1,1,0,0,0,.38.22,2.38,2.38,0,0,1-.1,1.58,2.23,2.23,0,0,1-1.22-.72,2.79,2.79,0,0,1-.65-1.36,3.92,3.92,0,0,1,.05-1.7,5.15,5.15,0,0,1,1-2.06A4.46,4.46,0,0,1,62.1,106.62Z"/><path class="cls-2" d="M56.58,118.28a2.47,2.47,0,0,0,.94-.48,2.68,2.68,0,0,0,.65-.84,2.83,2.83,0,0,0,1.66.09,3.93,3.93,0,0,1-1.2,2,3.47,3.47,0,0,1-2.16.91A3.51,3.51,0,0,0,56.58,118.28Z"/><path class="cls-3" d="M57.76,114.66a1.3,1.3,0,0,0,.21.46,1.09,1.09,0,0,0,.4.29,1.76,1.76,0,0,0,1.48-.06,2.88,2.88,0,0,0,.85-.64,3.33,3.33,0,0,0,.57-.94,2.38,2.38,0,0,0,.1-1.58,1.25,1.25,0,0,0-.23-.41,1,1,0,0,0-.37-.23,2.5,2.5,0,0,1,.12-1.57,2.34,2.34,0,0,1,1.15.65,2.75,2.75,0,0,1,.7,1.26,4,4,0,0,1,.07,1.7,4.69,4.69,0,0,1-1,2.2,3.72,3.72,0,0,1-2,1.26,2.83,2.83,0,0,1-1.66-.09,2.78,2.78,0,0,1-1.26-.93,3.19,3.19,0,0,1-.63-1.48A2.14,2.14,0,0,1,57.76,114.66Z"/><path class="cls-2" d="M56.42,112.87a3.54,3.54,0,0,1,1.55.25,3,3,0,0,1,1.2.86,3.22,3.22,0,0,1,.68,1.37,1.76,1.76,0,0,1-1.48.06,1.35,1.35,0,0,0-.22-.45,1.31,1.31,0,0,0-.39-.3,2.14,2.14,0,0,0-1.48-.11,2.85,2.85,0,0,0-.91.42,2.64,2.64,0,0,0-.69.73,2,2,0,0,0-.29,1.51,1.33,1.33,0,0,0,.2.49,1.64,1.64,0,0,0,.41.37,2,2,0,0,1-.28,1.51,3.66,3.66,0,0,1-1.31-1.17,3.59,3.59,0,0,1-.59-1.61,3.4,3.4,0,0,1,.22-1.65,3.49,3.49,0,0,1,1.37-1.63A3.92,3.92,0,0,1,56.42,112.87Z"/><path class="cls-3" d="M53,115.15a3.4,3.4,0,0,0-.22,1.65,2.76,2.76,0,0,0-1,.24,1.82,1.82,0,0,0-.95,2.57,2.38,2.38,0,0,0,3.1.68,2.29,2.29,0,0,0,.74-.71,2,2,0,0,0,.28-1.51,1.55,1.55,0,0,0-.21-.49,1.56,1.56,0,0,0-.4-.37,2,2,0,0,1,.29-1.51,3.91,3.91,0,0,1,1.24,1.09,3.68,3.68,0,0,1,.66,1.49,3.51,3.51,0,0,1-.11,1.7,3.3,3.3,0,0,1-1.38,1.79c-1.75,1.12-4.33.28-5.49-1.69s-.47-4,1.27-4.69A4,4,0,0,1,53,115.15Z"/><polygon class="cls-3" points="53.57 125.94 52.15 125.94 51.82 121.57 53.97 121.57 53.57 125.94"/><path class="cls-3" d="M59.52,133.36a1.91,1.91,0,0,0,.08-.54v-.53a2.11,2.11,0,0,0-1-1.76,2.41,2.41,0,0,0,.67-.64,2.29,2.29,0,0,0,.24-2.15,5.06,5.06,0,0,0-.64-1.13c0-.18.07-.35.1-.53h0a7.66,7.66,0,0,0,0-2h0a1.51,1.51,0,0,0-2.37-1h0a5.26,5.26,0,0,0-1.26,1.23,9.11,9.11,0,0,0-5.07,0A5.45,5.45,0,0,0,49.06,123h0a1.51,1.51,0,0,0-2.37,1h0a7.27,7.27,0,0,0,0,2,4.94,4.94,0,0,0,.1.53,4.69,4.69,0,0,0-.64,1.13,2.29,2.29,0,0,0,.23,2.15,2.51,2.51,0,0,0,.76.69,2.09,2.09,0,0,0-.89,1.71v.53a2.11,2.11,0,0,0,.09.56,2.28,2.28,0,0,0-.28,1.31,2.73,2.73,0,0,0,2.78,2.41h8.37a2.62,2.62,0,0,0,2.6-2.69A2.09,2.09,0,0,0,59.52,133.36Z"/><path class="cls-2" d="M53.3,131.38h-.63c-1.11.1-2,.72-2,1.46s1,1.48,2.28,1.48,2.29-.67,2.29-1.48S54.41,131.48,53.3,131.38Z"/><path class="cls-2" d="M57.53,129.89H56.44c0,.65-.35,1.15-.79,1.15s-.77-.5-.78-1.15H50.72c0,.65-.36,1.15-.79,1.15s-.77-.5-.78-1.15h-.83a.55.55,0,0,0-.55.55v.35a.55.55,0,0,0,.55.55h3a3.32,3.32,0,0,1,3.23,0h2.93a.56.56,0,0,0,.56-.55v-.35A.56.56,0,0,0,57.53,129.89Z"/><path class="cls-2" d="M57.66,133.78H55.25a3.11,3.11,0,0,1-4.53,0H48.19a.63.63,0,0,0-.63.63v.09a1.09,1.09,0,0,0,1.08,1.09h8.57a1.08,1.08,0,0,0,1.08-1.09v-.09A.63.63,0,0,0,57.66,133.78Z"/><path class="cls-2" d="M50.38,132.84a1.61,1.61,0,0,1,.53-1.15H48.37a.6.6,0,0,0-.6.6v.53a.6.6,0,0,0,.6.6h2.14A1.44,1.44,0,0,1,50.38,132.84Z"/><path class="cls-2" d="M57.48,131.69H55.06a1.61,1.61,0,0,1,.53,1.15,1.44,1.44,0,0,1-.13.58h2a.6.6,0,0,0,.61-.6v-.53A.6.6,0,0,0,57.48,131.69Z"/><path class="cls-2" d="M58.16,128.3a3.87,3.87,0,0,0-.91-1.32,6,6,0,0,0,.27-1.11,5.72,5.72,0,0,0,0-1.61,4,4,0,0,0-.94.93,4,4,0,0,0-.51.92l0,0a7.18,7.18,0,0,0-6.47,0l0,0a4,4,0,0,0-.51-.92,4.25,4.25,0,0,0-.94-.93,5.72,5.72,0,0,0,0,1.61,5.33,5.33,0,0,0,.26,1.11,3.84,3.84,0,0,0-.9,1.32.87.87,0,0,0,.88,1.14h.76c.1-.48.39-.81.74-.81s.64.33.75.81h4.23c.1-.48.39-.81.74-.81s.64.33.75.81h.88A.87.87,0,0,0,58.16,128.3Z"/><path class="cls-4" d="M73.52,16.62A36.92,36.92,0,0,1,86.61,0,52.67,52.67,0,0,1,81.3,31.3Z"/><path class="cls-4" d="M32.27,19.26A37.33,37.33,0,0,0,27.67,11a36.78,36.78,0,0,0-8.49-8.31,52.63,52.63,0,0,0,5.31,31.29Z"/><path class="cls-5" d="M25.69,20.09A37,37,0,0,0,0,44.82a20.61,20.61,0,0,0,9.69-2.18,20.49,20.49,0,0,0,7.92-7.13Z"/><path class="cls-5" d="M80.17,20.08a36.93,36.93,0,0,1,25.62,24.8,20.36,20.36,0,0,1-17.58-9.36Z"/><path class="cls-6" d="M99.1,57.92C99.54,32.1,77.82,10.57,52,11c-25.1.44-45.92,21.49-45.48,46.91C6.94,83,27.89,103.3,52.89,103.25S98.69,82.73,99.1,57.92Z"/><ellipse class="cls-7" cx="52.9" cy="84.31" rx="25.81" ry="19.18"/><circle class="cls-8" cx="41.95" cy="84.87" r="3.67"/><circle class="cls-8" cx="63.84" cy="84.87" r="3.67"/><ellipse class="cls-9" cx="29.52" cy="50.95" rx="5.15" ry="9.59"/><ellipse class="cls-9" cx="76.27" cy="50.95" rx="5.15" ry="9.59"/><path class="cls-10" d="M34.49,38.8a58.82,58.82,0,0,0-8.34.67c-1.56.24-3,.53-4.44.86a11.34,11.34,0,0,0-5.28,2.85l-7.91.55c-.19.58-.36,1.19-.52,1.83l-.21.85,6.22.08a11.5,11.5,0,0,0-1.16,5V54A11.5,11.5,0,0,0,23.43,65.45c1.51.13,3.09.2,4.75.21,1,0,1.94,0,2.87-.06A13.5,13.5,0,0,0,43.93,52.11v-4A9.36,9.36,0,0,0,34.49,38.8Z"/><g class="cls-11"><path class="cls-12" d="M64.46,43.49a94,94,0,0,0-23.72,0L40.3,40a97.2,97.2,0,0,1,24.6,0Z"/></g><path class="cls-10" d="M71.22,39.29a58.85,58.85,0,0,1,8.34.66c1.55.24,3,.53,4.44.86a11.52,11.52,0,0,1,5.28,2.85l8,.56.63,2.69L91.7,47a11.54,11.54,0,0,1,1.16,5v2.48A11.51,11.51,0,0,1,82.28,65.94c-1.51.12-3.1.2-4.75.2-1,0-1.94,0-2.87-.06A13.49,13.49,0,0,1,61.78,52.6v-4A9.35,9.35,0,0,1,71.22,39.29Z"/><g class="cls-11"><path class="cls-12" d="M41.44,53.72l-1.52-2.59a25.35,25.35,0,0,1,25.69,0l-1.52,2.59a22.33,22.33,0,0,0-22.65,0Z"/></g><path class="cls-13" d="M17.66,45.82l-9.32-.08a.8.8,0,0,1-.76-1l.34-1.14A.79.79,0,0,1,8.63,43c2.73-.19,6-.37,8.66-.56Z"/><path class="cls-13" d="M88,45.82h9.51a.62.62,0,0,0,.6-.8l-.46-1.61a.64.64,0,0,0-.57-.46l-8.71-.52Z"/><path class="cls-14" d="M40.52,40.91a96.53,96.53,0,0,1,12.59-.77,94.49,94.49,0,0,1,11.57.77"/><path class="cls-15" d="M40.52,51.45a23.79,23.79,0,0,1,24.16,0"/><path class="cls-5" d="M14,52.72A11.5,11.5,0,0,0,24.57,64.17c1.51.13,3.09.2,4.75.21,1,0,1.93,0,2.86-.06A13.49,13.49,0,0,0,45.06,50.83v-4a9.36,9.36,0,0,0-9.44-9.35,59.05,59.05,0,0,0-8.34.67c-1.55.24-3,.53-4.43.86A11.48,11.48,0,0,0,14,50.23Z"/><path class="cls-5" d="M91.81,52.72A11.5,11.5,0,0,1,81.22,64.17c-1.5.13-3.09.2-4.75.21-1,0-1.93,0-2.86-.06A13.49,13.49,0,0,1,60.73,50.83v-4a9.36,9.36,0,0,1,9.44-9.35,59.05,59.05,0,0,1,8.34.67c1.55.24,3,.53,4.43.86a11.48,11.48,0,0,1,8.87,11.18Z"/><path class="cls-16" d="M22.89,39.05,37.67,62.86a13.48,13.48,0,0,0,1.67-1L25.66,38.49C24.71,38.66,23.78,38.85,22.89,39.05Z"/><path class="cls-16" d="M20.13,40.05a11.51,11.51,0,0,0-3.9,3.29L29.31,64.41c1,0,1.89,0,2.79-.06a12.78,12.78,0,0,0,1.53-.16Z"/><path class="cls-16" d="M72.52,37.61,86.41,62.44a11.13,11.13,0,0,0,1.8-1.4L76,37.88C74.79,37.75,73.64,37.66,72.52,37.61Z"/><path class="cls-16" d="M63.63,40.1,77.21,64.37l4-.19L67,38.07l-.66.26A9.44,9.44,0,0,0,63.63,40.1Z"/></g></g></svg>