<svg xmlns="http://www.w3.org/2000/svg" viewBox="0 0 105.79 103.5"><defs><style>.cls-1{fill:#ffdbb8;}.cls-2{fill:#8b5e3c;}.cls-3{fill:#754c29;}.cls-4{fill:#c49a6c;}.cls-5{fill:#e6cbd5;}.cls-6{fill:#ba6e8a;}.cls-7{fill:#443237;}</style></defs><g id="Layer_2" data-name="Layer 2"><g id="Layer_1-2" data-name="Layer 1"><path class="cls-1" d="M73.52,16.62A36.92,36.92,0,0,1,86.61,0,52.67,52.67,0,0,1,81.3,31.3Z"/><path class="cls-1" d="M32.27,19.26A37.33,37.33,0,0,0,27.67,11a36.78,36.78,0,0,0-8.49-8.31,52.63,52.63,0,0,0,5.31,31.29Z"/><path class="cls-2" d="M25.69,20.12A36.92,36.92,0,0,0,0,44.84a20.36,20.36,0,0,0,9.69-2.18,20.49,20.49,0,0,0,7.92-7.12Z"/><path class="cls-3" d="M80.17,20.1a37,37,0,0,1,25.62,24.8,20.32,20.32,0,0,1-17.58-9.35Z"/><path class="cls-4" d="M98.9,58A47,47,0,0,0,77.63,18.29,45.83,45.83,0,0,0,20.8,24.08,46.68,46.68,0,0,0,6.89,57.72v.72c0,24.75,20.6,44.81,46,44.81s46-20.06,46-44.81h0Z"/><ellipse class="cls-5" cx="52.9" cy="84.31" rx="25.81" ry="19.18"/><circle class="cls-6" cx="41.95" cy="84.87" r="3.67"/><circle class="cls-6" cx="63.84" cy="84.87" r="3.67"/><ellipse class="cls-7" cx="29.52" cy="50.95" rx="5.15" ry="9.59"/><ellipse class="cls-7" cx="76.27" cy="50.95" rx="5.15" ry="9.59"/></g></g></svg>