<?xml version="1.0" encoding="utf-8"?>
<!-- Generator: Adobe Illustrator 26.0.2, SVG Export Plug-In . SVG Version: 6.00 Build 0)  -->
<svg version="1.1" id="Layer_1" xmlns="http://www.w3.org/2000/svg" xmlns:xlink="http://www.w3.org/1999/xlink" x="0px" y="0px"
	 viewBox="0 0 292 253.1" style="enable-background:new 0 0 292 253.1;" xml:space="preserve">
<style type="text/css">
	.st0{fill:#BA6E8A;}
	.st1{fill:#FCC0E6;}
	.st2{fill:#3F2222;}
</style>
<g>
	<path class="st0" d="M92.8,18.1c-7.7-6.2-15.1-10-20.2-12.2c-9.3-4-18.4-7.8-28.9-4.9c-2.5,0.7-4.2,1.5-5.7,2.3
		C31.2,6.6,23.9,12.4,16,25.1C11.2,32.9,2.6,46.8,0.5,66.7C-0.9,79.7,1,91,3.7,100c2.2,7,11.4,7.8,15,1.3c0-0.1,0.1-0.1,0.1-0.2
		c2.6-4.7,5.4-8.7,8-11.9"/>
	<path class="st0" d="M199.2,18.1c7.7-6.2,15.1-10,20.2-12.2c9.3-4,18.4-7.8,28.9-4.9c2.5,0.7,4.2,1.5,5.7,2.3
		c6.8,3.3,14.1,9.1,21.9,21.8c4.9,7.9,13.5,21.7,15.6,41.6c1.4,13-0.5,24.3-3.3,33.3c-2.2,7-11.4,7.8-15,1.3c0-0.1-0.1-0.1-0.1-0.2
		c-2.6-4.7-5.4-8.7-8-11.9"/>
</g>
<path class="st1" d="M267.6,112.3C259,48.7,205.1,1.4,143.6,2.6C83.8,3.8,32.7,50.5,24.4,112.3c0,6.3,0,12.7,0,19c0,0,0,0,0,0.1
	c0,67.2,54.4,121.7,121.6,121.7c67.2,0,121.6-54.5,121.6-121.7c0,0,0,0,0,0h0V112.3z"/>
<g id="Nose_00000102511000848245046160000005882017772763855288_">
	<path class="st0" d="M194.4,190.9c5.7-18.4-18.9-50.2-47.4-50.7c-29.6-0.5-55,32.6-49.3,51.1c5.9,19,44.4,19.9,47.1,20
		C158.6,211.4,189.1,208,194.4,190.9z"/>
	<ellipse class="st2" cx="124.5" cy="175.7" rx="9" ry="10"/>
	<ellipse class="st2" cx="169.3" cy="175.7" rx="9" ry="10"/>
</g>
<g>
	<ellipse class="st2" cx="208.2" cy="114.7" rx="13.5" ry="21.7"/>
	<ellipse class="st2" cx="83.8" cy="114.7" rx="13.5" ry="21.7"/>
</g>
</svg>
