<svg xmlns="http://www.w3.org/2000/svg" viewBox="0 0 110.47 93.2"><defs><style>.cls-1{fill:#141414;}.cls-2{fill:#2b2b2b;}.cls-3{fill:#434343;}.cls-4{fill:#3f2222;}</style></defs><g id="Layer_2" data-name="Layer 2"><g id="Layer_3" data-name="Layer 3"><path class="cls-1" d="M35.11,6.66a33,33,0,0,0-7.65-4.49C24,.7,20.49-.69,16.52.38a11.68,11.68,0,0,0-2.16.83C11.79,2.43,9,4.57,6.07,9.23A34.3,34.3,0,0,0,.18,24.55,29.59,29.59,0,0,0,1.41,36.82a3.08,3.08,0,0,0,5.65.48l0-.07a31.27,31.27,0,0,1,3-4.4"/><path class="cls-1" d="M75.37,6.66A32.59,32.59,0,0,1,83,2.17C86.53.7,90-.69,94,.38a11.68,11.68,0,0,1,2.16.83c2.57,1.22,5.33,3.36,8.29,8a34.41,34.41,0,0,1,5.9,15.32,29.93,29.93,0,0,1-1.23,12.27,3.09,3.09,0,0,1-5.66.48l0-.07a30.44,30.44,0,0,0-3-4.4"/><path class="cls-2" d="M101.24,47.91A47,47,0,0,0,80,8.24,45.83,45.83,0,0,0,23.14,14,46.66,46.66,0,0,0,9.23,47.67v.72c0,24.75,20.6,44.81,46,44.81s46-20.06,46-44.81h0Z"/><g id="Nose"><path class="cls-3" d="M73.54,70.3c2.15-6.79-7.14-18.48-18-18.66-11.19-.18-20.83,12-18.66,18.8,2.24,7,16.78,7.34,17.81,7.35C60,77.86,71.55,76.59,73.54,70.3Z"/><ellipse class="cls-4" cx="47.11" cy="64.72" rx="3.42" ry="3.68"/><ellipse class="cls-4" cx="64.04" cy="64.72" rx="3.42" ry="3.68"/></g><ellipse cx="78.77" cy="42.25" rx="5.12" ry="8.01"/><ellipse cx="31.7" cy="42.25" rx="5.12" ry="8.01"/></g></g></svg>