<svg xmlns="http://www.w3.org/2000/svg" viewBox="0 0 110.47 130.86"><defs><style>.cls-1{fill:#ba6e8a;}.cls-2{fill:#fcc0e6;}.cls-3{fill:#3f2222;}.cls-4,.cls-7{fill:#2d1919;}.cls-5{fill:#423030;}.cls-6{fill:#872929;}.cls-7{opacity:0.5;}.cls-8{fill:#574747;}.cls-9{fill:#141414;}.cls-10{opacity:0.33;}.cls-11,.cls-12{fill:#a3a3a3;}.cls-11{opacity:0.68;}</style></defs><g id="Layer_2" data-name="Layer 2"><g id="Layer_11" data-name="Layer 11"><path class="cls-1" d="M35.11,39.14a33,33,0,0,0-7.65-4.49c-3.51-1.47-7-2.86-10.94-1.79a11.68,11.68,0,0,0-2.16.83c-2.57,1.22-5.32,3.36-8.29,8A34.3,34.3,0,0,0,.18,57,29.59,29.59,0,0,0,1.41,69.3a3.08,3.08,0,0,0,5.65.48l0-.07a31.27,31.27,0,0,1,3-4.4"/><path class="cls-1" d="M75.37,39.14A32.59,32.59,0,0,1,83,34.65c3.51-1.47,7-2.86,10.93-1.79a11.68,11.68,0,0,1,2.16.83c2.57,1.22,5.33,3.36,8.29,8A34.41,34.41,0,0,1,110.3,57a29.93,29.93,0,0,1-1.23,12.27,3.09,3.09,0,0,1-5.66.48l0-.07a30.44,30.44,0,0,0-3-4.4"/><path class="cls-2" d="M101.24,73.84A46.8,46.8,0,0,0,54.33,33.45a46.79,46.79,0,0,0-45.1,40.4v7c0,24.75,20.6,44.81,46,44.81s46-20.06,46-44.81h0Z"/><g id="Nose"><path class="cls-1" d="M73.54,102.78c2.15-6.79-7.14-18.48-18-18.66-11.19-.18-20.83,12-18.66,18.8,2.24,7,16.78,7.34,17.81,7.35C60,110.34,71.55,109.07,73.54,102.78Z"/><ellipse class="cls-3" cx="47.11" cy="97.2" rx="3.42" ry="3.68"/><ellipse class="cls-3" cx="64.04" cy="97.2" rx="3.42" ry="3.68"/></g><ellipse class="cls-3" cx="78.77" cy="74.73" rx="5.12" ry="8.01"/><ellipse class="cls-3" cx="31.7" cy="74.73" rx="5.12" ry="8.01"/><ellipse class="cls-4" cx="55.24" cy="45.04" rx="40.69" ry="9.23"/><path class="cls-5" d="M83.21,46.14A218.65,218.65,0,0,1,55.07,47.9a218.83,218.83,0,0,1-27.14-1.76c0-18-.67-26-.67-44,7.22-1.86,16.66-.91,28.28-.81,10.72.1,20.13-1,27,.81Q82.89,24.14,83.21,46.14Z"/><path class="cls-6" d="M55.5,37.75c-9.85,0-19.09-.43-27.63-1.15,0,2.9.06,6,.06,9.49A214.43,214.43,0,0,0,55.07,47.9a212.81,212.81,0,0,0,28.14-1.81l-.14-9.5C74.55,37.31,65.33,37.75,55.5,37.75Z"/><path class="cls-7" d="M82.54,2.16C77.41.84,70.86,1.1,63.41,1.27A215,215,0,0,1,64.76,24.8a218.06,218.06,0,0,1-1.18,23c7.09-.26,13.67-.84,19.63-1.6Q82.88,24.17,82.54,2.16Z"/><ellipse class="cls-8" cx="54.93" cy="2.14" rx="27.67" ry="2.14"/><path class="cls-4" d="M67.09,116.2l-7.8,4.4a3,3,0,0,0,0,5.28L67,130.43a3,3,0,0,0,4.59-2.59l.09-9A3,3,0,0,0,67.09,116.2Z"/><path d="M56.87,123.22a21.93,21.93,0,0,1,11.4.11,22,22,0,0,1-11.4-.11Z"/><path class="cls-4" d="M43.53,116l7.71,4.55a3,3,0,0,1-.06,5.27l-7.79,4.4a3,3,0,0,1-4.54-2.68l.09-9A3,3,0,0,1,43.53,116Z"/><path d="M53.6,123.18a22,22,0,0,1-11.4-.11,22,22,0,0,1,11.4.11Z"/><rect class="cls-4" x="51.11" y="119.55" width="8.25" height="7.3" rx="2.53" transform="translate(1.23 -0.54) rotate(0.57)"/><path class="cls-9" d="M78.77,65.41A9.25,9.25,0,1,0,88,74.66,9.25,9.25,0,0,0,78.77,65.41Zm0,17a7.77,7.77,0,1,1,7.77-7.77A7.76,7.76,0,0,1,78.77,82.43Z"/><g class="cls-10"><path class="cls-11" d="M78.77,82.43a7.69,7.69,0,0,0,4.06-1.15L71,75.05A7.76,7.76,0,0,0,78.77,82.43Z"/><path class="cls-12" d="M86.38,76.25l-13.21-7A7.74,7.74,0,0,0,71,74.66c0,.13,0,.26,0,.39l11.81,6.23A7.8,7.8,0,0,0,86.38,76.25Z"/><path class="cls-11" d="M86.54,74.66a7.77,7.77,0,0,0-13.37-5.38l13.21,7A8.32,8.32,0,0,0,86.54,74.66Z"/></g><polygon class="cls-9" points="86.52 105.31 84.7 105.37 84.7 80.92 86.52 79.62 86.52 105.31"/></g></g></svg>