<svg xmlns="http://www.w3.org/2000/svg" viewBox="0 0 159.35 588.31"><defs><style>.cls-1{fill:none;}.cls-2{fill:#d1731e;}.cls-3{fill:#666;}.cls-4{fill:#fca054;}.cls-5{fill:gray;}.cls-6{fill:#c6824a;}.cls-7{fill:#f6f6f6;}.cls-8{fill:#c7946d;}.cls-9{fill:#3f2222;}.cls-10{fill:#bf0000;}.cls-11{fill:#fdb376;}</style></defs><g id="Layer_2" data-name="Layer 2"><g id="stun_bath_hanger" data-name="stun bath hanger"><path class="cls-1" d="M62.31,365.84c-8.71-.94-12.08-2.3-13.9-3.16-.73-.35-5.82-2.77-5.35-3.86.41-.91,4.84-1.06,22.56,2.34L54,357q-6.39-2.89-6-3.71t9.23.72a62.17,62.17,0,0,1,8.37.85c-8-3.5-9.48-5-9.2-5.63.47-1.15,6.17-1,11.4.35q5.27.94,14,2.93c-12-4.88-14-6.72-13.65-7.5.52-1.27,7.46-.94,13.06.82a28.3,28.3,0,0,1,14.66,10.72c0,3.32,0,6.63,0,9.95H101l.43-65.35L77,261.13H62.51l-24,39.13-.43,66.27H69.66v-.14C66.82,366.26,64.31,366.06,62.31,365.84Z"/><path class="cls-1" d="M95.83,366.53v0Z"/><path class="cls-2" d="M65.72,352.81c-4.26-1.93-6.27-3.16-6-3.71s3-.39,8.08.51c-5.23-1.33-10.93-1.5-11.4-.35-.28.67,1.15,2.13,9.2,5.63,3,.46,6.9,1.12,11.76,2.05Z"/><path class="cls-2" d="M81.38,362.17c-2.84-.13-5.34-.33-7.35-.55-8.71-.94-12.08-2.3-13.9-3.16-.73-.35-5.82-2.77-5.35-3.86.15-.33.82-.56,2.43-.56q-8.79-1.64-9.23-.72T54,357l11.62,4.13c-17.72-3.4-22.15-3.25-22.56-2.34-.47,1.09,4.62,3.51,5.35,3.86,1.82.86,5.19,2.22,13.9,3.16,2,.22,4.51.42,7.35.55v.14H81.38Z"/><polygon class="cls-2" points="81.38 370.33 81.23 370.33 69.66 370.33 69.66 384.15 81.38 384.15 81.38 370.33"/><rect class="cls-3" x="69.66" y="366.53" width="11.57" height="3.8"/><path class="cls-4" d="M81.16,345.86c-5.6-1.76-12.54-2.09-13.06-.82-.33.78,1.65,2.62,13.65,7.5q-8.72-2-14-2.93c-5.11-.9-7.81-1.08-8.08-.51s1.76,1.78,6,3.71l11.62,4.13c-4.86-.93-8.71-1.59-11.76-2.05a62.17,62.17,0,0,0-8.37-.85c-1.61,0-2.28.23-2.43.56-.47,1.09,4.62,3.51,5.35,3.86,1.82.86,5.19,2.22,13.9,3.16,2,.22,4.51.42,7.35.55v4.36H95.83c0-3.32,0-6.63,0-9.95A28.3,28.3,0,0,0,81.16,345.86Z"/><path class="cls-4" d="M81.38,370.33v13.82H95.85q0-6.9,0-13.82H81.38Z"/><path class="cls-5" d="M84.17,366.53H81.24v3.8H95.83v-3.8Z"/><path class="cls-6" d="M157.14,456.69a5.61,5.61,0,0,0,.41-.55c2.24-3.82-1.23-9.23-3.22-11.89,2.35-4.51-2.8-11.06-4.21-12.83a27.05,27.05,0,0,0-2.75-2.93c.1-1.1.17-2.22.17-3.35v-3.72a37.27,37.27,0,0,0-37.27-37.27H40.53A40.54,40.54,0,0,1,79,412c13.66-1.94,31.13,3.28,41.88,13.46,2.9,2.74,13.72,13,10.06,21.73-4.42,9.88-18.54,8.62-20.49,8.65H81.05v6.59l28,0c2.52.25,6.59.73,11.55,1.67,10.57,2,16,4.37,26.08,4.82,7.73.34,10.82-.82,12-2.83C160.28,463.19,158.82,459.5,157.14,456.69Z"/><path class="cls-7" d="M40.53,384.15H38.39A37.27,37.27,0,0,0,3.8,407.55,40.52,40.52,0,0,1,40.53,384.15Z"/><path class="cls-6" d="M74.1,455.79c-8.56,0-15.51-9.4-15.51-21h0c0-7.82,2.51-12.32,4.55-14.84,3.62-4.5,9.3-7.08,15.86-8A40.53,40.53,0,0,0,0,424.68v95.59a40.45,40.45,0,0,0,14.19,30.79,11.32,11.32,0,0,1,1.8-.46,6.24,6.24,0,0,1-.19-2.06c.33-4,4.76-7.84,9.47-8.24,5.59-.49,9.32,4.05,9.65,4.47,3-.83,6-.7,8.35.93A9.63,9.63,0,0,1,47,552.06a12.35,12.35,0,0,1,5.82.61,13.45,13.45,0,0,1,3,1.48,12.92,12.92,0,0,0,3.14.41,13.1,13.1,0,0,0,4.17-.67l.07,0,0,0h0c.47-.32.92-.64,1.38-1,.13-.11.27-.21.41-.31.63-.48,1.24-1,1.84-1.49l.5-.42c.71-.62,1.4-1.26,2.05-1.92a40.38,40.38,0,0,0,11.68-28.45V455.79ZM13.76,527.91c-4.38,0-7.94-5.06-7.94-11.3s3.56-11.3,7.94-11.3,8,5.06,8,11.3S18.15,527.91,13.76,527.91ZM25,506.17c-7-1.83-13.54-9.49-12.6-15.69a8.06,8.06,0,0,1,.27-1.18,8.92,8.92,0,0,1,3.94-4.69,13.31,13.31,0,0,1-.83-4.61A12.72,12.72,0,0,1,28.2,467c.26,0,.52,0,.78,0,1.89-4,4.92-6.64,8.36-6.64,5.72,0,10.36,7.22,10.36,16.13a22.73,22.73,0,0,1-1.87,9.22,7,7,0,0,1,2.48,3.84,4.62,4.62,0,0,1,.08.65C48.94,497.52,36.06,509.06,25,506.17Zm25.47,21.09c-4.38,0-7.94-5.06-7.94-11.3s3.56-11.3,7.94-11.3,7.95,5.06,7.95,11.3S54.81,527.26,50.42,527.26Z"/><path class="cls-8" d="M63.14,420c-2,2.52-4.53,7-4.55,14.84h0c0,11.59,7,21,15.51,21h36.35c2,0,16.07,1.23,20.49-8.65,3.66-8.75-7.16-19-10.06-21.73C110.13,415.23,92.66,410,79,412,72.44,412.88,66.76,415.46,63.14,420Z"/><path class="cls-9" d="M13.76,505.31c-4.38,0-7.94,5.06-7.94,11.3s3.56,11.3,7.94,11.3,8-5.06,8-11.3S18.15,505.31,13.76,505.31Z"/><path class="cls-9" d="M50.42,504.66c-4.38,0-7.94,5.06-7.94,11.3s3.56,11.3,7.94,11.3,7.95-5.06,7.95-11.3S54.81,504.66,50.42,504.66Z"/><path class="cls-10" d="M45.83,485.79a22.73,22.73,0,0,0,1.87-9.22c0-8.91-4.64-16.13-10.36-16.13-3.44,0-6.47,2.62-8.36,6.64-.26,0-.52,0-.78,0a12.72,12.72,0,0,0-12.47,13,13.31,13.31,0,0,0,.83,4.61,25.4,25.4,0,0,1,9.2-3.09C32.8,480.38,41.56,482.16,45.83,485.79Z"/><path class="cls-10" d="M66.82,551.06c-.6.51-1.21,1-1.84,1.49-.14.1-.28.2-.41.31-.46.33-.91.65-1.38,1h0l0,0-.07,0a13.1,13.1,0,0,1-4.17.67,12.92,12.92,0,0,1-3.14-.41,13.45,13.45,0,0,0-3-1.48,12.35,12.35,0,0,0-5.82-.61,9.63,9.63,0,0,0-3.71-6.36c-2.37-1.63-5.39-1.76-8.35-.93-.33-.42-4.06-5-9.65-4.47-4.71.4-9.14,4.23-9.47,8.24A6.24,6.24,0,0,0,16,550.6a11.32,11.32,0,0,0-1.8.46c-3.55,1.16-6.69,3.87-7.11,7.37-.66,5.46,5.45,12.2,11.7,12.84-1,4.39-.49,9.3,2.52,12.13,3.94,3.7,11.77,3.44,17.56.09,1.63,2.61,3.79,4.51,6.28,4.79C51.72,589,57,578,58.76,572.55c.29-.93.63-2,.93-3.18a7,7,0,0,1,.76-.29,7.08,7.08,0,0,0,5.28,1.13c5.47-1.33,7.48-11.31,5.82-17a18.37,18.37,0,0,0-2.18-4.54c-.65.66-1.34,1.3-2.05,1.92Z"/><path class="cls-11" d="M48.39,490.28a120.92,120.92,0,0,0-19.32-1.23,122.36,122.36,0,0,0-16.72,1.43c-.94,6.2,5.57,13.86,12.6,15.69C36.06,509.06,48.94,497.52,48.39,490.28Z"/><path class="cls-4" d="M48.39,490.28a4.62,4.62,0,0,0-.08-.65,7,7,0,0,0-2.48-3.84c-4.27-3.63-13-5.41-20.07-4.27a25.4,25.4,0,0,0-9.2,3.09,8.92,8.92,0,0,0-3.94,4.69,8.06,8.06,0,0,0-.27,1.18,122.36,122.36,0,0,1,16.72-1.43A120.92,120.92,0,0,1,48.39,490.28Z"/><path class="cls-5" d="M38.05,366.53l.43-66.27,24-39.13H77l24.47,40.05L101,366.53H95.83v3.8h9.11l.47-69.65v-.53L79.24,257.33H72.62v-48h0V0H66.87V257.33H60.25L34.54,299.2l-.47,71.13H69.66v-3.8Z"/></g></g></svg>