<?xml version="1.0" encoding="utf-8"?>
<!-- Generator: Adobe Illustrator 26.0.2, SVG Export Plug-In . SVG Version: 6.00 Build 0)  -->
<svg version="1.1" id="Layer_1" xmlns="http://www.w3.org/2000/svg" xmlns:xlink="http://www.w3.org/1999/xlink" x="0px" y="0px"
	 viewBox="0 0 209.7 500" style="enable-background:new 0 0 209.7 500;" xml:space="preserve">
<style type="text/css">
	.st0{fill:#CC8F89;}
	.st1{fill:#D1814A;}
	.st2{fill:#FFC8BD;}
	.st3{fill:#BF0000;}
	.st4{fill:#FDB376;}
	.st5{fill:#FCA054;}
	.st6{fill:#3F2222;}
	.st7{fill:#EFADA3;}
	.st8{fill:#C10000;}
</style>
<g>
	<path class="st0" d="M120.5,209.6l-29.3,2.7c-9.8,0.9-18,6.3-23.3,14l-0.2-0.1L8.9,299.6c-2.9,3.7-4.2,13.8,0.6,13
		c29.8-4.7,56.7-15.6,78.8-40.7l58.2-5.4c10-0.9,17.2-10.3,16-20.8l0,0C160.1,223.9,141.2,207.6,120.5,209.6z"/>
	<path class="st1" d="M114.6,361.5l-17.8-9.3L60,428.6c-3.2,0-6.1,0.1-8.5,0.2c-15.3,0.8-21.3,3.2-24.6,4.8c-1.3,0.6-10.5,5-9.8,7.3
		c0.5,1.9,7.5,2.7,35-1.3c-4.8,4.9-9.6,9.8-14.4,14.7c-5.5,6.9-7.8,10.9-6.9,12.1c1.4,1.9,11.2-3.8,29.2-17
		c-6.4,22.4-6,27.6-4.4,28.2c2.5,1.1,10-8.7,13.9-18.7c1.2-3.2,2.1-6.4,2.6-9.4C86.3,420.1,100.4,390.8,114.6,361.5z"/>
	<path class="st0" d="M155,329c8.3-20.5-1.6-43.7-22.1-52c-19.6-7.9-41.9,0.9-50.9,19.7l-0.3-0.1c-0.9,2-2.2,5-3.2,8.8
		c-4.4,15.5-1.4,28.3-0.4,35c1.2,8.5-2.3,34.1-9,54.5c-2.4,7.3,1.3,15.3,8.5,18.1c7.2,2.8,15.4-0.5,18.6-7.6
		c8.9-19.7,25-40,31.7-45.2c5.2-4,15.5-10.5,23.3-23.8C152.6,334.1,153.9,331.7,155,329z"/>
	<path class="st2" d="M98,393.3l-17.6,0.1c-40.7,0.2-73.9-32.6-74.2-73.3l-0.4-68.8c-0.3-42.1,33.7-76.5,75.8-76.8l15-0.1
		c48.2-0.3,87.6,38.6,87.9,86.8l0.3,44.1C185.1,353.7,146.2,393,98,393.3z"/>
	<path class="st2" d="M158,43.6c-1.2-2.2-2.5-4.3-4-6.3c-3.8-5.2-8.4-9.7-13.7-13.1c-3.1-2-6.3-3.6-9.8-4.8
		c-1.8-0.6-3.6-1.2-5.5-1.6c-28.6-6.1-57.4,15.9-64.4,49l-30,141.4c-7,33.1,10.4,64.9,39,70.9c28.6,6.1,57.4-15.9,64.4-49l30-141.4
		C167.5,72.4,165,56.4,158,43.6z"/>
	<path class="st3" d="M77.2,81.9c-0.9-1.8-2.2-3.2-3.9-4.3c0-2.8-0.6-5.6-1.9-8.3c-4.6-9.3-16.3-13-25.9-8.1
		c-9.7,4.8-13.8,16.3-9.1,25.6c0.2,0.4,0.4,0.7,0.6,1c-4.2,5.3-5.7,11.1-3.4,15.8c3.9,7.7,16.8,9.1,28.8,3.1
		C74.4,100.8,81,89.6,77.2,81.9z"/>
	<path class="st3" d="M185.1,86.9c0.4-2.7-0.6-5.4-2.4-7.8c0.1-0.4,0.2-0.8,0.3-1.2c1.7-0.6,3.3-1.3,4.7-1.8
		c8-3.4,23.8-12.8,21.8-22.7c-0.8-3.7-3.9-6.7-8.1-8.8c4.2-9.2,3.6-21-2.5-26.4c-4.7-4.2-12.1-4.2-18.6-2.1
		c-1.8-9.3-12.8-17.6-20.9-15.9c-6.1,1.3-10,8-10.6,14.5c-0.8-0.1-1.9-0.2-3.1,0c-6,1-11.2,8.2-11.1,15.4c0,8.5,7.4,13.5,8.1,13.9
		c-0.8,4.6-0.2,9.1,2.5,12.4c2.4,2.9,6.1,4.3,10.1,4.7c-0.2,2.7,0.4,5.7,1.7,8.7c0.7,1.6,1.6,3,2.6,4.3c0.5,1.4,0.9,2.9,1,4.7
		c0.2,2.4,0,4.6-0.4,6.4c0,0.1-0.1,0.1-0.1,0.2c-0.4,0.7-0.8,1.5-1.3,2.2c-0.1,0.2-0.3,0.4-0.4,0.7c-1.6,2.5,5.4,7.8,3.5,10.1
		c2.7,1.4,6.4,0.3,8.2,0.6C178.8,100.6,183.8,95.4,185.1,86.9z"/>
	<g>
		<path class="st4" d="M78.8,95.6c10.3-4,15-33.5,1.8-50.3c-8.4-10.7-24.2-16.5-31.8-10.7c3.1,8.8,7.1,18.7,12.1,29.2
			C66.8,76,73,86.6,78.8,95.6z"/>
		<path class="st5" d="M60.9,63.7c-5.1-10.5-9-20.4-12.1-29.2c-0.5,0.4-0.9,0.8-1.4,1.3c-6.5,7.3-0.9,23.4,0.5,27.4
			c5.7,16.5,20.7,34.7,30,32.6c0.3-0.1,0.6-0.2,1-0.3C73,86.6,66.8,76,60.9,63.7z"/>
	</g>
	<path class="st6" d="M104.1,43.2l9.6,4.2c1.4,0.6,3.1,0.1,3.8-1.3c0.7-1.3,0.1-2.9-1.3-3.5l-7.7-3.4l6.3-5.6c1.1-1,1.2-2.7,0.1-3.7
		c-1.1-1-2.9-1-4,0l-7.8,7l-9.6-4.2c-1.4-0.6-3.1-0.1-3.8,1.3c-0.3,0.5-0.4,1.1-0.3,1.6c0.1,0.8,0.7,1.6,1.5,1.9l7.7,3.4l-6.3,5.6
		c-0.7,0.6-1,1.5-0.9,2.3c0.1,0.5,0.3,1,0.7,1.4c1.1,1,2.9,1,4,0L104.1,43.2z"/>
	<path class="st6" d="M118.5,85.2l10.3,5.7c1.5,0.8,3.4,0.3,4.3-1.2c0.8-1.5,0.3-3.4-1.2-4.3l-8.3-4.6l7.1-6.2
		c1.3-1.1,1.4-3.1,0.3-4.4c-1.1-1.3-3.1-1.4-4.4-0.3l-8.9,7.7l-10.3-5.7c-1.5-0.8-3.4-0.3-4.3,1.2c-0.3,0.6-0.4,1.2-0.4,1.8
		c0.1,1,0.7,1.9,1.6,2.4l8.3,4.6l-7.1,6.2c-0.8,0.7-1.2,1.7-1.1,2.7c0.1,0.6,0.3,1.2,0.8,1.7c1.1,1.3,3.1,1.4,4.4,0.3L118.5,85.2z"
		/>
	<path class="st5" d="M113.8,386.4l-17.6-10.1L56,451.1c-3.2-0.1-6.1-0.2-8.6-0.1c-15.4,0.2-21.6,2.3-25,3.8
		c-1.3,0.6-10.8,4.6-10.2,6.9c0.5,1.9,7.5,3.1,35.4,0.2c-5,4.7-10.1,9.4-15.1,14c-5.8,6.7-8.3,10.6-7.4,11.8
		c1.4,1.9,11.4-3.4,30.2-15.8c-7.4,22.1-7.2,27.3-5.6,28c2.5,1.2,10.5-8.3,14.8-18.1c1.4-3.2,2.3-6.3,3-9.3
		C82.8,443.8,98.3,415.1,113.8,386.4z"/>
	<path class="st7" d="M168,344.7c9.8-19.8,1.8-43.7-18-53.6c-19-9.4-41.8-2.4-52.3,15.7l-0.3-0.1c-1.1,1.9-2.5,4.8-3.9,8.5
		c-5.6,15.1-3.5,28.1-3.1,34.8c0.6,8.5-4.9,33.8-13.2,53.7c-3,7.1,0.1,15.3,7.1,18.7c7,3.4,15.4,0.7,19.1-6.2
		c10.4-19,28.1-38,35.1-42.6c5.5-3.6,16.3-9.3,25-21.9C165.2,349.5,166.7,347.2,168,344.7z"/>
	<path class="st7" d="M120.6,197l-31.6,2.7c-10.5,0.9-19.4,6.8-25,15.4l-0.2-0.2L1.2,296.4c-3.1,4.1,0.3,9.4,5.6,8.6
		c32.1-4.9,56.3-10.9,79.9-38.7l62.8-5.4c10.7-0.9,18.4-11.3,17-23l0,0C163.5,213.4,142.9,195,120.6,197z"/>
	<path class="st8" d="M42.6,152.2c0,0,14.8,0.6,22.8,1.3c14.7,1.1,27.4,3.3,37.7,5.7c-11.7,1.3-24.3,2.3-37.7,3
		c-8.8,0.4-25.2,0.8-25.2,0.8L42.6,152.2z"/>
</g>
</svg>
