<svg width="115" height="110" viewBox="0 0 115 110" fill="none" xmlns="http://www.w3.org/2000/svg">
<path d="M110.42 21.575C107.089 24.8256 104.89 29.0664 104.149 33.6693C103.408 38.2721 104.163 42.9923 106.303 47.1306C105.919 47.1531 105.549 47.28 105.231 47.4975C104.913 47.7151 104.66 48.0152 104.5 48.3658C104.351 48.7117 104.296 49.091 104.34 49.4651C104.385 49.8393 104.528 50.1948 104.754 50.4955L114.558 63.0816C114.729 63.3047 114.855 63.5597 114.928 63.8319C115 64.1042 115.018 64.3882 114.981 64.6675C114.943 64.9468 114.851 65.2159 114.709 65.4591C114.567 65.7023 114.379 65.9149 114.154 66.0844L104.075 73.6446C103.634 73.974 103.337 74.4628 103.248 75.0076L100.001 95.3669C99.9391 95.7297 99.7845 96.0701 99.5524 96.3551C99.3202 96.64 99.0184 96.8597 98.6764 96.9927C98.3344 97.1257 97.964 97.1674 97.6011 97.1139C97.2383 97.0604 96.8954 96.9134 96.606 96.6872L93.4444 94.153C93.1275 93.9009 92.7454 93.7449 92.3432 93.7034C91.9409 93.6619 91.5352 93.7365 91.1739 93.9187L77.0206 101.33C76.6477 101.52 76.2272 101.595 75.8119 101.545C75.3966 101.496 75.0051 101.325 74.6865 101.053L66.6868 94.1316C66.4439 93.9241 66.1575 93.7742 65.8489 93.6931C65.5403 93.612 65.2175 93.6017 64.9044 93.6631L45.1917 97.6669C44.7007 97.7692 44.1896 97.6937 43.7488 97.4539L29.6379 89.6807C29.3303 89.5147 28.9894 89.4201 28.6406 89.4039L12.2805 89.1909C11.9235 89.1845 11.5739 89.0878 11.264 88.9097C10.9541 88.7316 10.6941 88.4779 10.5079 88.1721C10.3217 87.8664 10.2154 87.5183 10.1989 87.1604C10.1823 86.8024 10.256 86.446 10.4132 86.1242L14.0841 78.6705C14.2422 78.3301 14.3078 77.9539 14.2743 77.5799C14.2407 77.2059 14.1093 76.8474 13.8932 76.5408L0.418887 58.5668C0.246933 58.3346 0.123925 58.0697 0.0573534 57.7882C-0.00921843 57.5067 -0.0179308 57.2146 0.03171 56.9296C0.0813507 56.6446 0.188324 56.3728 0.346101 56.1307C0.503879 55.8885 0.709125 55.6812 0.94937 55.5214L19.7285 43.1482C20.1249 42.8814 20.4201 42.4882 20.5664 42.0322C20.7127 41.5762 20.7016 41.0841 20.5348 40.6352L19.7921 38.6973C19.6673 38.3642 19.6277 38.0051 19.6767 37.6527C19.7258 37.3002 19.8621 36.9659 20.0731 36.6799C20.2841 36.394 20.5632 36.1657 20.8848 36.0158C21.2064 35.866 21.5603 35.7995 21.9141 35.8222H24.036C24.3395 35.8248 24.64 35.7621 24.9172 35.6382C25.1944 35.5143 25.4419 35.3321 25.6431 35.104C25.8442 34.8759 25.9942 34.6072 26.083 34.316C26.1718 34.0248 26.1974 33.7177 26.1579 33.4157L24.036 17.9333C23.9965 17.6313 24.022 17.3244 24.1109 17.0331C24.1997 16.7419 24.3498 16.4731 24.5509 16.245C24.752 16.0169 24.9995 15.8348 25.2767 15.7109C25.554 15.587 25.8545 15.5242 26.1579 15.5268L34.3274 15.6333C34.801 15.6427 35.2641 15.4928 35.643 15.2074L43.7063 8.96757C43.9998 8.72988 44.3511 8.57496 44.7241 8.51881C45.097 8.46266 45.4781 8.50733 45.8282 8.64814L50.5177 10.4583C51.028 10.6508 51.5927 10.6387 52.0945 10.4246C52.5962 10.2105 52.9966 9.81078 53.2126 9.30832L56.6501 1.27956C56.8446 0.83106 57.1871 0.463467 57.6199 0.238527C58.0527 0.0135872 58.5494 -0.0549573 59.0266 0.044398L66.2624 1.59905C66.4877 1.63027 66.7162 1.63027 66.9415 1.59905L78.3786 0.299944C78.7274 0.280109 79.0756 0.347008 79.3924 0.494658C79.7092 0.642307 79.9848 0.866126 80.1947 1.14633C80.4046 1.42652 80.5424 1.7544 80.5958 2.10085C80.6491 2.4473 80.6164 2.80166 80.5006 3.13239L79.5245 5.81569C79.3454 6.30967 79.3547 6.85268 79.5506 7.34019C79.7465 7.82771 80.1151 8.22533 80.5855 8.45648L91.4922 13.6527C91.8295 13.8144 92.2034 13.8839 92.576 13.8539C92.9486 13.824 93.3068 13.6959 93.6142 13.4824L100.128 8.94626C100.423 8.74475 100.762 8.62074 101.117 8.58568C101.471 8.55063 101.829 8.60568 102.156 8.74569C102.484 8.8857 102.771 9.10621 102.992 9.3869C103.212 9.66758 103.358 9.9994 103.417 10.3518L104.669 17.9972C104.732 18.3577 104.885 18.696 105.116 18.9795C105.346 19.263 105.646 19.4821 105.985 19.6157L110.42 21.575Z" fill="#C6824A"/>
<path d="M68.8726 68.4909H59.3451L55.1012 17.9547C54.9349 16.9283 54.9709 15.8791 55.2073 14.8667C55.6766 13.0427 56.735 11.4263 58.217 10.2703C59.699 9.1143 61.521 8.4839 63.398 8.47778H65.3289C67.328 8.49042 69.2585 9.21083 70.7802 10.5121C72.3019 11.8133 73.3171 13.6119 73.647 15.5908C73.7635 16.3387 73.7635 17.1002 73.647 17.8482L68.8726 68.4909Z" fill="#C7946D"/>
<path d="M70.9522 71.9409C70.3558 71.4646 69.6807 71.0969 68.9576 70.8548C69.621 70.6924 70.2523 70.4188 70.8249 70.0455C69.8012 69.4998 68.6519 69.2354 67.4935 69.2789C68.6541 68.9298 69.6966 68.2666 70.5067 67.3622C68.7592 66.9884 66.9355 67.3254 65.4353 68.2992C65.7323 49.3739 65.3574 30.4414 64.3106 11.5019C63.2496 30.4982 62.8747 49.5088 63.186 68.5335C62.4292 68.0018 61.5711 67.6327 60.6656 67.4495C59.76 67.2662 58.8265 67.2728 57.9236 67.4687C58.7477 68.3665 59.795 69.028 60.958 69.3854C59.7927 69.3411 58.6365 69.6055 57.6053 70.152C58.1846 70.5126 58.8138 70.7853 59.4726 70.9613C58.7497 71.2038 58.0747 71.5714 57.478 72.0474C58.4068 72.4104 59.4041 72.5624 60.3984 72.4924C61.3927 72.4224 62.3592 72.1323 63.2284 71.6428C63.377 79.4798 63.6528 87.3382 64.0348 95.1752C64.0348 96.5808 64.5016 96.5808 64.5653 95.1752C64.9684 87.3382 65.223 79.4798 65.3716 71.6214C66.225 72.0718 67.1648 72.3333 68.1274 72.3884C69.0901 72.4435 70.0533 72.291 70.9522 71.9409V71.9409Z" fill="#C6824A"/>
<path d="M50.0298 44.5748L58.1143 39.5276L88.3519 80.161C89.1262 81.0825 89.6909 82.1625 90.0064 83.3257C90.3219 84.4888 90.3807 85.7071 90.1786 86.8954C89.9766 88.0837 89.5186 89.2135 88.8366 90.2058C88.1546 91.1981 87.265 92.0291 86.2299 92.6407L84.5748 93.6629C82.8726 94.7117 80.8562 95.1244 78.8807 94.8284C76.9051 94.5323 75.097 93.5465 73.7742 92.0444C73.2875 91.4668 72.8873 90.821 72.5859 90.1277L50.0298 44.5748Z" fill="#C7946D"/>
<path d="M46.4441 42.7435C47.1953 42.8407 47.9579 42.7974 48.6933 42.6157C48.2283 43.1147 47.8418 43.6821 47.5475 44.2982C48.7084 44.2084 49.8266 43.8197 50.794 43.1695C49.9819 44.0816 49.4383 45.2023 49.2238 46.4065C50.0607 46.11 50.8298 45.6482 51.4858 45.0483C52.1418 44.4484 52.6714 43.7227 53.0433 42.9139C62.7617 59.1417 73.039 75.0643 83.875 90.6816C74.7931 73.9853 65.1171 57.6581 54.8469 41.7C55.7808 41.7181 56.7079 41.5378 57.5673 41.1707C58.4267 40.8037 59.199 40.2583 59.8335 39.5704C58.668 39.24 57.4341 39.24 56.2687 39.5704C57.2688 38.9823 58.1017 38.1463 58.6876 37.1426C58.0119 37.1445 57.34 37.245 56.693 37.4407C57.1702 36.8561 57.5435 36.1933 57.7965 35.4815C56.8223 35.6629 55.9003 36.0588 55.0968 36.6406C54.2933 37.2224 53.6282 37.9757 53.1494 38.8463C48.9056 32.2728 44.5485 25.7562 40.0783 19.2963C39.272 18.125 38.9537 18.3379 39.6327 19.5731C43.4098 26.4518 47.3353 33.2454 51.3245 39.9963C50.3626 40.0772 49.4291 40.3643 48.5872 40.8382C47.7453 41.3122 47.0145 41.9619 46.4441 42.7435Z" fill="#C6824A"/>
<path d="M81.7948 53.8816L75.429 63.0178L24.3541 33.2029C23.2713 32.6852 22.2985 31.962 21.4895 31.0733C20.0422 29.402 19.1933 27.2931 19.078 25.0818C18.9626 22.8706 19.5874 20.6842 20.853 18.8704L22.1473 17.0177C23.5006 15.0977 25.488 13.7211 27.7567 13.1324C30.0254 12.5437 32.4284 12.7809 34.5394 13.8019C35.3176 14.206 36.0326 14.7227 36.6613 15.3352L81.7948 53.8816Z" fill="#C7946D"/>
<path d="M86.4844 54.201C85.6284 54.4549 84.8239 54.8586 84.1079 55.3936C84.3978 54.6449 84.5627 53.8534 84.5959 53.0509C83.3907 53.6815 82.3676 54.613 81.6252 55.7556C82.0751 54.3806 82.1484 52.9095 81.8374 51.4964C81.0722 52.201 80.4547 53.0518 80.0212 53.9989C79.5876 54.946 79.3466 55.9704 79.3123 57.0121C61.4456 44.0071 43.1334 31.634 24.3755 19.8926C41.7895 33.6926 59.6632 46.8395 77.9967 59.3334C76.992 59.698 76.0715 60.2635 75.291 60.9956C74.5104 61.7277 73.8861 62.6112 73.4558 63.5927C74.8667 63.4191 76.2027 62.8591 77.3177 61.9741C76.5027 63.0647 75.9836 64.3488 75.8111 65.701C76.5833 65.4135 77.3009 64.9958 77.933 64.4658C77.6845 65.3226 77.5841 66.2157 77.636 67.1065C78.6041 66.4565 79.4177 65.6005 80.0191 64.5994C80.6205 63.5983 80.995 62.4766 81.1159 61.3139C88.6983 66.4535 96.3584 71.4723 104.096 76.3705C105.476 77.2436 105.752 76.8603 104.457 75.8594C97.2426 70.1804 89.9361 64.6433 82.5377 59.2482C83.5115 58.7318 84.3661 58.0156 85.0461 57.146C85.726 56.2765 86.2161 55.273 86.4844 54.201Z" fill="#C6824A"/>
<path d="M48.1411 53.3063L52.385 43.6377L96.118 57.672C97.0409 57.8899 97.9036 58.3118 98.6431 58.9071C100.009 60.276 100.907 62.0442 101.208 63.9575C101.509 65.8708 101.198 67.8306 100.319 69.5553L99.4707 71.5146C98.774 73.4414 97.445 75.0731 95.702 76.1413C93.9589 77.2095 91.9056 77.6507 89.8795 77.3924C89.2152 77.2223 88.584 76.9415 88.0122 76.5618L48.1411 53.3063Z" fill="#C7946D"/>
<path d="M44.3641 54.1368C45.0363 53.6907 45.6372 53.145 46.1465 52.5183C46.0011 53.2182 45.9441 53.9337 45.9768 54.6479C46.8946 53.7732 47.6177 52.7136 48.0987 51.5387C47.8759 52.7959 47.9559 54.0883 48.3321 55.3082C49.4234 53.694 49.9462 51.7601 49.8175 49.8137C65.3783 57.0118 81.222 63.5285 97.3487 69.3637C82.085 61.3563 66.5241 54.0445 50.6662 47.4285C52.2624 46.1946 53.3924 44.4521 53.8704 42.4877C52.712 43.0262 51.7055 43.846 50.9421 44.8729C51.4756 43.7168 51.7646 42.4624 51.7908 41.1887C51.2252 41.657 50.7193 42.1934 50.2843 42.7859C50.401 41.988 50.401 41.1773 50.2843 40.3794C48.8259 42.0266 48.0316 44.1602 48.0563 46.3637C41.5066 43.6519 34.8932 41.0609 28.2162 38.5905C27.0279 38.1433 26.8581 38.5905 27.9828 39.1442C34.3486 42.4025 40.7144 45.5331 47.0802 48.5359C45.5323 50.0136 44.5678 52.0025 44.3641 54.1368Z" fill="#C6824A"/>
<path d="M54.6346 62.9964L47.5474 54.3714L89.8375 12.9074C90.6572 12.0306 91.6275 11.3092 92.7021 10.7778C94.6908 9.8253 96.9405 9.56993 99.0911 10.0526C101.242 10.5352 103.169 11.7279 104.564 13.4398L106.007 15.1861C107.481 16.998 108.268 19.2752 108.229 21.614C108.19 23.9528 107.328 26.2023 105.794 27.9639C105.175 28.6283 104.46 29.1955 103.672 29.6463L54.6346 62.9964Z" fill="#C7946D"/>
<path d="M53.0641 67.426C53.0517 66.5383 52.8866 65.6593 52.576 64.8279C53.227 65.2915 53.9418 65.6574 54.698 65.914C54.4238 64.5799 53.8097 63.3398 52.9156 62.3149C54.096 63.105 55.4667 63.5611 56.8836 63.6353C56.4083 62.7081 55.7549 61.8845 54.9609 61.212C54.167 60.5394 53.2483 60.0313 52.2578 59.7168C69.5303 45.9167 86.3007 31.5134 102.569 16.5065C84.6597 29.6393 67.2669 43.418 50.3905 57.8427C50.3035 56.7631 49.997 55.7128 49.4897 54.7568C48.9824 53.8007 48.2851 52.9593 47.441 52.2844C47.2148 53.7259 47.3987 55.2023 47.9715 56.5436C47.139 55.4652 46.0424 54.6215 44.7886 54.0946C44.9009 54.8812 45.1223 55.6482 45.4464 56.3733C44.6965 55.901 43.871 55.5624 43.0062 55.3724C43.3649 56.4856 43.9662 57.5047 44.7663 58.3556C45.5664 59.2065 46.5454 59.8679 47.632 60.2918C40.672 66.2548 33.8041 72.3242 27.028 78.5002C25.8185 79.6076 26.1156 79.9696 27.4312 78.99C34.7872 73.5098 42.0584 67.923 49.2447 62.2298C49.4757 63.319 49.936 64.3461 50.5947 65.2423C51.2534 66.1385 52.0953 66.883 53.0641 67.426V67.426Z" fill="#C6824A"/>
<path d="M70.7187 43.1905L72.3526 54.2433L18.9011 67.2553C17.8323 67.5942 16.7073 67.7173 15.5909 67.6174C13.466 67.3135 11.5006 66.3135 10.0002 64.7731C8.49986 63.2326 7.54855 61.2379 7.29413 59.0989L6.95461 56.8627C6.56501 54.617 6.97144 52.3052 8.10332 50.3289C9.2352 48.3526 11.021 46.8366 13.1507 46.0442C13.9413 45.8031 14.7647 45.6881 15.5909 45.7034L70.7187 43.1905Z" fill="#C7946D"/>
<path d="M74.0712 40.2303C73.6607 41.0019 73.381 41.8368 73.2437 42.7007C72.9615 41.9326 72.5605 41.2139 72.0554 40.571C71.6542 41.8662 71.5669 43.2389 71.8008 44.5748C71.2417 43.2948 70.356 42.1856 69.2332 41.359C69.1219 43.442 69.7876 45.4919 71.1005 47.109C50.7583 49.7782 30.5222 53.214 10.3921 57.4165C30.9607 55.656 51.409 53.0791 71.7371 49.6859C70.8364 51.6584 70.745 53.9074 71.4825 55.947C72.3236 54.835 72.8579 53.5202 73.0315 52.1349C73.1765 53.4893 73.6581 54.7854 74.432 55.9044C74.7232 55.1689 74.902 54.3935 74.9625 53.6044C75.3435 54.3932 75.8526 55.1129 76.469 55.734C76.693 54.5945 76.6825 53.421 76.438 52.2857C76.1935 51.1503 75.7203 50.0772 75.0474 49.1321C83.5351 47.7053 91.8106 46.1719 100.15 44.4682C101.656 44.1701 101.571 43.7016 100.15 43.8507C91.6621 44.6458 83.1743 45.5757 74.6866 46.6405C75.0097 45.584 75.1217 44.4738 75.0161 43.3738C74.9105 42.2737 74.5894 41.2054 74.0712 40.2303V40.2303Z" fill="#C6824A"/>
<path d="M58.7938 39.3998L69.7429 41.4016L64.2047 100.478C64.1646 101.886 63.8182 103.269 63.1896 104.53C62.5611 105.79 61.6656 106.897 60.5659 107.773C59.4663 108.65 58.189 109.274 56.8236 109.603C55.4582 109.932 54.0376 109.958 52.6613 109.678L50.5394 109.273C48.2325 108.858 46.1489 107.63 44.663 105.811C43.1772 103.992 42.3867 101.701 42.4336 99.349C42.4594 98.4644 42.6167 97.5887 42.9004 96.7508L58.7938 39.3998Z" fill="#C7946D"/>
<path d="M57.1174 35.013C57.7278 35.6812 58.445 36.2427 59.2393 36.6742C58.4462 36.7347 57.6666 36.9141 56.9264 37.2066C57.9999 38.0448 59.2724 38.588 60.6186 38.7825C59.2077 38.9524 57.8674 39.4963 56.7355 40.3584C57.6935 40.7597 58.7212 40.9663 59.7592 40.9663C60.7973 40.9663 61.825 40.7597 62.783 40.3584C58.5391 62.0807 55.0026 83.9521 52.1733 105.972C57.3509 84.307 61.7361 62.5067 65.3293 40.5714C66.0898 41.3414 67.0008 41.9451 68.005 42.3446C69.0093 42.7441 70.085 42.9307 71.1646 42.8927C70.4048 41.6805 69.335 40.6951 68.0666 40.039C69.3954 40.3339 70.7778 40.2752 72.077 39.8687C71.4917 39.3281 70.8259 38.8826 70.1036 38.5482C70.9779 38.4108 71.8238 38.1302 72.6075 37.7177C71.6191 37.1015 70.506 36.7148 69.3495 36.5858C68.1931 36.4569 67.0225 36.5889 65.9234 36.9723C67.338 27.9001 68.6607 18.8137 69.8914 9.71302C70.1036 8.07321 69.6581 7.98798 69.2761 9.6065C67.1966 18.551 65.2515 27.5309 63.4408 36.5464C62.5613 35.8446 61.5399 35.3438 60.4478 35.079C59.3556 34.8142 58.2191 34.7916 57.1174 35.013V35.013Z" fill="#C6824A"/>
<path d="M69.3179 48.621L74.3681 56.1811L36.8523 86.422C36.0071 87.1929 35.0048 87.7701 33.9151 88.1134C32.8254 88.4567 31.6744 88.5579 30.5418 88.4099C29.4092 88.262 28.3222 87.8685 27.3564 87.2568C26.3905 86.6451 25.5687 85.8297 24.9483 84.8673L23.9297 83.334C22.8692 81.7465 22.4045 79.8328 22.6182 77.9335C22.8319 76.0343 23.7102 74.2728 25.0968 72.9627C25.6325 72.4835 26.2325 72.0821 26.8792 71.7701L69.3179 48.621Z" fill="#C7946D"/>
<path d="M70.9311 45.1498C70.8765 45.8666 70.9483 46.5876 71.1433 47.2794C70.6592 46.8442 70.1073 46.4917 69.5094 46.2359C69.6293 47.3353 70.0314 48.3846 70.6765 49.2813C69.7815 48.5437 68.7031 48.0651 67.5573 47.897C67.8678 48.6858 68.3316 49.4045 68.9218 50.0115C69.512 50.6184 70.2167 51.1014 70.9948 51.4322C55.9008 61.2569 41.1817 71.6069 26.8374 82.4823C42.3982 73.2396 57.5771 63.4504 72.374 53.1146C72.3572 53.9951 72.5219 54.8696 72.8578 55.6832C73.1938 56.4968 73.6937 57.2319 74.3262 57.8424C74.6029 56.7111 74.5663 55.5255 74.2201 54.4137C74.8086 55.3639 75.6355 56.1423 76.6179 56.6711C76.5945 56.0176 76.4728 55.3715 76.2572 54.7544C76.8324 55.1945 77.4783 55.533 78.1669 55.7554C77.9423 54.8439 77.5247 53.9917 76.9425 53.2567C76.3603 52.5217 75.6271 51.9213 74.793 51.4961C80.9042 47.2368 86.9446 42.864 92.9143 38.3775C93.9965 37.5683 93.7843 37.2488 92.6385 37.9516C86.2302 41.7991 79.8998 45.7532 73.6472 49.8137C73.5614 48.8843 73.2737 47.9852 72.8045 47.1794C72.3352 46.3737 71.6958 45.6809 70.9311 45.1498V45.1498Z" fill="#C6824A"/>
</svg>
