<svg width="216" height="236" viewBox="0 0 216 236" fill="none" xmlns="http://www.w3.org/2000/svg">
<path d="M94.9929 143.833L108.796 142.496L122.278 214.822C122.615 216.274 122.687 217.775 122.491 219.251C122.096 221.962 120.802 224.459 118.815 226.342C116.828 228.226 114.264 229.388 111.532 229.641L108.732 229.92C105.843 230.186 102.949 229.421 100.564 227.762C98.1787 226.102 96.4559 223.655 95.7007 220.854C95.4442 219.755 95.3546 218.625 95.4347 217.501L94.9929 143.833Z" fill="#C7946D"/>
<path d="M91.512 139.146C92.4362 139.748 93.4571 140.186 94.5296 140.442C93.6007 140.792 92.7284 141.276 91.9402 141.878C93.506 142.519 95.2101 142.744 96.8863 142.532C95.2542 143.202 93.8346 144.3 92.777 145.71C94.0624 145.862 95.3642 145.758 96.6076 145.405C97.8509 145.052 99.0112 144.456 100.021 143.653C102.295 171.022 105.538 198.291 109.751 225.46C108.607 197.896 106.439 170.418 103.247 143.024C104.421 143.682 105.716 144.093 107.054 144.232C108.391 144.371 109.741 144.234 111.022 143.831C109.692 142.6 108.042 141.767 106.262 141.429C107.951 141.317 109.58 140.77 110.992 139.842C110.103 139.413 109.158 139.11 108.186 138.943C109.192 138.496 110.113 137.879 110.908 137.119C109.511 136.718 108.044 136.633 106.612 136.869C105.181 137.105 103.821 137.656 102.631 138.483C101.3 127.176 99.796 115.891 98.1182 104.626C97.8135 102.612 97.2344 102.667 97.3338 104.702C97.8926 116.084 98.6199 127.451 99.5158 138.805C98.2325 138.289 96.8545 138.053 95.4741 138.111C94.0937 138.17 92.7429 138.523 91.512 139.146V139.146Z" fill="#C6824A"/>
<path d="M123.564 120.231L137.367 118.893L150.849 191.22C151.186 192.672 151.258 194.172 151.062 195.648C150.668 198.359 149.373 200.856 147.386 202.74C145.4 204.624 142.835 205.785 140.104 206.039L137.304 206.318C134.414 206.584 131.521 205.819 129.135 204.159C126.75 202.5 125.027 200.053 124.272 197.252C124.016 196.153 123.926 195.022 124.006 193.898L123.564 120.231Z" fill="#C7946D"/>
<path d="M120.083 115.544C121.008 116.146 122.028 116.584 123.101 116.839C122.172 117.19 121.3 117.674 120.511 118.276C122.077 118.917 123.781 119.142 125.458 118.93C123.825 119.6 122.406 120.698 121.348 122.108C122.634 122.26 123.936 122.156 125.179 121.803C126.422 121.45 127.582 120.854 128.593 120.05C130.866 147.42 134.109 174.689 138.322 201.858C137.178 174.294 135.01 146.815 131.818 119.422C132.992 120.08 134.288 120.491 135.625 120.63C136.962 120.768 138.313 120.632 139.593 120.229C138.263 118.997 136.613 118.165 134.833 117.827C136.522 117.715 138.151 117.168 139.563 116.24C138.674 115.811 137.729 115.508 136.757 115.34C137.764 114.894 138.684 114.277 139.479 113.517C138.083 113.116 136.615 113.03 135.184 113.266C133.752 113.502 132.392 114.054 131.203 114.881C129.872 103.574 128.367 92.2883 126.689 81.0235C126.385 79.0093 125.806 79.065 125.905 81.1001C126.464 92.4814 127.191 103.849 128.087 115.203C126.804 114.687 125.426 114.45 124.045 114.509C122.665 114.568 121.314 114.921 120.083 115.544V115.544Z" fill="#C6824A"/>
<path d="M148.409 140.106L162.212 138.769L175.694 211.095C176.031 212.548 176.103 214.048 175.907 215.524C175.512 218.235 174.218 220.732 172.231 222.616C170.244 224.499 167.68 225.661 164.948 225.915L162.148 226.194C159.259 226.459 156.365 225.694 153.98 224.035C151.595 222.376 149.872 219.929 149.117 217.127C148.86 216.029 148.771 214.898 148.851 213.774L148.409 140.106Z" fill="#C7946D"/>
<path d="M144.928 135.42C145.852 136.021 146.873 136.46 147.946 136.715C147.017 137.065 146.144 137.549 145.356 138.152C146.922 138.793 148.626 139.018 150.302 138.805C148.67 139.476 147.251 140.574 146.193 141.983C147.478 142.135 148.78 142.032 150.024 141.679C151.267 141.325 152.427 140.73 153.437 139.926C155.711 167.295 158.954 194.565 163.167 221.734C162.023 194.17 159.855 166.691 156.663 139.298C157.837 139.955 159.132 140.367 160.47 140.505C161.807 140.644 163.157 140.508 164.438 140.104C163.108 138.873 161.458 138.04 159.678 137.702C161.367 137.59 162.996 137.044 164.408 136.115C163.519 135.686 162.574 135.384 161.602 135.216C162.608 134.77 163.529 134.153 164.324 133.392C162.927 132.991 161.46 132.906 160.028 133.142C158.597 133.378 157.237 133.93 156.047 134.757C154.716 123.45 153.212 112.164 151.534 100.899C151.23 98.8849 150.65 98.9406 150.75 100.976C151.309 112.357 152.036 123.725 152.932 135.078C151.648 134.562 150.271 134.326 148.89 134.385C147.51 134.444 146.159 134.796 144.928 135.42V135.42Z" fill="#C6824A"/>
<path d="M50.2727 50.666L64.0755 49.3285L77.5578 121.655C77.8945 123.107 77.9667 124.608 77.7708 126.084C77.3761 128.794 76.0818 131.291 74.095 133.175C72.1082 135.059 69.5438 136.221 66.8122 136.474L64.0121 136.753C61.1227 137.019 58.229 136.254 55.8438 134.595C53.4585 132.935 51.7357 130.488 50.9805 127.687C50.724 126.588 50.6343 125.458 50.7145 124.334L50.2727 50.666Z" fill="#C7946D"/>
<path d="M46.7918 45.9791C47.716 46.581 48.7369 47.0193 49.8094 47.2747C48.8805 47.6251 48.0082 48.109 47.2199 48.7111C48.7858 49.3522 50.4899 49.5774 52.1661 49.3649C50.5339 50.0353 49.1144 51.1332 48.0568 52.5431C49.3422 52.6949 50.644 52.5913 51.8874 52.2381C53.1307 51.8849 54.2909 51.2893 55.3012 50.4854C57.5743 77.8548 60.8175 105.124 65.0308 132.293C63.8866 104.729 61.7187 77.2506 58.527 49.8572C59.7006 50.5151 60.9961 50.9261 62.3333 51.0649C63.6706 51.2036 65.0212 51.0671 66.3018 50.6639C64.9716 49.4325 63.3216 48.5999 61.5416 48.2618C63.2304 48.15 64.8598 47.6032 66.2714 46.6749C65.3823 46.246 64.4379 45.9433 63.4657 45.7755C64.472 45.3291 65.3929 44.7121 66.1877 43.9518C64.7911 43.551 63.3238 43.4655 61.8921 43.7015C60.4605 43.9376 59.1005 44.4892 57.911 45.3164C56.5801 34.0094 55.0758 22.7235 53.3979 11.4587C53.0933 9.44454 52.5142 9.50024 52.6136 11.5354C53.1723 22.9167 53.8997 34.2841 54.7956 45.6378C53.5123 45.1219 52.1343 44.8855 50.7539 44.9443C49.3735 45.0032 48.0227 45.356 46.7918 45.9791V45.9791Z" fill="#C6824A"/>
<path d="M86.2976 40.7282L100.1 39.3907L113.583 111.717C113.919 113.17 113.992 114.67 113.796 116.146C113.401 118.857 112.107 121.354 110.12 123.237C108.133 125.121 105.569 126.283 102.837 126.536L100.037 126.815C97.1476 127.081 94.2539 126.316 91.8687 124.657C89.4834 122.997 87.7606 120.55 87.0054 117.749C86.7489 116.65 86.6592 115.52 86.7394 114.396L86.2976 40.7282Z" fill="#C7946D"/>
<path d="M82.8167 36.0413C83.7409 36.6433 84.7618 37.0816 85.8343 37.3369C84.9054 37.6873 84.0331 38.1712 83.2448 38.7734C84.8107 39.4144 86.5148 39.6396 88.191 39.4271C86.5588 40.0975 85.1393 41.1954 84.0817 42.6053C85.3671 42.7571 86.6689 42.6535 87.9123 42.3003C89.1556 41.9472 90.3158 41.3515 91.3261 40.5477C93.5992 67.9171 96.8424 95.1864 101.056 122.355C99.9115 94.7916 97.7436 67.3129 94.5519 39.9194C95.7255 40.5773 97.021 40.9884 98.3582 41.1271C99.6955 41.2659 101.046 41.1294 102.327 40.7261C100.997 39.4947 99.3465 38.6621 97.5665 38.3241C99.2553 38.2122 100.885 37.6654 102.296 36.7371C101.407 36.3082 100.463 36.0055 99.4906 35.8377C100.497 35.3913 101.418 34.7744 102.213 34.014C100.816 33.6132 99.3487 33.5277 97.917 33.7638C96.4854 33.9998 95.1254 34.5515 93.9359 35.3786C92.605 24.0716 91.1007 12.7858 89.4228 1.52097C89.1182 -0.493236 88.5391 -0.437538 88.6385 1.59762C89.1972 12.9789 89.9246 24.3464 90.8205 35.7C89.5372 35.1841 88.1592 34.9477 86.7788 35.0065C85.3984 35.0654 84.0476 35.4182 82.8167 36.0413V36.0413Z" fill="#C6824A"/>
<path d="M144.682 49.4237L158.485 48.0862L171.967 120.413C172.304 121.865 172.376 123.365 172.18 124.841C171.785 127.552 170.491 130.049 168.504 131.933C166.517 133.817 163.953 134.978 161.221 135.232L158.421 135.511C155.532 135.777 152.638 135.012 150.253 133.352C147.868 131.693 146.145 129.246 145.39 126.445C145.133 125.346 145.044 124.215 145.124 123.091L144.682 49.4237Z" fill="#C7946D"/>
<path d="M141.201 44.7368C142.125 45.3388 143.146 45.7771 144.219 46.0324C143.29 46.3828 142.417 46.8667 141.629 47.4689C143.195 48.1099 144.899 48.3351 146.575 48.1226C144.943 48.793 143.524 49.8909 142.466 51.3008C143.751 51.4526 145.053 51.349 146.297 50.9958C147.54 50.6427 148.7 50.047 149.71 49.2431C151.984 76.6126 155.227 103.882 159.44 131.051C158.296 103.487 156.128 76.0084 152.936 48.6149C154.11 49.2728 155.405 49.6839 156.743 49.8226C158.08 49.9614 159.43 49.8249 160.711 49.4216C159.381 48.1902 157.731 47.3576 155.951 47.0196C157.64 46.9077 159.269 46.3609 160.681 45.4326C159.791 45.0037 158.847 44.701 157.875 44.5332C158.881 44.0868 159.802 43.4699 160.597 42.7095C159.2 42.3087 157.733 42.2232 156.301 42.4593C154.87 42.6953 153.51 43.2469 152.32 44.0741C150.989 32.7671 149.485 21.4813 147.807 10.2165C147.502 8.20226 146.923 8.25796 147.023 10.2931C147.582 21.6744 148.309 33.0419 149.205 44.3955C147.921 43.8796 146.543 43.6432 145.163 43.702C143.783 43.7609 142.432 44.1137 141.201 44.7368V44.7368Z" fill="#C6824A"/>
<path d="M62.6951 140.106L76.4978 138.769L89.9801 211.095C90.3169 212.548 90.389 214.048 90.1931 215.524C89.7985 218.235 88.5041 220.732 86.5173 222.616C84.5306 224.499 81.9662 225.661 79.2346 225.915L76.4344 226.194C73.5451 226.459 70.6514 225.694 68.2661 224.035C65.8809 222.376 64.158 219.929 63.4028 217.127C63.1464 216.029 63.0567 214.898 63.1369 213.774L62.6951 140.106Z" fill="#C7946D"/>
<path d="M59.2142 135.42C60.1384 136.021 61.1593 136.46 62.2317 136.715C61.3029 137.065 60.4305 137.549 59.6423 138.152C61.2081 138.793 62.9123 139.018 64.5884 138.805C62.9563 139.476 61.5368 140.574 60.4792 141.983C61.7645 142.135 63.0664 142.032 64.3097 141.679C65.5531 141.325 66.7133 140.73 67.7235 139.926C69.9967 167.295 73.2399 194.565 77.4531 221.734C76.3089 194.17 74.1411 166.691 70.9493 139.298C72.123 139.955 73.4184 140.367 74.7557 140.505C76.093 140.644 77.4436 140.508 78.7242 140.104C77.394 138.873 75.744 138.04 73.964 137.702C75.6527 137.59 77.2822 137.044 78.6937 136.115C77.8047 135.686 76.8603 135.384 75.8881 135.216C76.8944 134.77 77.8153 134.153 78.61 133.392C77.2135 132.991 75.7461 132.906 74.3145 133.142C72.8829 133.378 71.5229 133.93 70.3334 134.757C69.0025 123.45 67.4982 112.164 65.8203 100.899C65.5156 98.8849 64.9365 98.9406 65.0359 100.976C65.5947 112.357 66.322 123.725 67.218 135.078C65.9346 134.562 64.5567 134.326 63.1763 134.385C61.7959 134.444 60.445 134.796 59.2142 135.42V135.42Z" fill="#C6824A"/>
<path d="M83.8128 94.144L97.6155 92.8065L111.098 165.133C111.435 166.585 111.507 168.085 111.311 169.562C110.916 172.272 109.622 174.769 107.635 176.653C105.648 178.537 103.084 179.699 100.352 179.952L97.5521 180.231C94.6628 180.497 91.7691 179.732 89.3838 178.073C86.9985 176.413 85.2757 173.966 84.5205 171.165C84.264 170.066 84.1744 168.936 84.2546 167.811L83.8128 94.144Z" fill="#C7946D"/>
<path d="M80.3318 89.4571C81.2561 90.059 82.2769 90.4973 83.3494 90.7527C82.4205 91.103 81.5482 91.5869 80.76 92.1891C82.3258 92.8301 84.03 93.0554 85.7061 92.8428C84.074 93.5132 82.6545 94.6111 81.5969 96.021C82.8822 96.1729 84.1841 96.0692 85.4274 95.7161C86.6708 95.3629 87.831 94.7672 88.8412 93.9634C91.1144 121.333 94.3575 148.602 98.5708 175.771C97.4266 148.207 95.2587 120.729 92.067 93.3352C93.2407 93.9931 94.5361 94.4041 95.8734 94.5429C97.2106 94.6816 98.5613 94.5451 99.8418 94.1418C98.5117 92.9104 96.8617 92.0778 95.0817 91.7398C96.7704 91.6279 98.3998 91.0812 99.8114 90.1528C98.9223 89.724 97.978 89.4212 97.0058 89.2535C98.0121 88.8071 98.9329 88.1901 99.7277 87.4298C98.3311 87.029 96.8638 86.9435 95.4322 87.1795C94.0006 87.4155 92.6406 87.9672 91.451 88.7944C90.1202 77.4874 88.6158 66.2015 86.938 54.9367C86.6333 52.9225 86.0542 52.9782 86.1536 55.0134C86.7124 66.3946 87.4397 77.7621 88.3357 89.1158C87.0523 88.5998 85.6743 88.3634 84.2939 88.4223C82.9135 88.4811 81.5627 88.8339 80.3318 89.4571V89.4571Z" fill="#C6824A"/>
<path d="M121.079 40.7282L134.882 39.3907L148.364 111.717C148.701 113.17 148.773 114.67 148.577 116.146C148.183 118.857 146.888 121.354 144.902 123.237C142.915 125.121 140.35 126.283 137.619 126.536L134.819 126.815C131.929 127.081 129.036 126.316 126.65 124.657C124.265 122.997 122.542 120.55 121.787 117.749C121.531 116.65 121.441 115.52 121.521 114.396L121.079 40.7282Z" fill="#C7946D"/>
<path d="M117.598 36.0413C118.523 36.6433 119.544 37.0816 120.616 37.3369C119.687 37.6873 118.815 38.1712 118.027 38.7734C119.592 39.4144 121.297 39.6396 122.973 39.4271C121.341 40.0975 119.921 41.1954 118.863 42.6053C120.149 42.7571 121.451 42.6535 122.694 42.3003C123.937 41.9472 125.098 41.3515 126.108 40.5477C128.381 67.9171 131.624 95.1864 135.837 122.355C134.693 94.7916 132.525 67.3129 129.334 39.9194C130.507 40.5773 131.803 40.9884 133.14 41.1271C134.477 41.2659 135.828 41.1294 137.108 40.7261C135.778 39.4947 134.128 38.6621 132.348 38.3241C134.037 38.2122 135.666 37.6654 137.078 36.7371C136.189 36.3082 135.245 36.0055 134.272 35.8377C135.279 35.3913 136.2 34.7744 136.994 34.014C135.598 33.6132 134.13 33.5277 132.699 33.7638C131.267 33.9998 129.907 34.5515 128.718 35.3786C127.387 24.0716 125.882 12.7858 124.205 1.52097C123.9 -0.493236 123.321 -0.437538 123.42 1.59762C123.979 12.9789 124.706 24.3464 125.602 35.7C124.319 35.1841 122.941 34.9477 121.561 35.0065C120.18 35.0654 118.829 35.4182 117.598 36.0413V36.0413Z" fill="#C6824A"/>
</svg>
