<svg width="250" height="271" viewBox="0 0 250 271" fill="none" xmlns="http://www.w3.org/2000/svg">
<path d="M3.54359 56.8004L191.673 94.2889L192.919 50.9593L58.3267 31.1044L1.03418 22.7793L2.78907 57.4956L3.56902 57.6482L3.54359 56.8004ZM6.4684 26.7469L15.1326 27.264C16.8282 27.3573 18.0744 29.1545 17.8625 31.1892L16.2432 47.1104C16.2056 47.7806 16.0263 48.4352 15.7171 49.0311C15.4079 49.6269 14.9759 50.1504 14.4495 50.567C13.9232 50.9836 13.3144 51.2838 12.6635 51.4479C12.0126 51.612 11.3343 51.6361 10.6734 51.5188V51.5188C9.1489 51.1546 7.79172 50.2871 6.82107 49.0565C5.85041 47.8259 5.32296 46.304 5.32391 44.7366L5.26457 28.2305C5.25609 27.3827 5.79866 26.7045 6.4684 26.7469Z" fill="#666666"/>
<path d="M179.338 208.967C179.338 211.884 179.397 213.656 179.397 213.656H179.338C179.338 212.952 179.338 211.299 179.287 208.976C179.346 214.495 179.389 218.115 179.389 218.115L8.47754 170.292L10.6733 213.528L10.1985 201.558L186.9 256.104L186.586 269.999L188.282 211.197L179.338 208.967Z" fill="#666666"/>
<path d="M193.174 51.0107H192.92L191.674 94.3404L192.055 94.4167L190.419 152.913L190.258 176.218L188.825 203.406H188.757L188.545 211.333L188.308 211.274L186.612 270.075L238.276 226.194L250 29.384L193.174 51.0107ZM231.502 148.606C230.556 148.967 229.527 149.054 228.534 148.856C227.542 148.658 226.625 148.183 225.89 147.487L220.735 149.454C220.45 149.565 220.145 149.619 219.838 149.613C219.532 149.607 219.23 149.54 218.949 149.417C218.669 149.293 218.415 149.116 218.203 148.895C217.991 148.674 217.824 148.413 217.713 148.127C217.602 147.842 217.548 147.537 217.554 147.231C217.56 146.924 217.627 146.622 217.75 146.341C217.873 146.061 218.051 145.807 218.272 145.595C218.493 145.383 218.754 145.216 219.04 145.105L224.126 143.147C224.2 142.182 224.531 141.255 225.085 140.462C225.64 139.669 226.397 139.04 227.278 138.64C228.159 138.24 229.131 138.084 230.093 138.188C231.055 138.292 231.971 138.653 232.746 139.232C233.52 139.812 234.125 140.589 234.497 141.482C234.868 142.375 234.993 143.352 234.859 144.31C234.724 145.268 234.334 146.172 233.73 146.928C233.126 147.684 232.33 148.263 231.426 148.606H231.502Z" fill="#808080"/>
<path d="M193.173 51.0105L249.974 29.3838L63.2436 0L0.338867 22.5508L58.3265 31.1048L192.919 50.9766L193.173 51.0105ZM49.0519 9.10508L65.3546 3.58608L228.551 29.2227L212.443 35.6743L49.0519 9.10508Z" fill="#CCCCCC"/>
<path d="M179.871 199.667L179.668 200.574L179.871 199.667Z" fill="#E6E6E6"/>
<path d="M3.56892 57.6485L2.78897 57.4959L2.06836 57.3518L3.56892 57.6485Z" fill="#E6E6E6"/>
<path d="M179.177 202.617C179.177 204.906 179.228 207.043 179.245 208.95C179.245 207.178 179.245 205.025 179.168 202.592L179.177 202.617Z" fill="#E6E6E6"/>
<path d="M180.228 202.261L179.253 202.592C179.253 205.051 179.313 207.212 179.338 208.967L188.308 211.197L188.545 211.256L188.757 203.33L180.084 201.821C180.127 201.965 180.177 202.109 180.228 202.261Z" fill="#E6E6E6"/>
<path d="M3.56889 57.6483L190.138 94.2975L178.736 154.108C178.736 157.804 178.956 181.474 179.134 198.955C179.134 198.955 179.134 199.031 179.134 199.065C179.032 190.053 178.905 178.566 178.812 169.292C178.914 178.617 179.058 190.181 179.168 199.192L179.626 200.574L179.829 199.667L184.551 176.676L190.376 152.845L192.012 94.3484L191.63 94.2721L3.54346 56.8005L3.56889 57.6483Z" fill="#4D4D4D"/>
<path d="M179.872 199.667L179.677 200.608C179.812 201.015 179.94 201.456 180.084 201.821L188.756 203.33H188.824L190.257 176.142L190.418 152.836L184.594 176.667L179.872 199.667Z" fill="#1A1A1A"/>
<path d="M180.228 202.262C180.177 202.109 180.126 201.965 180.083 201.821C179.939 201.414 179.812 201.015 179.677 200.608L179.219 199.227C179.219 200.405 179.219 201.541 179.261 202.618L180.228 202.262Z" fill="#999999"/>
<path opacity="0.78" d="M3.61999 87.2188L2.06857 57.3518L0 121.231L1.78032 121.562C0.894916 110.083 1.51337 98.5376 3.61999 87.2188V87.2188Z" fill="#1E2ACA"/>
<path d="M5.27373 105.624C5.172 107.879 5.13809 110.235 5.15504 112.685L5.52806 112.787L5.27373 105.624Z" fill="#E6E6E6"/>
<path opacity="0.78" d="M5.27373 105.624C5.172 107.879 5.13809 110.235 5.15504 112.685L5.52806 112.787L5.27373 105.624Z" fill="#1E2ACA"/>
<path d="M4.47603 83.3106L3.56892 57.6485L2.06836 57.3518L3.61978 87.2188C3.89107 85.8539 4.17931 84.5568 4.47603 83.3106Z" fill="#E6E6E6"/>
<path opacity="0.78" d="M4.47603 83.3106L3.56892 57.6485L2.06836 57.3518L3.61978 87.2188C3.89107 85.8539 4.17931 84.5568 4.47603 83.3106Z" fill="#1E2ACA"/>
<path d="M5.66234 116.594L5.22998 116.475C5.29215 118.34 5.38823 120.262 5.51822 122.24L5.86581 122.3L5.66234 116.594Z" fill="#E6E6E6"/>
<path opacity="0.78" d="M5.66234 116.594L5.22998 116.475C5.29215 118.34 5.38823 120.262 5.51822 122.24L5.86581 122.3L5.66234 116.594Z" fill="#1E2ACA"/>
<path d="M35.0637 120.791C35.0182 116.27 35.2845 111.752 35.8606 107.269L5.62901 100.096C5.47641 101.871 5.35773 103.714 5.27295 105.624L5.52728 112.788L35.0637 120.791Z" fill="#4D4D4D"/>
<path opacity="0.78" d="M35.0637 120.791C35.0182 116.27 35.2845 111.752 35.8606 107.269L5.62901 100.096C5.47641 101.871 5.35773 103.714 5.27295 105.624L5.52728 112.788L35.0637 120.791Z" fill="#1E2ACA"/>
<path d="M88.906 79.1138L51.3242 71.8145C50.5951 73.0776 49.3574 75.3242 47.9331 78.3847L85.5742 86.6674C86.812 83.5307 87.9819 80.9789 88.906 79.1138Z" fill="#4D4D4D"/>
<path opacity="0.78" d="M88.906 79.1138L51.3242 71.8145C50.5951 73.0776 49.3574 75.3242 47.9331 78.3847L85.5742 86.6674C86.812 83.5307 87.9819 80.9789 88.906 79.1138Z" fill="#1E2ACA"/>
<path d="M128.979 108.938L170.715 118.196C171.334 115.051 172.004 112.168 172.682 109.557L131.523 100.503C130.658 103.029 129.785 105.852 128.979 108.938Z" fill="#4D4D4D"/>
<path opacity="0.78" d="M128.979 108.938L170.715 118.196C171.334 115.051 172.004 112.168 172.682 109.557L131.523 100.503C130.658 103.029 129.785 105.852 128.979 108.938Z" fill="#1E2ACA"/>
<path d="M173.642 106.048C174.879 101.724 176.066 98.4178 176.923 96.1966L136.492 88.3547C135.644 90.0503 134.271 93.0175 132.745 97.0529L173.642 106.048Z" fill="#4D4D4D"/>
<path opacity="0.78" d="M173.642 106.048C174.879 101.724 176.066 98.4178 176.923 96.1966L136.492 88.3547C135.644 90.0503 134.271 93.0175 132.745 97.0529L173.642 106.048Z" fill="#1E2ACA"/>
<path d="M126.877 118.552C126.521 120.553 126.207 122.672 125.953 124.894L168.342 134.948C168.655 131.404 169.054 128.098 169.512 125.089C169.681 123.953 169.859 122.85 170.046 121.774L128.098 112.448C127.657 114.449 127.242 116.45 126.877 118.552Z" fill="#4D4D4D"/>
<path opacity="0.78" d="M126.877 118.552C126.521 120.553 126.207 122.672 125.953 124.894L168.342 134.948C168.655 131.404 169.054 128.098 169.512 125.089C169.681 123.953 169.859 122.85 170.046 121.774L128.098 112.448C127.657 114.449 127.242 116.45 126.877 118.552Z" fill="#1E2ACA"/>
<path d="M13.7591 61.3614L13.8608 60.8358L90.7114 75.7481L90.8725 75.4684L91.6525 75.9347L181.516 93.3818L181.296 94.5348L181.508 94.6365C181.508 94.6365 181.338 95.0096 181.084 95.62L180.83 96.951L180.567 96.9001C177.956 103.564 170.868 124.368 171.436 152.76L178.736 154.108L190.138 94.2974L3.56885 57.6482L4.47596 83.3103C7.98575 68.771 13.3013 61.8871 13.7506 61.353L13.7591 61.3614Z" fill="#4D4D4D"/>
<path opacity="0.78" d="M13.7591 61.3614L13.8608 60.8358L90.7114 75.7481L90.8725 75.4684L91.6525 75.9347L181.516 93.3818L181.296 94.5348L181.508 94.6365C181.508 94.6365 181.338 95.0096 181.084 95.62L180.83 96.951L180.567 96.9001C177.956 103.564 170.868 124.368 171.436 152.76L178.736 154.108L190.138 94.2974L3.56885 57.6482L4.47596 83.3103C7.98575 68.771 13.3013 61.8871 13.7506 61.353L13.7591 61.3614Z" fill="#1E2ACA"/>
<path d="M168.071 138.619L125.589 128.548C125.147 133.787 125.09 139.052 125.42 144.299L167.758 152.082C167.673 147.317 167.8 142.816 168.071 138.619Z" fill="#4D4D4D"/>
<path opacity="0.78" d="M168.071 138.619L125.589 128.548C125.147 133.787 125.09 139.052 125.42 144.299L167.758 152.082C167.673 147.317 167.8 142.816 168.071 138.619Z" fill="#1E2ACA"/>
<path d="M39.4213 108.108C38.8568 112.643 38.6217 117.213 38.7176 121.782L77.8508 132.388C77.6065 127.359 77.7227 122.319 78.1984 117.306L39.4213 108.108Z" fill="#4D4D4D"/>
<path opacity="0.78" d="M39.4213 108.108C38.8568 112.643 38.6217 117.213 38.7176 121.782L77.8508 132.388C77.6065 127.359 77.7227 122.319 78.1984 117.306L39.4213 108.108Z" fill="#1E2ACA"/>
<path d="M42.8297 80.9789L11.2756 74.0356C10.2538 76.7194 9.37654 79.456 8.64746 82.2336L39.8455 89.1769C40.8204 86.1503 41.8378 83.4035 42.8297 80.9789Z" fill="#4D4D4D"/>
<path opacity="0.78" d="M42.8297 80.9789L11.2756 74.0356C10.2538 76.7194 9.37654 79.456 8.64746 82.2336L39.8455 89.1769C40.8204 86.1503 41.8378 83.4035 42.8297 80.9789Z" fill="#1E2ACA"/>
<path d="M5.66309 116.594L5.86655 122.3L35.3945 127.734C35.3012 126.675 35.2334 125.623 35.1741 124.589L5.66309 116.594Z" fill="#4D4D4D"/>
<path opacity="0.78" d="M5.66309 116.594L5.86655 122.3L35.3945 127.734C35.3012 126.675 35.2334 125.623 35.1741 124.589L5.66309 116.594Z" fill="#1E2ACA"/>
<path d="M47.5508 71.0855L15.7169 64.9053C14.5829 66.7396 13.58 68.6519 12.7158 70.6277L44.3208 77.5795C45.5501 74.7903 46.703 72.6031 47.5508 71.0855Z" fill="#4D4D4D"/>
<path opacity="0.78" d="M47.5508 71.0855L15.7169 64.9053C14.5829 66.7396 13.58 68.6519 12.7158 70.6277L44.3208 77.5795C45.5501 74.7903 46.703 72.6031 47.5508 71.0855Z" fill="#1E2ACA"/>
<path d="M122.012 127.7L81.7763 118.154C81.3159 123.227 81.2394 128.329 81.5474 133.414L114.144 142.248L121.774 143.638C121.472 138.326 121.552 133 122.012 127.7V127.7Z" fill="#4D4D4D"/>
<path opacity="0.78" d="M122.012 127.7L81.7763 118.154C81.3159 123.227 81.2394 128.329 81.5474 133.414L114.144 142.248L121.774 143.638C121.472 138.326 121.552 133 122.012 127.7V127.7Z" fill="#1E2ACA"/>
<path d="M39.0993 128.42L70.8484 134.262L38.8789 125.597C38.9383 126.53 38.9976 127.463 39.0993 128.42Z" fill="#4D4D4D"/>
<path opacity="0.78" d="M39.0993 128.42L70.8484 134.262L38.8789 125.597C38.9383 126.53 38.9976 127.463 39.0993 128.42Z" fill="#1E2ACA"/>
<path d="M83.2681 107.582C82.8442 109.752 82.4712 112.067 82.166 114.508L122.393 124.054C122.656 121.867 122.969 119.773 123.317 117.789C123.69 115.67 124.103 113.635 124.555 111.685L84.3194 102.758C83.9294 104.318 83.5903 105.92 83.2681 107.582Z" fill="#4D4D4D"/>
<path opacity="0.78" d="M83.2681 107.582C82.8442 109.752 82.4712 112.067 82.166 114.508L122.393 124.054C122.656 121.867 122.969 119.773 123.317 117.789C123.69 115.67 124.103 113.635 124.555 111.685L84.3194 102.758C83.9294 104.318 83.5903 105.92 83.2681 107.582Z" fill="#1E2ACA"/>
<path d="M87.8884 90.8979C86.9813 93.4413 86.0742 96.188 85.2349 99.24L125.419 108.15C126.216 105.073 127.115 102.216 127.963 99.7148L87.8884 90.8979Z" fill="#4D4D4D"/>
<path opacity="0.78" d="M87.8884 90.8979C86.9813 93.4413 86.0742 96.188 85.2349 99.24L125.419 108.15C126.216 105.073 127.115 102.216 127.963 99.7148L87.8884 90.8979Z" fill="#1E2ACA"/>
<path d="M40.9309 99.2573C40.5663 100.953 40.2357 102.648 39.939 104.497L78.6059 113.669C78.9196 111.228 79.3011 108.922 79.7249 106.752C80.0471 105.107 80.3947 103.513 80.7677 101.97L42.389 93.4585C41.8634 95.3066 41.3717 97.2396 40.9309 99.2573Z" fill="#4D4D4D"/>
<path opacity="0.78" d="M40.9309 99.2573C40.5663 100.953 40.2357 102.648 39.939 104.497L78.6059 113.669C78.9196 111.228 79.3011 108.922 79.7249 106.752C80.0471 105.107 80.3947 103.513 80.7677 101.97L42.389 93.4585C41.8634 95.3066 41.3717 97.2396 40.9309 99.2573Z" fill="#1E2ACA"/>
<path d="M46.458 81.7761C45.4492 84.1838 44.4149 86.9306 43.4399 89.9656L81.666 98.4433C82.5138 95.4083 83.3616 92.6191 84.2856 90.1097L46.458 81.7761Z" fill="#4D4D4D"/>
<path opacity="0.78" d="M46.458 81.7761C45.4492 84.1838 44.4149 86.9306 43.4399 89.9656L81.666 98.4433C82.5138 95.4083 83.3616 92.6191 84.2856 90.1097L46.458 81.7761Z" fill="#1E2ACA"/>
<path d="M36.3872 103.657C36.6924 101.792 37.04 100.02 37.413 98.3332C37.8454 96.3663 38.3286 94.4758 38.8288 92.67L7.78332 85.7861C6.78885 90.3289 6.08378 94.9303 5.67236 99.5624L6.39297 96.5359L36.3872 103.657Z" fill="#4D4D4D"/>
<path opacity="0.78" d="M36.3872 103.657C36.6924 101.792 37.04 100.02 37.413 98.3332C37.8454 96.3663 38.3286 94.4758 38.8288 92.67L7.78332 85.7861C6.78885 90.3289 6.08378 94.9303 5.67236 99.5624L6.39297 96.5359L36.3872 103.657Z" fill="#1E2ACA"/>
<path d="M132.804 87.634L92.6278 79.8345C91.78 81.53 90.5253 84.1581 89.1943 87.4644L129.158 96.2558C130.557 92.4917 131.88 89.5584 132.804 87.634Z" fill="#4D4D4D"/>
<path opacity="0.78" d="M132.804 87.634L92.6278 79.8345C91.78 81.53 90.5253 84.1581 89.1943 87.4644L129.158 96.2558C130.557 92.4917 131.88 89.5584 132.804 87.634Z" fill="#1E2ACA"/>
<path d="M5.23015 116.476L5.66251 116.594L35.1735 124.623C35.2328 125.657 35.3007 126.708 35.3939 127.768L39.0987 128.455C39.0139 127.497 38.9376 126.564 38.8783 125.631L70.8478 134.296L114.144 142.256L81.5467 133.389C81.2386 128.303 81.3151 123.202 81.7756 118.129L122.011 127.675C121.538 132.965 121.444 138.283 121.731 143.587L125.419 144.274C125.09 139.026 125.146 133.762 125.588 128.522L168.07 138.594C167.799 142.833 167.672 147.292 167.757 152.057L171.436 152.735C170.868 124.343 177.955 103.564 180.567 96.875L180.829 96.9259L181.084 95.5949C181.338 94.9845 181.491 94.6454 181.508 94.6115L181.296 94.5097L181.516 93.3568L91.6521 75.9096L90.8722 75.4433L90.7111 75.7231L13.8605 60.8362L13.7587 61.3618C13.3094 61.9213 7.99389 68.7798 4.48411 83.3191C4.18739 84.5653 3.89914 85.8624 3.63633 87.2273C1.53046 98.5433 0.912001 110.086 1.79667 121.562L5.53535 122.249C5.3884 120.271 5.28667 118.346 5.23015 116.476ZM77.8504 132.388L38.7172 121.783C38.6212 117.213 38.8564 112.643 39.4208 108.108L78.198 117.306C77.7222 122.319 77.606 127.359 77.8504 132.388V132.388ZM79.69 106.752C79.2662 108.922 78.8423 111.228 78.571 113.669L39.938 104.496C40.2347 102.665 40.5653 100.91 40.9299 99.2572C41.3707 97.2395 41.8624 95.3066 42.388 93.4585L80.7667 101.936C80.3937 103.496 80.0348 105.101 79.69 106.752ZM81.6314 98.4434L43.4054 89.9657C44.3803 86.9306 45.4146 84.1838 46.4234 81.7762L84.2511 90.1098C83.3948 92.6192 82.4962 95.4084 81.6654 98.4434H81.6314ZM123.283 117.79C122.935 119.773 122.621 121.867 122.358 124.055L82.1655 114.509C82.4707 112.067 82.8438 109.753 83.2676 107.582C83.5898 105.887 83.9459 104.318 84.3189 102.759L124.554 111.686C124.108 113.635 123.695 115.67 123.316 117.79H123.283ZM125.385 108.15L85.2006 99.2403C86.0483 96.1883 86.947 93.3991 87.8541 90.8982L127.903 99.715C127.081 102.25 126.216 105.073 125.419 108.15H125.385ZM169.469 125.106C169.011 128.115 168.621 131.422 168.299 134.965L125.911 124.911C126.165 122.69 126.479 120.57 126.835 118.57C127.191 116.569 127.615 114.432 128.064 112.491L170.012 121.816C169.868 122.851 169.69 123.953 169.554 125.089L169.469 125.106ZM170.665 118.213L128.98 108.939C129.827 105.853 130.675 103.004 131.523 100.461L172.682 109.515C172.004 112.169 171.334 115.051 170.715 118.196L170.665 118.213ZM176.87 96.2137C176.022 98.418 174.827 101.741 173.589 106.065L132.718 97.07C134.244 93.0346 135.626 90.0504 136.465 88.3718L176.87 96.2137ZM92.5762 79.8517L132.752 87.6512C131.828 89.5757 130.514 92.509 129.107 96.2731L89.1427 87.4817C90.5246 84.1584 91.7454 81.5642 92.6271 79.8348L92.5762 79.8517ZM51.3236 71.8148L88.9053 79.1142C87.9813 80.9793 86.8113 83.5311 85.5821 86.6678L47.9409 78.3851C49.3567 75.3246 50.5945 73.078 51.3236 71.8148ZM15.7171 64.9055L47.551 71.0858C46.7032 72.6033 45.5502 74.7905 44.2955 77.5797L12.716 70.628C13.5801 68.6521 14.583 66.7398 15.7171 64.9055V64.9055ZM11.2748 74.036L42.8289 80.9793C41.837 83.4039 40.8197 86.1507 39.8617 89.1772L8.64667 82.234C9.37575 79.4564 10.253 76.7198 11.2748 74.036V74.036ZM7.78194 85.7861L38.8274 92.6701C38.3272 94.4758 37.844 96.3663 37.4116 98.3332C37.0386 100.029 36.691 101.792 36.3858 103.657L6.3916 96.5359L5.67099 99.5624C6.08241 94.9303 6.78748 90.3289 7.78194 85.7861V85.7861ZM5.23862 105.624C5.3234 103.708 5.44209 101.866 5.59469 100.097L35.8263 107.269C35.2502 111.752 34.9839 116.27 35.0294 120.791L5.52687 112.754L5.15385 112.652C5.13689 110.21 5.1708 107.879 5.27254 105.624H5.23862Z" fill="#999999"/>
<path opacity="0.78" d="M5.23015 116.476L5.66251 116.594L35.1735 124.623C35.2328 125.657 35.3007 126.708 35.3939 127.768L39.0987 128.455C39.0139 127.497 38.9376 126.564 38.8783 125.631L70.8478 134.296L114.144 142.256L81.5467 133.389C81.2386 128.303 81.3151 123.202 81.7756 118.129L122.011 127.675C121.538 132.965 121.444 138.283 121.731 143.587L125.419 144.274C125.09 139.026 125.146 133.762 125.588 128.522L168.07 138.594C167.799 142.833 167.672 147.292 167.757 152.057L171.436 152.735C170.868 124.343 177.955 103.564 180.567 96.875L180.829 96.9259L181.084 95.5949C181.338 94.9845 181.491 94.6454 181.508 94.6115L181.296 94.5097L181.516 93.3568L91.6521 75.9096L90.8722 75.4433L90.7111 75.7231L13.8605 60.8362L13.7587 61.3618C13.3094 61.9213 7.99389 68.7798 4.48411 83.3191C4.18739 84.5653 3.89914 85.8624 3.63633 87.2273C1.53046 98.5433 0.912001 110.086 1.79667 121.562L5.53535 122.249C5.3884 120.271 5.28667 118.346 5.23015 116.476ZM77.8504 132.388L38.7172 121.783C38.6212 117.213 38.8564 112.643 39.4208 108.108L78.198 117.306C77.7222 122.319 77.606 127.359 77.8504 132.388V132.388ZM79.69 106.752C79.2662 108.922 78.8423 111.228 78.571 113.669L39.938 104.496C40.2347 102.665 40.5653 100.91 40.9299 99.2572C41.3707 97.2395 41.8624 95.3066 42.388 93.4585L80.7667 101.936C80.3937 103.496 80.0348 105.101 79.69 106.752ZM81.6314 98.4434L43.4054 89.9657C44.3803 86.9306 45.4146 84.1838 46.4234 81.7762L84.2511 90.1098C83.3948 92.6192 82.4962 95.4084 81.6654 98.4434H81.6314ZM123.283 117.79C122.935 119.773 122.621 121.867 122.358 124.055L82.1655 114.509C82.4707 112.067 82.8438 109.753 83.2676 107.582C83.5898 105.887 83.9459 104.318 84.3189 102.759L124.554 111.686C124.108 113.635 123.695 115.67 123.316 117.79H123.283ZM125.385 108.15L85.2006 99.2403C86.0483 96.1883 86.947 93.3991 87.8541 90.8982L127.903 99.715C127.081 102.25 126.216 105.073 125.419 108.15H125.385ZM169.469 125.106C169.011 128.115 168.621 131.422 168.299 134.965L125.911 124.911C126.165 122.69 126.479 120.57 126.835 118.57C127.191 116.569 127.615 114.432 128.064 112.491L170.012 121.816C169.868 122.851 169.69 123.953 169.554 125.089L169.469 125.106ZM170.665 118.213L128.98 108.939C129.827 105.853 130.675 103.004 131.523 100.461L172.682 109.515C172.004 112.169 171.334 115.051 170.715 118.196L170.665 118.213ZM176.87 96.2137C176.022 98.418 174.827 101.741 173.589 106.065L132.718 97.07C134.244 93.0346 135.626 90.0504 136.465 88.3718L176.87 96.2137ZM92.5762 79.8517L132.752 87.6512C131.828 89.5757 130.514 92.509 129.107 96.2731L89.1427 87.4817C90.5246 84.1584 91.7454 81.5642 92.6271 79.8348L92.5762 79.8517ZM51.3236 71.8148L88.9053 79.1142C87.9813 80.9793 86.8113 83.5311 85.5821 86.6678L47.9409 78.3851C49.3567 75.3246 50.5945 73.078 51.3236 71.8148ZM15.7171 64.9055L47.551 71.0858C46.7032 72.6033 45.5502 74.7905 44.2955 77.5797L12.716 70.628C13.5801 68.6521 14.583 66.7398 15.7171 64.9055V64.9055ZM11.2748 74.036L42.8289 80.9793C41.837 83.4039 40.8197 86.1507 39.8617 89.1772L8.64667 82.234C9.37575 79.4564 10.253 76.7198 11.2748 74.036V74.036ZM7.78194 85.7861L38.8274 92.6701C38.3272 94.4758 37.844 96.3663 37.4116 98.3332C37.0386 100.029 36.691 101.792 36.3858 103.657L6.3916 96.5359L5.67099 99.5624C6.08241 94.9303 6.78748 90.3289 7.78194 85.7861V85.7861ZM5.23862 105.624C5.3234 103.708 5.44209 101.866 5.59469 100.097L35.8263 107.269C35.2502 111.752 34.9839 116.27 35.0294 120.791L5.52687 112.754L5.15385 112.652C5.13689 110.21 5.1708 107.879 5.27254 105.624H5.23862Z" fill="#1E2ACA"/>
<path d="M179.338 213.639H179.398C179.398 213.639 179.398 211.867 179.338 208.951H179.288C179.313 211.282 179.33 212.935 179.338 213.639Z" fill="#666666"/>
<path opacity="0.78" d="M179.338 213.639H179.398C179.398 213.639 179.398 211.867 179.338 208.951H179.288C179.313 211.282 179.33 212.935 179.338 213.639Z" fill="#1E2ACA"/>
<path d="M179.21 202.617C179.21 205.05 179.261 207.204 179.286 208.976H179.337C179.337 207.221 179.286 205.059 179.252 202.6L179.21 202.617Z" fill="#E6E6E6"/>
<path opacity="0.78" d="M179.21 202.617C179.21 205.05 179.261 207.204 179.286 208.976H179.337C179.337 207.221 179.286 205.059 179.252 202.6L179.21 202.617Z" fill="#1E2ACA"/>
<path d="M178.88 169.292C178.974 178.566 179.101 190.053 179.203 199.065C179.203 199.108 179.203 199.15 179.203 199.192C179.101 190.181 178.957 178.583 178.88 169.292Z" fill="#4D4D4D"/>
<path opacity="0.78" d="M178.88 169.292C178.974 178.566 179.101 190.053 179.203 199.065C179.203 199.108 179.203 199.15 179.203 199.192C179.101 190.181 178.957 178.583 178.88 169.292Z" fill="#1E2ACA"/>
<path d="M179.252 202.618C179.252 201.532 179.252 200.396 179.21 199.227C179.21 199.184 179.21 199.142 179.21 199.099C179.21 200.329 179.21 201.516 179.21 202.635L179.252 202.618Z" fill="#999999"/>
<path opacity="0.78" d="M179.252 202.618C179.252 201.532 179.252 200.396 179.21 199.227C179.21 199.184 179.21 199.142 179.21 199.099C179.21 200.329 179.21 201.516 179.21 202.635L179.252 202.618Z" fill="#1E2ACA"/>
<path opacity="0.7" d="M7.74017 166.341L7.22303 156.49L7.0789 156.448V155.422C4.39088 144.284 2.63278 132.941 1.82271 121.511L0 121.231L2.06857 168.495L8.47773 170.292L8.29122 166.486L7.74017 166.341Z" fill="#4D55BE"/>
<path d="M179.244 208.951L8.31641 166.486L8.50292 170.292L179.346 218.09C179.346 218.09 179.304 214.486 179.244 208.951Z" fill="#666666"/>
<path opacity="0.7" d="M179.244 208.951L8.31641 166.486L8.50292 170.292L179.346 218.09C179.346 218.09 179.304 214.486 179.244 208.951Z" fill="#4D55BE"/>
<path d="M5.51904 122.24V122.673L5.85815 122.758V122.3L5.51904 122.24Z" fill="#E6E6E6"/>
<path opacity="0.7" d="M5.51904 122.24V122.673L5.85815 122.758V122.3L5.51904 122.24Z" fill="#4D55BE"/>
<path d="M5.86572 126.521C5.94202 127.259 6.00984 127.997 6.09462 128.734L6.01832 126.564L5.86572 126.521Z" fill="#E6E6E6"/>
<path opacity="0.7" d="M5.86572 126.521C5.94202 127.259 6.00984 127.997 6.09462 128.734L6.01832 126.564L5.86572 126.521Z" fill="#4D55BE"/>
<path d="M176.786 203.465L176.633 203.007L53.4517 168.562L7.22266 156.49L7.7398 166.341L8.31628 166.485L179.244 208.95C179.244 207.043 179.202 204.906 179.176 202.617L176.786 203.465Z" fill="#E6E6E6"/>
<path opacity="0.7" d="M176.786 203.465L176.633 203.007L53.4517 168.562L7.22266 156.49L7.7398 166.341L8.31628 166.485L179.244 208.95C179.244 207.043 179.202 204.906 179.176 202.617L176.786 203.465Z" fill="#4D55BE"/>
<path d="M36.2422 134.796L6.01904 126.564L6.09534 128.734C6.22251 129.955 6.36663 131.193 6.51923 132.447L37.4206 140.925C36.9628 138.848 36.5728 136.805 36.2422 134.796Z" fill="#4D4D4D"/>
<path opacity="0.7" d="M36.2422 134.796L6.01904 126.564L6.09534 128.734C6.22251 129.955 6.36663 131.193 6.51923 132.447L37.4206 140.925C36.9628 138.848 36.5728 136.805 36.2422 134.796Z" fill="#4D55BE"/>
<path d="M5.88268 122.757L35.6989 130.862C35.5717 129.811 35.4784 128.768 35.3937 127.734L5.86572 122.299L5.88268 122.757Z" fill="#4D4D4D"/>
<path opacity="0.7" d="M5.88268 122.757L35.6989 130.862C35.5717 129.811 35.4784 128.768 35.3937 127.734L5.86572 122.299L5.88268 122.757Z" fill="#4D55BE"/>
<path d="M7.90992 155.838L8.03708 155.371L7.0791 155.6C7.0791 155.541 7.0791 155.482 7.0791 155.422V156.448L7.22322 156.49L53.4523 168.563L7.90992 155.838Z" fill="#4D4D4D"/>
<path opacity="0.7" d="M7.90992 155.838L8.03708 155.371L7.0791 155.6C7.0791 155.541 7.0791 155.482 7.0791 155.422V156.448L7.22322 156.49L53.4523 168.563L7.90992 155.838Z" fill="#4D55BE"/>
<path d="M90.7627 168.936C91.78 171.072 92.8821 173.175 94.1538 175.362L93.2297 175.888L133.948 187.282C132.581 184.744 131.348 182.218 130.252 179.703L90.7627 168.936Z" fill="#4D4D4D"/>
<path opacity="0.7" d="M90.7627 168.936C91.78 171.072 92.8821 173.175 94.1538 175.362L93.2297 175.888L133.948 187.282C132.581 184.744 131.348 182.218 130.252 179.703L90.7627 168.936Z" fill="#4D55BE"/>
<path d="M129.226 166.206L170.148 177.473C169.766 175.26 169.444 173.073 169.156 170.919L127.547 159.61C128.014 161.78 128.582 163.985 129.226 166.206Z" fill="#4D4D4D"/>
<path opacity="0.7" d="M129.226 166.206L170.148 177.473C169.766 175.26 169.444 173.073 169.156 170.919L127.547 159.61C128.014 161.78 128.582 163.985 129.226 166.206Z" fill="#4D55BE"/>
<path d="M88.8303 164.646L128.523 175.489C127.709 173.386 126.98 171.295 126.336 169.215L86.3887 158.194C87.1093 160.314 87.9231 162.476 88.8303 164.646Z" fill="#4D4D4D"/>
<path opacity="0.7" d="M88.8303 164.646L128.523 175.489C127.709 173.386 126.98 171.295 126.336 169.215L86.3887 158.194C87.1093 160.314 87.9231 162.476 88.8303 164.646Z" fill="#4D55BE"/>
<path d="M85.0911 154.049L125.131 165.07C124.538 162.865 124.038 160.687 123.614 158.525L83.4888 147.631C83.9296 149.742 84.4722 151.887 85.0911 154.049Z" fill="#4D4D4D"/>
<path opacity="0.7" d="M85.0911 154.049L125.131 165.07C124.538 162.865 124.038 160.687 123.614 158.525L83.4888 147.631C83.9296 149.742 84.4722 151.887 85.0911 154.049Z" fill="#4D55BE"/>
<path d="M39.5063 131.896L78.8429 142.604C78.5151 140.439 78.258 138.311 78.0715 136.22L70.8145 134.262L39.0654 128.42C39.2096 129.565 39.3452 130.726 39.5063 131.896Z" fill="#4D4D4D"/>
<path opacity="0.7" d="M39.5063 131.896L78.8429 142.604C78.5151 140.439 78.258 138.311 78.0715 136.22L70.8145 134.262L39.0654 128.42C39.2096 129.565 39.3452 130.726 39.5063 131.896Z" fill="#4D55BE"/>
<path d="M46.6274 156.906C47.6448 159.195 48.7808 161.509 50.0185 163.824L89.7197 174.912C88.4142 172.499 87.2386 170.091 86.193 167.689L46.6274 156.906Z" fill="#4D4D4D"/>
<path opacity="0.7" d="M46.6274 156.906C47.6448 159.195 48.7808 161.509 50.0185 163.824L89.7197 174.912C88.4142 172.499 87.2386 170.091 86.193 167.689L46.6274 156.906Z" fill="#4D55BE"/>
<path d="M132.922 176.65L172.157 187.358C171.693 185.374 171.27 183.41 170.885 181.466L130.557 170.334C131.252 172.428 132.04 174.539 132.922 176.65Z" fill="#4D4D4D"/>
<path opacity="0.7" d="M132.922 176.65L172.157 187.358C171.693 185.374 171.27 183.41 170.885 181.466L130.557 170.334C131.252 172.428 132.04 174.539 132.922 176.65Z" fill="#4D55BE"/>
<path d="M82.1822 157.016L42.5742 146.114C43.227 148.267 43.9815 150.454 44.8293 152.659L84.4288 163.442C83.5866 161.3 82.8378 159.158 82.1822 157.016Z" fill="#4D4D4D"/>
<path opacity="0.7" d="M82.1822 157.016L42.5742 146.114C43.227 148.267 43.9815 150.454 44.8293 152.659L84.4288 163.442C83.5866 161.3 82.8378 159.158 82.1822 157.016Z" fill="#4D55BE"/>
<path d="M8.85059 146.665C9.24056 148.648 9.6701 150.669 10.1392 152.726L45.2116 162.526C44.0812 160.266 43.0526 158.005 42.1257 155.744L8.85059 146.665Z" fill="#4D4D4D"/>
<path opacity="0.7" d="M8.85059 146.665C9.24056 148.648 9.6701 150.669 10.1392 152.726L45.2116 162.526C44.0812 160.266 43.0526 158.005 42.1257 155.744L8.85059 146.665Z" fill="#4D55BE"/>
<path d="M138.865 188.587L138.789 188.629L175.243 198.803C174.361 195.977 173.567 193.151 172.861 190.325L172.624 191.173L134.796 180.864C136.042 183.483 137.339 186.035 138.865 188.587Z" fill="#4D4D4D"/>
<path opacity="0.7" d="M138.865 188.587L138.789 188.629L175.243 198.803C174.361 195.977 173.567 193.151 172.861 190.325L172.624 191.173L134.796 180.864C136.042 183.483 137.339 186.035 138.865 188.587Z" fill="#4D55BE"/>
<path d="M121.774 144.291C121.774 144.062 121.774 143.841 121.774 143.613L114.144 142.222L121.774 144.291Z" fill="#4D4D4D"/>
<path opacity="0.7" d="M121.774 144.291C121.774 144.062 121.774 143.841 121.774 143.613L114.144 142.222L121.774 144.291Z" fill="#4D55BE"/>
<path d="M168.707 167.011C168.47 164.841 168.292 162.704 168.148 160.61L125.861 149.148C126.09 151.268 126.395 153.43 126.785 155.617L168.707 167.011Z" fill="#4D4D4D"/>
<path opacity="0.7" d="M168.707 167.011C168.47 164.841 168.292 162.704 168.148 160.61L125.861 149.148C126.09 151.268 126.395 153.43 126.785 155.617L168.707 167.011Z" fill="#4D55BE"/>
<path d="M40.5149 151.48C39.735 149.293 39.0567 147.123 38.4633 144.978L7.0957 136.331C7.4009 138.391 7.74001 140.493 8.12999 142.646L40.5149 151.48Z" fill="#4D4D4D"/>
<path opacity="0.7" d="M40.5149 151.48C39.735 149.293 39.0567 147.123 38.4633 144.978L7.0957 136.331C7.4009 138.391 7.74001 140.493 8.12999 142.646L40.5149 151.48Z" fill="#4D55BE"/>
<path d="M81.0133 152.921C80.4453 150.776 79.9705 148.682 79.5636 146.563L40.1167 135.838C40.4841 137.873 40.9277 139.936 41.4477 142.027L81.0133 152.921Z" fill="#4D4D4D"/>
<path opacity="0.7" d="M81.0133 152.921C80.4453 150.776 79.9705 148.682 79.5636 146.563L40.1167 135.838C40.4841 137.873 40.9277 139.936 41.4477 142.027L81.0133 152.921Z" fill="#4D55BE"/>
<path d="M125.47 145.291L167.859 156.795C167.791 155.193 167.74 153.625 167.715 152.082L125.377 144.299C125.47 144.63 125.47 144.969 125.47 145.291Z" fill="#4D4D4D"/>
<path opacity="0.7" d="M125.47 145.291L167.859 156.795C167.791 155.193 167.74 153.625 167.715 152.082L125.377 144.299C125.47 144.63 125.47 144.969 125.47 145.291Z" fill="#4D55BE"/>
<path d="M179.135 198.955C178.957 181.474 178.719 157.805 178.736 154.108L171.437 152.76C171.76 168.449 174.352 184.009 179.135 198.955V198.955Z" fill="#4D4D4D"/>
<path opacity="0.7" d="M179.135 198.955C178.957 181.474 178.719 157.805 178.736 154.108L171.437 152.76C171.76 168.449 174.352 184.009 179.135 198.955V198.955Z" fill="#4D55BE"/>
<path d="M122.927 154.574C122.583 152.393 122.3 150.248 122.08 148.14L81.8613 137.246C82.0733 139.34 82.3615 141.485 82.7091 143.655L122.927 154.574Z" fill="#4D4D4D"/>
<path opacity="0.7" d="M122.927 154.574C122.583 152.393 122.3 150.248 122.08 148.14L81.8613 137.246C82.0733 139.34 82.3615 141.485 82.7091 143.655L122.927 154.574Z" fill="#4D55BE"/>
<path d="M8.0368 155.371L7.90963 155.838L53.452 168.554L176.633 202.965L176.786 203.423L179.177 202.575C179.177 201.388 179.177 200.168 179.177 198.913C174.394 183.967 171.802 168.407 171.479 152.718L167.8 152.04C167.8 153.583 167.876 155.151 167.944 156.753L125.555 145.249C125.555 144.918 125.504 144.588 125.487 144.257L121.799 143.57C121.799 143.799 121.799 144.02 121.799 144.249L114.17 142.18L70.8737 134.219L78.1307 136.178C78.3172 138.269 78.5743 140.397 78.9021 142.562L39.5061 131.897C39.3451 130.727 39.2094 129.565 39.0992 128.421L35.3944 127.734C35.4792 128.768 35.5725 129.811 35.6996 130.862L5.88345 122.758L5.54434 122.673V122.24L1.80566 121.554C2.61573 132.983 4.37384 144.326 7.06186 155.465C7.06186 155.524 7.06186 155.583 7.06186 155.643L8.0368 155.371ZM10.1732 152.684C9.70408 150.621 9.27454 148.6 8.88457 146.622L42.1597 155.685C43.0866 157.946 44.1152 160.206 45.2456 162.467L10.1732 152.684ZM42.609 146.114L82.2169 157.016C82.8782 159.141 83.6271 161.283 84.4635 163.442L44.8301 152.659C43.9824 150.454 43.2363 148.267 42.5751 146.114H42.609ZM50.0185 163.824C48.7638 161.509 47.6278 159.195 46.6274 156.906L86.21 167.69C87.2612 170.086 88.4368 172.494 89.7367 174.913L50.0185 163.824ZM93.1956 175.887L94.1197 175.362C92.8904 173.209 91.7883 171.072 90.7286 168.936L130.277 179.728C131.408 182.249 132.64 184.775 133.973 187.307L93.1956 175.887ZM172.886 190.376C173.593 193.157 174.387 195.983 175.269 198.854L138.814 188.68L138.891 188.638C137.398 186.095 136.067 183.551 134.864 181.008L172.691 191.317L172.886 190.376ZM172.14 187.341L132.905 176.65C132.058 174.54 131.21 172.412 130.523 170.335L170.886 181.423C171.27 183.379 171.694 185.357 172.157 187.358L172.14 187.341ZM170.131 177.473L129.209 166.206C128.565 163.985 128.005 161.781 127.513 159.61L169.122 170.92C169.444 173.073 169.766 175.26 170.148 177.473H170.131ZM168.113 160.619C168.257 162.713 168.435 164.858 168.673 167.02L126.75 155.626C126.36 153.438 126.055 151.277 125.826 149.157L168.113 160.619ZM126.318 169.182C126.962 171.256 127.691 173.347 128.505 175.455L88.8126 164.646C87.9055 162.476 87.1171 160.314 86.371 158.177L126.318 169.182ZM125.114 165.078L85.0739 154.057C84.4551 151.895 83.9294 149.751 83.4716 147.64L123.614 158.534C124.038 160.695 124.538 162.874 125.131 165.078H125.114ZM122.054 148.123C122.257 150.231 122.54 152.376 122.902 154.558L82.7341 143.655C82.3611 141.485 82.0728 139.34 81.8863 137.246L122.054 148.123ZM79.5465 146.546C79.9534 148.64 80.3942 150.785 80.9962 152.904L41.4475 142.027C40.9219 139.931 40.4782 137.868 40.1165 135.839L79.5465 146.546ZM6.53624 132.414C6.38364 131.159 6.23952 129.921 6.11235 128.7C6.02757 127.963 5.95975 127.225 5.88345 126.488H6.03605L36.2422 134.796C36.5728 136.814 36.9628 138.857 37.4376 140.934L6.53624 132.414ZM38.4634 144.969C39.0568 147.114 39.735 149.284 40.515 151.472L8.09614 142.646C7.70616 140.493 7.36706 138.407 7.06186 136.33L38.4634 144.969Z" fill="#999999"/>
<path opacity="0.7" d="M8.0368 155.371L7.90963 155.838L53.452 168.554L176.633 202.965L176.786 203.423L179.177 202.575C179.177 201.388 179.177 200.168 179.177 198.913C174.394 183.967 171.802 168.407 171.479 152.718L167.8 152.04C167.8 153.583 167.876 155.151 167.944 156.753L125.555 145.249C125.555 144.918 125.504 144.588 125.487 144.257L121.799 143.57C121.799 143.799 121.799 144.02 121.799 144.249L114.17 142.18L70.8737 134.219L78.1307 136.178C78.3172 138.269 78.5743 140.397 78.9021 142.562L39.5061 131.897C39.3451 130.727 39.2094 129.565 39.0992 128.421L35.3944 127.734C35.4792 128.768 35.5725 129.811 35.6996 130.862L5.88345 122.758L5.54434 122.673V122.24L1.80566 121.554C2.61573 132.983 4.37384 144.326 7.06186 155.465C7.06186 155.524 7.06186 155.583 7.06186 155.643L8.0368 155.371ZM10.1732 152.684C9.70408 150.621 9.27454 148.6 8.88457 146.622L42.1597 155.685C43.0866 157.946 44.1152 160.206 45.2456 162.467L10.1732 152.684ZM42.609 146.114L82.2169 157.016C82.8782 159.141 83.6271 161.283 84.4635 163.442L44.8301 152.659C43.9824 150.454 43.2363 148.267 42.5751 146.114H42.609ZM50.0185 163.824C48.7638 161.509 47.6278 159.195 46.6274 156.906L86.21 167.69C87.2612 170.086 88.4368 172.494 89.7367 174.913L50.0185 163.824ZM93.1956 175.887L94.1197 175.362C92.8904 173.209 91.7883 171.072 90.7286 168.936L130.277 179.728C131.408 182.249 132.64 184.775 133.973 187.307L93.1956 175.887ZM172.886 190.376C173.593 193.157 174.387 195.983 175.269 198.854L138.814 188.68L138.891 188.638C137.398 186.095 136.067 183.551 134.864 181.008L172.691 191.317L172.886 190.376ZM172.14 187.341L132.905 176.65C132.058 174.54 131.21 172.412 130.523 170.335L170.886 181.423C171.27 183.379 171.694 185.357 172.157 187.358L172.14 187.341ZM170.131 177.473L129.209 166.206C128.565 163.985 128.005 161.781 127.513 159.61L169.122 170.92C169.444 173.073 169.766 175.26 170.148 177.473H170.131ZM168.113 160.619C168.257 162.713 168.435 164.858 168.673 167.02L126.75 155.626C126.36 153.438 126.055 151.277 125.826 149.157L168.113 160.619ZM126.318 169.182C126.962 171.256 127.691 173.347 128.505 175.455L88.8126 164.646C87.9055 162.476 87.1171 160.314 86.371 158.177L126.318 169.182ZM125.114 165.078L85.0739 154.057C84.4551 151.895 83.9294 149.751 83.4716 147.64L123.614 158.534C124.038 160.695 124.538 162.874 125.131 165.078H125.114ZM122.054 148.123C122.257 150.231 122.54 152.376 122.902 154.558L82.7341 143.655C82.3611 141.485 82.0728 139.34 81.8863 137.246L122.054 148.123ZM79.5465 146.546C79.9534 148.64 80.3942 150.785 80.9962 152.904L41.4475 142.027C40.9219 139.931 40.4782 137.868 40.1165 135.839L79.5465 146.546ZM6.53624 132.414C6.38364 131.159 6.23952 129.921 6.11235 128.7C6.02757 127.963 5.95975 127.225 5.88345 126.488H6.03605L36.2422 134.796C36.5728 136.814 36.9628 138.857 37.4376 140.934L6.53624 132.414ZM38.4634 144.969C39.0568 147.114 39.735 149.284 40.515 151.472L8.09614 142.646C7.70616 140.493 7.36706 138.407 7.06186 136.33L38.4634 144.969Z" fill="#4D55BE"/>
<path d="M227.661 138.518C226.705 138.883 225.872 139.511 225.26 140.331C224.648 141.15 224.281 142.127 224.202 143.147L227.796 141.782C228.373 141.563 229.013 141.581 229.576 141.834C230.139 142.087 230.578 142.553 230.797 143.13C231.017 143.706 230.998 144.347 230.745 144.909C230.492 145.472 230.026 145.912 229.449 146.131L225.889 147.487C226.59 148.146 227.456 148.605 228.395 148.817C229.334 149.028 230.313 148.984 231.229 148.69C232.145 148.395 232.966 147.861 233.607 147.142C234.247 146.423 234.683 145.546 234.869 144.602C235.056 143.657 234.986 142.68 234.667 141.772C234.349 140.863 233.793 140.057 233.057 139.436C232.321 138.815 231.433 138.403 230.484 138.241C229.535 138.08 228.56 138.175 227.661 138.518V138.518Z" fill="#CCCCCC"/>
<path d="M230.797 143.129C230.689 142.843 230.526 142.582 230.316 142.359C230.107 142.137 229.855 141.958 229.577 141.832C229.298 141.707 228.997 141.638 228.692 141.629C228.386 141.621 228.082 141.672 227.796 141.781L224.202 143.146L219.115 145.104C218.83 145.216 218.569 145.382 218.347 145.594C218.126 145.807 217.949 146.06 217.826 146.341C217.703 146.622 217.636 146.924 217.629 147.23C217.623 147.537 217.677 147.841 217.788 148.127C217.9 148.412 218.066 148.673 218.278 148.894C218.49 149.116 218.744 149.293 219.025 149.416C219.305 149.539 219.607 149.606 219.914 149.612C220.22 149.619 220.525 149.565 220.811 149.454L225.965 147.487L229.526 146.13C230.089 145.897 230.538 145.452 230.776 144.89C231.014 144.329 231.022 143.696 230.797 143.129V143.129Z" fill="#CCCCCC"/>
<path d="M10.6735 51.5187C11.3345 51.636 12.0128 51.6118 12.6637 51.4478C13.3146 51.2837 13.9233 50.9835 14.4497 50.5669C14.9761 50.1503 15.4081 49.6268 15.7173 49.0309C16.0265 48.4351 16.2058 47.7805 16.2434 47.1103L17.8627 31.1891C18.0746 29.1544 16.8284 27.3572 15.1328 27.2639L6.46858 26.7468C5.79884 26.7044 5.25627 27.3826 5.26475 28.2304L5.32409 44.728C5.32123 46.2968 5.84781 47.8207 6.81862 49.0531C7.78943 50.2854 9.14766 51.1542 10.6735 51.5187V51.5187ZM8.40998 30.7482L14.5139 31.2654C15.0181 31.3486 15.4689 31.6281 15.7675 32.0428C16.0662 32.4574 16.1885 32.9735 16.1078 33.4781C16.1056 33.7211 16.0552 33.9613 15.9597 34.1848C15.8641 34.4083 15.7252 34.6106 15.551 34.7801C15.3768 34.9495 15.1707 35.0828 14.9447 35.1722C14.7187 35.2616 14.4772 35.3053 14.2342 35.3008L8.32521 34.6734C7.86135 34.5674 7.45077 34.2988 7.16777 33.9162C6.88476 33.5337 6.74801 33.0625 6.78226 32.5879C6.76258 32.359 6.78962 32.1286 6.86172 31.9105C6.93383 31.6923 7.04951 31.4912 7.20173 31.3191C7.35395 31.1471 7.53954 31.0078 7.74724 30.9096C7.95494 30.8115 8.18042 30.7566 8.40998 30.7482V30.7482ZM6.48554 42.1762C6.46795 41.968 6.49558 41.7584 6.56654 41.5619C6.6375 41.3654 6.75011 41.1865 6.89665 41.0375C7.0432 40.8886 7.22021 40.773 7.41557 40.6989C7.61093 40.6247 7.82001 40.5937 8.02849 40.6078L13.751 41.303C14.2129 41.3823 14.6269 41.6357 14.9076 42.0111C15.1884 42.3864 15.3145 42.8552 15.26 43.3207C15.2528 43.5388 15.2012 43.7531 15.1082 43.9505C15.0153 44.1479 14.883 44.3243 14.7194 44.4687C14.5559 44.6132 14.3646 44.7227 14.1573 44.7907C13.9499 44.8586 13.7309 44.8834 13.5136 44.8637L7.95219 44.0837C7.52347 43.987 7.14211 43.7434 6.87423 43.395C6.60634 43.0466 6.46883 42.6154 6.48554 42.1762V42.1762Z" fill="black"/>
<path d="M7.95226 44.0839L13.4882 44.8639C13.7075 44.8873 13.9293 44.8653 14.1397 44.799C14.35 44.7328 14.5445 44.6239 14.7108 44.479C14.8771 44.3342 15.0118 44.1566 15.1063 43.9573C15.2008 43.758 15.2531 43.5414 15.2601 43.321C15.3153 42.8591 15.1927 42.3936 14.9171 42.0188C14.6416 41.6441 14.2338 41.3883 13.7765 41.3033L8.02856 40.6081C7.82008 40.5939 7.611 40.6249 7.41565 40.6991C7.22029 40.7733 7.04327 40.8888 6.89673 41.0378C6.75018 41.1867 6.63757 41.3656 6.56661 41.5621C6.49566 41.7587 6.46802 41.9682 6.48561 42.1765V42.1765C6.46891 42.6156 6.60642 43.0468 6.8743 43.3952C7.14218 43.7436 7.52355 43.9873 7.95226 44.0839V44.0839Z" fill="#CA2626"/>
<path d="M8.3255 34.6742L14.2599 35.3016C14.7464 35.3038 15.2139 35.1133 15.5603 34.7717C15.9066 34.4302 16.1036 33.9653 16.1081 33.4789C16.1892 32.9768 16.0692 32.4629 15.774 32.0487C15.4788 31.6345 15.0323 31.3533 14.5312 31.2662L8.42723 30.749C8.19622 30.7551 7.96888 30.8084 7.7592 30.9055C7.54951 31.0026 7.36189 31.1416 7.20787 31.3139C7.05384 31.4862 6.93666 31.6881 6.86352 31.9074C6.79038 32.1266 6.76283 32.3584 6.78255 32.5887C6.74831 33.0633 6.88505 33.5345 7.16806 33.917C7.45107 34.2995 7.86164 34.5681 8.3255 34.6742V34.6742Z" fill="black"/>
<path d="M228.55 29.2226L65.3542 3.58594L49.0176 9.10494L212.409 35.6741L228.55 29.2226Z" fill="#CCCCCC"/>
<path opacity="0.38" d="M228.55 29.2226L65.3542 3.58594L49.0176 9.10494L212.409 35.6741L228.55 29.2226Z" fill="white"/>
<path d="M10.2241 201.558L10.6989 213.528L186.612 269.999L186.925 256.104L10.2241 201.558Z" fill="#666666"/>
<path opacity="0.54" d="M10.2241 201.558L10.6989 213.528L186.612 269.999L186.925 256.104L10.2241 201.558Z" fill="#4D4D4D"/>
</svg>
