<svg width="303" height="248" viewBox="0 0 303 248" fill="none" xmlns="http://www.w3.org/2000/svg">
<path d="M3.24544 52.0193L175.468 86.3599L176.594 46.9494H176.641V46.7009L53.417 28.4864L0.947266 20.8621L2.55443 52.656L3.26873 52.7957L3.24544 52.0193ZM5.92405 24.4957L13.8589 24.9693C15.4118 25.0547 16.5531 26.7007 16.359 28.564L14.876 43.145C14.8416 43.7588 14.6774 44.3583 14.3942 44.904C14.111 45.4497 13.7154 45.9291 13.2333 46.3106C12.7513 46.6922 12.1938 46.9671 11.5977 47.1174C11.0015 47.2676 10.3803 47.2898 9.77503 47.1823C8.3789 46.8488 7.13597 46.0543 6.24702 44.9273C5.35808 43.8003 4.87502 42.4065 4.87589 40.971L4.82155 25.8544C4.81378 25.078 5.31068 24.4568 5.92405 24.4957Z" fill="#666666"/>
<path d="M164.242 191.377C164.242 194.048 164.296 195.671 164.296 195.671H164.242C164.242 195.026 164.242 193.512 164.195 191.385C164.249 196.439 164.288 199.754 164.288 199.754L7.76416 155.957L9.77506 195.554L9.34027 184.591L171.167 234.545L170.88 247.271L172.433 193.419L164.242 191.377Z" fill="#666666"/>
<path d="M176.912 46.7165L228.388 27.12V26.8172L57.9201 0L0.310547 20.6525L53.4169 28.4864L176.68 46.6855L176.912 46.7165ZM44.923 8.33863L59.8533 3.28421L209.312 26.7628L194.56 32.6713L44.923 8.33863Z" fill="#CCCCCC"/>
<path d="M164.731 182.86L164.544 183.691L164.731 182.86Z" fill="#E6E6E6"/>
<path d="M3.26877 52.7958L2.55448 52.656L1.89453 52.524L3.26877 52.7958Z" fill="#E6E6E6"/>
<path d="M164.094 185.562C164.094 187.658 164.14 189.614 164.156 191.361C164.156 189.739 164.156 187.767 164.086 185.538L164.094 185.562Z" fill="#E6E6E6"/>
<path d="M165.057 185.236L164.164 185.538C164.164 187.79 164.218 189.77 164.242 191.377L172.441 193.419L172.65 186.175L164.886 184.832C164.964 184.964 165.01 185.096 165.057 185.236Z" fill="#E6E6E6"/>
<path d="M3.2689 52.7958L174.133 86.36L163.69 141.136C163.69 144.521 163.892 166.198 164.055 182.208C164.055 182.208 164.055 182.277 164.055 182.309C163.962 174.055 163.846 163.535 163.76 155.041C163.854 163.582 163.986 174.172 164.086 182.425L164.506 183.691L164.692 182.86L169.017 161.804L173.916 141.912L175.469 86.36L3.24561 52.0194L3.2689 52.7958Z" fill="#4D4D4D"/>
<path d="M164.731 182.86L164.552 183.722C164.676 184.094 164.793 184.498 164.925 184.832L172.689 186.175L173.955 141.92L169.094 161.811L164.731 182.86Z" fill="#1A1A1A"/>
<path d="M165.057 185.236C165.01 185.096 164.964 184.964 164.925 184.832C164.793 184.459 164.676 184.094 164.552 183.722L164.133 182.456C164.133 183.535 164.133 184.576 164.172 185.562L165.057 185.236Z" fill="#999999"/>
<path opacity="0.78" d="M3.31527 79.8769L1.89444 52.524L0 111.026L1.63046 111.329C0.819584 100.817 1.38598 90.2429 3.31527 79.8769Z" fill="#1E2ACA"/>
<path d="M4.82931 96.7328C4.73614 98.798 4.70508 100.956 4.72061 103.2L5.06223 103.293L4.82931 96.7328Z" fill="#E6E6E6"/>
<path opacity="0.78" d="M4.82931 96.7328C4.73614 98.798 4.70508 100.956 4.72061 103.2L5.06223 103.293L4.82931 96.7328Z" fill="#1E2ACA"/>
<path d="M4.09953 76.2977L3.26877 52.7958L1.89453 52.524L3.31536 79.8769C3.56381 78.6269 3.82779 77.439 4.09953 76.2977Z" fill="#E6E6E6"/>
<path opacity="0.78" d="M4.09953 76.2977L3.26877 52.7958L1.89453 52.524L3.31536 79.8769C3.56381 78.6269 3.82779 77.439 4.09953 76.2977Z" fill="#1E2ACA"/>
<path d="M5.1865 106.779L4.79053 106.671C4.84746 108.379 4.93546 110.139 5.05451 111.95L5.37283 112.005L5.1865 106.779Z" fill="#E6E6E6"/>
<path opacity="0.78" d="M5.1865 106.779L4.79053 106.671C4.84746 108.379 4.93546 110.139 5.05451 111.95L5.37283 112.005L5.1865 106.779Z" fill="#1E2ACA"/>
<path d="M32.1126 110.623C32.071 106.483 32.3148 102.345 32.8424 98.2389L5.15568 91.6705C5.01593 93.2958 4.90723 94.9832 4.82959 96.7327L5.06251 103.293L32.1126 110.623Z" fill="#4D4D4D"/>
<path opacity="0.78" d="M32.1126 110.623C32.071 106.483 32.3148 102.345 32.8424 98.2389L5.15568 91.6705C5.01593 93.2958 4.90723 94.9832 4.82959 96.7327L5.06251 103.293L32.1126 110.623Z" fill="#1E2ACA"/>
<path d="M81.4218 72.4544L47.0036 65.7695C46.3359 66.9264 45.2023 68.9839 43.8979 71.7867L78.3705 79.3722C79.5041 76.4995 80.5755 74.1625 81.4218 72.4544Z" fill="#4D4D4D"/>
<path opacity="0.78" d="M81.4218 72.4544L47.0036 65.7695C46.3359 66.9264 45.2023 68.9839 43.8979 71.7867L78.3705 79.3722C79.5041 76.4995 80.5755 74.1625 81.4218 72.4544Z" fill="#1E2ACA"/>
<path d="M118.123 99.7686L156.346 108.247C156.912 105.367 157.526 102.727 158.147 100.335L120.452 92.0433C119.66 94.357 118.861 96.9425 118.123 99.7686Z" fill="#4D4D4D"/>
<path opacity="0.78" d="M118.123 99.7686L156.346 108.247C156.912 105.367 157.526 102.727 158.147 100.335L120.452 92.0433C119.66 94.357 118.861 96.9425 118.123 99.7686Z" fill="#1E2ACA"/>
<path d="M159.024 97.1209C160.158 93.1612 161.245 90.1332 162.029 88.099L125.002 80.9172C124.226 82.4701 122.968 85.1875 121.57 88.8832L159.024 97.1209Z" fill="#4D4D4D"/>
<path opacity="0.78" d="M159.024 97.1209C160.158 93.1612 161.245 90.1332 162.029 88.099L125.002 80.9172C124.226 82.4701 122.968 85.1875 121.57 88.8832L159.024 97.1209Z" fill="#1E2ACA"/>
<path d="M116.197 108.573C115.871 110.405 115.584 112.346 115.351 114.381L154.172 123.589C154.459 120.343 154.824 117.315 155.243 114.559C155.398 113.519 155.561 112.509 155.74 111.523L117.315 102.983C116.912 104.815 116.531 106.648 116.197 108.573Z" fill="#4D4D4D"/>
<path opacity="0.78" d="M116.197 108.573C115.871 110.405 115.584 112.346 115.351 114.381L154.172 123.589C154.459 120.343 154.824 117.315 155.243 114.559C155.398 113.519 155.561 112.509 155.74 111.523L117.315 102.983C116.912 104.815 116.531 106.648 116.197 108.573Z" fill="#1E2ACA"/>
<path d="M12.601 56.1964L12.6942 55.7151L83.0756 69.3721L83.2231 69.1159L83.9374 69.5429L166.237 85.5214L166.035 86.5773L166.229 86.6705C166.229 86.6705 166.074 87.0121 165.841 87.5711L165.608 88.7901L165.367 88.7435C162.976 94.8461 156.485 113.899 157.005 139.901L163.69 141.136L174.133 86.3599L3.26855 52.7958L4.09931 76.2977C7.31364 62.9823 12.1817 56.6778 12.5932 56.1887L12.601 56.1964Z" fill="#4D4D4D"/>
<path opacity="0.78" d="M12.601 56.1964L12.6942 55.7151L83.0756 69.3721L83.2231 69.1159L83.9374 69.5429L166.237 85.5214L166.035 86.5773L166.229 86.6705C166.229 86.6705 166.074 87.0121 165.841 87.5711L165.608 88.7901L165.367 88.7435C162.976 94.8461 156.485 113.899 157.005 139.901L163.69 141.136L174.133 86.3599L3.26855 52.7958L4.09931 76.2977C7.31364 62.9823 12.1817 56.6778 12.5932 56.1887L12.601 56.1964Z" fill="#1E2ACA"/>
<path d="M153.923 126.951L115.017 117.727C114.612 122.525 114.56 127.347 114.862 132.152L153.636 139.28C153.558 134.916 153.675 130.794 153.923 126.951Z" fill="#4D4D4D"/>
<path opacity="0.78" d="M153.923 126.951L115.017 117.727C114.612 122.525 114.56 127.347 114.862 132.152L153.636 139.28C153.558 134.916 153.675 130.794 153.923 126.951Z" fill="#1E2ACA"/>
<path d="M36.103 99.0077C35.586 103.161 35.3707 107.347 35.4586 111.531L71.2976 121.244C71.0739 116.638 71.1803 112.022 71.6159 107.432L36.103 99.0077Z" fill="#4D4D4D"/>
<path opacity="0.78" d="M36.103 99.0077C35.586 103.161 35.3707 107.347 35.4586 111.531L71.2976 121.244C71.0739 116.638 71.1803 112.022 71.6159 107.432L36.103 99.0077Z" fill="#1E2ACA"/>
<path d="M39.2242 74.1625L10.3263 67.8037C9.39058 70.2616 8.58714 72.7678 7.91943 75.3116L36.4913 81.6704C37.3841 78.8986 38.3158 76.383 39.2242 74.1625Z" fill="#4D4D4D"/>
<path opacity="0.78" d="M39.2242 74.1625L10.3263 67.8037C9.39058 70.2616 8.58714 72.7678 7.91943 75.3116L36.4913 81.6704C37.3841 78.8986 38.3158 76.383 39.2242 74.1625Z" fill="#1E2ACA"/>
<path d="M5.18652 106.78L5.37286 112.005L32.4152 116.982C32.3298 116.011 32.2677 115.048 32.2133 114.101L5.18652 106.78Z" fill="#4D4D4D"/>
<path opacity="0.78" d="M5.18652 106.78L5.37286 112.005L32.4152 116.982C32.3298 116.011 32.2677 115.048 32.2133 114.101L5.18652 106.78Z" fill="#1E2ACA"/>
<path d="M43.5486 65.1019L14.3945 59.4419C13.3559 61.1218 12.4374 62.8731 11.646 64.6827L40.5905 71.0492C41.7163 68.4948 42.7722 66.4917 43.5486 65.1019Z" fill="#4D4D4D"/>
<path opacity="0.78" d="M43.5486 65.1019L14.3945 59.4419C13.3559 61.1218 12.4374 62.8731 11.646 64.6827L40.5905 71.0492C41.7163 68.4948 42.7722 66.4917 43.5486 65.1019Z" fill="#1E2ACA"/>
<path d="M111.741 116.95L74.8924 108.208C74.4707 112.855 74.4006 117.526 74.6827 122.183L104.536 130.274L111.523 131.547C111.247 126.683 111.319 121.805 111.741 116.95Z" fill="#4D4D4D"/>
<path opacity="0.78" d="M111.741 116.95L74.8924 108.208C74.4707 112.855 74.4006 117.526 74.6827 122.183L104.536 130.274L111.523 131.547C111.247 126.683 111.319 121.805 111.741 116.95Z" fill="#1E2ACA"/>
<path d="M35.8078 117.61L64.8843 122.96L35.606 115.025C35.6603 115.879 35.7147 116.733 35.8078 117.61Z" fill="#4D4D4D"/>
<path opacity="0.78" d="M35.8078 117.61L64.8843 122.96L35.606 115.025C35.6603 115.879 35.7147 116.733 35.8078 117.61Z" fill="#1E2ACA"/>
<path d="M76.2588 98.5263C75.8706 100.514 75.529 102.633 75.2495 104.87L112.09 113.612C112.331 111.609 112.618 109.691 112.936 107.874C113.278 105.933 113.656 104.07 114.07 102.284L77.2216 94.1085C76.8644 95.5371 76.5539 97.0045 76.2588 98.5263Z" fill="#4D4D4D"/>
<path opacity="0.78" d="M76.2588 98.5263C75.8706 100.514 75.529 102.633 75.2495 104.87L112.09 113.612C112.331 111.609 112.618 109.691 112.936 107.874C113.278 105.933 113.656 104.07 114.07 102.284L77.2216 94.1085C76.8644 95.5371 76.5539 97.0045 76.2588 98.5263Z" fill="#1E2ACA"/>
<path d="M80.4902 83.2466C79.6595 85.5758 78.8287 88.0914 78.0601 90.8864L114.862 99.0465C115.592 96.2281 116.415 93.6116 117.191 91.3212L80.4902 83.2466Z" fill="#4D4D4D"/>
<path opacity="0.78" d="M80.4902 83.2466C79.6595 85.5758 78.8287 88.0914 78.0601 90.8864L114.862 99.0465C115.592 96.2281 116.415 93.6116 117.191 91.3212L80.4902 83.2466Z" fill="#1E2ACA"/>
<path d="M37.4851 90.9019C37.1512 92.4548 36.8484 94.0076 36.5767 95.7002L71.9887 104.101C72.2759 101.865 72.6253 99.753 73.0135 97.7654C73.3086 96.2592 73.6269 94.7995 73.9685 93.3865L38.8205 85.5913C38.3391 87.2839 37.8888 89.0541 37.4851 90.9019Z" fill="#4D4D4D"/>
<path opacity="0.78" d="M37.4851 90.9019C37.1512 92.4548 36.8484 94.0076 36.5767 95.7002L71.9887 104.101C72.2759 101.865 72.6253 99.753 73.0135 97.7654C73.3086 96.2592 73.6269 94.7995 73.9685 93.3865L38.8205 85.5913C38.3391 87.2839 37.8888 89.0541 37.4851 90.9019Z" fill="#1E2ACA"/>
<path d="M42.5472 74.8923C41.6233 77.0973 40.6761 79.6129 39.7832 82.3924L74.7915 90.1565C75.5679 87.377 76.3443 84.8226 77.1906 82.5244L42.5472 74.8923Z" fill="#4D4D4D"/>
<path opacity="0.78" d="M42.5472 74.8923C41.6233 77.0973 40.6761 79.6129 39.7832 82.3924L74.7915 90.1565C75.5679 87.377 76.3443 84.8226 77.1906 82.5244L42.5472 74.8923Z" fill="#1E2ACA"/>
<path d="M33.3236 94.9314C33.6031 93.2233 33.9215 91.6006 34.2631 90.0555C34.659 88.2543 35.1016 86.5229 35.5597 84.8691L7.12759 78.5647C6.21684 82.7251 5.57112 86.9391 5.19434 91.1813L5.85428 88.4096L33.3236 94.9314Z" fill="#4D4D4D"/>
<path opacity="0.78" d="M33.3236 94.9314C33.6031 93.2233 33.9215 91.6006 34.2631 90.0555C34.659 88.2543 35.1016 86.5229 35.5597 84.8691L7.12759 78.5647C6.21684 82.7251 5.57112 86.9391 5.19434 91.1813L5.85428 88.4096L33.3236 94.9314Z" fill="#1E2ACA"/>
<path d="M121.624 80.2575L84.8305 73.1145C84.0541 74.6673 82.905 77.0742 81.686 80.1022L118.286 88.1535C119.567 84.7063 120.778 82.0199 121.624 80.2575Z" fill="#4D4D4D"/>
<path opacity="0.78" d="M121.624 80.2575L84.8305 73.1145C84.0541 74.6673 82.905 77.0742 81.686 80.1022L118.286 88.1535C119.567 84.7063 120.778 82.0199 121.624 80.2575Z" fill="#1E2ACA"/>
<path d="M4.79005 106.671L5.18602 106.779L32.2128 114.132C32.2672 115.079 32.3293 116.042 32.4147 117.013L35.8076 117.641C35.7299 116.764 35.6601 115.91 35.6057 115.056L64.8841 122.991L104.535 130.281L74.6824 122.16C74.4002 117.503 74.4703 112.831 74.892 108.185L111.74 116.927C111.307 121.773 111.222 126.643 111.484 131.5L114.862 132.129C114.56 127.323 114.612 122.502 115.017 117.704L153.923 126.927C153.674 130.809 153.558 134.893 153.635 139.257L157.005 139.878C156.485 113.876 162.976 94.8461 165.367 88.7202L165.608 88.7668L165.841 87.5478C166.073 86.9888 166.213 86.6783 166.229 86.6472L166.035 86.554L166.236 85.4981L83.9372 69.5196L83.2229 69.0926L83.0753 69.3488L12.6939 55.7151L12.6007 56.1965C12.1892 56.7089 7.32114 62.99 4.10681 76.3054C3.83507 77.4468 3.57109 78.6347 3.3304 79.8847C1.4018 90.2481 0.835401 100.819 1.6456 111.329L5.06956 111.958C4.93498 110.147 4.84181 108.384 4.79005 106.671ZM71.2972 121.244L35.4582 111.531C35.3703 107.347 35.5857 103.161 36.1026 99.0076L71.6155 107.432C71.1799 112.022 71.0736 116.638 71.2972 121.244ZM72.982 97.7654C72.5938 99.753 72.2056 101.865 71.9572 104.101L36.5762 95.7001C36.848 94.0231 37.1508 92.4159 37.4846 90.9019C37.8884 89.0541 38.3387 87.2839 38.82 85.5913L73.9681 93.3554C73.6264 94.784 73.2978 96.254 72.982 97.7654ZM74.76 90.1566L39.7517 82.3925C40.6446 79.6129 41.5918 77.0974 42.5158 74.8924L77.1591 82.5245C76.3749 84.8226 75.5519 87.377 74.7911 90.1566H74.76ZM112.905 107.874C112.587 109.691 112.299 111.609 112.059 113.612L75.2491 104.87C75.5286 102.633 75.8703 100.514 76.2585 98.5263C76.5535 96.9734 76.8796 95.5371 77.2212 94.1085L114.07 102.284C113.661 104.07 113.283 105.933 112.936 107.874H112.905ZM114.83 99.0465L78.0287 90.8864C78.8051 88.0913 79.6281 85.5369 80.4588 83.2465L117.136 91.3212C116.383 93.6427 115.591 96.2281 114.862 99.0465H114.83ZM155.204 114.575C154.784 117.331 154.427 120.359 154.132 123.604L115.312 114.396C115.545 112.362 115.832 110.421 116.158 108.589C116.484 106.756 116.872 104.8 117.284 103.022L155.708 111.562C155.569 112.509 155.406 113.519 155.281 114.559L155.204 114.575ZM156.298 108.262L118.122 99.7685C118.899 96.9424 119.675 94.3337 120.452 92.0044L158.146 100.296C157.525 102.727 156.912 105.366 156.345 108.247L156.298 108.262ZM161.982 88.1146C161.205 90.1333 160.111 93.1768 158.977 97.1365L121.546 88.8988C122.944 85.2031 124.209 82.4701 124.978 80.9328L161.982 88.1146ZM84.7834 73.1299L121.577 80.2729C120.731 82.0353 119.528 84.7217 118.239 88.169L81.639 80.1176C82.9045 77.0741 84.0226 74.6983 84.83 73.1144L84.7834 73.1299ZM47.0034 65.7696L81.4216 72.4545C80.5753 74.1626 79.5039 76.4995 78.3781 79.3723L43.9055 71.7867C45.2021 68.9839 46.3357 66.9264 47.0034 65.7696ZM14.3942 59.4418L43.5484 65.1019C42.772 66.4916 41.716 68.4948 40.567 71.0492L11.6457 64.6826C12.4372 62.873 13.3556 61.1218 14.3942 59.4418ZM10.3258 67.8038L39.2238 74.1626C38.3154 76.3831 37.3837 78.8987 36.5063 81.6704L7.91898 75.3116C8.58669 72.7679 9.39013 70.2616 10.3258 67.8038ZM7.12704 78.5648L35.5591 84.8692C35.101 86.523 34.6585 88.2544 34.2625 90.0556C33.9209 91.6085 33.6026 93.2234 33.3231 94.9315L5.85373 88.4097L5.19378 91.1814C5.57057 86.9392 6.21629 82.7252 7.12704 78.5648ZM4.79782 96.7328C4.87546 94.9781 4.98415 93.2907 5.12391 91.6706L32.8106 98.239C32.283 102.345 32.0392 106.483 32.0808 110.623L5.06179 103.262L4.72018 103.169C4.70465 100.933 4.7357 98.798 4.82887 96.7328H4.79782Z" fill="#999999"/>
<path opacity="0.78" d="M4.79005 106.671L5.18602 106.779L32.2128 114.132C32.2672 115.079 32.3293 116.042 32.4147 117.013L35.8076 117.641C35.7299 116.764 35.6601 115.91 35.6057 115.056L64.8841 122.991L104.535 130.281L74.6824 122.16C74.4002 117.503 74.4703 112.831 74.892 108.185L111.74 116.927C111.307 121.773 111.222 126.643 111.484 131.5L114.862 132.129C114.56 127.323 114.612 122.502 115.017 117.704L153.923 126.927C153.674 130.809 153.558 134.893 153.635 139.257L157.005 139.878C156.485 113.876 162.976 94.8461 165.367 88.7202L165.608 88.7668L165.841 87.5478C166.073 86.9888 166.213 86.6783 166.229 86.6472L166.035 86.554L166.236 85.4981L83.9372 69.5196L83.2229 69.0926L83.0753 69.3488L12.6939 55.7151L12.6007 56.1965C12.1892 56.7089 7.32114 62.99 4.10681 76.3054C3.83507 77.4468 3.57109 78.6347 3.3304 79.8847C1.4018 90.2481 0.835401 100.819 1.6456 111.329L5.06956 111.958C4.93498 110.147 4.84181 108.384 4.79005 106.671ZM71.2972 121.244L35.4582 111.531C35.3703 107.347 35.5857 103.161 36.1026 99.0076L71.6155 107.432C71.1799 112.022 71.0736 116.638 71.2972 121.244ZM72.982 97.7654C72.5938 99.753 72.2056 101.865 71.9572 104.101L36.5762 95.7001C36.848 94.0231 37.1508 92.4159 37.4846 90.9019C37.8884 89.0541 38.3387 87.2839 38.82 85.5913L73.9681 93.3554C73.6264 94.784 73.2978 96.254 72.982 97.7654ZM74.76 90.1566L39.7517 82.3925C40.6446 79.6129 41.5918 77.0974 42.5158 74.8924L77.1591 82.5245C76.3749 84.8226 75.5519 87.377 74.7911 90.1566H74.76ZM112.905 107.874C112.587 109.691 112.299 111.609 112.059 113.612L75.2491 104.87C75.5286 102.633 75.8703 100.514 76.2585 98.5263C76.5535 96.9734 76.8796 95.5371 77.2212 94.1085L114.07 102.284C113.661 104.07 113.283 105.933 112.936 107.874H112.905ZM114.83 99.0465L78.0287 90.8864C78.8051 88.0913 79.6281 85.5369 80.4588 83.2465L117.136 91.3212C116.383 93.6427 115.591 96.2281 114.862 99.0465H114.83ZM155.204 114.575C154.784 117.331 154.427 120.359 154.132 123.604L115.312 114.396C115.545 112.362 115.832 110.421 116.158 108.589C116.484 106.756 116.872 104.8 117.284 103.022L155.708 111.562C155.569 112.509 155.406 113.519 155.281 114.559L155.204 114.575ZM156.298 108.262L118.122 99.7685C118.899 96.9424 119.675 94.3337 120.452 92.0044L158.146 100.296C157.525 102.727 156.912 105.366 156.345 108.247L156.298 108.262ZM161.982 88.1146C161.205 90.1333 160.111 93.1768 158.977 97.1365L121.546 88.8988C122.944 85.2031 124.209 82.4701 124.978 80.9328L161.982 88.1146ZM84.7834 73.1299L121.577 80.2729C120.731 82.0353 119.528 84.7217 118.239 88.169L81.639 80.1176C82.9045 77.0741 84.0226 74.6983 84.83 73.1144L84.7834 73.1299ZM47.0034 65.7696L81.4216 72.4545C80.5753 74.1626 79.5039 76.4995 78.3781 79.3723L43.9055 71.7867C45.2021 68.9839 46.3357 66.9264 47.0034 65.7696ZM14.3942 59.4418L43.5484 65.1019C42.772 66.4916 41.716 68.4948 40.567 71.0492L11.6457 64.6826C12.4372 62.873 13.3556 61.1218 14.3942 59.4418ZM10.3258 67.8038L39.2238 74.1626C38.3154 76.3831 37.3837 78.8987 36.5063 81.6704L7.91898 75.3116C8.58669 72.7679 9.39013 70.2616 10.3258 67.8038ZM7.12704 78.5648L35.5591 84.8692C35.101 86.523 34.6585 88.2544 34.2625 90.0556C33.9209 91.6085 33.6026 93.2234 33.3231 94.9315L5.85373 88.4097L5.19378 91.1814C5.57057 86.9392 6.21629 82.7252 7.12704 78.5648ZM4.79782 96.7328C4.87546 94.9781 4.98415 93.2907 5.12391 91.6706L32.8106 98.239C32.283 102.345 32.0392 106.483 32.0808 110.623L5.06179 103.262L4.72018 103.169C4.70465 100.933 4.7357 98.798 4.82887 96.7328H4.79782Z" fill="#1E2ACA"/>
<path d="M164.241 195.655H164.296C164.296 195.655 164.296 194.032 164.241 191.361H164.195C164.218 193.497 164.234 195.011 164.241 195.655Z" fill="#666666"/>
<path opacity="0.78" d="M164.241 195.655H164.296C164.296 195.655 164.296 194.032 164.241 191.361H164.195C164.218 193.497 164.234 195.011 164.241 195.655Z" fill="#1E2ACA"/>
<path d="M164.125 185.562C164.125 187.79 164.172 189.762 164.195 191.385H164.241C164.241 189.778 164.195 187.798 164.164 185.546L164.125 185.562Z" fill="#E6E6E6"/>
<path opacity="0.78" d="M164.125 185.562C164.125 187.79 164.172 189.762 164.195 191.385H164.241C164.241 189.778 164.195 187.798 164.164 185.546L164.125 185.562Z" fill="#1E2ACA"/>
<path d="M163.822 155.041C163.908 163.535 164.024 174.055 164.117 182.308C164.117 182.347 164.117 182.386 164.117 182.425C164.024 174.172 163.892 163.55 163.822 155.041Z" fill="#4D4D4D"/>
<path opacity="0.78" d="M163.822 155.041C163.908 163.535 164.024 174.055 164.117 182.308C164.117 182.347 164.117 182.386 164.117 182.425C164.024 174.172 163.892 163.55 163.822 155.041Z" fill="#1E2ACA"/>
<path d="M164.164 185.562C164.164 184.568 164.164 183.528 164.125 182.456C164.125 182.417 164.125 182.378 164.125 182.34C164.125 183.465 164.125 184.552 164.125 185.577L164.164 185.562Z" fill="#999999"/>
<path opacity="0.78" d="M164.164 185.562C164.164 184.568 164.164 183.528 164.125 182.456C164.125 182.417 164.125 182.378 164.125 182.34C164.125 183.465 164.125 184.552 164.125 185.577L164.164 185.562Z" fill="#1E2ACA"/>
<path opacity="0.7" d="M7.08861 152.339L6.615 143.317L6.48301 143.279V142.339C4.02127 132.138 2.41115 121.75 1.66928 111.283L0 111.026L1.89444 154.311L7.76409 155.957L7.59328 152.471L7.08861 152.339Z" fill="#4D55BE"/>
<path d="M164.156 191.362L7.6167 152.471L7.78751 155.957L164.249 199.731C164.249 199.731 164.211 196.431 164.156 191.362Z" fill="#666666"/>
<path opacity="0.7" d="M164.156 191.362L7.6167 152.471L7.78751 155.957L164.249 199.731C164.249 199.731 164.211 196.431 164.156 191.362Z" fill="#4D55BE"/>
<path d="M5.0542 111.95V112.346L5.36476 112.424V112.005L5.0542 111.95Z" fill="#E6E6E6"/>
<path opacity="0.7" d="M5.0542 111.95V112.346L5.36476 112.424V112.005L5.0542 111.95Z" fill="#4D55BE"/>
<path d="M5.38086 115.871C5.44297 116.547 5.50508 117.222 5.58273 117.898L5.51285 115.91L5.38086 115.871Z" fill="#E6E6E6"/>
<path opacity="0.7" d="M5.38086 115.871C5.44297 116.547 5.50508 117.222 5.58273 117.898L5.51285 115.91L5.38086 115.871Z" fill="#4D55BE"/>
<path d="M161.905 186.338L161.765 185.919L48.9528 154.373L6.61523 143.317L7.08884 152.339L7.6168 152.471L164.156 191.361C164.156 189.615 164.118 187.658 164.094 185.562L161.905 186.338Z" fill="#E6E6E6"/>
<path opacity="0.7" d="M161.905 186.338L161.765 185.919L48.9528 154.373L6.61523 143.317L7.08884 152.339L7.6168 152.471L164.156 191.361C164.156 189.615 164.118 187.658 164.094 185.562L161.905 186.338Z" fill="#4D55BE"/>
<path d="M33.1917 123.449L5.5127 115.91L5.58257 117.898C5.69903 119.016 5.83102 120.149 5.97078 121.298L34.2709 129.062C33.8516 127.16 33.4945 125.289 33.1917 123.449Z" fill="#4D4D4D"/>
<path opacity="0.7" d="M33.1917 123.449L5.5127 115.91L5.58257 117.898C5.69903 119.016 5.83102 120.149 5.97078 121.298L34.2709 129.062C33.8516 127.16 33.4945 125.289 33.1917 123.449Z" fill="#4D55BE"/>
<path d="M5.38809 112.424L32.6944 119.846C32.5779 118.884 32.4925 117.929 32.4149 116.982L5.37256 112.005L5.38809 112.424Z" fill="#4D4D4D"/>
<path opacity="0.7" d="M5.38809 112.424L32.6944 119.846C32.5779 118.884 32.4925 117.929 32.4149 116.982L5.37256 112.005L5.38809 112.424Z" fill="#4D55BE"/>
<path d="M7.24379 142.72L7.36025 142.292L6.48291 142.502C6.48291 142.448 6.48291 142.393 6.48291 142.339V143.279L6.6149 143.317L48.9525 154.373L7.24379 142.72Z" fill="#4D4D4D"/>
<path opacity="0.7" d="M7.24379 142.72L7.36025 142.292L6.48291 142.502C6.48291 142.448 6.48291 142.393 6.48291 142.339V143.279L6.6149 143.317L48.9525 154.373L7.24379 142.72Z" fill="#4D55BE"/>
<path d="M83.1226 154.715C84.0542 156.672 85.0636 158.597 86.2282 160.6L85.3819 161.082L122.673 171.516C121.42 169.192 120.292 166.879 119.288 164.575L83.1226 154.715Z" fill="#4D4D4D"/>
<path opacity="0.7" d="M83.1226 154.715C84.0542 156.672 85.0636 158.597 86.2282 160.6L85.3819 161.082L122.673 171.516C121.42 169.192 120.292 166.879 119.288 164.575L83.1226 154.715Z" fill="#4D55BE"/>
<path d="M118.348 152.215L155.826 162.533C155.476 160.507 155.181 158.504 154.917 156.532L116.811 146.174C117.238 148.162 117.758 150.181 118.348 152.215Z" fill="#4D4D4D"/>
<path opacity="0.7" d="M118.348 152.215L155.826 162.533C155.476 160.507 155.181 158.504 154.917 156.532L116.811 146.174C117.238 148.162 117.758 150.181 118.348 152.215Z" fill="#4D55BE"/>
<path d="M81.3523 150.786L117.704 160.717C116.958 158.791 116.291 156.876 115.701 154.971L79.1162 144.878C79.7762 146.819 80.5215 148.799 81.3523 150.786Z" fill="#4D4D4D"/>
<path opacity="0.7" d="M81.3523 150.786L117.704 160.717C116.958 158.791 116.291 156.876 115.701 154.971L79.1162 144.878C79.7762 146.819 80.5215 148.799 81.3523 150.786Z" fill="#4D55BE"/>
<path d="M77.9283 141.081L114.598 151.175C114.055 149.156 113.597 147.161 113.208 145.181L76.4609 135.204C76.8647 137.137 77.3616 139.101 77.9283 141.081Z" fill="#4D4D4D"/>
<path opacity="0.7" d="M77.9283 141.081L114.598 151.175C114.055 149.156 113.597 147.161 113.208 145.181L76.4609 135.204C76.8647 137.137 77.3616 139.101 77.9283 141.081Z" fill="#4D55BE"/>
<path d="M36.1806 120.794L72.206 130.6C71.9057 128.617 71.6702 126.668 71.4994 124.753L64.8534 122.96L35.7769 117.61C35.9088 118.659 36.0331 119.722 36.1806 120.794Z" fill="#4D4D4D"/>
<path opacity="0.7" d="M36.1806 120.794L72.206 130.6C71.9057 128.617 71.6702 126.668 71.4994 124.753L64.8534 122.96L35.7769 117.61C35.9088 118.659 36.0331 119.722 36.1806 120.794Z" fill="#4D55BE"/>
<path d="M42.7026 143.698C43.6343 145.794 44.6747 147.914 45.8083 150.033L82.1675 160.189C80.9718 157.979 79.8952 155.773 78.9376 153.574L42.7026 143.698Z" fill="#4D4D4D"/>
<path opacity="0.7" d="M42.7026 143.698C43.6343 145.794 44.6747 147.914 45.8083 150.033L82.1675 160.189C80.9718 157.979 79.8952 155.773 78.9376 153.574L42.7026 143.698Z" fill="#4D55BE"/>
<path d="M121.733 161.78L157.665 171.586C157.241 169.77 156.853 167.971 156.501 166.19L119.567 155.996C120.204 157.914 120.926 159.847 121.733 161.78Z" fill="#4D4D4D"/>
<path opacity="0.7" d="M121.733 161.78L157.665 171.586C157.241 169.77 156.853 167.971 156.501 166.19L119.567 155.996C120.204 157.914 120.926 159.847 121.733 161.78Z" fill="#4D55BE"/>
<path d="M75.265 143.799L38.9912 133.814C39.589 135.786 40.28 137.789 41.0565 139.808L77.3225 149.684C76.5513 147.722 75.8655 145.76 75.265 143.799Z" fill="#4D4D4D"/>
<path opacity="0.7" d="M75.265 143.799L38.9912 133.814C39.589 135.786 40.28 137.789 41.0565 139.808L77.3225 149.684C76.5513 147.722 75.8655 145.76 75.265 143.799Z" fill="#4D55BE"/>
<path d="M8.10547 134.319C8.46262 136.136 8.856 137.986 9.28561 139.87L41.4056 148.845C40.3704 146.775 39.4284 144.704 38.5795 142.634L8.10547 134.319Z" fill="#4D4D4D"/>
<path opacity="0.7" d="M8.10547 134.319C8.46262 136.136 8.856 137.986 9.28561 139.87L41.4056 148.845C40.3704 146.775 39.4284 144.704 38.5795 142.634L8.10547 134.319Z" fill="#4D55BE"/>
<path d="M127.176 172.712L127.106 172.751L160.492 182.068C159.684 179.48 158.957 176.892 158.31 174.304L158.093 175.08L123.449 165.639C124.578 168.015 125.82 170.373 127.176 172.712Z" fill="#4D4D4D"/>
<path opacity="0.7" d="M127.176 172.712L127.106 172.751L160.492 182.068C159.684 179.48 158.957 176.892 158.31 174.304L158.093 175.08L123.449 165.639C124.578 168.015 125.82 170.373 127.176 172.712Z" fill="#4D55BE"/>
<path d="M111.523 132.145C111.523 131.935 111.523 131.733 111.523 131.524L104.536 130.25L111.523 132.145Z" fill="#4D4D4D"/>
<path opacity="0.7" d="M111.523 132.145C111.523 131.935 111.523 131.733 111.523 131.524L104.536 130.25L111.523 132.145Z" fill="#4D55BE"/>
<path d="M154.505 152.952C154.288 150.965 154.125 149.008 153.993 147.091L115.266 136.594C115.475 138.535 115.755 140.514 116.112 142.518L154.505 152.952Z" fill="#4D4D4D"/>
<path opacity="0.7" d="M154.505 152.952C154.288 150.965 154.125 149.008 153.993 147.091L115.266 136.594C115.475 138.535 115.755 140.514 116.112 142.518L154.505 152.952Z" fill="#4D55BE"/>
<path d="M37.1046 138.729C36.3903 136.726 35.7691 134.738 35.2257 132.774L6.49854 124.854C6.77804 126.741 7.08861 128.667 7.44575 130.639L37.1046 138.729Z" fill="#4D4D4D"/>
<path opacity="0.7" d="M37.1046 138.729C36.3903 136.726 35.7691 134.738 35.2257 132.774L6.49854 124.854C6.77804 126.741 7.08861 128.667 7.44575 130.639L37.1046 138.729Z" fill="#4D55BE"/>
<path d="M74.1937 140.049C73.6735 138.084 73.2387 136.167 72.866 134.226L36.7397 124.404C37.0762 126.267 37.4825 128.157 37.9587 130.072L74.1937 140.049Z" fill="#4D4D4D"/>
<path opacity="0.7" d="M74.1937 140.049C73.6735 138.084 73.2387 136.167 72.866 134.226L36.7397 124.404C37.0762 126.267 37.4825 128.157 37.9587 130.072L74.1937 140.049Z" fill="#4D55BE"/>
<path d="M114.909 133.061L153.729 143.597C153.667 142.129 153.62 140.693 153.597 139.28L114.823 132.152C114.909 132.455 114.909 132.766 114.909 133.061Z" fill="#4D4D4D"/>
<path opacity="0.7" d="M114.909 133.061L153.729 143.597C153.667 142.129 153.62 140.693 153.597 139.28L114.823 132.152C114.909 132.455 114.909 132.766 114.909 133.061Z" fill="#4D55BE"/>
<path d="M164.055 182.208C163.892 166.198 163.675 144.521 163.69 141.135L157.005 139.901C157.301 154.27 159.675 168.52 164.055 182.208Z" fill="#4D4D4D"/>
<path opacity="0.7" d="M164.055 182.208C163.892 166.198 163.675 144.521 163.69 141.135L157.005 139.901C157.301 154.27 159.675 168.52 164.055 182.208Z" fill="#4D55BE"/>
<path d="M112.579 141.563C112.264 139.565 112.005 137.6 111.803 135.67L74.9702 125.693C75.1643 127.611 75.4283 129.575 75.7466 131.563L112.579 141.563Z" fill="#4D4D4D"/>
<path opacity="0.7" d="M112.579 141.563C112.264 139.565 112.005 137.6 111.803 135.67L74.9702 125.693C75.1643 127.611 75.4283 129.575 75.7466 131.563L112.579 141.563Z" fill="#4D55BE"/>
<path d="M7.36041 142.292L7.24395 142.72L48.9526 154.366L161.765 185.88L161.905 186.299L164.094 185.523C164.094 184.436 164.094 183.318 164.094 182.169C159.714 168.481 157.34 154.231 157.044 139.862L153.675 139.241C153.675 140.654 153.745 142.091 153.807 143.558L114.986 133.022C114.986 132.719 114.94 132.417 114.924 132.114L111.547 131.485C111.547 131.694 111.547 131.896 111.547 132.106L104.559 130.212L64.9078 122.921L71.5539 124.715C71.7247 126.63 71.9602 128.579 72.2604 130.561L36.1807 120.794C36.0332 119.722 35.909 118.659 35.808 117.61L32.4151 116.982C32.4928 117.929 32.5782 118.884 32.6946 119.846L5.38833 112.424L5.07777 112.346V111.95L1.65381 111.322C2.39568 121.789 4.0058 132.177 6.46754 142.378C6.46754 142.432 6.46754 142.487 6.46754 142.541L7.36041 142.292ZM9.31696 139.831C8.88735 137.942 8.49397 136.092 8.13682 134.28L38.6109 142.58C39.4597 144.65 40.4018 146.721 41.437 148.791L9.31696 139.831ZM39.0224 133.814L75.2962 143.799C75.9018 145.745 76.5876 147.707 77.3537 149.684L41.0566 139.808C40.2801 137.789 39.5969 135.786 38.9913 133.814H39.0224ZM45.8082 150.033C44.6591 147.914 43.6187 145.794 42.7025 143.698L78.9531 153.574C79.9158 155.768 80.9924 157.973 82.1829 160.189L45.8082 150.033ZM85.3507 161.082L86.197 160.6C85.0712 158.628 84.0618 156.672 83.0913 154.715L119.311 164.599C120.346 166.907 121.474 169.221 122.696 171.54L85.3507 161.082ZM158.333 174.35C158.98 176.897 159.707 179.485 160.515 182.114L127.129 172.798L127.199 172.759C125.843 170.424 124.614 168.095 123.511 165.771L158.155 175.212L158.333 174.35ZM157.65 171.571L121.718 161.78C120.941 159.847 120.165 157.898 119.536 155.996L156.501 166.152C156.853 167.942 157.241 169.754 157.665 171.586L157.65 171.571ZM155.81 162.533L118.333 152.215C117.742 150.181 117.23 148.162 116.78 146.175L154.886 156.532C155.181 158.504 155.476 160.507 155.825 162.533H155.81ZM153.962 147.098C154.094 149.016 154.257 150.98 154.474 152.96L116.081 142.525C115.724 140.522 115.444 138.542 115.235 136.601L153.962 147.098ZM115.685 154.94C116.275 156.84 116.943 158.755 117.688 160.686L81.3366 150.786C80.5059 148.799 79.7838 146.819 79.1006 144.862L115.685 154.94ZM114.582 151.182L77.9127 141.089C77.3459 139.109 76.8645 137.145 76.4453 135.212L113.208 145.188C113.596 147.168 114.055 149.164 114.598 151.182H114.582ZM111.78 135.654C111.966 137.585 112.225 139.549 112.556 141.547L75.7698 131.563C75.4282 129.575 75.1642 127.611 74.9934 125.693L111.78 135.654ZM72.8505 134.21C73.2232 136.128 73.6269 138.092 74.1782 140.033L37.9587 130.072C37.4773 128.151 37.071 126.262 36.7397 124.404L72.8505 134.21ZM5.98617 121.267C5.84642 120.118 5.71443 118.985 5.59797 117.867C5.52032 117.191 5.45821 116.516 5.3961 115.84H5.52809L33.1915 123.449C33.4943 125.297 33.8515 127.168 34.2863 129.07L5.98617 121.267ZM35.2257 132.766C35.7692 134.73 36.3903 136.718 37.1046 138.721L7.41476 130.639C7.05761 128.666 6.74705 126.757 6.46754 124.854L35.2257 132.766Z" fill="#999999"/>
<path opacity="0.7" d="M7.36041 142.292L7.24395 142.72L48.9526 154.366L161.765 185.88L161.905 186.299L164.094 185.523C164.094 184.436 164.094 183.318 164.094 182.169C159.714 168.481 157.34 154.231 157.044 139.862L153.675 139.241C153.675 140.654 153.745 142.091 153.807 143.558L114.986 133.022C114.986 132.719 114.94 132.417 114.924 132.114L111.547 131.485C111.547 131.694 111.547 131.896 111.547 132.106L104.559 130.212L64.9078 122.921L71.5539 124.715C71.7247 126.63 71.9602 128.579 72.2604 130.561L36.1807 120.794C36.0332 119.722 35.909 118.659 35.808 117.61L32.4151 116.982C32.4928 117.929 32.5782 118.884 32.6946 119.846L5.38833 112.424L5.07777 112.346V111.95L1.65381 111.322C2.39568 121.789 4.0058 132.177 6.46754 142.378C6.46754 142.432 6.46754 142.487 6.46754 142.541L7.36041 142.292ZM9.31696 139.831C8.88735 137.942 8.49397 136.092 8.13682 134.28L38.6109 142.58C39.4597 144.65 40.4018 146.721 41.437 148.791L9.31696 139.831ZM39.0224 133.814L75.2962 143.799C75.9018 145.745 76.5876 147.707 77.3537 149.684L41.0566 139.808C40.2801 137.789 39.5969 135.786 38.9913 133.814H39.0224ZM45.8082 150.033C44.6591 147.914 43.6187 145.794 42.7025 143.698L78.9531 153.574C79.9158 155.768 80.9924 157.973 82.1829 160.189L45.8082 150.033ZM85.3507 161.082L86.197 160.6C85.0712 158.628 84.0618 156.672 83.0913 154.715L119.311 164.599C120.346 166.907 121.474 169.221 122.696 171.54L85.3507 161.082ZM158.333 174.35C158.98 176.897 159.707 179.485 160.515 182.114L127.129 172.798L127.199 172.759C125.843 170.424 124.614 168.095 123.511 165.771L158.155 175.212L158.333 174.35ZM157.65 171.571L121.718 161.78C120.941 159.847 120.165 157.898 119.536 155.996L156.501 166.152C156.853 167.942 157.241 169.754 157.665 171.586L157.65 171.571ZM155.81 162.533L118.333 152.215C117.742 150.181 117.23 148.162 116.78 146.175L154.886 156.532C155.181 158.504 155.476 160.507 155.825 162.533H155.81ZM153.962 147.098C154.094 149.016 154.257 150.98 154.474 152.96L116.081 142.525C115.724 140.522 115.444 138.542 115.235 136.601L153.962 147.098ZM115.685 154.94C116.275 156.84 116.943 158.755 117.688 160.686L81.3366 150.786C80.5059 148.799 79.7838 146.819 79.1006 144.862L115.685 154.94ZM114.582 151.182L77.9127 141.089C77.3459 139.109 76.8645 137.145 76.4453 135.212L113.208 145.188C113.596 147.168 114.055 149.164 114.598 151.182H114.582ZM111.78 135.654C111.966 137.585 112.225 139.549 112.556 141.547L75.7698 131.563C75.4282 129.575 75.1642 127.611 74.9934 125.693L111.78 135.654ZM72.8505 134.21C73.2232 136.128 73.6269 138.092 74.1782 140.033L37.9587 130.072C37.4773 128.151 37.071 126.262 36.7397 124.404L72.8505 134.21ZM5.98617 121.267C5.84642 120.118 5.71443 118.985 5.59797 117.867C5.52032 117.191 5.45821 116.516 5.3961 115.84H5.52809L33.1915 123.449C33.4943 125.297 33.8515 127.168 34.2863 129.07L5.98617 121.267ZM35.2257 132.766C35.7692 134.73 36.3903 136.718 37.1046 138.721L7.41476 130.639C7.05761 128.666 6.74705 126.757 6.46754 124.854L35.2257 132.766Z" fill="#4D55BE"/>
<path d="M9.77487 47.1823C10.3802 47.2897 11.0014 47.2676 11.5975 47.1173C12.1936 46.9671 12.7511 46.6921 13.2332 46.3106C13.7152 45.9291 14.1109 45.4496 14.394 44.904C14.6772 44.3583 14.8414 43.7588 14.8759 43.145L16.3588 28.564C16.5529 26.7006 15.4116 25.0546 13.8588 24.9692L5.92388 24.4956C5.31052 24.4568 4.81361 25.0779 4.82138 25.8543L4.87573 40.9633C4.87311 42.4 5.35536 43.7956 6.24445 44.9242C7.13354 46.0528 8.37744 46.8484 9.77487 47.1823ZM7.70186 28.1603L13.292 28.6339C13.7538 28.7101 14.1665 28.9661 14.4401 29.3458C14.7136 29.7256 14.8256 30.1982 14.7516 30.6603C14.7496 30.8829 14.7035 31.1029 14.616 31.3075C14.5285 31.5122 14.4013 31.6975 14.2417 31.8527C14.0822 32.0079 13.8935 32.13 13.6865 32.2118C13.4795 32.2937 13.2583 32.3337 13.0358 32.3296L7.62421 31.755C7.1994 31.6579 6.82339 31.4119 6.56421 31.0616C6.30502 30.7112 6.17978 30.2797 6.21115 29.8451C6.19313 29.6355 6.21789 29.4244 6.28393 29.2246C6.34996 29.0249 6.4559 28.8407 6.59531 28.6831C6.73472 28.5255 6.90469 28.3979 7.0949 28.3081C7.28512 28.2182 7.49161 28.1679 7.70186 28.1603ZM5.93941 38.6263C5.9233 38.4356 5.9486 38.2437 6.01359 38.0637C6.07858 37.8837 6.18171 37.7198 6.31591 37.5834C6.45012 37.447 6.61224 37.3412 6.79115 37.2733C6.97006 37.2054 7.16154 37.1769 7.35247 37.1899L12.5932 37.8266C13.0163 37.8992 13.3955 38.1313 13.6526 38.475C13.9097 38.8188 14.0251 39.2481 13.9752 39.6744C13.9687 39.8741 13.9214 40.0704 13.8362 40.2512C13.7511 40.432 13.63 40.5935 13.4802 40.7258C13.3304 40.8581 13.1552 40.9584 12.9653 41.0206C12.7754 41.0828 12.5748 41.1056 12.3758 41.0875L7.28259 40.3732C6.88997 40.2846 6.54071 40.0615 6.29537 39.7424C6.05004 39.4233 5.92411 39.0285 5.93941 38.6263Z" fill="black"/>
<path d="M7.28296 40.3732L12.3529 41.0875C12.5537 41.109 12.7569 41.0888 12.9495 41.0281C13.1422 40.9675 13.3203 40.8677 13.4726 40.7351C13.6249 40.6024 13.7482 40.4397 13.8348 40.2572C13.9213 40.0747 13.9693 39.8763 13.9756 39.6745C14.0262 39.2515 13.9139 38.8251 13.6615 38.4819C13.4092 38.1388 13.0357 37.9045 12.6169 37.8266L7.35283 37.19C7.16191 37.177 6.97043 37.2054 6.79151 37.2733C6.6126 37.3412 6.45049 37.447 6.31628 37.5835C6.18207 37.7199 6.07894 37.8837 6.01395 38.0637C5.94897 38.2437 5.92366 38.4356 5.93977 38.6263C5.92447 39.0285 6.05041 39.4234 6.29574 39.7424C6.54107 40.0615 6.89033 40.2847 7.28296 40.3732Z" fill="black"/>
<path d="M7.6243 31.7552L13.0592 32.3297C13.5047 32.3318 13.9329 32.1573 14.25 31.8445C14.5672 31.5317 14.7476 31.1059 14.7517 30.6604C14.826 30.2006 14.7161 29.73 14.4458 29.3507C14.1755 28.9713 13.7665 28.7138 13.3076 28.634L7.71746 28.1604C7.5059 28.166 7.2977 28.2147 7.10566 28.3037C6.91362 28.3927 6.7418 28.52 6.60074 28.6777C6.45968 28.8355 6.35237 29.0205 6.28539 29.2212C6.2184 29.422 6.19317 29.6343 6.21123 29.8452C6.17987 30.2799 6.3051 30.7114 6.56429 31.0617C6.82347 31.412 7.19948 31.658 7.6243 31.7552Z" fill="#FF0000"/>
<path d="M209.312 26.7628L59.853 3.28418L44.8916 8.3386L194.529 32.6713L209.312 26.7628Z" fill="#CCCCCC"/>
<path opacity="0.38" d="M209.312 26.7628L59.853 3.28418L44.8916 8.3386L194.529 32.6713L209.312 26.7628Z" fill="white"/>
<path d="M9.36377 184.591L9.79856 195.554L170.903 247.271L171.191 234.545L9.36377 184.591Z" fill="#666666"/>
<path opacity="0.54" d="M9.36377 184.591L9.79856 195.554L170.903 247.271L171.191 234.545L9.36377 184.591Z" fill="#4D4D4D"/>
<path d="M228.389 26.693V26.8172V27.12V27.1278L228.955 26.9104L230.268 219.499L229.468 219.879H302.45V26.693H228.389Z" fill="#808080"/>
<path d="M228.955 26.9104L228.389 27.1278L176.672 46.934L176.625 46.9495L175.5 86.36L173.916 141.912L172.65 186.175L172.441 193.419L170.903 247.271L229.468 219.879L230.268 219.499L228.955 26.9104Z" fill="#1A1A1A"/>
</svg>
