<svg xmlns="http://www.w3.org/2000/svg" viewBox="0 0 131.03 112.36"><defs><style>.cls-1{fill:#ba6e8a;}.cls-2{fill:#3f2222;}.cls-3{fill:#e5aed6;}.cls-4{fill:#fcc0e6;}.cls-5,.cls-8{fill:#2d1919;}.cls-6{fill:#423030;}.cls-7{fill:#872929;}.cls-8{opacity:0.5;}.cls-9{fill:#574747;}.cls-10{fill:#141414;}.cls-11{opacity:0.33;}.cls-12,.cls-13{fill:#a3a3a3;}.cls-12{opacity:0.68;}</style></defs><g id="Layer_2" data-name="Layer 2"><g id="Layer_11" data-name="Layer 11"><path class="cls-1" d="M78.38,106.32l0-30.27H60.48v28.29a27.2,27.2,0,0,0,7.64,2.41A26.1,26.1,0,0,0,78.38,106.32Z"/><path class="cls-2" d="M70,105.92a15,15,0,0,1-5.59-1.09,14.16,14.16,0,0,1-3.9-2.61v5.66a17.49,17.49,0,0,0,8.43,4.22A16,16,0,0,0,78.25,111l.14-5.31A48.69,48.69,0,0,1,70,105.92Z"/><path class="cls-1" d="M99.91,98l0-30.28h15V96a20.45,20.45,0,0,1-6.4,2.41A18.71,18.71,0,0,1,99.91,98Z"/><path class="cls-2" d="M107,97.6a10.67,10.67,0,0,0,4.68-1.1,11.88,11.88,0,0,0,3.27-2.61v5.66a14,14,0,0,1-7.06,4.23,11.56,11.56,0,0,1-7.84-1.11l-.11-5.32A34.3,34.3,0,0,0,107,97.6Z"/><path class="cls-1" d="M27.35,78l0-30.28H12.2V76a20.57,20.57,0,0,0,6.47,2.41A18.94,18.94,0,0,0,27.35,78Z"/><path class="cls-2" d="M20.21,77.57a11.11,11.11,0,0,1-4.73-1.09,12.27,12.27,0,0,1-3.3-2.61l0,5.66a14.2,14.2,0,0,0,7.12,4.22,11.73,11.73,0,0,0,7.92-1.11l.11-5.31A34.9,34.9,0,0,1,20.21,77.57Z"/><path class="cls-1" d="M18.11,24.66a.79.79,0,0,1-.48,0c-4.07-1.6-7-3.45-8.59-5.53a7.67,7.67,0,0,1-.56-.79,4.93,4.93,0,0,1-1.7-.46,4.87,4.87,0,0,1-2.46-2.76.74.74,0,0,1,.5-.94.78.78,0,0,1,1,.42,3.37,3.37,0,0,0,1.9,2.06,5.3,5.3,0,0,1,0-3,5.52,5.52,0,0,1,5-4,2.28,2.28,0,0,1,2.23,2.27,5.85,5.85,0,0,1-4.61,6.29c1.22,1.57,3.58,3.36,8,5.09a.68.68,0,0,1,.39.95A.8.8,0,0,1,18.11,24.66Zm-8.6-7.81.43-.07a4.33,4.33,0,0,0,3.39-4.71c-.08-.94-.59-1-.79-1A4,4,0,0,0,9.27,14,4.19,4.19,0,0,0,9.51,16.85Z"/><path class="cls-3" d="M26.66,65.73c-4.65-7.48-11-18.13-8.52-30.58C20.86,21.79,33,10.78,49.82,5,30.93.32,11.28,8.46,3.46,24.73c-8.37,17.38-1.15,39.71,17.31,51q16.31,8.6,32.63,17.17A90,90,0,0,1,26.66,65.73Z"/><path class="cls-4" d="M104.58,30.84,58.23,8a46,46,0,0,0-8.41-3C33,10.78,20.86,21.79,18.14,35.15,15.61,47.6,22,58.25,26.66,65.73A90,90,0,0,0,53.4,92.94l12.54,6.6Z"/><path class="cls-1" d="M104.58,30.84a25.91,25.91,0,0,1,6.24-3.1c2.84-1,5.62-1.87,8.68-.81a8.93,8.93,0,0,1,1.65.77c1.95,1.1,4,2.92,6.07,6.74A27,27,0,0,1,131,46.78a23.44,23.44,0,0,1-1.63,9.56,2.43,2.43,0,0,1-4.47.07l0-.06a24.26,24.26,0,0,0-2.13-3.61"/><path class="cls-4" d="M126.08,65c0,21.5-18.48,39.43-41.27,38.93C61.45,103.39,43.33,86.29,43.54,65,43.75,43.48,62,26.05,84.81,26.05S126.08,43.48,126.08,65Z"/><path class="cls-1" d="M68.58,31.42a26.4,26.4,0,0,0-6.24-3.11c-2.84-1-5.62-1.86-8.68-.81a9.63,9.63,0,0,0-1.65.77c-1.95,1.1-4,2.93-6.07,6.74a27.21,27.21,0,0,0-3.79,12.34,23.37,23.37,0,0,0,1.63,9.56,2.43,2.43,0,0,0,4.47.07l0-.06a38.12,38.12,0,0,1,2.12-3.61C51.33,52,54.15,47.84,58,42.23"/><g id="Nose"><path class="cls-1" d="M106.69,81c1.65-5.21-6.37-11.85-14.66-12-8.58-.14-16.37,6.78-14.7,12,1.71,5.38,11,6.91,14.68,6.92C96.06,87.94,105.17,85.82,106.69,81Z"/><ellipse class="cls-2" cx="85.53" cy="78.51" rx="2.62" ry="2.28"/><ellipse class="cls-2" cx="98.51" cy="78.51" rx="2.62" ry="2.28"/></g><ellipse class="cls-2" cx="107.04" cy="56.89" rx="4.21" ry="6.14"/><ellipse class="cls-2" cx="74.27" cy="56.89" rx="4.21" ry="6.14"/><ellipse class="cls-5" cx="88.72" cy="33.85" rx="30.58" ry="6.94"/><path class="cls-6" d="M109.75,34.68A166.58,166.58,0,0,1,88.6,36a164.75,164.75,0,0,1-20.4-1.32c0-13.5-.5-19.57-.5-33.07C73.12.21,80.22.92,89,1c8.06.07,15.13-.72,20.29.61Z"/><path class="cls-7" d="M88.92,28.37c-7.4,0-14.34-.33-20.76-.86,0,2.17,0,4.51,0,7.13A160.48,160.48,0,0,0,88.6,36a160.76,160.76,0,0,0,21.15-1.36l-.11-7.14C103.24,28,96.31,28.37,88.92,28.37Z"/><path class="cls-8" d="M109.24,1.62c-3.85-1-8.77-.8-14.37-.67a163.31,163.31,0,0,1,1,17.69A162.85,162.85,0,0,1,95,35.9c5.33-.2,10.27-.63,14.76-1.21Z"/><ellipse class="cls-9" cx="88.5" cy="1.61" rx="20.8" ry="1.61"/><path class="cls-5" d="M99.78,96.69l-6.16,3.47a2.4,2.4,0,0,0,0,4.17l6.09,3.6a2.4,2.4,0,0,0,3.63-2.05l.07-7.07A2.4,2.4,0,0,0,99.78,96.69Z"/><path d="M91.71,102.23a17.32,17.32,0,0,1,9,.09,17.42,17.42,0,0,1-9-.09Z"/><path class="cls-5" d="M81.16,96.5l6.09,3.6a2.41,2.41,0,0,1,0,4.17l-6.16,3.48a2.41,2.41,0,0,1-3.59-2.12l.07-7.08A2.41,2.41,0,0,1,81.16,96.5Z"/><path d="M89.12,102.2a17.32,17.32,0,0,1-9-.09,17.42,17.42,0,0,1,9,.09Z"/><rect class="cls-5" x="87.15" y="99.33" width="6.52" height="5.77" rx="2" transform="translate(1.02 -0.9) rotate(0.57)"/><path class="cls-10" d="M107,50.35a6.35,6.35,0,1,0,6.36,6.35A6.35,6.35,0,0,0,107,50.35ZM107,62a5.34,5.34,0,1,1,5.34-5.34A5.34,5.34,0,0,1,107,62Z"/><g class="cls-11"><path class="cls-12" d="M107,62a5.28,5.28,0,0,0,2.79-.79L101.71,57A5.34,5.34,0,0,0,107,62Z"/><path class="cls-13" d="M112.27,57.8,103.19,53a5.29,5.29,0,0,0-1.48,3.69V57l8.12,4.28A5.34,5.34,0,0,0,112.27,57.8Z"/><path class="cls-12" d="M112.38,56.7A5.33,5.33,0,0,0,103.19,53l9.08,4.79A5.7,5.7,0,0,0,112.38,56.7Z"/></g><polygon class="cls-10" points="112.36 77.77 111.11 77.8 111.11 61 112.36 60.11 112.36 77.77"/></g></g></svg>