<svg width="303" height="294" viewBox="0 0 303 294" fill="none" xmlns="http://www.w3.org/2000/svg">
<path d="M3.24544 52.0193L175.468 86.3599L176.594 46.9494H176.641V46.7009L53.417 28.4864L0.947266 20.8621L2.55443 52.656L3.26873 52.7957L3.24544 52.0193ZM5.92405 24.4957L13.8589 24.9693C15.4118 25.0547 16.5531 26.7007 16.359 28.564L14.876 43.145C14.8416 43.7588 14.6774 44.3583 14.3942 44.904C14.111 45.4497 13.7154 45.9291 13.2333 46.3106C12.7513 46.6921 12.1938 46.9671 11.5977 47.1174C11.0015 47.2676 10.3803 47.2898 9.77503 47.1823C8.3789 46.8488 7.13597 46.0543 6.24702 44.9273C5.35808 43.8003 4.87502 42.4065 4.87589 40.971L4.82155 25.8544C4.81378 25.078 5.31068 24.4568 5.92405 24.4957Z" fill="#666666"/>
<path d="M164.242 191.377C164.242 194.048 164.296 195.67 164.296 195.67H164.242C164.242 195.026 164.242 193.512 164.195 191.385C164.249 196.439 164.288 199.754 164.288 199.754L7.76416 155.957L9.77506 195.554L9.34027 184.591L171.167 234.545L170.88 247.27L172.433 193.419L164.242 191.377Z" fill="#666666"/>
<path d="M176.912 46.7165L228.388 27.12V26.8172L57.9201 0L0.310547 20.6525L53.4169 28.4864L176.68 46.6855L176.912 46.7165ZM44.923 8.33863L59.8533 3.28421L209.312 26.7628L194.56 32.6713L44.923 8.33863Z" fill="#CCCCCC"/>
<path d="M164.731 182.86L164.544 183.691L164.731 182.86Z" fill="#E6E6E6"/>
<path d="M3.26853 52.7957L2.55423 52.6559L1.89429 52.5239L3.26853 52.7957Z" fill="#E6E6E6"/>
<path d="M164.094 185.562C164.094 187.658 164.14 189.615 164.156 191.362C164.156 189.739 164.156 187.767 164.086 185.539L164.094 185.562Z" fill="#E6E6E6"/>
<path d="M165.057 185.236L164.164 185.539C164.164 187.79 164.218 189.77 164.242 191.377L172.441 193.419L172.65 186.175L164.886 184.832C164.964 184.964 165.01 185.096 165.057 185.236Z" fill="#E6E6E6"/>
<path d="M3.2689 52.7959L174.133 86.3601L163.69 141.136C163.69 144.521 163.892 166.198 164.055 182.208C164.055 182.208 164.055 182.278 164.055 182.309C163.962 174.055 163.846 163.535 163.76 155.041C163.854 163.582 163.986 174.172 164.086 182.425L164.506 183.691L164.692 182.86L169.017 161.804L173.916 141.912L175.469 86.3601L3.24561 52.0195L3.2689 52.7959Z" fill="#4D4D4D"/>
<path d="M164.731 182.86L164.552 183.722C164.676 184.094 164.793 184.498 164.925 184.832L172.689 186.175L173.955 141.92L169.094 161.812L164.731 182.86Z" fill="#1A1A1A"/>
<path d="M165.057 185.236C165.01 185.096 164.964 184.964 164.925 184.832C164.793 184.459 164.676 184.094 164.552 183.722L164.133 182.456C164.133 183.535 164.133 184.576 164.172 185.562L165.057 185.236Z" fill="#999999"/>
<path opacity="0.78" d="M3.31527 79.8768L1.89444 52.5239L0 111.026L1.63046 111.329C0.819584 100.816 1.38598 90.2428 3.31527 79.8768V79.8768Z" fill="#1E2ACA"/>
<path d="M4.82931 96.7329C4.73614 98.7982 4.70508 100.957 4.72061 103.2L5.06223 103.294L4.82931 96.7329Z" fill="#E6E6E6"/>
<path opacity="0.78" d="M4.82931 96.7329C4.73614 98.7982 4.70508 100.957 4.72061 103.2L5.06223 103.294L4.82931 96.7329Z" fill="#1E2ACA"/>
<path d="M4.09929 76.2976L3.26853 52.7957L1.89429 52.5239L3.31512 79.8768C3.56357 78.6268 3.82754 77.4389 4.09929 76.2976Z" fill="#E6E6E6"/>
<path opacity="0.78" d="M4.09929 76.2976L3.26853 52.7957L1.89429 52.5239L3.31512 79.8768C3.56357 78.6268 3.82754 77.4389 4.09929 76.2976Z" fill="#1E2ACA"/>
<path d="M5.18625 106.78L4.79028 106.671C4.84722 108.379 4.93521 110.139 5.05426 111.95L5.37259 112.005L5.18625 106.78Z" fill="#E6E6E6"/>
<path opacity="0.78" d="M5.18625 106.78L4.79028 106.671C4.84722 108.379 4.93521 110.139 5.05426 111.95L5.37259 112.005L5.18625 106.78Z" fill="#1E2ACA"/>
<path d="M32.1123 110.623C32.0707 106.483 32.3146 102.345 32.8422 98.2388L5.15544 91.6704C5.01568 93.2957 4.90699 94.9831 4.82935 96.7326L5.06227 103.293L32.1123 110.623Z" fill="#4D4D4D"/>
<path opacity="0.78" d="M32.1123 110.623C32.0707 106.483 32.3146 102.345 32.8422 98.2388L5.15544 91.6704C5.01568 93.2957 4.90699 94.9831 4.82935 96.7326L5.06227 103.293L32.1123 110.623Z" fill="#1E2ACA"/>
<path d="M81.422 72.4544L47.0038 65.7695C46.3361 66.9264 45.2026 68.9839 43.8982 71.7867L78.3707 79.3722C79.5043 76.4995 80.5757 74.1625 81.422 72.4544Z" fill="#4D4D4D"/>
<path opacity="0.78" d="M81.422 72.4544L47.0038 65.7695C46.3361 66.9264 45.2026 68.9839 43.8982 71.7867L78.3707 79.3722C79.5043 76.4995 80.5757 74.1625 81.422 72.4544Z" fill="#1E2ACA"/>
<path d="M118.123 99.7687L156.346 108.247C156.912 105.367 157.526 102.727 158.147 100.335L120.452 92.0435C119.66 94.3572 118.861 96.9426 118.123 99.7687Z" fill="#4D4D4D"/>
<path opacity="0.78" d="M118.123 99.7687L156.346 108.247C156.912 105.367 157.526 102.727 158.147 100.335L120.452 92.0435C119.66 94.3572 118.861 96.9426 118.123 99.7687Z" fill="#1E2ACA"/>
<path d="M159.024 97.1211C160.158 93.1614 161.245 90.1335 162.029 88.0993L125.002 80.9175C124.226 82.4703 122.968 85.1877 121.57 88.8834L159.024 97.1211Z" fill="#4D4D4D"/>
<path opacity="0.78" d="M159.024 97.1211C160.158 93.1614 161.245 90.1335 162.029 88.0993L125.002 80.9175C124.226 82.4703 122.968 85.1877 121.57 88.8834L159.024 97.1211Z" fill="#1E2ACA"/>
<path d="M116.197 108.573C115.871 110.405 115.584 112.346 115.351 114.381L154.172 123.589C154.459 120.343 154.824 117.315 155.243 114.559C155.398 113.519 155.561 112.509 155.74 111.523L117.315 102.983C116.912 104.815 116.531 106.648 116.197 108.573Z" fill="#4D4D4D"/>
<path opacity="0.78" d="M116.197 108.573C115.871 110.405 115.584 112.346 115.351 114.381L154.172 123.589C154.459 120.343 154.824 117.315 155.243 114.559C155.398 113.519 155.561 112.509 155.74 111.523L117.315 102.983C116.912 104.815 116.531 106.648 116.197 108.573Z" fill="#1E2ACA"/>
<path d="M12.601 56.1966L12.6942 55.7152L83.0756 69.3722L83.2231 69.116L83.9374 69.543L166.237 85.5215L166.035 86.5774L166.229 86.6706C166.229 86.6706 166.074 87.0122 165.841 87.5712L165.608 88.7902L165.367 88.7436C162.976 94.8462 156.485 113.899 157.005 139.901L163.69 141.136L174.133 86.3601L3.26855 52.7959L4.09931 76.2978C7.31364 62.9824 12.1817 56.6779 12.5932 56.1888L12.601 56.1966Z" fill="#4D4D4D"/>
<path opacity="0.78" d="M12.601 56.1966L12.6942 55.7152L83.0756 69.3722L83.2231 69.116L83.9374 69.543L166.237 85.5215L166.035 86.5774L166.229 86.6706C166.229 86.6706 166.074 87.0122 165.841 87.5712L165.608 88.7902L165.367 88.7436C162.976 94.8462 156.485 113.899 157.005 139.901L163.69 141.136L174.133 86.3601L3.26855 52.7959L4.09931 76.2978C7.31364 62.9824 12.1817 56.6779 12.5932 56.1888L12.601 56.1966Z" fill="#1E2ACA"/>
<path d="M153.923 126.951L115.017 117.727C114.612 122.525 114.56 127.347 114.862 132.153L153.636 139.28C153.558 134.917 153.675 130.794 153.923 126.951Z" fill="#4D4D4D"/>
<path opacity="0.78" d="M153.923 126.951L115.017 117.727C114.612 122.525 114.56 127.347 114.862 132.153L153.636 139.28C153.558 134.917 153.675 130.794 153.923 126.951Z" fill="#1E2ACA"/>
<path d="M36.103 99.0078C35.586 103.161 35.3707 107.347 35.4586 111.531L71.2976 121.244C71.0739 116.638 71.1803 112.022 71.6159 107.432L36.103 99.0078Z" fill="#4D4D4D"/>
<path opacity="0.78" d="M36.103 99.0078C35.586 103.161 35.3707 107.347 35.4586 111.531L71.2976 121.244C71.0739 116.638 71.1803 112.022 71.6159 107.432L36.103 99.0078Z" fill="#1E2ACA"/>
<path d="M39.2242 74.1625L10.3263 67.8037C9.39058 70.2616 8.58714 72.7678 7.91943 75.3116L36.4913 81.6704C37.3841 78.8986 38.3158 76.383 39.2242 74.1625Z" fill="#4D4D4D"/>
<path opacity="0.78" d="M39.2242 74.1625L10.3263 67.8037C9.39058 70.2616 8.58714 72.7678 7.91943 75.3116L36.4913 81.6704C37.3841 78.8986 38.3158 76.383 39.2242 74.1625Z" fill="#1E2ACA"/>
<path d="M5.18652 106.779L5.37286 112.005L32.4152 116.981C32.3298 116.011 32.2677 115.048 32.2133 114.101L5.18652 106.779Z" fill="#4D4D4D"/>
<path opacity="0.78" d="M5.18652 106.779L5.37286 112.005L32.4152 116.981C32.3298 116.011 32.2677 115.048 32.2133 114.101L5.18652 106.779Z" fill="#1E2ACA"/>
<path d="M43.5489 65.1019L14.3947 59.4419C13.3561 61.1218 12.4377 62.8731 11.6462 64.6827L40.5908 71.0492C41.7165 68.4948 42.7725 66.4917 43.5489 65.1019Z" fill="#4D4D4D"/>
<path opacity="0.78" d="M43.5489 65.1019L14.3947 59.4419C13.3561 61.1218 12.4377 62.8731 11.6462 64.6827L40.5908 71.0492C41.7165 68.4948 42.7725 66.4917 43.5489 65.1019Z" fill="#1E2ACA"/>
<path d="M111.741 116.95L74.8924 108.208C74.4707 112.855 74.4006 117.526 74.6827 122.183L104.536 130.274L111.523 131.547C111.247 126.682 111.319 121.804 111.741 116.95V116.95Z" fill="#4D4D4D"/>
<path opacity="0.78" d="M111.741 116.95L74.8924 108.208C74.4707 112.855 74.4006 117.526 74.6827 122.183L104.536 130.274L111.523 131.547C111.247 126.682 111.319 121.804 111.741 116.95V116.95Z" fill="#1E2ACA"/>
<path d="M35.8078 117.61L64.8843 122.96L35.606 115.025C35.6603 115.879 35.7147 116.733 35.8078 117.61Z" fill="#4D4D4D"/>
<path opacity="0.78" d="M35.8078 117.61L64.8843 122.96L35.606 115.025C35.6603 115.879 35.7147 116.733 35.8078 117.61Z" fill="#1E2ACA"/>
<path d="M76.2588 98.5262C75.8706 100.514 75.529 102.633 75.2495 104.869L112.09 113.612C112.331 111.609 112.618 109.691 112.936 107.874C113.278 105.933 113.656 104.07 114.07 102.284L77.2216 94.1084C76.8644 95.537 76.5539 97.0044 76.2588 98.5262Z" fill="#4D4D4D"/>
<path opacity="0.78" d="M76.2588 98.5262C75.8706 100.514 75.529 102.633 75.2495 104.869L112.09 113.612C112.331 111.609 112.618 109.691 112.936 107.874C113.278 105.933 113.656 104.07 114.07 102.284L77.2216 94.1084C76.8644 95.537 76.5539 97.0044 76.2588 98.5262Z" fill="#1E2ACA"/>
<path d="M80.4902 83.2466C79.6595 85.5758 78.8287 88.0914 78.0601 90.8864L114.862 99.0465C115.592 96.2281 116.415 93.6116 117.191 91.3212L80.4902 83.2466Z" fill="#4D4D4D"/>
<path opacity="0.78" d="M80.4902 83.2466C79.6595 85.5758 78.8287 88.0914 78.0601 90.8864L114.862 99.0465C115.592 96.2281 116.415 93.6116 117.191 91.3212L80.4902 83.2466Z" fill="#1E2ACA"/>
<path d="M37.4848 90.9019C37.151 92.4548 36.8482 94.0076 36.5764 95.7002L71.9884 104.101C72.2757 101.865 72.6251 99.753 73.0133 97.7654C73.3083 96.2592 73.6266 94.7995 73.9683 93.3865L38.8202 85.5913C38.3389 87.2839 37.8885 89.0541 37.4848 90.9019Z" fill="#4D4D4D"/>
<path opacity="0.78" d="M37.4848 90.9019C37.151 92.4548 36.8482 94.0076 36.5764 95.7002L71.9884 104.101C72.2757 101.865 72.6251 99.753 73.0133 97.7654C73.3083 96.2592 73.6266 94.7995 73.9683 93.3865L38.8202 85.5913C38.3389 87.2839 37.8885 89.0541 37.4848 90.9019Z" fill="#1E2ACA"/>
<path d="M42.5475 74.8926C41.6235 77.0976 40.6763 79.6131 39.7834 82.3927L74.7917 90.1568C75.5681 87.3772 76.3445 84.8228 77.1908 82.5247L42.5475 74.8926Z" fill="#4D4D4D"/>
<path opacity="0.78" d="M42.5475 74.8926C41.6235 77.0976 40.6763 79.6131 39.7834 82.3927L74.7917 90.1568C75.5681 87.3772 76.3445 84.8228 77.1908 82.5247L42.5475 74.8926Z" fill="#1E2ACA"/>
<path d="M33.3234 94.9316C33.6029 93.2235 33.9212 91.6008 34.2628 90.0558C34.6588 88.2545 35.1014 86.5231 35.5594 84.8694L7.12735 78.5649C6.2166 82.7253 5.57088 86.9394 5.19409 91.1816L5.85404 88.4098L33.3234 94.9316Z" fill="#4D4D4D"/>
<path opacity="0.78" d="M33.3234 94.9316C33.6029 93.2235 33.9212 91.6008 34.2628 90.0558C34.6588 88.2545 35.1014 86.5231 35.5594 84.8694L7.12735 78.5649C6.2166 82.7253 5.57088 86.9394 5.19409 91.1816L5.85404 88.4098L33.3234 94.9316Z" fill="#1E2ACA"/>
<path d="M121.624 80.2572L84.8305 73.1143C84.0541 74.6671 82.905 77.0739 81.686 80.1019L118.286 88.1533C119.567 84.706 120.778 82.0197 121.624 80.2572Z" fill="#4D4D4D"/>
<path opacity="0.78" d="M121.624 80.2572L84.8305 73.1143C84.0541 74.6671 82.905 77.0739 81.686 80.1019L118.286 88.1533C119.567 84.706 120.778 82.0197 121.624 80.2572Z" fill="#1E2ACA"/>
<path d="M4.7903 106.671L5.18626 106.78L32.2131 114.132C32.2674 115.08 32.3295 116.042 32.4149 117.013L35.8078 117.642C35.7302 116.764 35.6603 115.91 35.606 115.056L64.8843 122.991L104.536 130.282L74.6826 122.16C74.4005 117.503 74.4705 112.832 74.8922 108.185L111.741 116.927C111.307 121.773 111.222 126.643 111.484 131.501L114.862 132.129C114.56 127.324 114.612 122.502 115.017 117.704L153.923 126.928C153.674 130.81 153.558 134.893 153.636 139.257L157.005 139.878C156.485 113.876 162.976 94.8463 165.367 88.7205L165.608 88.767L165.841 87.5481C166.074 86.9891 166.213 86.6785 166.229 86.6475L166.035 86.5543L166.237 85.4984L83.9374 69.5199L83.2231 69.0929L83.0756 69.3491L12.6941 55.7153L12.601 56.1967C12.1895 56.7091 7.32139 62.9903 4.10706 76.3057C3.83531 77.447 3.57133 78.6349 3.33065 79.8849C1.40204 90.2483 0.835645 100.819 1.64584 111.329L5.0698 111.958C4.93523 110.147 4.84206 108.384 4.7903 106.671ZM71.2975 121.244L35.4584 111.531C35.3705 107.347 35.5859 103.161 36.1029 99.0079L71.6158 107.432C71.1802 112.023 71.0738 116.638 71.2975 121.244ZM72.9823 97.7656C72.5941 99.7532 72.2059 101.865 71.9574 104.101L36.5765 95.7004C36.8482 94.0233 37.151 92.4162 37.4849 90.9022C37.8886 89.0543 38.3389 87.2841 38.8203 85.5915L73.9683 93.3556C73.6267 94.7842 73.298 96.2542 72.9823 97.7656ZM74.7603 90.1568L39.752 82.3927C40.6449 79.6132 41.5921 77.0976 42.516 74.8926L77.1594 82.5247C76.3752 84.8229 75.5522 87.3773 74.7913 90.1568H74.7603ZM112.905 107.874C112.587 109.691 112.3 111.609 112.059 113.612L75.2494 104.87C75.5289 102.634 75.8705 100.514 76.2587 98.5265C76.5538 96.9737 76.8798 95.5373 77.2215 94.1087L114.07 102.284C113.661 104.07 113.283 105.933 112.936 107.874H112.905ZM114.831 99.0467L78.0289 90.8866C78.8053 88.0916 79.6283 85.5372 80.4591 83.2468L117.137 91.3214C116.384 93.6429 115.592 96.2283 114.862 99.0467H114.831ZM155.204 114.575C154.785 117.331 154.428 120.359 154.133 123.605L115.312 114.396C115.545 112.362 115.832 110.421 116.158 108.589C116.484 106.756 116.873 104.8 117.284 103.022L155.709 111.562C155.569 112.51 155.406 113.519 155.282 114.559L155.204 114.575ZM156.299 108.263L118.123 99.7688C118.899 96.9426 119.675 94.3339 120.452 92.0047L158.147 100.297C157.525 102.727 156.912 105.367 156.345 108.247L156.299 108.263ZM161.982 88.1149C161.206 90.1335 160.111 93.177 158.977 97.1367L121.547 88.899C122.944 85.2033 124.21 82.4704 124.978 80.9331L161.982 88.1149ZM84.7837 73.1302L121.578 80.2731C120.731 82.0356 119.528 84.722 118.239 88.1692L81.6392 80.1179C82.9048 77.0743 84.0228 74.6985 84.8303 73.1146L84.7837 73.1302ZM47.0036 65.7698L81.4218 72.4547C80.5756 74.1628 79.5041 76.4998 78.3783 79.3725L43.9058 71.787C45.2024 68.9842 46.3359 66.9267 47.0036 65.7698ZM14.3945 59.4421L43.5486 65.1021C42.7722 66.4919 41.7163 68.495 40.5672 71.0494L11.646 64.6828C12.4374 62.8733 13.3559 61.122 14.3945 59.4421V59.4421ZM10.3261 67.804L39.224 74.1628C38.3156 76.3833 37.3839 78.8989 36.5066 81.6707L7.91922 75.3119C8.58693 72.7681 9.39037 70.2619 10.3261 67.804V67.804ZM7.12729 78.565L35.5594 84.8695C35.1013 86.5232 34.6587 88.2546 34.2628 90.0559C33.9212 91.6087 33.6028 93.2236 33.3233 94.9317L5.85398 88.4099L5.19403 91.1817C5.57082 86.9395 6.21653 82.7254 7.12729 78.565V78.565ZM4.79806 96.733C4.8757 94.9783 4.9844 93.2909 5.12415 91.6708L32.8109 98.2392C32.2833 102.345 32.0394 106.483 32.0811 110.623L5.06204 103.263L4.72042 103.169C4.70489 100.933 4.73595 98.7982 4.82912 96.733H4.79806Z" fill="#999999"/>
<path opacity="0.78" d="M4.7903 106.671L5.18626 106.78L32.2131 114.132C32.2674 115.08 32.3295 116.042 32.4149 117.013L35.8078 117.642C35.7302 116.764 35.6603 115.91 35.606 115.056L64.8843 122.991L104.536 130.282L74.6826 122.16C74.4005 117.503 74.4705 112.832 74.8922 108.185L111.741 116.927C111.307 121.773 111.222 126.643 111.484 131.501L114.862 132.129C114.56 127.324 114.612 122.502 115.017 117.704L153.923 126.928C153.674 130.81 153.558 134.893 153.636 139.257L157.005 139.878C156.485 113.876 162.976 94.8463 165.367 88.7205L165.608 88.767L165.841 87.5481C166.074 86.9891 166.213 86.6785 166.229 86.6475L166.035 86.5543L166.237 85.4984L83.9374 69.5199L83.2231 69.0929L83.0756 69.3491L12.6941 55.7153L12.601 56.1967C12.1895 56.7091 7.32139 62.9903 4.10706 76.3057C3.83531 77.447 3.57133 78.6349 3.33065 79.8849C1.40204 90.2483 0.835645 100.819 1.64584 111.329L5.0698 111.958C4.93523 110.147 4.84206 108.384 4.7903 106.671ZM71.2975 121.244L35.4584 111.531C35.3705 107.347 35.5859 103.161 36.1029 99.0079L71.6158 107.432C71.1802 112.023 71.0738 116.638 71.2975 121.244ZM72.9823 97.7656C72.5941 99.7532 72.2059 101.865 71.9574 104.101L36.5765 95.7004C36.8482 94.0233 37.151 92.4162 37.4849 90.9022C37.8886 89.0543 38.3389 87.2841 38.8203 85.5915L73.9683 93.3556C73.6267 94.7842 73.298 96.2542 72.9823 97.7656ZM74.7603 90.1568L39.752 82.3927C40.6449 79.6132 41.5921 77.0976 42.516 74.8926L77.1594 82.5247C76.3752 84.8229 75.5522 87.3773 74.7913 90.1568H74.7603ZM112.905 107.874C112.587 109.691 112.3 111.609 112.059 113.612L75.2494 104.87C75.5289 102.634 75.8705 100.514 76.2587 98.5265C76.5538 96.9737 76.8798 95.5373 77.2215 94.1087L114.07 102.284C113.661 104.07 113.283 105.933 112.936 107.874H112.905ZM114.831 99.0467L78.0289 90.8866C78.8053 88.0916 79.6283 85.5372 80.4591 83.2468L117.137 91.3214C116.384 93.6429 115.592 96.2283 114.862 99.0467H114.831ZM155.204 114.575C154.785 117.331 154.428 120.359 154.133 123.605L115.312 114.396C115.545 112.362 115.832 110.421 116.158 108.589C116.484 106.756 116.873 104.8 117.284 103.022L155.709 111.562C155.569 112.51 155.406 113.519 155.282 114.559L155.204 114.575ZM156.299 108.263L118.123 99.7688C118.899 96.9426 119.675 94.3339 120.452 92.0047L158.147 100.297C157.525 102.727 156.912 105.367 156.345 108.247L156.299 108.263ZM161.982 88.1149C161.206 90.1335 160.111 93.177 158.977 97.1367L121.547 88.899C122.944 85.2033 124.21 82.4704 124.978 80.9331L161.982 88.1149ZM84.7837 73.1302L121.578 80.2731C120.731 82.0356 119.528 84.722 118.239 88.1692L81.6392 80.1179C82.9048 77.0743 84.0228 74.6985 84.8303 73.1146L84.7837 73.1302ZM47.0036 65.7698L81.4218 72.4547C80.5756 74.1628 79.5041 76.4998 78.3783 79.3725L43.9058 71.787C45.2024 68.9842 46.3359 66.9267 47.0036 65.7698ZM14.3945 59.4421L43.5486 65.1021C42.7722 66.4919 41.7163 68.495 40.5672 71.0494L11.646 64.6828C12.4374 62.8733 13.3559 61.122 14.3945 59.4421V59.4421ZM10.3261 67.804L39.224 74.1628C38.3156 76.3833 37.3839 78.8989 36.5066 81.6707L7.91922 75.3119C8.58693 72.7681 9.39037 70.2619 10.3261 67.804V67.804ZM7.12729 78.565L35.5594 84.8695C35.1013 86.5232 34.6587 88.2546 34.2628 90.0559C33.9212 91.6087 33.6028 93.2236 33.3233 94.9317L5.85398 88.4099L5.19403 91.1817C5.57082 86.9395 6.21653 82.7254 7.12729 78.565V78.565ZM4.79806 96.733C4.8757 94.9783 4.9844 93.2909 5.12415 91.6708L32.8109 98.2392C32.2833 102.345 32.0394 106.483 32.0811 110.623L5.06204 103.263L4.72042 103.169C4.70489 100.933 4.73595 98.7982 4.82912 96.733H4.79806Z" fill="#1E2ACA"/>
<path d="M164.241 195.655H164.296C164.296 195.655 164.296 194.032 164.241 191.361H164.195C164.218 193.496 164.234 195.01 164.241 195.655Z" fill="#666666"/>
<path opacity="0.78" d="M164.241 195.655H164.296C164.296 195.655 164.296 194.032 164.241 191.361H164.195C164.218 193.496 164.234 195.01 164.241 195.655Z" fill="#1E2ACA"/>
<path d="M164.125 185.561C164.125 187.79 164.172 189.762 164.195 191.384H164.241C164.241 189.777 164.195 187.797 164.164 185.546L164.125 185.561Z" fill="#E6E6E6"/>
<path opacity="0.78" d="M164.125 185.561C164.125 187.79 164.172 189.762 164.195 191.384H164.241C164.241 189.777 164.195 187.797 164.164 185.546L164.125 185.561Z" fill="#1E2ACA"/>
<path d="M163.822 155.041C163.908 163.535 164.024 174.055 164.117 182.308C164.117 182.347 164.117 182.386 164.117 182.425C164.024 174.172 163.892 163.55 163.822 155.041Z" fill="#4D4D4D"/>
<path opacity="0.78" d="M163.822 155.041C163.908 163.535 164.024 174.055 164.117 182.308C164.117 182.347 164.117 182.386 164.117 182.425C164.024 174.172 163.892 163.55 163.822 155.041Z" fill="#1E2ACA"/>
<path d="M164.164 185.561C164.164 184.568 164.164 183.527 164.125 182.456C164.125 182.417 164.125 182.378 164.125 182.339C164.125 183.465 164.125 184.552 164.125 185.577L164.164 185.561Z" fill="#999999"/>
<path opacity="0.78" d="M164.164 185.561C164.164 184.568 164.164 183.527 164.125 182.456C164.125 182.417 164.125 182.378 164.125 182.339C164.125 183.465 164.125 184.552 164.125 185.577L164.164 185.561Z" fill="#1E2ACA"/>
<path opacity="0.7" d="M7.08861 152.339L6.615 143.317L6.48301 143.278V142.339C4.02127 132.138 2.41115 121.75 1.66928 111.283L0 111.026L1.89444 154.311L7.76409 155.957L7.59328 152.471L7.08861 152.339Z" fill="#4D55BE"/>
<path d="M164.156 191.362L7.6167 152.471L7.78751 155.957L164.249 199.731C164.249 199.731 164.211 196.431 164.156 191.362Z" fill="#666666"/>
<path opacity="0.7" d="M164.156 191.362L7.6167 152.471L7.78751 155.957L164.249 199.731C164.249 199.731 164.211 196.431 164.156 191.362Z" fill="#4D55BE"/>
<path d="M5.0542 111.95V112.346L5.36476 112.424V112.005L5.0542 111.95Z" fill="#E6E6E6"/>
<path opacity="0.7" d="M5.0542 111.95V112.346L5.36476 112.424V112.005L5.0542 111.95Z" fill="#4D55BE"/>
<path d="M5.38062 115.871C5.44273 116.547 5.50484 117.222 5.58248 117.898L5.5126 115.91L5.38062 115.871Z" fill="#E6E6E6"/>
<path opacity="0.7" d="M5.38062 115.871C5.44273 116.547 5.50484 117.222 5.58248 117.898L5.5126 115.91L5.38062 115.871Z" fill="#4D55BE"/>
<path d="M161.904 186.338L161.765 185.919L48.9526 154.373L6.61499 143.317L7.0886 152.339L7.61656 152.471L164.156 191.362C164.156 189.615 164.117 187.658 164.094 185.562L161.904 186.338Z" fill="#E6E6E6"/>
<path opacity="0.7" d="M161.904 186.338L161.765 185.919L48.9526 154.373L6.61499 143.317L7.0886 152.339L7.61656 152.471L164.156 191.362C164.156 189.615 164.117 187.658 164.094 185.562L161.904 186.338Z" fill="#4D55BE"/>
<path d="M33.1917 123.449L5.5127 115.91L5.58257 117.898C5.69903 119.016 5.83102 120.149 5.97078 121.298L34.2709 129.063C33.8516 127.16 33.4945 125.289 33.1917 123.449Z" fill="#4D4D4D"/>
<path opacity="0.7" d="M33.1917 123.449L5.5127 115.91L5.58257 117.898C5.69903 119.016 5.83102 120.149 5.97078 121.298L34.2709 129.063C33.8516 127.16 33.4945 125.289 33.1917 123.449Z" fill="#4D55BE"/>
<path d="M5.38833 112.424L32.6946 119.847C32.5782 118.884 32.4928 117.929 32.4151 116.982L5.3728 112.005L5.38833 112.424Z" fill="#4D4D4D"/>
<path opacity="0.7" d="M5.38833 112.424L32.6946 119.847C32.5782 118.884 32.4928 117.929 32.4151 116.982L5.3728 112.005L5.38833 112.424Z" fill="#4D55BE"/>
<path d="M7.24403 142.72L7.3605 142.292L6.48315 142.502C6.48315 142.448 6.48315 142.393 6.48315 142.339V143.279L6.61514 143.317L48.9527 154.373L7.24403 142.72Z" fill="#4D4D4D"/>
<path opacity="0.7" d="M7.24403 142.72L7.3605 142.292L6.48315 142.502C6.48315 142.448 6.48315 142.393 6.48315 142.339V143.279L6.61514 143.317L48.9527 154.373L7.24403 142.72Z" fill="#4D55BE"/>
<path d="M83.1223 154.715C84.054 156.671 85.0633 158.597 86.2279 160.6L85.3817 161.081L122.673 171.516C121.42 169.192 120.292 166.879 119.287 164.575L83.1223 154.715Z" fill="#4D4D4D"/>
<path opacity="0.7" d="M83.1223 154.715C84.054 156.671 85.0633 158.597 86.2279 160.6L85.3817 161.081L122.673 171.516C121.42 169.192 120.292 166.879 119.287 164.575L83.1223 154.715Z" fill="#4D55BE"/>
<path d="M118.348 152.215L155.826 162.533C155.476 160.507 155.181 158.504 154.917 156.532L116.811 146.174C117.238 148.162 117.758 150.181 118.348 152.215Z" fill="#4D4D4D"/>
<path opacity="0.7" d="M118.348 152.215L155.826 162.533C155.476 160.507 155.181 158.504 154.917 156.532L116.811 146.174C117.238 148.162 117.758 150.181 118.348 152.215Z" fill="#4D55BE"/>
<path d="M81.352 150.786L117.703 160.717C116.958 158.791 116.29 156.876 115.7 154.971L79.116 144.878C79.7759 146.819 80.5213 148.799 81.352 150.786Z" fill="#4D4D4D"/>
<path opacity="0.7" d="M81.352 150.786L117.703 160.717C116.958 158.791 116.29 156.876 115.7 154.971L79.116 144.878C79.7759 146.819 80.5213 148.799 81.352 150.786Z" fill="#4D55BE"/>
<path d="M77.9281 141.081L114.598 151.174C114.054 149.156 113.596 147.16 113.208 145.18L76.4607 135.204C76.8644 137.137 77.3613 139.101 77.9281 141.081Z" fill="#4D4D4D"/>
<path opacity="0.7" d="M77.9281 141.081L114.598 151.174C114.054 149.156 113.596 147.16 113.208 145.18L76.4607 135.204C76.8644 137.137 77.3613 139.101 77.9281 141.081Z" fill="#4D55BE"/>
<path d="M36.1806 120.794L72.206 130.6C71.9057 128.617 71.6702 126.668 71.4994 124.753L64.8534 122.96L35.7769 117.61C35.9088 118.659 36.0331 119.722 36.1806 120.794Z" fill="#4D4D4D"/>
<path opacity="0.7" d="M36.1806 120.794L72.206 130.6C71.9057 128.617 71.6702 126.668 71.4994 124.753L64.8534 122.96L35.7769 117.61C35.9088 118.659 36.0331 119.722 36.1806 120.794Z" fill="#4D55BE"/>
<path d="M42.7024 143.698C43.6341 145.794 44.6745 147.914 45.808 150.033L82.1673 160.189C80.9716 157.979 79.895 155.773 78.9374 153.574L42.7024 143.698Z" fill="#4D4D4D"/>
<path opacity="0.7" d="M42.7024 143.698C43.6341 145.794 44.6745 147.914 45.808 150.033L82.1673 160.189C80.9716 157.979 79.895 155.773 78.9374 153.574L42.7024 143.698Z" fill="#4D55BE"/>
<path d="M121.733 161.78L157.665 171.586C157.241 169.77 156.853 167.971 156.501 166.19L119.567 155.996C120.204 157.914 120.926 159.847 121.733 161.78Z" fill="#4D4D4D"/>
<path opacity="0.7" d="M121.733 161.78L157.665 171.586C157.241 169.77 156.853 167.971 156.501 166.19L119.567 155.996C120.204 157.914 120.926 159.847 121.733 161.78Z" fill="#4D55BE"/>
<path d="M75.2653 143.799L38.9915 133.814C39.5893 135.786 40.2803 137.789 41.0567 139.808L77.3228 149.684C76.5515 147.722 75.8657 145.76 75.2653 143.799Z" fill="#4D4D4D"/>
<path opacity="0.7" d="M75.2653 143.799L38.9915 133.814C39.5893 135.786 40.2803 137.789 41.0567 139.808L77.3228 149.684C76.5515 147.722 75.8657 145.76 75.2653 143.799Z" fill="#4D55BE"/>
<path d="M8.10571 134.319C8.46286 136.136 8.85624 137.986 9.28585 139.87L41.4059 148.845C40.3707 146.775 39.4286 144.705 38.5798 142.634L8.10571 134.319Z" fill="#4D4D4D"/>
<path opacity="0.7" d="M8.10571 134.319C8.46286 136.136 8.85624 137.986 9.28585 139.87L41.4059 148.845C40.3707 146.775 39.4286 144.705 38.5798 142.634L8.10571 134.319Z" fill="#4D55BE"/>
<path d="M127.176 172.712L127.106 172.751L160.492 182.068C159.684 179.48 158.957 176.892 158.31 174.304L158.093 175.08L123.449 165.639C124.578 168.015 125.82 170.373 127.176 172.712Z" fill="#4D4D4D"/>
<path opacity="0.7" d="M127.176 172.712L127.106 172.751L160.492 182.068C159.684 179.48 158.957 176.892 158.31 174.304L158.093 175.08L123.449 165.639C124.578 168.015 125.82 170.373 127.176 172.712Z" fill="#4D55BE"/>
<path d="M111.523 132.145C111.523 131.935 111.523 131.733 111.523 131.524L104.536 130.25L111.523 132.145Z" fill="#4D4D4D"/>
<path opacity="0.7" d="M111.523 132.145C111.523 131.935 111.523 131.733 111.523 131.524L104.536 130.25L111.523 132.145Z" fill="#4D55BE"/>
<path d="M154.505 152.953C154.288 150.965 154.125 149.009 153.993 147.091L115.266 136.594C115.475 138.535 115.755 140.515 116.112 142.518L154.505 152.953Z" fill="#4D4D4D"/>
<path opacity="0.7" d="M154.505 152.953C154.288 150.965 154.125 149.009 153.993 147.091L115.266 136.594C115.475 138.535 115.755 140.515 116.112 142.518L154.505 152.953Z" fill="#4D55BE"/>
<path d="M37.1046 138.729C36.3903 136.726 35.7691 134.738 35.2257 132.774L6.49854 124.854C6.77804 126.741 7.08861 128.667 7.44575 130.639L37.1046 138.729Z" fill="#4D4D4D"/>
<path opacity="0.7" d="M37.1046 138.729C36.3903 136.726 35.7691 134.738 35.2257 132.774L6.49854 124.854C6.77804 126.741 7.08861 128.667 7.44575 130.639L37.1046 138.729Z" fill="#4D55BE"/>
<path d="M74.1935 140.048C73.6733 138.084 73.2385 136.166 72.8658 134.225L36.7395 124.404C37.0759 126.267 37.4823 128.156 37.9585 130.072L74.1935 140.048Z" fill="#4D4D4D"/>
<path opacity="0.7" d="M74.1935 140.048C73.6733 138.084 73.2385 136.166 72.8658 134.225L36.7395 124.404C37.0759 126.267 37.4823 128.156 37.9585 130.072L74.1935 140.048Z" fill="#4D55BE"/>
<path d="M114.909 133.061L153.729 143.597C153.667 142.129 153.62 140.693 153.597 139.28L114.823 132.152C114.909 132.455 114.909 132.766 114.909 133.061Z" fill="#4D4D4D"/>
<path opacity="0.7" d="M114.909 133.061L153.729 143.597C153.667 142.129 153.62 140.693 153.597 139.28L114.823 132.152C114.909 132.455 114.909 132.766 114.909 133.061Z" fill="#4D55BE"/>
<path d="M164.055 182.207C163.892 166.198 163.675 144.521 163.69 141.135L157.005 139.901C157.301 154.269 159.675 168.519 164.055 182.207V182.207Z" fill="#4D4D4D"/>
<path opacity="0.7" d="M164.055 182.207C163.892 166.198 163.675 144.521 163.69 141.135L157.005 139.901C157.301 154.269 159.675 168.519 164.055 182.207V182.207Z" fill="#4D55BE"/>
<path d="M112.579 141.563C112.263 139.565 112.005 137.6 111.803 135.67L74.97 125.693C75.1641 127.611 75.4281 129.575 75.7464 131.563L112.579 141.563Z" fill="#4D4D4D"/>
<path opacity="0.7" d="M112.579 141.563C112.263 139.565 112.005 137.6 111.803 135.67L74.97 125.693C75.1641 127.611 75.4281 129.575 75.7464 131.563L112.579 141.563Z" fill="#4D55BE"/>
<path d="M7.36017 142.292L7.24371 142.719L48.9524 154.365L161.765 185.88L161.904 186.299L164.094 185.523C164.094 184.436 164.094 183.318 164.094 182.169C159.714 168.481 157.339 154.231 157.044 139.862L153.674 139.241C153.674 140.654 153.744 142.09 153.806 143.558L114.986 133.022C114.986 132.719 114.939 132.416 114.924 132.114L111.546 131.485C111.546 131.694 111.546 131.896 111.546 132.106L104.559 130.211L64.9076 122.921L71.5536 124.714C71.7245 126.629 71.96 128.578 72.2602 130.561L36.1805 120.793C36.0329 119.722 35.9087 118.658 35.8078 117.61L32.4149 116.981C32.4925 117.929 32.5779 118.884 32.6944 119.846L5.38809 112.424L5.07753 112.346V111.95L1.65356 111.321C2.39544 121.789 4.00555 132.177 6.4673 142.378C6.4673 142.432 6.4673 142.486 6.4673 142.541L7.36017 142.292ZM9.31672 139.831C8.88711 137.942 8.49372 136.091 8.13658 134.28L38.6106 142.58C39.4595 144.65 40.4015 146.72 41.4367 148.791L9.31672 139.831ZM39.0221 133.814L75.2959 143.798C75.9015 145.745 76.5874 147.706 77.3534 149.684L41.0563 139.808C40.2799 137.789 39.5967 135.786 38.9911 133.814H39.0221ZM45.8079 150.033C44.6588 147.913 43.6185 145.794 42.7023 143.698L78.9528 153.573C79.9156 155.768 80.9922 157.973 82.1827 160.188L45.8079 150.033ZM85.3504 161.081L86.1967 160.6C85.0709 158.628 84.0616 156.671 83.0911 154.715L119.311 164.598C120.346 166.907 121.474 169.221 122.696 171.54L85.3504 161.081ZM158.333 174.35C158.98 176.897 159.707 179.485 160.515 182.114L127.129 172.797L127.199 172.759C125.843 170.424 124.613 168.095 123.511 165.771L158.154 175.212L158.333 174.35ZM157.65 171.571L121.717 161.78C120.941 159.847 120.165 157.898 119.536 155.996L156.501 166.151C156.852 167.942 157.241 169.754 157.665 171.586L157.65 171.571ZM155.81 162.533L118.332 152.215C117.742 150.181 117.23 148.162 116.779 146.174L154.886 156.532C155.181 158.504 155.476 160.507 155.825 162.533H155.81ZM153.962 147.098C154.094 149.016 154.257 150.98 154.474 152.96L116.081 142.525C115.724 140.522 115.444 138.542 115.234 136.601L153.962 147.098ZM115.685 154.94C116.275 156.84 116.942 158.755 117.688 160.685L81.3364 150.786C80.5056 148.799 79.7836 146.819 79.1003 144.862L115.685 154.94ZM114.582 151.182L77.9124 141.089C77.3457 139.109 76.8643 137.145 76.445 135.211L113.208 145.188C113.596 147.168 114.054 149.163 114.598 151.182H114.582ZM111.779 135.654C111.966 137.585 112.225 139.549 112.556 141.547L75.7695 131.562C75.4279 129.575 75.1639 127.61 74.9931 125.693L111.779 135.654ZM72.8502 134.21C73.2229 136.128 73.6267 138.092 74.1779 140.033L37.9584 130.072C37.4771 128.151 37.0707 126.262 36.7395 124.404L72.8502 134.21ZM5.98593 121.267C5.84617 120.118 5.71418 118.984 5.59772 117.866C5.52008 117.191 5.45797 116.515 5.39585 115.84H5.52784L33.1913 123.449C33.4941 125.297 33.8512 127.168 34.286 129.07L5.98593 121.267ZM35.2255 132.766C35.769 134.73 36.3901 136.718 37.1044 138.721L7.41452 130.638C7.05737 128.666 6.74681 126.756 6.4673 124.854L35.2255 132.766Z" fill="#999999"/>
<path opacity="0.7" d="M7.36017 142.292L7.24371 142.719L48.9524 154.365L161.765 185.88L161.904 186.299L164.094 185.523C164.094 184.436 164.094 183.318 164.094 182.169C159.714 168.481 157.339 154.231 157.044 139.862L153.674 139.241C153.674 140.654 153.744 142.09 153.806 143.558L114.986 133.022C114.986 132.719 114.939 132.416 114.924 132.114L111.546 131.485C111.546 131.694 111.546 131.896 111.546 132.106L104.559 130.211L64.9076 122.921L71.5536 124.714C71.7245 126.629 71.96 128.578 72.2602 130.561L36.1805 120.793C36.0329 119.722 35.9087 118.658 35.8078 117.61L32.4149 116.981C32.4925 117.929 32.5779 118.884 32.6944 119.846L5.38809 112.424L5.07753 112.346V111.95L1.65356 111.321C2.39544 121.789 4.00555 132.177 6.4673 142.378C6.4673 142.432 6.4673 142.486 6.4673 142.541L7.36017 142.292ZM9.31672 139.831C8.88711 137.942 8.49372 136.091 8.13658 134.28L38.6106 142.58C39.4595 144.65 40.4015 146.72 41.4367 148.791L9.31672 139.831ZM39.0221 133.814L75.2959 143.798C75.9015 145.745 76.5874 147.706 77.3534 149.684L41.0563 139.808C40.2799 137.789 39.5967 135.786 38.9911 133.814H39.0221ZM45.8079 150.033C44.6588 147.913 43.6185 145.794 42.7023 143.698L78.9528 153.573C79.9156 155.768 80.9922 157.973 82.1827 160.188L45.8079 150.033ZM85.3504 161.081L86.1967 160.6C85.0709 158.628 84.0616 156.671 83.0911 154.715L119.311 164.598C120.346 166.907 121.474 169.221 122.696 171.54L85.3504 161.081ZM158.333 174.35C158.98 176.897 159.707 179.485 160.515 182.114L127.129 172.797L127.199 172.759C125.843 170.424 124.613 168.095 123.511 165.771L158.154 175.212L158.333 174.35ZM157.65 171.571L121.717 161.78C120.941 159.847 120.165 157.898 119.536 155.996L156.501 166.151C156.852 167.942 157.241 169.754 157.665 171.586L157.65 171.571ZM155.81 162.533L118.332 152.215C117.742 150.181 117.23 148.162 116.779 146.174L154.886 156.532C155.181 158.504 155.476 160.507 155.825 162.533H155.81ZM153.962 147.098C154.094 149.016 154.257 150.98 154.474 152.96L116.081 142.525C115.724 140.522 115.444 138.542 115.234 136.601L153.962 147.098ZM115.685 154.94C116.275 156.84 116.942 158.755 117.688 160.685L81.3364 150.786C80.5056 148.799 79.7836 146.819 79.1003 144.862L115.685 154.94ZM114.582 151.182L77.9124 141.089C77.3457 139.109 76.8643 137.145 76.445 135.211L113.208 145.188C113.596 147.168 114.054 149.163 114.598 151.182H114.582ZM111.779 135.654C111.966 137.585 112.225 139.549 112.556 141.547L75.7695 131.562C75.4279 129.575 75.1639 127.61 74.9931 125.693L111.779 135.654ZM72.8502 134.21C73.2229 136.128 73.6267 138.092 74.1779 140.033L37.9584 130.072C37.4771 128.151 37.0707 126.262 36.7395 124.404L72.8502 134.21ZM5.98593 121.267C5.84617 120.118 5.71418 118.984 5.59772 117.866C5.52008 117.191 5.45797 116.515 5.39585 115.84H5.52784L33.1913 123.449C33.4941 125.297 33.8512 127.168 34.286 129.07L5.98593 121.267ZM35.2255 132.766C35.769 134.73 36.3901 136.718 37.1044 138.721L7.41452 130.638C7.05737 128.666 6.74681 126.756 6.4673 124.854L35.2255 132.766Z" fill="#4D55BE"/>
<path d="M9.77511 47.1823C10.3804 47.2897 11.0016 47.2676 11.5978 47.1173C12.1939 46.9671 12.7514 46.6921 13.2334 46.3106C13.7155 45.9291 14.1111 45.4496 14.3943 44.904C14.6774 44.3583 14.8417 43.7588 14.8761 43.145L16.3591 28.564C16.5532 26.7006 15.4118 25.0546 13.859 24.9692L5.92412 24.4956C5.31076 24.4568 4.81386 25.0779 4.82162 25.8543L4.87597 40.9633C4.87335 42.4 5.35561 43.7956 6.24469 44.9242C7.13378 46.0528 8.37768 46.8484 9.77511 47.1823V47.1823ZM7.7021 28.1603L13.2922 28.6339C13.754 28.7101 14.1668 28.9661 14.4403 29.3458C14.7139 29.7256 14.8259 30.1982 14.7519 30.6603C14.7499 30.8829 14.7038 31.1029 14.6163 31.3075C14.5287 31.5122 14.4015 31.6975 14.242 31.8527C14.0824 32.0079 13.8937 32.13 13.6867 32.2118C13.4797 32.2937 13.2586 32.3337 13.036 32.3296L7.62446 31.755C7.19965 31.6579 6.82363 31.4119 6.56445 31.0616C6.30527 30.7113 6.18003 30.2797 6.21139 29.8451C6.19337 29.6355 6.21813 29.4244 6.28417 29.2246C6.35021 29.0249 6.45614 28.8407 6.59555 28.6831C6.73496 28.5255 6.90493 28.3979 7.09515 28.3081C7.28536 28.2182 7.49186 28.1679 7.7021 28.1603V28.1603ZM5.93965 38.6263C5.92354 38.4356 5.94885 38.2437 6.01383 38.0637C6.07882 37.8837 6.18195 37.7198 6.31616 37.5834C6.45037 37.447 6.61248 37.3412 6.79139 37.2733C6.97031 37.2054 7.16179 37.1769 7.35272 37.1899L12.5935 37.8266C13.0166 37.8992 13.3957 38.1313 13.6528 38.475C13.9099 38.8188 14.0254 39.2481 13.9755 39.6744C13.9689 39.8741 13.9216 40.0704 13.8365 40.2512C13.7513 40.432 13.6302 40.5935 13.4804 40.7258C13.3307 40.8581 13.1555 40.9584 12.9656 41.0206C12.7757 41.0828 12.5751 41.1056 12.3761 41.0875L7.28284 40.3732C6.89021 40.2846 6.54095 40.0615 6.29562 39.7424C6.05029 39.4233 5.92435 39.0285 5.93965 38.6263V38.6263Z" fill="black"/>
<path d="M7.28271 40.3731L12.3527 41.0874C12.5535 41.1089 12.7566 41.0887 12.9493 41.028C13.1419 40.9674 13.32 40.8676 13.4723 40.7349C13.6247 40.6023 13.748 40.4396 13.8345 40.2571C13.9211 40.0746 13.969 39.8762 13.9754 39.6743C14.0259 39.2514 13.9136 38.825 13.6613 38.4818C13.4089 38.1386 13.0354 37.9043 12.6166 37.8265L7.35259 37.1898C7.16166 37.1768 6.97018 37.2053 6.79127 37.2732C6.61236 37.3411 6.45024 37.4469 6.31603 37.5833C6.18183 37.7198 6.0787 37.8836 6.01371 38.0636C5.94872 38.2436 5.92342 38.4355 5.93953 38.6262V38.6262C5.92423 39.0284 6.05016 39.4233 6.29549 39.7423C6.54083 40.0614 6.89009 40.2846 7.28271 40.3731V40.3731Z" fill="black"/>
<path d="M7.6243 31.7552L13.0592 32.3297C13.5047 32.3318 13.9329 32.1573 14.25 31.8445C14.5672 31.5317 14.7476 31.1059 14.7517 30.6604C14.826 30.2006 14.7161 29.73 14.4458 29.3507C14.1755 28.9713 13.7665 28.7138 13.3076 28.634L7.71746 28.1604C7.5059 28.166 7.2977 28.2147 7.10566 28.3037C6.91362 28.3927 6.7418 28.52 6.60074 28.6777C6.45968 28.8355 6.35237 29.0205 6.28539 29.2212C6.2184 29.422 6.19317 29.6343 6.21123 29.8452C6.17987 30.2799 6.3051 30.7114 6.56429 31.0617C6.82347 31.412 7.19948 31.658 7.6243 31.7552V31.7552Z" fill="#FF0000"/>
<path d="M209.312 26.7628L59.8532 3.28418L44.8918 8.3386L194.529 32.6713L209.312 26.7628Z" fill="#CCCCCC"/>
<path opacity="0.38" d="M209.312 26.7628L59.8532 3.28418L44.8918 8.3386L194.529 32.6713L209.312 26.7628Z" fill="white"/>
<path d="M9.36353 184.591L9.79831 195.554L170.903 247.271L171.19 234.545L9.36353 184.591Z" fill="#666666"/>
<path opacity="0.54" d="M9.36353 184.591L9.79831 195.554L170.903 247.271L171.19 234.545L9.36353 184.591Z" fill="#4D4D4D"/>
<path d="M228.389 26.6929V26.8171V27.1199V27.1277L228.955 26.9103L230.268 219.498L229.468 219.879H302.45V26.6929H228.389Z" fill="#808080"/>
<path d="M228.955 26.9104L228.389 27.1278L176.672 46.934L176.625 46.9495L175.5 86.36L173.916 141.912L172.65 186.175L172.441 193.419L170.903 247.271L229.468 219.879L230.268 219.499L228.955 26.9104Z" fill="#1A1A1A"/>
<mask id="mask0_451_2964" style="mask-type:alpha" maskUnits="userSpaceOnUse" x="163" y="113" width="116" height="182">
<path d="M173 186.5L171 248L168 294H278V114L175 123.5V141L164.5 186.5H173Z" fill="#C4C4C4" stroke="black"/>
</mask>
<g mask="url(#mask0_451_2964)">
<path d="M205.38 252.32V222.05H187.48V250.34C189.894 251.516 192.468 252.328 195.12 252.75C198.535 253.287 202.022 253.141 205.38 252.32V252.32Z" fill="#BA6E8A"/>
<path d="M197 251.92C195.084 251.917 193.187 251.547 191.41 250.83C189.974 250.183 188.656 249.301 187.51 248.22V253.88C189.881 256.032 192.797 257.492 195.94 258.1C199.084 258.671 202.326 258.288 205.25 257L205.39 251.69C202.605 252.008 199.798 252.085 197 251.92V251.92Z" fill="#3F2222"/>
<path d="M226.91 244V213.72H241.91V242C239.927 243.157 237.764 243.972 235.51 244.41C232.651 244.944 229.706 244.804 226.91 244V244Z" fill="#BA6E8A"/>
<path d="M234 243.6C235.623 243.594 237.224 243.218 238.68 242.5C239.916 241.83 241.023 240.947 241.95 239.89V245.55C240.074 247.636 237.614 249.109 234.89 249.78C232.227 250.345 229.451 249.952 227.05 248.67L226.94 243.35C229.278 243.676 231.644 243.76 234 243.6V243.6Z" fill="#3F2222"/>
<path d="M153.66 211.73C149.01 204.25 142.66 193.6 145.14 181.15C147.86 167.79 160 156.78 176.82 151C157.93 146.32 138.28 154.46 130.46 170.73C122.09 188.11 129.31 210.44 147.77 221.73C158.643 227.463 169.52 233.187 180.4 238.9C169.649 231.856 160.531 222.592 153.66 211.73V211.73Z" fill="#E5AED6"/>
<path d="M231.58 176.84L185.23 154C182.531 152.73 179.714 151.725 176.82 151C160 156.78 147.86 167.79 145.14 181.15C142.61 193.6 149 204.25 153.66 211.73C160.527 222.607 169.645 231.885 180.4 238.94L192.94 245.54L231.58 176.84Z" fill="#FCC0E6"/>
<path d="M231.58 176.84C233.511 175.53 235.61 174.488 237.82 173.74C240.66 172.74 243.44 171.87 246.5 172.93C247.075 173.13 247.628 173.388 248.15 173.7C250.1 174.8 252.15 176.62 254.22 180.44C256.459 184.187 257.756 188.422 258 192.78C258.129 196.045 257.574 199.302 256.37 202.34C256.19 202.781 255.885 203.159 255.491 203.428C255.098 203.697 254.634 203.844 254.158 203.852C253.682 203.859 253.214 203.726 252.813 203.47C252.411 203.214 252.094 202.845 251.9 202.41V202.35C251.296 201.087 250.583 199.88 249.77 198.74" fill="#BA6E8A"/>
<path d="M253.08 211C253.08 232.5 234.6 250.43 211.81 249.93C188.45 249.39 170.33 232.29 170.54 211C170.75 189.48 189 172.05 211.81 172.05C234.62 172.05 253.08 189.48 253.08 211Z" fill="#FCC0E6"/>
<path d="M195.58 177.42C193.647 176.112 191.549 175.066 189.34 174.31C186.5 173.31 183.72 172.45 180.66 173.5C180.087 173.704 179.535 173.962 179.01 174.27C177.06 175.37 175.01 177.2 172.94 181.01C170.705 184.76 169.405 188.992 169.15 193.35C169.019 196.615 169.574 199.872 170.78 202.91C170.96 203.351 171.266 203.729 171.659 203.998C172.052 204.267 172.516 204.414 172.992 204.421C173.468 204.429 173.936 204.296 174.338 204.04C174.739 203.784 175.056 203.415 175.25 202.98V202.92C175.89 201.679 176.598 200.473 177.37 199.31C178.33 198 181.15 193.84 185 188.23" fill="#BA6E8A"/>
<path d="M233.69 227C235.34 221.79 227.32 215.15 219.03 215C210.45 214.86 202.66 221.78 204.33 227C206.04 232.38 215.33 233.91 219.01 233.92C223.06 233.94 232.17 231.82 233.69 227Z" fill="#BA6E8A"/>
<path d="M212.53 226.79C213.977 226.79 215.15 225.769 215.15 224.51C215.15 223.251 213.977 222.23 212.53 222.23C211.083 222.23 209.91 223.251 209.91 224.51C209.91 225.769 211.083 226.79 212.53 226.79Z" fill="#3F2222"/>
<path d="M225.51 226.79C226.957 226.79 228.13 225.769 228.13 224.51C228.13 223.251 226.957 222.23 225.51 222.23C224.063 222.23 222.89 223.251 222.89 224.51C222.89 225.769 224.063 226.79 225.51 226.79Z" fill="#3F2222"/>
<path d="M234.04 209.03C236.365 209.03 238.25 206.281 238.25 202.89C238.25 199.499 236.365 196.75 234.04 196.75C231.715 196.75 229.83 199.499 229.83 202.89C229.83 206.281 231.715 209.03 234.04 209.03Z" fill="#3F2222"/>
<path d="M201.27 209.03C203.595 209.03 205.48 206.281 205.48 202.89C205.48 199.499 203.595 196.75 201.27 196.75C198.945 196.75 197.06 199.499 197.06 202.89C197.06 206.281 198.945 209.03 201.27 209.03Z" fill="#3F2222"/>
<path d="M215.72 186.79C232.609 186.79 246.3 183.683 246.3 179.85C246.3 176.017 232.609 172.91 215.72 172.91C198.831 172.91 185.14 176.017 185.14 179.85C185.14 183.683 198.831 186.79 215.72 186.79Z" fill="#2D1919"/>
<path d="M236.75 180.68C229.735 181.569 222.671 182.009 215.6 182C208.779 181.983 201.966 181.542 195.2 180.68C195.2 167.18 194.7 161.11 194.7 147.61C200.12 146.21 207.22 146.92 216 147C224.06 147.07 231.13 146.28 236.29 147.61L236.75 180.68Z" fill="#423030"/>
<path d="M215.92 174.37C208.52 174.37 201.58 174.04 195.16 173.51C195.16 175.68 195.16 178.02 195.16 180.64C201.938 181.528 208.765 181.982 215.6 182C222.672 182.012 229.738 181.558 236.75 180.64L236.64 173.5C230.24 174 223.31 174.37 215.92 174.37Z" fill="#872929"/>
<path opacity="0.5" d="M236.24 147.62C232.39 146.62 227.47 146.82 221.87 146.95C222.523 152.824 222.857 158.73 222.87 164.64C222.886 170.405 222.595 176.166 222 181.9C227.33 181.7 232.27 181.27 236.76 180.69L236.24 147.62Z" fill="#2D1919"/>
<path d="M215.5 149.22C226.988 149.22 236.3 148.499 236.3 147.61C236.3 146.721 226.988 146 215.5 146C204.013 146 194.7 146.721 194.7 147.61C194.7 148.499 204.013 149.22 215.5 149.22Z" fill="#574747"/>
<path d="M226.78 242.69L220.62 246.16C220.252 246.37 219.946 246.673 219.734 247.039C219.521 247.406 219.409 247.822 219.409 248.245C219.409 248.669 219.521 249.085 219.734 249.451C219.946 249.817 220.252 250.12 220.62 250.33L226.71 253.93C227.074 254.147 227.488 254.264 227.911 254.269C228.335 254.274 228.752 254.167 229.12 253.959C229.489 253.751 229.796 253.449 230.01 253.084C230.224 252.719 230.338 252.303 230.34 251.88L230.41 244.81C230.421 244.381 230.316 243.957 230.107 243.582C229.898 243.207 229.592 242.895 229.221 242.678C228.85 242.462 228.428 242.348 227.999 242.351C227.57 242.353 227.149 242.47 226.78 242.69V242.69Z" fill="#2D1919"/>
<path d="M218.71 248.23C221.665 247.466 224.77 247.497 227.71 248.32C224.754 249.079 221.65 249.048 218.71 248.23V248.23Z" fill="black"/>
<path d="M208.16 242.5L214.25 246.1C214.615 246.312 214.919 246.616 215.13 246.982C215.34 247.348 215.451 247.763 215.451 248.185C215.451 248.607 215.34 249.022 215.13 249.388C214.919 249.754 214.615 250.058 214.25 250.27L208.09 253.75C207.722 253.957 207.306 254.063 206.884 254.058C206.462 254.054 206.048 253.938 205.685 253.724C205.321 253.509 205.02 253.203 204.812 252.835C204.604 252.468 204.497 252.052 204.5 251.63L204.57 244.55C204.579 244.134 204.695 243.727 204.908 243.369C205.121 243.011 205.423 242.715 205.784 242.508C206.146 242.302 206.555 242.192 206.971 242.191C207.388 242.189 207.797 242.296 208.16 242.5V242.5Z" fill="#2D1919"/>
<path d="M216.12 248.2C213.165 248.964 210.06 248.933 207.12 248.11C210.076 247.351 213.18 247.382 216.12 248.2Z" fill="black"/>
<path d="M218.698 245.337L216.178 245.312C215.073 245.301 214.169 246.187 214.158 247.292L214.14 249.062C214.129 250.166 215.016 251.071 216.12 251.082L218.64 251.107C219.745 251.118 220.649 250.231 220.66 249.127L220.678 247.357C220.689 246.252 219.802 245.348 218.698 245.337Z" fill="#2D1919"/>
<path d="M234 196.35C232.745 196.352 231.518 196.726 230.475 197.425C229.432 198.124 228.62 199.117 228.141 200.277C227.662 201.437 227.537 202.714 227.783 203.945C228.03 205.176 228.635 206.307 229.524 207.194C230.412 208.081 231.544 208.685 232.775 208.929C234.007 209.173 235.283 209.047 236.443 208.566C237.602 208.085 238.593 207.271 239.291 206.227C239.988 205.183 240.36 203.956 240.36 202.7C240.36 201.865 240.196 201.039 239.876 200.268C239.556 199.497 239.087 198.796 238.497 198.206C237.906 197.617 237.205 197.149 236.433 196.831C235.662 196.512 234.835 196.349 234 196.35V196.35ZM234 208C232.944 208 231.912 207.687 231.033 207.1C230.155 206.513 229.471 205.679 229.067 204.704C228.662 203.728 228.557 202.654 228.763 201.618C228.969 200.582 229.477 199.631 230.224 198.884C230.971 198.137 231.923 197.629 232.958 197.423C233.994 197.217 235.068 197.322 236.044 197.727C237.019 198.131 237.853 198.815 238.44 199.693C239.027 200.572 239.34 201.604 239.34 202.66C239.34 204.076 238.778 205.435 237.776 206.436C236.775 207.438 235.416 208 234 208Z" fill="#141414"/>
<g opacity="0.33">
<path opacity="0.68" d="M234 208C234.985 208.002 235.952 207.729 236.79 207.21L228.71 203C228.796 204.348 229.389 205.613 230.371 206.541C231.353 207.469 232.649 207.99 234 208Z" fill="#A3A3A3"/>
<path opacity="0.33" d="M239.27 203.8L230.19 199C229.236 199.991 228.705 201.314 228.71 202.69V203L236.83 207.28C237.453 206.898 237.991 206.392 238.411 205.793C238.831 205.195 239.123 204.516 239.27 203.8V203.8Z" fill="#A3A3A3"/>
<path opacity="0.68" d="M239.38 202.7C239.385 201.632 239.069 200.588 238.474 199.702C237.878 198.816 237.031 198.13 236.041 197.731C235.05 197.332 233.963 197.24 232.92 197.466C231.877 197.693 230.926 198.227 230.19 199L239.27 203.79C239.342 203.431 239.378 203.066 239.38 202.7Z" fill="#A3A3A3"/>
</g>
<path d="M239.36 223.77L238.11 223.8V207L239.36 206.11V223.77Z" fill="#141414"/>
</g>
</svg>
