<svg xmlns="http://www.w3.org/2000/svg" viewBox="0 0 150 98.4"><defs><style>.cls-1{fill:#ba6e8a;}.cls-10,.cls-2{fill:#2d1919;}.cls-3{fill:#fcc0e6;}.cls-4{fill:#c10000;}.cls-5{fill:#3f2222;}.cls-6{fill:#fee8f6;}.cls-7{fill:#d75959;}.cls-8{fill:#423030;}.cls-9{fill:#872929;}.cls-10{opacity:0.5;}.cls-11{fill:#574747;}.cls-12{fill:#141414;}.cls-13{opacity:0.33;}.cls-14,.cls-15{fill:#a3a3a3;}.cls-14{opacity:0.68;}</style></defs><g id="Layer_2" data-name="Layer 2"><g id="Layer_11" data-name="Layer 11"><g id="slit_throat"><path class="cls-1" d="M15.62,27a12.91,12.91,0,0,1-6.07,6.7C4.3,36.41.78,36,0,35.73,2.32,26.65,5.44,21,9.17,20.58c7.1-.87,7.42.72,9.4,4.64"/><path class="cls-1" d="M140.64,39.91a4.39,4.39,0,0,1-3.35-1.73,4.34,4.34,0,0,1-.39-4.71,4.13,4.13,0,0,1,3.44-1.53c-3.52-1.14-9.86,2-12,4.11a.75.75,0,0,1-1,0,.73.73,0,0,1,0-1c2.33-2.34,11.2-7.15,15.26-3.46a4.6,4.6,0,0,1,.51.55,31.52,31.52,0,0,1,6.44,1.81.73.73,0,0,1,.42,1,.74.74,0,0,1-.95.43,33,33,0,0,0-4.93-1.51,4.81,4.81,0,0,1,.23,3.15,4.23,4.23,0,0,1-2.63,2.83A3.72,3.72,0,0,1,140.64,39.91Zm.25-6.52c-1.48,0-2.41.34-2.76.88a2.93,2.93,0,0,0,.33,3,2.4,2.4,0,0,0,4.42-.77,3.85,3.85,0,0,0-.61-3A11.78,11.78,0,0,0,140.89,33.39Z"/><path class="cls-1" d="M126.53,85.21q-3.61-8.73-7.22-17.47L106,73.23a26.67,26.67,0,0,0-.4,7.1,27.43,27.43,0,0,0,3.82,12,58.62,58.62,0,0,0,8.23-2.6A57.27,57.27,0,0,0,126.53,85.21Z"/><path class="cls-2" d="M117.67,89.7a57.9,57.9,0,0,1-8.23,2.6l1.62,3.91a33.26,33.26,0,0,0,17.1-7.06l-1.63-3.94A57.27,57.27,0,0,1,117.67,89.7Z"/><path class="cls-1" d="M55.13,86.75Q51.53,78,47.91,69.29L34.62,74.78a27,27,0,0,0-.4,7.09,27.56,27.56,0,0,0,3.82,12,57,57,0,0,0,17.09-7.09Z"/><path class="cls-2" d="M46.27,91.24A56.64,56.64,0,0,1,38,93.84l1.62,3.92a33.38,33.38,0,0,0,17.1-7.07l-1.63-3.94A56.82,56.82,0,0,1,46.27,91.24Z"/><path class="cls-3" d="M109.75,71.14a36.39,36.39,0,0,0,4,21.77,14.81,14.81,0,0,0,16.38-5.5,16.57,16.57,0,0,1-.49-16.52,56.74,56.74,0,0,1-19.84.25Z"/><path class="cls-3" d="M137.84,47.22c-.22-9.65-4-17.27-10.86-22.6a20.57,20.57,0,0,0-12.63-4.27l-83,0-.93,0C14.2,20.35,0,31.49,0,48,0,66.4,17.72,77.61,29.34,77.89q.5,0,.93,0H36A30.84,30.84,0,0,0,48.86,67.6,17.47,17.47,0,0,1,37.64,77.89h0c0,.94.06,1.92.16,2.94a36.67,36.67,0,0,0,4.1,13.63A14.83,14.83,0,0,0,58.28,89a16.58,16.58,0,0,1-2.44-7.9A16.15,16.15,0,0,1,56,77.89h55.46a48.86,48.86,0,0,0,11-2,47.45,47.45,0,0,0,7-2.67h0a31.93,31.93,0,0,0,6.62-10.78A32.85,32.85,0,0,0,137.84,47.22Z"/><path class="cls-4" d="M48.83,67.6A30.86,30.86,0,0,1,35.94,77.89h1.67A17.47,17.47,0,0,0,48.83,67.6Z"/><path class="cls-5" d="M113.7,92.91l1.32,4a26.6,26.6,0,0,0,16.19-5.75c-.38-1.21-.76-2.44-1.13-3.7a58.39,58.39,0,0,1-7.76,3.3A57.26,57.26,0,0,1,113.7,92.91Z"/><ellipse class="cls-2" cx="21.1" cy="66.15" rx="5.25" ry="3.41"/><g id="Nose"><path class="cls-1" d="M27.3,63.72c.95-3.54-3.14-9.63-7.89-9.72-4.92-.1-9.15,6.26-8.2,9.8s7.38,3.82,7.83,3.83C21.36,67.66,26.43,67,27.3,63.72Z"/><ellipse class="cls-5" cx="15.13" cy="60.81" rx="1.33" ry="2.34"/><ellipse class="cls-5" cx="22.49" cy="60.81" rx="1.33" ry="2.34"/></g><path class="cls-1" d="M33.3,20.53c1.68-2.15,5.43-2.15,5.43-2.15,14.61,1.15,12.5,9,17.25,17.87-.95.14-7.24,1-12.57-2.81a13.24,13.24,0,0,1-5.36-8.1,7.78,7.78,0,0,0-1.57-2.66A8.1,8.1,0,0,0,33.3,20.53Z"/><path class="cls-6" d="M114.39,26.94H70.71a1.48,1.48,0,1,1,0-2.92h43.68a1.48,1.48,0,1,1,0,2.92Z"/><path class="cls-5" d="M41.88,94.46,43.2,98.4a26.43,26.43,0,0,0,16.18-5.75c-.38-1.21-.76-2.44-1.13-3.69a57.6,57.6,0,0,1-16.37,5.5Z"/><path class="cls-7" d="M23.21,72.53a1.25,1.25,0,0,1-1.38-1v-2a2.79,2.79,0,0,1,1.39-.83,2.64,2.64,0,0,1,1.36,0v2.76A1.24,1.24,0,0,1,23.21,72.53Z"/><path class="cls-5" d="M31.72,44.49l2-3.43A1.06,1.06,0,0,0,31.88,40l-1.6,2.77L28.22,40.3a1.06,1.06,0,0,0-1.63,1.36l2.55,3.05-2,3.44a1.06,1.06,0,0,0,.38,1.45,1,1,0,0,0,.63.14,1.05,1.05,0,0,0,.82-.52l1.61-2.77,2.05,2.45a1.06,1.06,0,0,0,.91.38,1.13,1.13,0,0,0,.59-.24,1.06,1.06,0,0,0,.13-1.5Z"/><path class="cls-5" d="M10.58,44.49l2-3.43a1.07,1.07,0,0,0-.38-1.45,1,1,0,0,0-1.45.38L9.13,42.76,7.08,40.3a1.06,1.06,0,0,0-1.5-.13,1.05,1.05,0,0,0-.13,1.49L8,44.71,6,48.15a1.06,1.06,0,0,0,.39,1.45,1,1,0,0,0,.62.14,1.07,1.07,0,0,0,.83-.52l1.6-2.77L11.5,48.9a1,1,0,0,0,.9.38A1.09,1.09,0,0,0,13,49a1.06,1.06,0,0,0,.13-1.5Z"/></g><ellipse class="cls-2" cx="28.36" cy="26.55" rx="23.99" ry="5.44"/><path class="cls-8" d="M44.86,27.21a130.43,130.43,0,0,1-16.6,1,129.08,129.08,0,0,1-16-1c0-10.6-.4-15.36-.4-25.95C16.12.16,21.69.73,28.54.79c6.32,0,11.87-.57,15.92.47Q44.66,14.24,44.86,27.21Z"/><path class="cls-9" d="M28.52,22.26c-5.81,0-11.26-.26-16.3-.68,0,1.71,0,3.55,0,5.59a123.07,123.07,0,0,0,16,1.07,123,123,0,0,0,16.6-1.07l-.09-5.59C39.75,22,34.31,22.26,28.52,22.26Z"/><path class="cls-10" d="M44.46,1.27C41.44.5,37.57.65,33.18.75A126.74,126.74,0,0,1,34,14.62a127.94,127.94,0,0,1-.69,13.55c4.18-.16,8.06-.5,11.58-1Q44.65,14.25,44.46,1.27Z"/><ellipse class="cls-11" cx="28.18" cy="1.26" rx="16.32" ry="1.26"/><path class="cls-2" d="M48.4,81.71l.4-5.32a1.81,1.81,0,0,0-2.6-1.77l-4.8,2.32a1,1,0,0,0-.17.11,1.48,1.48,0,0,0-.53-.58l-3.09,3.92a1,1,0,0,0,.17,0l1.9.15A1.49,1.49,0,0,0,41,79.93a2,2,0,0,0,.16.14l4.41,3A1.8,1.8,0,0,0,48.4,81.71Z"/><path d="M46.63,78.9a12.81,12.81,0,0,0-5.27-.68l0,.58A13,13,0,0,0,46.63,78.9Z"/><path class="cls-2" d="M35.93,73.33l-1.73.76a1.5,1.5,0,0,0-.88,1.19l-.2,0-5.31-.57A1.81,1.81,0,0,0,26,77.2l2.16,4.88a1.81,1.81,0,0,0,3.12.33l3.15-4.3a1.63,1.63,0,0,0,.09-.19,1.51,1.51,0,0,0,1.31.2l.87-4.91A1.45,1.45,0,0,0,35.93,73.33Z"/><path d="M28.84,78.84a13.09,13.09,0,0,0,5-1.88l-.24-.54A13.25,13.25,0,0,0,28.84,78.84Z"/><path class="cls-12" d="M30.43,40.22a5.18,5.18,0,1,0,5.18,5.18A5.18,5.18,0,0,0,30.43,40.22Zm0,9.53a4.35,4.35,0,1,1,4.35-4.35A4.35,4.35,0,0,1,30.43,49.75Z"/><g class="cls-13"><path class="cls-14" d="M30.43,49.75a4.32,4.32,0,0,0,2.28-.64l-6.62-3.49A4.34,4.34,0,0,0,30.43,49.75Z"/><path class="cls-15" d="M34.69,46.29l-7.4-3.9a4.33,4.33,0,0,0-1.21,3,1.62,1.62,0,0,0,0,.22l6.62,3.49A4.36,4.36,0,0,0,34.69,46.29Z"/><path class="cls-14" d="M34.78,45.4a4.35,4.35,0,0,0-7.49-3l7.4,3.9A4.26,4.26,0,0,0,34.78,45.4Z"/></g><polygon class="cls-12" points="34.77 62.58 33.75 62.61 33.75 48.91 34.77 48.18 34.77 62.58"/></g></g></svg>