<svg xmlns="http://www.w3.org/2000/svg" viewBox="0 0 150 99.09"><defs><style>.cls-1{fill:#ba6e8a;}.cls-2,.cls-8{fill:#2d1919;}.cls-3{fill:#fcc0e6;}.cls-4{fill:#3f2222;}.cls-5{fill:#fee8f6;}.cls-6{fill:#423030;}.cls-7{fill:#872929;}.cls-8{opacity:0.5;}.cls-9{fill:#574747;}.cls-10{fill:#141414;}.cls-11{opacity:0.33;}.cls-12,.cls-13{fill:#a3a3a3;}.cls-12{opacity:0.68;}</style></defs><g id="Layer_2" data-name="Layer 2"><g id="Layer_11" data-name="Layer 11"><g id="stunned_pig"><path class="cls-1" d="M15.62,27.71a13,13,0,0,1-6.07,6.71C4.3,37.1.78,36.72,0,36.42c2.32-9.08,5.44-14.69,9.17-15.14,7.1-.88,7.42.71,9.4,4.64"/><path class="cls-1" d="M140.64,40.6a4.39,4.39,0,0,1-3.35-1.73,4.34,4.34,0,0,1-.39-4.71,4.13,4.13,0,0,1,3.44-1.53c-3.52-1.14-9.86,2-12,4.11a.74.74,0,0,1-1-1c2.33-2.34,11.2-7.15,15.26-3.46a4.6,4.6,0,0,1,.51.55,31.52,31.52,0,0,1,6.44,1.81.73.73,0,0,1,.42.95A.74.74,0,0,1,149,36a33,33,0,0,0-4.93-1.51,4.81,4.81,0,0,1,.23,3.15,4.23,4.23,0,0,1-2.63,2.83A3.72,3.72,0,0,1,140.64,40.6Zm.25-6.52c-1.48,0-2.41.34-2.76.88a2.93,2.93,0,0,0,.33,3A2.7,2.7,0,0,0,141.24,39a2.74,2.74,0,0,0,1.64-1.83,3.85,3.85,0,0,0-.61-3A11.78,11.78,0,0,0,140.89,34.08Z"/><path class="cls-1" d="M126.53,85.9q-3.61-8.73-7.22-17.47L106,73.93a26.56,26.56,0,0,0-.4,7.09,27.43,27.43,0,0,0,3.82,12,57,57,0,0,0,17.09-7.09Z"/><path class="cls-2" d="M117.67,90.39a56.64,56.64,0,0,1-8.23,2.6l1.62,3.91a33.12,33.12,0,0,0,9.25-2.4,33.58,33.58,0,0,0,7.85-4.66l-1.63-3.94A57.27,57.27,0,0,1,117.67,90.39Z"/><path class="cls-1" d="M55.13,87.44Q51.53,78.71,47.91,70L34.62,75.47a27,27,0,0,0-.4,7.09,27.56,27.56,0,0,0,3.82,12,55.72,55.72,0,0,0,8.23-2.6A56.82,56.82,0,0,0,55.13,87.44Z"/><path class="cls-2" d="M46.27,91.93A56.64,56.64,0,0,1,38,94.53l1.62,3.92A33.55,33.55,0,0,0,48.91,96a32.9,32.9,0,0,0,7.85-4.66l-1.63-3.94A56.82,56.82,0,0,1,46.27,91.93Z"/><path class="cls-3" d="M37.92,73.37a36.33,36.33,0,0,0,4,21.78,14.83,14.83,0,0,0,16.37-5.5,16.54,16.54,0,0,1-.48-16.52,57.83,57.83,0,0,1-7.94.93A56.69,56.69,0,0,1,37.92,73.37Z"/><path class="cls-4" d="M41.88,95.15l1.32,3.94a26.65,26.65,0,0,0,8.27-1.42,26.31,26.31,0,0,0,7.91-4.33c-.38-1.21-.76-2.44-1.13-3.69a56.43,56.43,0,0,1-7.75,3.29A58,58,0,0,1,41.88,95.15Z"/><path class="cls-3" d="M109.75,71.83a36.39,36.39,0,0,0,4,21.77,14.83,14.83,0,0,0,16.38-5.49,16.59,16.59,0,0,1-.49-16.53,55.87,55.87,0,0,1-7.94.94A57.28,57.28,0,0,1,109.75,71.83Z"/><path class="cls-3" d="M136.05,63.09a32.85,32.85,0,0,0,1.76-15.18c-.22-9.65-4-17.27-10.86-22.6A20.57,20.57,0,0,0,114.32,21l-83,0h0c-.31,0-.62,0-.93,0C14.17,21,0,32.18,0,48.69s13.12,29.9,29.3,29.9c.32,0,.63,0,.94,0v0h81.2a48.86,48.86,0,0,0,11-2,47.45,47.45,0,0,0,7-2.67h0A32,32,0,0,0,136.05,63.09Z"/><path class="cls-4" d="M113.7,93.6l1.32,4a26.6,26.6,0,0,0,16.19-5.75c-.38-1.21-.76-2.44-1.13-3.69a59.77,59.77,0,0,1-7.76,3.29A57.26,57.26,0,0,1,113.7,93.6Z"/><g id="Nose"><path class="cls-1" d="M27.3,64.41c.95-3.54-3.14-9.63-7.89-9.72-4.92-.1-9.15,6.26-8.2,9.8s7.38,3.82,7.83,3.83C21.36,68.36,26.43,67.69,27.3,64.41Z"/><ellipse class="cls-4" cx="15.13" cy="61.5" rx="1.33" ry="2.34"/><ellipse class="cls-4" cx="22.49" cy="61.5" rx="1.33" ry="2.34"/></g><path class="cls-4" d="M35,43.3a4.49,4.49,0,0,0-3.76-.79,3.57,3.57,0,0,0-2.56,2A3.71,3.71,0,0,0,30.17,49a2.84,2.84,0,0,0,3.27-.51,3.05,3.05,0,0,0,.8-2.4.71.71,0,0,0-.74-.63.65.65,0,0,0-.44.2.67.67,0,0,0-.18.52,1.75,1.75,0,0,1-.43,1.35,1.52,1.52,0,0,1-1.71.28A2.4,2.4,0,0,1,30,45a2.33,2.33,0,0,1,1.67-1.21,3,3,0,0,1,2.57.51,3.57,3.57,0,0,1,.56,4.42,3.11,3.11,0,0,1-2,1.43,4.41,4.41,0,0,1-3.09-.37,4.63,4.63,0,0,1-2.35-4c0-2.35,2-4.33,4.74-4.6a.63.63,0,0,0,.43-.21.68.68,0,0,0,.15-.53.72.72,0,0,0-.76-.6C28.53,40.26,26,42.8,26,45.82A6.06,6.06,0,0,0,29.1,51a5.86,5.86,0,0,0,2.73.67,5.46,5.46,0,0,0,1.07-.1h0A4.44,4.44,0,0,0,36,49.48,4.94,4.94,0,0,0,35,43.3Z"/><path class="cls-4" d="M13.62,42.73a4.57,4.57,0,0,0-2.9-1.54,4,4,0,0,0-3.16,1C6.15,43.46,5.27,46,6.33,47.82a3.52,3.52,0,0,0,2.81,1.72,3.21,3.21,0,0,0,2.71-1c1-1.09,1.29-3.23.27-4.35a2.36,2.36,0,0,0-2.84-.45A3.1,3.1,0,0,0,7.87,45.6a.61.61,0,0,0,.41.77.54.54,0,0,0,.43,0A.65.65,0,0,0,9,45.91a1.7,1.7,0,0,1,.77-1,1.19,1.19,0,0,1,1.42.21,2.27,2.27,0,0,1-.26,2.6,2,2,0,0,1-1.7.6,2.35,2.35,0,0,1-1.89-1.14,3.48,3.48,0,0,1,1-4,2.76,2.76,0,0,1,2-.7,3.43,3.43,0,0,1,2.34,1.16,4.22,4.22,0,0,1,.63,4.06,4.49,4.49,0,0,1-5.25,2.7.58.58,0,0,0-.43.06.65.65,0,0,0-.31.43.62.62,0,0,0,.45.76,6.39,6.39,0,0,0,1.3.14,5.67,5.67,0,0,0,5.37-3.67A5.51,5.51,0,0,0,13.62,42.73Z"/><path class="cls-1" d="M33.3,21.22c1.68-2.15,5.43-2.15,5.43-2.15,14.61,1.15,12.5,9,17.25,17.87-.95.14-7.24,1-12.57-2.81A13.24,13.24,0,0,1,38.05,26a7.78,7.78,0,0,0-1.57-2.66A8.1,8.1,0,0,0,33.3,21.22Z"/><path class="cls-5" d="M114.39,27.64H70.71a1.48,1.48,0,1,1,0-2.93h43.68a1.48,1.48,0,1,1,0,2.93Z"/></g><ellipse class="cls-2" cx="28.36" cy="26.55" rx="23.99" ry="5.44"/><path class="cls-6" d="M44.86,27.21a130.43,130.43,0,0,1-16.6,1,129.08,129.08,0,0,1-16-1c0-10.6-.4-15.36-.4-25.95C16.12.16,21.69.73,28.54.79c6.32,0,11.87-.57,15.92.47Q44.66,14.24,44.86,27.21Z"/><path class="cls-7" d="M28.52,22.26c-5.81,0-11.26-.26-16.3-.68,0,1.71,0,3.55,0,5.59a123.07,123.07,0,0,0,16,1.07,123,123,0,0,0,16.6-1.07l-.09-5.59C39.75,22,34.31,22.26,28.52,22.26Z"/><path class="cls-8" d="M44.46,1.27C41.44.5,37.57.65,33.18.75A126.74,126.74,0,0,1,34,14.62a127.94,127.94,0,0,1-.69,13.55c4.18-.16,8.06-.5,11.58-1Q44.65,14.25,44.46,1.27Z"/><ellipse class="cls-9" cx="28.18" cy="1.26" rx="16.32" ry="1.26"/><path class="cls-2" d="M45.12,70.45l-3.93,3.61a1.8,1.8,0,0,0,.68,3.06L47,78.73a1.82,1.82,0,0,0,2.32-2.12L48.11,71.4A1.81,1.81,0,0,0,45.12,70.45Z"/><path d="M40.14,75.9a13.94,13.94,0,0,1,6.62-1.47,13.83,13.83,0,0,1-6.62,1.47Z"/><path class="cls-2" d="M31.42,73.49,36.5,75.1a1.8,1.8,0,0,1,.68,3.06l-3.93,3.61a1.82,1.82,0,0,1-3-1l-1.15-5.2A1.82,1.82,0,0,1,31.42,73.49Z"/><path d="M38.23,76.32a13.84,13.84,0,0,1-6.63,1.47,13.89,13.89,0,0,1,6.63-1.47Z"/><rect class="cls-2" x="36.73" y="73.94" width="4.91" height="4.35" rx="1.51" transform="translate(-15.55 10.29) rotate(-12.5)"/><path class="cls-10" d="M31.6,40.57a5.18,5.18,0,1,0,5.18,5.18A5.18,5.18,0,0,0,31.6,40.57Zm0,9.53A4.35,4.35,0,1,1,36,45.75,4.35,4.35,0,0,1,31.6,50.1Z"/><g class="cls-11"><path class="cls-12" d="M31.6,50.1a4.39,4.39,0,0,0,2.28-.64L27.26,46A4.34,4.34,0,0,0,31.6,50.1Z"/><path class="cls-13" d="M35.86,46.64l-7.39-3.91a4.33,4.33,0,0,0-1.22,3,1.48,1.48,0,0,0,0,.21l6.62,3.5A4.35,4.35,0,0,0,35.86,46.64Z"/><path class="cls-12" d="M36,45.75a4.36,4.36,0,0,0-7.49-3l7.39,3.91A4.41,4.41,0,0,0,36,45.75Z"/></g><polygon class="cls-10" points="35.94 62.92 34.92 62.95 34.92 49.25 35.94 48.53 35.94 62.92"/></g></g></svg>