<svg xmlns="http://www.w3.org/2000/svg" viewBox="0 0 178.67 80.74"><defs><style>.cls-1,.cls-13{fill:#2d1919;}.cls-2{fill:#ba6e8a;}.cls-3{fill:#3f2222;}.cls-4{fill:#fcc0e6;}.cls-5{fill:#fee8f6;}.cls-6{fill:#d44c4c;}.cls-7{fill:#dba2a2;}.cls-8{fill:#fffbe9;}.cls-9{fill:#111;}.cls-10{fill:#e54848;}.cls-11{fill:#423030;}.cls-12{fill:#872929;}.cls-13{opacity:0.5;}.cls-14{fill:#574747;}.cls-15{fill:#141414;}.cls-16{opacity:0.33;}.cls-17,.cls-18{fill:#a3a3a3;}.cls-17{opacity:0.68;}</style></defs><g id="Layer_2" data-name="Layer 2"><g id="Layer_11" data-name="Layer 11"><path class="cls-1" d="M171.93,71.62c-2.36.53-4.92,1-7.68,1.37a85.37,85.37,0,0,1-8.69.69c.37.84.75,1.68,1.16,2.51a2,2,0,0,0,1.58,1.07,33.24,33.24,0,0,0,7.5-.09,33.8,33.8,0,0,0,6.52-1.49,1.45,1.45,0,0,0,.74-2.13C172.67,72.93,172.29,72.29,171.93,71.62Z"/><path class="cls-2" d="M171.93,71.62a37.09,37.09,0,0,1-2.66-6.18,35.08,35.08,0,0,1-1.45-15.32l-15.91-1.86a48.49,48.49,0,0,0,2,21.08c.48,1.47,1,2.91,1.65,4.34a85.37,85.37,0,0,0,8.69-.69C167,72.63,169.57,72.15,171.93,71.62Z"/><path class="cls-1" d="M119.48,73.68c-2.36.54-4.92,1-7.68,1.38-3.1.4-6,.61-8.69.69.36.84.74,1.68,1.15,2.51a2,2,0,0,0,1.58,1.07,33.33,33.33,0,0,0,7.51-.09,33,33,0,0,0,6.51-1.5,1.43,1.43,0,0,0,.74-2.12C120.22,75,119.84,74.36,119.48,73.68Z"/><path class="cls-2" d="M119.48,73.68a35.84,35.84,0,0,1-2.67-6.17,35.23,35.23,0,0,1-1.45-15.32l-15.9-1.86a48.34,48.34,0,0,0,2,21.08c.48,1.46,1,2.91,1.65,4.34,2.68-.08,5.59-.29,8.69-.69C114.56,74.69,117.12,74.22,119.48,73.68Z"/><path class="cls-3" d="M175.77,72.35c-2.33.64-4.87,1.24-7.61,1.73-3.07.55-6,.89-8.64,1.1.4.82.82,1.64,1.27,2.45a2,2,0,0,0,1.62,1A33.38,33.38,0,0,0,177.32,76a.62.62,0,0,0,.25-.93C177,74.21,176.35,73.31,175.77,72.35Z"/><path class="cls-4" d="M175.77,72.35a36.16,36.16,0,0,1-2.94-6,35,35,0,0,1-2.17-15.23l-16-1.11a48.34,48.34,0,0,0,3,20.95c.54,1.45,1.17,2.87,1.85,4.27,2.68-.21,5.57-.55,8.64-1.1C170.9,73.59,173.44,73,175.77,72.35Z"/><path class="cls-3" d="M123.32,74.42c-2.34.64-4.87,1.24-7.61,1.73a85.17,85.17,0,0,1-8.65,1.09c.41.83.83,1.65,1.28,2.46a2,2,0,0,0,1.62,1,33.31,33.31,0,0,0,14.9-2.63.61.61,0,0,0,.25-.93C124.5,76.28,123.89,75.38,123.32,74.42Z"/><path class="cls-4" d="M123.32,74.42a37,37,0,0,1-2.95-6,35.17,35.17,0,0,1-2.16-15.23l-16-1.12a48.07,48.07,0,0,0,3,21c.54,1.45,1.16,2.87,1.84,4.26a85.17,85.17,0,0,0,8.65-1.09C118.45,75.66,121,75.06,123.32,74.42Z"/><path class="cls-4" d="M176.85,45.42a28.3,28.3,0,0,0,1.61-13.48A28.87,28.87,0,0,0,168.68,11a20,20,0,0,0-13.22-4.95L86.17,5.94h0q-.06,26.58-.11,53.18l8.88.06h63.2a19.91,19.91,0,0,0,8.57-1.85l0,0a24.66,24.66,0,0,0,4.43-2.7,3.79,3.79,0,0,1,.3-.4A28,28,0,0,0,176.85,45.42Z"/><path class="cls-5" d="M158.07,13h-37.5a1.58,1.58,0,0,1-1.45-1.68,1.59,1.59,0,0,1,1.45-1.69h37.5a1.59,1.59,0,0,1,1.45,1.69A1.58,1.58,0,0,1,158.07,13Z"/><path class="cls-3" d="M92.27,31.49c.15,13.19-3.31,27.69-6.21,27.63s-5.37-15.2-5.24-27.44C80.94,20.36,83.31,6,86.17,5.94S92.13,19.46,92.27,31.49Z"/><path class="cls-6" d="M90.58,31.57c.12,10.5-2.64,22-4.94,22s-4.27-12.08-4.17-21.83c.1-9,2-20.42,4.25-20.47S90.47,22,90.58,31.57Z"/><path class="cls-7" d="M87.2,46.72a.68.68,0,0,0,.64-.57,78.46,78.46,0,0,0,1.25-14.44,78.12,78.12,0,0,0-1.25-13.39.66.66,0,0,0-.77-.55.7.7,0,0,0-.51.82,77.1,77.1,0,0,1,1.23,13.13,76.3,76.3,0,0,1-1.23,14.16.69.69,0,0,0,.51.82Z"/><path class="cls-8" d="M86.1,30H81.65s0-.07,0-.1a4.23,4.23,0,1,0-7.55,2.62,4.23,4.23,0,1,0,7.55,2.61s0-.06,0-.1H86.1a9.91,9.91,0,0,0,.34-2.44A10,10,0,0,0,86.1,30Z"/><path class="cls-2" d="M28.8,23.59A15.34,15.34,0,0,0,25,22.38c-1.71-.29-3.38-.55-5,.33a5.17,5.17,0,0,0-.87.59,9,9,0,0,0-2.86,4.4,15.6,15.6,0,0,0-1,7.38A13.53,13.53,0,0,0,17,40.39,1.4,1.4,0,0,0,19.51,40v0a14.06,14.06,0,0,1,.89-2.25"/><path class="cls-4" d="M64,38.16A91,91,0,0,0,50.63,12.37L39.84,15.43v0l-.82.22A26.54,26.54,0,1,0,53.49,66.74c.27-.07.54-.16.81-.25v0l14-4A90.47,90.47,0,0,0,64,38.16Z"/><path class="cls-9" d="M52.75,53.65c-.81-1.74-3.63-2.13-6.3-.88s-4.18,3.66-3.37,5.4c.72,1.53,3,2,5.37,1.25a9,9,0,0,0,.93-.37,7.87,7.87,0,0,0,1-.55,1.23,1.23,0,0,1-.59-.62,1.13,1.13,0,1,1,2-1,1.09,1.09,0,0,1,.09.23A3.32,3.32,0,0,0,52.75,53.65Z"/><path class="cls-10" d="M54.49,58h0a5.58,5.58,0,0,0-1.89-1.9c-.88-.5-1.29-.37-1.4-.32a1.27,1.27,0,0,0-.48.4,1.12,1.12,0,0,0-.44.09,1.19,1.19,0,0,0-.49,1.62,1.23,1.23,0,0,0,.59.62c.15-.1.29-.21.43-.32l0,0h0l1.47,1.35a0,0,0,0,0,0,0A1.51,1.51,0,0,0,54,59.36C54.62,58.92,54.83,58.32,54.49,58Z"/><g id="Nose"><path class="cls-2" d="M54.87,50.73c.11-3.61-6-8-11.36-6.63C38,45.56,35,52.86,37,55.87s9.22,1.26,9.73,1.13C49.3,56.3,54.76,54.08,54.87,50.73Z"/><ellipse class="cls-3" cx="41.18" cy="51.66" rx="1.74" ry="1.87" transform="translate(-12.52 13.18) rotate(-15.82)"/><ellipse class="cls-3" cx="49.45" cy="49.32" rx="1.74" ry="1.87" transform="translate(-11.57 15.35) rotate(-15.82)"/></g><path class="cls-2" d="M64.1,18.68a10.76,10.76,0,0,0-4.95-5.85c-3.38-2-8.46-2.78-9.84-.84a2.18,2.18,0,0,0-.38,1.17l.12.05,4.86,4.33a35.94,35.94,0,0,0,3,6.58c1.61,2.81,3.13,5.45,4.66,5.24s2.28-3,2.55-4.13A10.6,10.6,0,0,0,64.1,18.68Z"/><path class="cls-3" d="M33.54,40.74l1.17-3.55a1,1,0,0,0-.63-1.26,1,1,0,0,0-1.26.64l-.95,2.86-2.36-1.87a1,1,0,0,0-1.24,1.57l2.94,2.31L30,45a1,1,0,0,0,.64,1.26,1,1,0,0,0,.6,0,1,1,0,0,0,.66-.64l.94-2.86,2.37,1.86a1,1,0,0,0,.9.18,1,1,0,0,0,.33-1.74Z"/><path class="cls-3" d="M51.94,35.22l1.17-3.55A1,1,0,0,0,51.22,31l-.95,2.86L47.91,32a1,1,0,0,0-1.24,1.57l2.94,2.32-1.18,3.55a1,1,0,0,0,.64,1.26,1,1,0,0,0,.6,0,1,1,0,0,0,.66-.64l.94-2.86,2.37,1.87a1,1,0,0,0,.9.17,1,1,0,0,0,.33-1.74Z"/><ellipse class="cls-1" cx="28.01" cy="27.36" rx="22.56" ry="5.12" transform="translate(-11.1 29.14) rotate(-46.94)"/><path class="cls-11" d="M39.05,16.44A120.26,120.26,0,0,1,29.1,28.51a120.8,120.8,0,0,1-11,10.33C10.84,32,7.31,29.25,0,22.45,2,18.82,6,15.36,10.42,10.69,14.51,6.38,17.65,2.17,21,.06Z"/><path class="cls-12" d="M25.16,24.5c-3.73,4-7.41,7.56-10.93,10.75,1.19,1.08,2.46,2.25,3.87,3.57a117.8,117.8,0,0,0,11-10.31A116.46,116.46,0,0,0,39,16.42l-3.9-3.53C32.19,16.61,28.88,20.51,25.16,24.5Z"/><path class="cls-13" d="M21,.07c-2.48,1.57-4.86,4.32-7.61,7.41a119.94,119.94,0,0,1,10.05,8.36A119.8,119.8,0,0,1,32.27,25c2.58-3,4.84-5.85,6.79-8.56Z"/><ellipse class="cls-14" cx="10.51" cy="11.24" rx="15.35" ry="1.19" transform="translate(-4.88 11.25) rotate(-46.94)"/><path class="cls-15" d="M50.77,31.39A5.18,5.18,0,1,0,56,36.57,5.18,5.18,0,0,0,50.77,31.39Zm0,9.53a4.35,4.35,0,1,1,4.35-4.35A4.35,4.35,0,0,1,50.77,40.92Z"/><g class="cls-16"><path class="cls-17" d="M50.77,40.92a4.32,4.32,0,0,0,2.28-.64l-6.62-3.49A4.34,4.34,0,0,0,50.77,40.92Z"/><path class="cls-18" d="M55,37.46l-7.4-3.9a4.33,4.33,0,0,0-1.21,3,1.62,1.62,0,0,0,0,.22l6.62,3.49A4.36,4.36,0,0,0,55,37.46Z"/><path class="cls-17" d="M55.12,36.57a4.35,4.35,0,0,0-7.49-3l7.4,3.9A4.26,4.26,0,0,0,55.12,36.57Z"/></g><polygon class="cls-15" points="55.11 53.75 54.09 53.78 54.09 40.08 55.11 39.35 55.11 53.75"/></g></g></svg>