<?xml version="1.0" encoding="utf-8"?>
<!-- Generator: Adobe Illustrator 26.0.2, SVG Export Plug-In . SVG Version: 6.00 Build 0)  -->
<svg version="1.1" id="Layer_1" xmlns="http://www.w3.org/2000/svg" xmlns:xlink="http://www.w3.org/1999/xlink" x="0px" y="0px"
	 viewBox="0 0 500 370.8" style="enable-background:new 0 0 500 370.8;" xml:space="preserve">
<style type="text/css">
	.st0{fill:#D1D1D1;}
	.st1{fill:#332429;}
	.st2{fill:#EAEAEA;}
	.st3{fill:#B7B7B7;}
	.st4{fill:#1C1617;}
	.st5{fill:#FFDBB8;}
	.st6{fill:#F9C9D3;}
	.st7{fill:#B27685;}
	.st8{fill:#443237;}
	.st9{fill:#E2A1B0;}
</style>
<g>
	<g id="Tail">
		<path class="st0" d="M486.1,297.5c-0.1,0-0.1,0-0.2,0c-2.5-0.1-4.4-2.2-4.3-4.7c1.4-35.1-0.1-70.5-4.4-105.2
			c-2.1-16.6-4.9-33.3-8.3-49.7c-0.5-2.4,1.1-4.8,3.5-5.3c2.4-0.5,4.8,1.1,5.3,3.5c3.5,16.6,6.3,33.6,8.4,50.5
			c4.4,35.2,5.9,71.1,4.5,106.7C490.5,295.6,488.5,297.5,486.1,297.5z"/>
		<path class="st0" d="M473.2,313.3c2.6-2.4,7.8-16.3,4.3-23.5c-3-7.2-3.2-15.7,6.3-21.5s30.5,15.8,1.5,39.5c0,0,3.1-5.4,1.3-11
			C485.5,305.3,473.2,313.3,473.2,313.3z"/>
	</g>
	<g>
		<path class="st0" d="M168.5,345.7c10.5-0.3,19.9-1.6,27.9-3.3V220.6H130c0,40.5,0,81,0,121.5C140.3,344.3,153.3,346.2,168.5,345.7
			z"/>
		<path class="st1" d="M168.5,345.7c-15.1,0.4-28.2-1.4-38.5-3.6c0,4.4,0,8.8,0,13.2c7.6,2.6,19.4,5.7,34.1,5.6
			c13.7-0.1,24.9-3,32.2-5.6v-12.9C188.4,344.1,179,345.4,168.5,345.7z"/>
	</g>
	<g>
		<path class="st0" d="M412.3,345.7c10.5-0.3,19.9-1.6,27.9-3.3V220.6h-66.3c0,40.5,0,81,0,121.5
			C384.1,344.3,397.1,346.2,412.3,345.7z"/>
		<path class="st1" d="M412.3,345.7c-15.1,0.4-28.2-1.4-38.5-3.6c0,4.4,0,8.8,0,13.2c7.6,2.6,19.4,5.7,34.1,5.6
			c13.7-0.1,24.9-3,32.2-5.6v-12.9C432.2,344.1,422.8,345.4,412.3,345.7z"/>
	</g>
	<path class="st2" d="M460.5,110.9c-3.9-3.9-15.9-15.5-38.9-23.9c0.7,11-21.3,18.6-17.2,38.8c-2,14.5-22.3,27-48.6,30.4
		c-29.5,3.8-60.3-4.4-70.4-19.7c-99.4,1.1-78.8-45.4-38.2-59.6c2.3-0.8,4.4-1.6,6.3-2.5c-29.9,1.6-55.9,4.1-71.5,5.8
		c4.7,8.7,8,18.4,9.4,28.7v12.7h0c0,0,0,0,0,0c0,33.4-42.6,75-86.4,73.4c-1,0-4.5-0.2-9.3-1c-1.2-0.2-2.4-0.5-3.6-0.8
		c0.7,2.4,1.2,5,1.6,7.8c20.9,9.9,36,26.2,39.9,35.1c4.1,9.4-4.3,15.4-8.8,25.6c7.1,4.2,15,7.6,22.5,11c8.6,3.8,15.9,6.2,20.8,7.7
		h222.4c23.5,0,45.1-8.2,62.1-21.8c-52.9-7.1-38.2-47.3-11.9-59.5c28.5-13.2,8.1-34.4,46.3-35.1c0.2,0,0.3,0,0.5,0
		C484.1,148.1,477,127.7,460.5,110.9z"/>
	<g id="Head">
		<path class="st3" d="M104.8,195c43.8,1.6,86.4-40,86.4-73.4c0,0,0,0,0,0h0v-12.7c-1.4-10.3-4.7-20-9.4-28.7
			c-6.8,0.7-11.6,1.3-14,1.6c-54.8,0-99.3,44.4-99.3,99.3v0c3.2-1,8.9-2.2,14.3,0.3c4.8,2.2,7.4,6.4,9,11.8c1.2,0.3,2.4,0.5,3.6,0.8
			C100.2,194.8,103.8,195,104.8,195z"/>
		<path class="st4" d="M47.6,36c-6,1.6-17.2,5.5-28,15.2C6.9,62.7,1.9,75.8,0,81.8c3.4,0.1,10.4-0.2,17.9-4
			c8.3-4.2,12.8-10.3,14.7-13.2C37.6,55.1,42.6,45.6,47.6,36z"/>
		<path class="st5" d="M139.1,30.8c1.7-4.3,4.3-9.7,8.5-15.4C153,8,158.9,3.1,163.3,0c0.9,6.8,1.5,16.1,0,26.9
			C161.4,40.4,157,51,153.5,58C148.7,48.9,143.9,39.8,139.1,30.8z"/>
		<path class="st5" d="M62.6,35.7c-1.7-4.3-4.3-9.7-8.5-15.4C48.7,12.9,42.8,8,38.4,4.9c-0.9,6.8-1.5,16.1,0,26.9
			c1.9,13.6,6.3,24.2,9.8,31.1C53,53.8,57.8,44.7,62.6,35.7z"/>
		<path class="st2" d="M184.8,95.2c-6-43.4-43.8-75.7-86.9-74.8C56,21.2,20.1,53.1,14.3,95.2c0,4.3,0,8.6,0,13c0,0,0,0,0,0
			c0,45.8,38.2,83,85.2,83c47.1,0,85.2-37.2,85.2-83c0,0,0,0,0,0h0V95.2z"/>
		<ellipse class="st6" cx="78.4" cy="156.2" rx="47.8" ry="35.5"/>
		<g>
			<circle class="st7" cx="52.2" cy="157.2" r="6.8"/>
			<circle class="st7" cx="92.7" cy="157.2" r="6.8"/>
		</g>
		<g>
			<ellipse class="st8" cx="42.7" cy="94.4" rx="9.5" ry="17.8"/>
			<ellipse class="st8" cx="129.2" cy="94.4" rx="9.5" ry="17.8"/>
		</g>
		<path class="st4" d="M148.5,36c6,1.6,17.2,5.6,28,15.3c12.6,11.4,17.6,24.6,19.5,30.6c-3.4,0.1-10.4-0.2-17.9-4.1
			c-8.3-4.2-12.8-10.4-14.6-13.2C158.4,55.1,153.4,45.5,148.5,36z"/>
	</g>
	<g>
		<path class="st7" d="M400.1,293.2c2.7,0.1,5.8,0.3,9.2,0.6c2.6-4,4.2-8.5,4.2-13.4h-63.7c0,2.3,0.3,4.5,1,6.6c2.1,1,4.4,2.1,7,3
			C372.5,295.2,383.1,292.7,400.1,293.2z"/>
		<path class="st9" d="M409.4,293.8c-3.5-0.3-6.5-0.5-9.2-0.6c-17-0.5-27.6,2-42.3-3.3c-2.6-0.9-4.9-1.9-7-3
			c0.7,2.5,1.9,4.9,3.4,7.1c-0.8,1.2-1.5,2.6-2.1,4.4c-1.6,4.8-1.4,9.5,0.5,10.5c1.9,1,4.7-2,6.3-6.8c0.3-0.8,0.5-1.5,0.6-2.3
			c1.4,1.2,3,2.3,4.7,3.2c-0.5,1.5-1,3.3-1.2,5.2c-0.6,5.8,0.8,10.8,3.2,11.2c2.4,0.4,4.8-3.9,5.4-9.7c0.1-1.2,0.2-2.4,0.1-3.6
			c3.1,0.9,6.5,1.4,10,1.4c0.6,0,1.2,0,1.7,0c0,0.4,0.1,0.7,0.2,1.1c1,6.6,3.5,11.5,5.4,10.9c2-0.6,2.7-6.4,1.6-13.1c0,0,0,0,0,0
			c3.3-0.8,6.3-2.1,9-3.7c2.8,6.6,6.1,10.8,7.6,9.6c1.6-1.2,0.9-7.3-1.5-14.3C407.1,296.8,408.3,295.4,409.4,293.8z"/>
	</g>
	<g>
		<path class="st2" d="M216.1,354.8V230.4h-66.3c0,41.4,0,82.8,0,124.1c10.8,0.7,22.1,1.1,34,1.2C195,355.7,205.8,355.4,216.1,354.8
			z"/>
		<path class="st1" d="M183.8,355.7c-11.9,0-23.3-0.4-34-1.2c0,3.5,0,7.1,0,10.6c7.6,2.6,19.4,5.7,34.1,5.6
			c13.7-0.1,24.9-3,32.2-5.6v-10.4C205.8,355.4,195,355.7,183.8,355.7z"/>
	</g>
	<g>
		<path class="st2" d="M454.2,354.8V230.4h-66.3c0,41.4,0,82.8,0,124.1c10.8,0.7,22.1,1.1,34,1.2C433.2,355.7,444,355.4,454.2,354.8
			z"/>
		<path class="st1" d="M421.9,355.7c-11.9,0-23.3-0.4-34-1.2c0,3.5,0,7.1,0,10.6c7.6,2.6,19.4,5.7,34.1,5.6
			c13.7-0.1,24.9-3,32.2-5.6v-10.4C444,355.4,433.2,355.7,421.9,355.7z"/>
	</g>
	<g>
		<path class="st0" d="M223.3,252c50.6-0.1,101.2-0.3,151.9-0.4c0.5,3.4,1.3,7.3,2.8,11.4c2.6,7.3,6.3,13,10,17.5H216.1
			c1.8-3.7,3.7-8.4,5.1-14.1C222.5,260.9,223.1,256,223.3,252z"/>
	</g>
	<g>
		<path class="st0" d="M119.3,229.3c-9-4.7-17.1-9.7-24.1-14.8c1.7,12.2,4.5,25.5,14.9,36.3c9.4,9.8,23.8,16.1,37,22
			c0.9,0.4,1.8,0.8,2.6,1.1v-32C140.6,239,130.2,235,119.3,229.3z"/>
	</g>
	<g id="Spots">
		<path class="st4" d="M285.4,136.6c10.1,15.2,40.9,23.5,70.4,19.7c26.3-3.4,46.6-15.9,48.6-30.4c-4.1-20.2,17.9-27.8,17.2-38.8
			c-1.5-0.5-3-1.1-4.6-1.6c-41.8-13.6-109.2-13.8-163.5-11c-1.9,0.8-4,1.7-6.3,2.5C206.6,91.2,185.9,137.7,285.4,136.6z"/>
		<path class="st4" d="M133.3,236.1c-3.8-8.9-18.9-25.1-39.9-35.1c2.3,14.9,2.3,34.8,16.6,49.7c4.1,4.2,9,7.8,14.5,11
			C129.1,251.6,137.4,245.6,133.3,236.1z"/>
		<path class="st4" d="M253,238.5c13.7-3.1,18.4,6.6,26.6,2.9c8.1-3.7,25.8-21.5,23.4-40.7c-2.4-19.3-14.2-7.5-23.8-21
			c-9.5-13.5-38.2-17.9-35.3,17.3c-9,4.5-13.4,16-10.4,26.2C236.2,232.3,244.2,238.7,253,238.5z"/>
		<path class="st4" d="M489.6,181.1L489.6,181.1c-0.3-4.5-1-10.5-2.3-17.1c-0.2,0-0.3,0-0.5,0c-38.2,0.7-17.9,21.9-46.3,35.1
			c-26.3,12.2-41,52.4,11.9,59.5C475,240.4,489.6,212.5,489.6,181.1z"/>
	</g>
</g>
</svg>
