<svg xmlns="http://www.w3.org/2000/svg" viewBox="0 0 269.96 200.19"><defs><style>.cls-1{fill:#8b5e3c;}.cls-2{fill:#754c29;}.cls-3{fill:#332429;}.cls-4{fill:#c49a6c;}.cls-5{fill:#ffdbb8;}.cls-6{fill:#f9c9d3;}.cls-7{fill:#b27685;}.cls-8{fill:#443237;}.cls-9{fill:#e2a1b0;}.cls-10{fill:#fff;}</style></defs><g id="Layer_2" data-name="Layer 2"><g id="Layer_1-2" data-name="Layer 1"><g id="Tail"><path class="cls-1" d="M262.43,160.63h-.1a2.44,2.44,0,0,1-2.34-2.53,343.83,343.83,0,0,0-2.39-56.78c-1.13-9-2.63-18-4.47-26.86a2.44,2.44,0,1,1,4.77-1c1.87,9,3.4,18.15,4.55,27.24a349.13,349.13,0,0,1,2.42,57.58A2.44,2.44,0,0,1,262.43,160.63Z"/><path class="cls-1" d="M255.48,169.17c1.42-1.32,4.21-8.81,2.31-12.69-1.63-3.87-1.71-8.47,3.4-11.63s16.46,8.55.78,21.33a8.29,8.29,0,0,0,.72-5.92C262.14,164.83,255.48,169.17,255.48,169.17Z"/></g><path class="cls-2" d="M91,186.66a83.83,83.83,0,0,0,15-1.79V119.08H70.18v65.61A84.55,84.55,0,0,0,91,186.66Z"/><path class="cls-3" d="M91,186.66a84.55,84.55,0,0,1-20.78-2v7.16a54.72,54.72,0,0,0,35.81,0v-7A83.83,83.83,0,0,1,91,186.66Z"/><path class="cls-2" d="M222.6,186.66a83.83,83.83,0,0,0,15-1.79V119.08H201.82v65.61A84.55,84.55,0,0,0,222.6,186.66Z"/><path class="cls-3" d="M222.6,186.66a84.55,84.55,0,0,1-20.78-2v7.16a54.72,54.72,0,0,0,35.81,0v-7A83.83,83.83,0,0,1,222.6,186.66Z"/><path class="cls-4" d="M248.63,59.89c-2.09-2.13-8.57-8.35-21-12.9.35,6-11.48,10.07-9.29,21-1.09,7.83-12,14.55-26.26,16.4-15.9,2.07-32.53-2.4-38-10.62-53.69.6-42.52-24.52-20.65-32.18,1.25-.44,2.37-.89,3.38-1.34-16.16.84-30.19,2.19-38.62,3.1a45.74,45.74,0,0,1,5.06,15.5v6.83h0c0,18-23,40.5-46.66,39.63a37.53,37.53,0,0,1-5-.55c-.67-.12-1.32-.26-2-.41a34.09,34.09,0,0,1,.87,4.22c11.3,5.37,19.45,14.13,21.53,19,2.18,5.09-2.32,8.33-4.77,13.82a129.19,129.19,0,0,0,12.18,5.94,90.7,90.7,0,0,0,11.23,4.14H210.73a53.4,53.4,0,0,0,33.51-11.78c-28.55-3.82-20.63-25.53-6.43-32.12,15.37-7.13,4.37-18.6,25-19h.27C261.4,79.94,257.54,69,248.63,59.89Z"/><g id="Head"><path class="cls-1" d="M56.58,105.29c23.67.87,46.66-21.6,46.66-39.63h0V58.82a45.74,45.74,0,0,0-5.06-15.5c-3.66.4-6.27.71-7.54.87A53.6,53.6,0,0,0,37,97.79h0a11.2,11.2,0,0,1,7.72.15c2.61,1.18,4,3.45,4.84,6.39.64.15,1.29.29,2,.41A37.53,37.53,0,0,0,56.58,105.29Z"/><path class="cls-1" d="M25.69,19.46A37,37,0,0,0,0,44.18,20.44,20.44,0,0,0,9.69,42a20.57,20.57,0,0,0,7.92-7.13Z"/><path class="cls-5" d="M75.08,16.62A36.92,36.92,0,0,1,88.17,0a52.7,52.7,0,0,1,0,14.5,53,53,0,0,1-5.31,16.8Z"/><path class="cls-5" d="M33.82,19.26A36.83,36.83,0,0,0,29.23,11a36.78,36.78,0,0,0-8.49-8.31A52.71,52.71,0,0,0,26,33.93Z"/><path class="cls-4" d="M99.75,51.42A46.81,46.81,0,0,0,52.83,11,46.78,46.78,0,0,0,7.74,51.42v7c0,24.75,20.59,44.81,46,44.81s46-20.06,46-44.81h0Z"/><ellipse class="cls-6" cx="42.35" cy="84.31" rx="25.81" ry="19.18"/><circle class="cls-7" cx="28.19" cy="84.87" r="3.67"/><circle class="cls-7" cx="50.08" cy="84.87" r="3.67"/><ellipse class="cls-8" cx="23.04" cy="50.95" rx="5.15" ry="9.59"/><ellipse class="cls-8" cx="69.78" cy="50.95" rx="5.15" ry="9.59"/><path class="cls-1" d="M80.17,19.44a37,37,0,0,1,25.62,24.81,20.36,20.36,0,0,1-17.58-9.36Z"/></g><path class="cls-7" d="M216.05,158.32c1.44,0,3.11.14,5,.31a13,13,0,0,0,2.25-7.23H188.89a12.75,12.75,0,0,0,.52,3.55,35.3,35.3,0,0,0,3.77,1.61C201.14,159.38,206.87,158,216.05,158.32Z"/><path class="cls-9" d="M221,158.63c-1.87-.17-3.54-.27-5-.31-9.18-.3-14.91,1.06-22.87-1.76a35.3,35.3,0,0,1-3.77-1.61,13.48,13.48,0,0,0,1.82,3.83,9.6,9.6,0,0,0-1.13,2.36c-.86,2.58-.75,5.11.26,5.66s2.51-1.1,3.38-3.68a9.63,9.63,0,0,0,.33-1.22,17.57,17.57,0,0,0,2.54,1.75,12.44,12.44,0,0,0-.63,2.8c-.33,3.12.43,5.83,1.72,6.05s2.6-2.12,2.93-5.24a11.43,11.43,0,0,0,.07-1.92,19.77,19.77,0,0,0,5.39.74l.93,0c0,.2,0,.4.08.6.57,3.57,1.88,6.21,2.94,5.89s1.45-3.47.88-7.05h0a18.44,18.44,0,0,0,4.88-2c1.51,3.54,3.27,5.81,4.11,5.2s.46-4-.82-7.71A15.58,15.58,0,0,0,221,158.63Z"/><path class="cls-4" d="M116.65,191.54V124.41H80.84v67c5.81.39,12,.62,18.37.63C105.29,192.07,111.11,191.88,116.65,191.54Z"/><path class="cls-3" d="M99.21,192.06c-6.42,0-12.56-.24-18.37-.63v5.75a54.72,54.72,0,0,0,35.81,0v-5.64C111.11,191.88,105.29,192.07,99.21,192.06Z"/><path class="cls-4" d="M245.25,191.54V124.41H209.44v67c5.81.39,11.95.62,18.37.63C233.9,192.07,239.71,191.88,245.25,191.54Z"/><path class="cls-3" d="M227.81,192.06c-6.42,0-12.56-.24-18.37-.63v5.75a54.72,54.72,0,0,0,35.81,0v-5.64C239.71,191.88,233.9,192.07,227.81,192.06Z"/><path class="cls-1" d="M120.56,136.05l82-.24a30.28,30.28,0,0,0,1.5,6.16,31.22,31.22,0,0,0,5.39,9.43H116.65a40.25,40.25,0,0,0,2.76-7.61A39.2,39.2,0,0,0,120.56,136.05Z"/><path class="cls-1" d="M64.43,123.81a105.3,105.3,0,0,1-13-8c.89,6.58,2.44,13.78,8,19.58,5.09,5.3,12.84,8.68,20,11.86.48.22,1,.42,1.43.62V130.62A105.7,105.7,0,0,1,64.43,123.81Z"/><g id="Spots"><path class="cls-10" d="M154.07,73.74c5.46,8.22,22.09,12.69,38,10.62,14.22-1.85,25.17-8.57,26.26-16.4-2.19-10.9,9.64-15,9.29-21-.81-.29-1.64-.58-2.5-.86-22.59-7.35-59-7.45-88.31-5.91-1,.45-2.13.9-3.38,1.34C111.55,49.22,100.38,74.34,154.07,73.74Z"/><path class="cls-10" d="M72,127.5c-2.08-4.82-10.23-13.58-21.53-19,1.22,8.06,1.22,18.79,9,26.85a35.85,35.85,0,0,0,7.8,5.92C69.68,135.83,74.18,132.59,72,127.5Z"/><path class="cls-10" d="M136.62,128.79c7.39-1.65,9.95,3.55,14.34,1.56s13.95-11.6,12.64-22-7.69-4.08-12.83-11.35-20.63-9.65-19.08,9.36c-4.87,2.46-7.21,8.64-5.6,14.15C127.52,125.44,131.85,128.9,136.62,128.79Z"/><path class="cls-10" d="M264.33,97.79h0a73.35,73.35,0,0,0-1.23-9.25h-.27c-20.65.36-9.65,11.83-25,19-14.2,6.59-22.12,28.3,6.43,32.12A53.5,53.5,0,0,0,264.33,97.79Z"/></g></g></g></svg>